<?xml version="1.0" standalone="no"?>
<!DOCTYPE svg PUBLIC "-//W3C//DTD SVG 20010904//EN"
 "http://www.w3.org/TR/2001/REC-SVG-20010904/DTD/svg10.dtd">
<svg version="1.0" xmlns="http://www.w3.org/2000/svg"
 width="823.000000pt" height="845.000000pt" viewBox="0 0 823.000000 845.000000"
 preserveAspectRatio="xMidYMid meet">

<g transform="translate(0.000000,845.000000) scale(0.100000,-0.100000)"
fill="#808181" stroke="none">
<path d="M2730 7760 c-63 -10 -228 -63 -277 -90 -155 -83 -359 -272 -486 -450
-37 -52 -103 -167 -147 -255 -78 -157 -154 -334 -147 -341 7 -7 150 -64 161
-64 6 0 29 33 50 73 100 185 225 332 341 402 102 61 202 88 330 88 71 0 133
-6 175 -17 84 -22 215 -73 263 -103 l37 -23 0 -774 c0 -607 -3 -776 -12 -783
-7 -6 -52 -15 -100 -22 -48 -6 -122 -20 -165 -31 -89 -22 -240 -94 -294 -139
-79 -66 -146 -204 -168 -348 -20 -133 -13 -253 31 -473 11 -58 23 -121 27
-140 8 -41 21 -42 113 -8 l58 21 -6 132 c-10 191 14 274 104 368 58 59 127 87
218 87 74 0 108 -14 151 -63 29 -33 30 -37 36 -172 4 -76 7 -425 7 -776 l0
-639 24 -6 c14 -3 53 -2 88 3 l63 8 6 1790 c3 985 7 1791 7 1793 10 15 54 -44
127 -173 43 -75 105 -202 183 -375 39 -85 94 -204 122 -265 75 -157 331 -706
402 -860 33 -71 85 -182 115 -245 30 -63 80 -169 110 -235 30 -66 82 -175 114
-242 32 -67 59 -124 59 -127 0 -2 -54 14 -120 35 -190 61 -309 80 -495 80
-168 0 -285 -15 -407 -51 -62 -19 -68 -23 -68 -48 0 -15 -3 -58 -7 -96 l-6
-69 29 6 c16 3 73 19 127 36 96 30 270 61 339 61 59 0 263 -39 351 -66 203
-65 337 -152 427 -280 33 -46 193 -374 288 -589 56 -125 232 -475 277 -551
110 -182 249 -330 410 -436 125 -82 295 -158 358 -158 16 0 17 115 17 2270 l0
2270 -95 0 c-69 0 -95 -3 -96 -12 0 -7 0 -348 1 -758 2 -965 -11 -2750 -20
-2750 -4 0 -38 31 -75 69 -112 115 -150 180 -305 521 -96 212 -301 653 -418
900 -63 135 -136 292 -162 350 -27 58 -74 159 -105 225 -164 344 -206 437
-202 441 3 3 41 -6 84 -19 273 -87 624 -100 938 -35 55 11 106 25 113 30 12
10 18 178 7 190 -3 3 -29 -2 -58 -10 -260 -73 -405 -92 -594 -74 -183 18 -271
42 -430 119 -60 29 -114 65 -156 104 -64 58 -66 62 -292 511 -250 497 -286
565 -404 748 -69 109 -180 248 -246 308 -80 73 -206 141 -331 177 -70 21 -116
27 -214 30 -69 2 -150 0 -180 -5z"/>
<path d="M5237 7302 c-257 -257 -467 -471 -467 -474 0 -10 99 -122 116 -131
11 -6 46 21 132 105 65 62 152 144 195 182 l77 69 53 -50 c135 -128 321 -183
545 -162 73 7 103 14 139 36 137 80 256 188 608 551 l119 122 -35 30 c-19 16
-53 39 -75 51 l-42 23 -58 -65 c-101 -112 -187 -189 -242 -216 -109 -53 -209
-17 -360 130 -41 40 -108 116 -149 170 -41 53 -78 97 -82 97 -3 0 -217 -211
-474 -468z"/>
<path d="M2743 3060 c-392 -60 -723 -215 -974 -457 -272 -263 -389 -556 -376
-942 6 -197 30 -307 104 -476 120 -273 412 -534 713 -638 231 -80 492 -112
723 -90 l67 6 0 89 0 89 -77 -8 c-107 -11 -298 -7 -369 7 -249 49 -458 157
-625 322 -134 133 -235 303 -280 473 -27 102 -30 268 -6 373 18 79 87 234 136
306 81 118 237 253 366 318 293 148 663 142 1025 -17 71 -32 261 -135 287
-157 22 -18 125 -78 134 -78 14 0 781 769 777 779 -2 4 -29 32 -60 60 -68 62
-47 71 -223 -88 -68 -61 -128 -111 -134 -111 -6 0 -27 12 -48 26 -87 59 -265
138 -396 174 -218 61 -519 77 -764 40z"/>
</g>
</svg>
