<?xml version="1.0" encoding="UTF-8"?>
<svg version="1.1" xmlns="http://www.w3.org/2000/svg" width="823" height="845">
<path d="M0 0 C0.6084375 0.48855469 1.216875 0.97710937 1.84375 1.48046875 C1.84375 2.14046875 1.84375 2.80046875 1.84375 3.48046875 C2.400625 3.70734375 2.9575 3.93421875 3.53125 4.16796875 C6.50534588 5.85596911 8.56383865 7.94723392 10.84375 10.48046875 C10.84375 11.14046875 10.84375 11.80046875 10.84375 12.48046875 C11.50375 12.48046875 12.16375 12.48046875 12.84375 12.48046875 C14.1328125 13.94140625 14.1328125 13.94140625 15.46875 15.85546875 C15.91476562 16.48195312 16.36078125 17.1084375 16.8203125 17.75390625 C17.84375 19.48046875 17.84375 19.48046875 17.84375 21.48046875 C18.50375 21.48046875 19.16375 21.48046875 19.84375 21.48046875 C21.21313477 23.17016602 21.21313477 23.17016602 22.78515625 25.546875 C23.65430664 26.85325928 23.65430664 26.85325928 24.54101562 28.18603516 C25.15654297 29.12882324 25.77207031 30.07161133 26.40625 31.04296875 C27.03595703 31.99864746 27.66566406 32.95432617 28.31445312 33.93896484 C35.66921025 45.16494393 42.60251557 56.59326213 48.84375 68.48046875 C49.33101562 69.40214844 49.81828125 70.32382813 50.3203125 71.2734375 C53.84375 78.0939464 53.84375 78.0939464 53.84375 81.48046875 C54.50375 81.48046875 55.16375 81.48046875 55.84375 81.48046875 C56.3284375 82.52203125 56.813125 83.56359375 57.3125 84.63671875 C61.69841204 94.02847144 66.21944472 103.3386609 70.89111328 112.59130859 C72.38327381 115.55039064 73.86302123 118.51565356 75.34375 121.48046875 C75.9109375 122.61226562 76.478125 123.7440625 77.0625 124.91015625 C78.3208858 127.43244709 79.57089456 129.95778265 80.8125 132.48828125 C88.45702262 148.02065347 94.59591989 160.43254658 109.84375 169.48046875 C111.13345703 170.27904297 111.13345703 170.27904297 112.44921875 171.09375 C114.51614908 172.2907488 116.41373811 173.1873277 118.65625 173.98046875 C121.34087516 174.94212552 124.00265502 175.93643138 126.65625 176.98046875 C153.92491306 187.05457832 185.98837606 185.89881449 213.2578125 176.3125 C216.11576103 175.39294858 218.86351041 174.83485254 221.84375 174.48046875 C222.84375 175.48046875 222.84375 175.48046875 222.95727539 177.42993164 C222.95203857 178.26258545 222.94680176 179.09523926 222.94140625 179.953125 C222.93818359 180.85224609 222.93496094 181.75136719 222.93164062 182.67773438 C222.92326172 183.62326172 222.91488281 184.56878906 222.90625 185.54296875 C222.90173828 186.49236328 222.89722656 187.44175781 222.89257812 188.41992188 C222.8807511 190.7734994 222.86427025 193.12695352 222.84375 195.48046875 C217.82305568 198.33202815 213.07757805 199.51375354 207.46875 200.54296875 C206.55754395 200.71143311 205.64633789 200.87989746 204.70751953 201.0534668 C187.4607916 204.07902895 170.27830385 205.1831232 152.84375 203.48046875 C152.14314453 203.41311523 151.44253906 203.34576172 150.72070312 203.27636719 C136.67701155 201.85881147 123.13490416 199.27031296 109.84375 194.48046875 C112.68663765 201.80482499 115.80711046 208.97021346 119.09375 216.10546875 C119.57682617 217.15798828 120.05990234 218.21050781 120.55761719 219.29492188 C123.60215393 225.89242694 126.76392186 232.41330314 130.06542969 238.88525391 C132.65415444 243.99751969 134.94541216 249.21062016 137.19799805 254.47802734 C139.56802329 259.97110714 142.21763679 265.29244815 144.93359375 270.62109375 C147.63375074 275.95861338 149.97641487 281.40732625 152.28515625 286.92578125 C153.988153 290.80980893 155.85629497 294.57824163 157.78125 298.35546875 C160.41062016 303.52081107 162.87757758 308.71361838 165.15625 314.04296875 C167.9404971 320.54787978 170.94852328 326.92446145 174.03125 333.29296875 C178.83080044 343.2189688 183.35668345 353.24824645 187.78393555 363.3449707 C190.05839344 368.52139006 192.3769031 373.6401487 194.94750977 378.67602539 C196.45991656 381.72102638 197.76454681 384.85234694 199.09375 387.98046875 C203.80515243 398.8983621 209.00963482 409.6183909 215.03125 419.87890625 C215.84375 421.48046875 215.84375 421.48046875 215.84375 423.48046875 C216.50375 423.48046875 217.16375 423.48046875 217.84375 423.48046875 C219.1328125 424.94140625 219.1328125 424.94140625 220.46875 426.85546875 C220.91476562 427.48195313 221.36078125 428.1084375 221.8203125 428.75390625 C222.84375 430.48046875 222.84375 430.48046875 222.84375 432.48046875 C223.50375 432.48046875 224.16375 432.48046875 224.84375 432.48046875 C224.84375 433.14046875 224.84375 433.80046875 224.84375 434.48046875 C225.83375 434.81046875 226.82375 435.14046875 227.84375 435.48046875 C229.20202971 437.1268684 230.53629251 438.79342682 231.84375 440.48046875 C232.50375 440.81046875 233.16375 441.14046875 233.84375 441.48046875 C233.84337028 440.74025909 233.84299056 440.00004943 233.84259933 439.23740917 C233.82024502 395.41418725 233.80307548 351.59096595 233.79268467 307.76773948 C233.79143389 302.51158217 233.79013958 297.25542487 233.78881836 291.99926758 C233.78842489 290.42958829 233.78842489 290.42958829 233.78802348 288.82819831 C233.78366636 271.86070666 233.77577859 254.89321839 233.7665972 237.92572875 C233.75726182 220.52918323 233.75169464 203.13263948 233.74966151 185.73609155 C233.74828604 174.99238385 233.74393417 164.24868568 233.73583353 153.50498091 C233.73056749 146.14816727 233.72894538 138.79135859 233.73024862 131.4345432 C233.73089223 127.18337839 233.72987199 122.93223029 233.72454453 118.68106842 C233.71971077 114.79573589 233.71941119 110.91043143 233.72285111 107.02509766 C233.72327682 105.61324477 233.72198088 104.20139018 233.71886682 102.78954066 C233.7149031 100.88289656 233.71759352 98.97624198 233.72070217 97.06959629 C233.72032245 96.00675909 233.71994273 94.94392188 233.7195515 93.84887749 C233.84375 91.48046875 233.84375 91.48046875 234.84375 90.48046875 C241.77375 90.48046875 248.70375 90.48046875 255.84375 90.48046875 C255.84375 240.96046875 255.84375 391.44046875 255.84375 546.48046875 C248.90953524 548.79187367 238.87096504 543.52041568 232.5 540.4921875 C214.8238965 531.63199533 197.07413311 519.06365128 185.84375 502.48046875 C185.84375 501.82046875 185.84375 501.16046875 185.84375 500.48046875 C185.18375 500.48046875 184.52375 500.48046875 183.84375 500.48046875 C182.328125 498.390625 182.328125 498.390625 180.59375 495.54296875 C178.4465307 492.0542908 176.27149334 488.63671002 173.90625 485.29296875 C163.49772178 469.735248 156.54305609 451.29962753 148.66015625 434.36328125 C146.55446189 429.85091109 144.41688051 425.35372641 142.28125 420.85546875 C139.79485635 415.61796247 137.32288783 410.37565069 134.90625 405.10546875 C134.44089844 404.1 133.97554688 403.09453125 133.49609375 402.05859375 C132.57449726 400.06289071 131.65551088 398.06595733 130.74658203 396.06445312 C120.65971579 373.89855439 110.00101392 358.18297187 86.46875 348.79296875 C79.69304433 346.32612501 72.82187269 344.28992193 65.84375 342.48046875 C64.61978516 342.155625 64.61978516 342.155625 63.37109375 341.82421875 C41.23996582 336.66155426 19.04508478 340.92636119 -1.94140625 348.58984375 C-4.99265013 349.43514582 -6.28460056 349.65490892 -9.15625 348.48046875 C-9.09566406 347.88621094 -9.03507813 347.29195313 -8.97265625 346.6796875 C-8.32607122 340.28346946 -7.72840654 333.88375261 -7.15625 327.48046875 C7.9585893 321.74323688 22.86234725 319.96662676 38.90991211 320.08935547 C41.40859322 320.10548387 43.90566316 320.08937298 46.40429688 320.0703125 C59.65844235 320.05230836 72.29581092 321.49434083 84.84375 326.04296875 C89.82065572 327.79146896 94.69866101 329.32544877 99.84375 330.48046875 C99.45703125 329.64644531 99.0703125 328.81242187 98.671875 327.953125 C93.90485506 317.6521141 93.90485506 317.6521141 91.96875 313.23046875 C87.50808958 303.14790161 82.74483034 293.19915708 77.78125 283.35546875 C75.13091004 278.09442373 72.53606179 272.8125138 70.03125 267.48046875 C69.48855469 266.32546875 68.94585937 265.17046875 68.38671875 263.98046875 C67.29241227 261.49819379 66.30864501 259.07365321 65.38671875 256.53125 C63.87303825 252.41384084 61.97981043 248.56197186 59.96875 244.66796875 C56.72686086 238.35717665 53.74652453 231.95412558 50.84375 225.48046875 C43.52963497 209.21167783 43.52963497 209.21167783 35.68139648 193.19677734 C32.98817477 187.88165938 30.5805239 182.46366021 28.27661133 176.96923828 C26.92414492 173.78083519 25.46658009 170.73593298 23.7265625 167.74609375 C22.02197778 164.78959412 20.87278446 161.92597544 19.73046875 158.72265625 C18.73005758 156.1929822 17.53144671 153.83431533 16.28125 151.41796875 C13.22848644 145.44879336 10.59981472 139.33304649 7.96875 133.16796875 C4.03147211 123.98590891 -0.28149871 115.19369015 -5.15625 106.48046875 C-6.17751035 104.56402958 -7.19837264 102.6473782 -8.21875 100.73046875 C-11.26841156 95.14362319 -14.68701858 89.81336117 -18.15625 84.48046875 C-19.12203306 102.76509264 -19.32486319 121.0295933 -19.35685861 139.33431625 C-19.36500523 143.39120228 -19.3786517 147.44807072 -19.39157104 151.50494385 C-19.41313576 158.50430233 -19.43135126 165.50366277 -19.44717598 172.5030365 C-19.47005982 182.62248255 -19.49817499 192.74190899 -19.52749526 202.8613382 C-19.57494693 219.28645631 -19.61827052 235.71158254 -19.65893555 252.13671875 C-19.69840551 268.07552723 -19.73985853 284.01432856 -19.78393555 299.953125 C-19.78802196 301.43119075 -19.78802196 301.43119075 -19.79219092 302.93911642 C-19.80587228 307.88333294 -19.81959218 312.82754935 -19.83333123 317.77176571 C-19.94694294 358.67465173 -20.05382885 399.57755327 -20.15625 440.48046875 C-23.45302888 442.12885819 -27.09941044 441.62319613 -30.71875 441.60546875 C-31.51216797 441.60933594 -32.30558594 441.61320312 -33.12304688 441.6171875 C-39.02961933 441.60709942 -39.02961933 441.60709942 -40.15625 440.48046875 C-40.54484684 436.12328042 -40.59274015 431.73925203 -40.71875 427.3671875 C-40.73992889 426.67251562 -40.76110779 425.97784374 -40.78292847 425.2621212 C-41.4163378 403.94512807 -41.2274891 382.61650841 -41.15625 361.29296875 C-40.99278889 329.3274783 -40.99278889 329.3274783 -41.46875 297.3671875 C-41.49122803 296.20548538 -41.51370605 295.04378326 -41.53686523 293.84687805 C-41.57239502 292.79743515 -41.6079248 291.74799225 -41.64453125 290.66674805 C-41.67071533 289.7759404 -41.69689941 288.88513275 -41.72387695 287.96733093 C-42.39727915 284.09415136 -44.16204611 281.39010343 -47.0390625 278.7578125 C-52.22339036 275.62999846 -57.79096149 275.13179036 -63.70703125 276.00390625 C-72.42010475 278.19387317 -78.83223926 281.16546958 -83.67578125 288.91015625 C-88.04306215 297.1916284 -89.46898193 304.64421487 -89.34375 313.91796875 C-89.34310547 314.82095703 -89.34246094 315.72394531 -89.34179688 316.65429688 C-89.31460561 320.82664472 -89.16146942 324.8811797 -88.58203125 329.015625 C-88.15625 332.48046875 -88.15625 332.48046875 -89.15625 334.48046875 C-91.40286022 335.47732852 -93.59652714 336.34740931 -95.90625 337.16796875 C-97.13859375 337.62558594 -98.3709375 338.08320313 -99.640625 338.5546875 C-103.1841122 339.4878058 -104.70596881 339.32456859 -108.15625 338.48046875 C-108.27218506 337.82449707 -108.38812012 337.16852539 -108.50756836 336.49267578 C-109.03308919 333.52969426 -109.56335918 330.56758221 -110.09375 327.60546875 C-110.36735352 326.05666016 -110.36735352 326.05666016 -110.64648438 324.4765625 C-110.82373047 323.49042969 -111.00097656 322.50429688 -111.18359375 321.48828125 C-111.34593506 320.5770752 -111.50827637 319.66586914 -111.67553711 318.72705078 C-112.06298787 316.45852179 -112.06298787 316.45852179 -113.15625 314.48046875 C-118.68897234 290.24956799 -116.17707045 266.09093249 -104.15625 244.48046875 C-103.49625 244.48046875 -102.83625 244.48046875 -102.15625 244.48046875 C-101.929375 243.92359375 -101.7025 243.36671875 -101.46875 242.79296875 C-95.05809875 231.49801179 -81.04201118 226.69964415 -69.29296875 223.3515625 C-61.24763041 221.17733294 -53.25130705 219.79868679 -44.97265625 218.875 C-42.25798437 218.78292758 -42.25798437 218.78292758 -41.15625 217.48046875 C-41.05952305 215.4808542 -41.0343797 213.47776682 -41.03599548 211.47581482 C-41.03462082 210.17024628 -41.03324615 208.86467773 -41.03182983 207.51954651 C-41.03536945 206.05917336 -41.03900427 204.59880044 -41.04272461 203.13842773 C-41.04300647 201.61120607 -41.04284877 200.08398428 -41.0422821 198.5567627 C-41.04199409 194.39785187 -41.04789145 190.23896964 -41.05485606 186.08006549 C-41.06108894 181.73852351 -41.06169335 177.39698094 -41.06288147 173.05543518 C-41.06599498 164.82833293 -41.07420863 156.60124389 -41.08423096 148.37414747 C-41.09539149 139.01033811 -41.10090239 129.64652813 -41.10592639 120.28271377 C-41.11639123 101.01529126 -41.13399105 81.74788106 -41.15625 62.48046875 C-41.93331299 62.33786621 -42.71037598 62.19526367 -43.51098633 62.04833984 C-46.31643798 61.44608045 -48.33183717 60.47560302 -50.84375 59.10546875 C-55.81689777 56.54130489 -60.75167467 54.8759785 -66.15625 53.48046875 C-67.33445312 53.12984375 -68.51265625 52.77921875 -69.7265625 52.41796875 C-86.47595944 48.27469688 -104.82586216 50.85808274 -119.43994141 59.61132812 C-119.99601074 59.95099609 -120.55208008 60.29066406 -121.125 60.640625 C-123.43953995 62.0454553 -125.71283816 63.32463913 -128.15625 64.48046875 C-128.15625 65.14046875 -128.15625 65.80046875 -128.15625 66.48046875 C-128.81625 66.48046875 -129.47625 66.48046875 -130.15625 66.48046875 C-130.424375 67.07859375 -130.6925 67.67671875 -130.96875 68.29296875 C-132.15542406 70.47894729 -133.25224113 71.89379469 -135.15625 73.48046875 C-135.81625 73.48046875 -136.47625 73.48046875 -137.15625 73.48046875 C-137.57729004 74.35529907 -137.57729004 74.35529907 -138.00683594 75.24780273 C-139.08142518 77.33512615 -140.24992601 79.2483217 -141.546875 81.203125 C-142.00658691 81.90179688 -142.46629883 82.60046875 -142.93994141 83.3203125 C-143.42382324 84.05378906 -143.90770508 84.78726563 -144.40625 85.54296875 C-148.26220897 91.4321614 -151.87849912 97.32894682 -155.1328125 103.57421875 C-156.15625 105.48046875 -156.15625 105.48046875 -157.15625 106.48046875 C-163.57959109 106.20119305 -169.74978714 103.95070702 -175.15625 100.48046875 C-176.15096229 98.06683824 -176.24744164 96.80919639 -175.54589844 94.28027344 C-175.2059082 93.49555664 -174.86591797 92.71083984 -174.515625 91.90234375 C-174.13986328 91.02255859 -173.76410156 90.14277344 -173.37695312 89.23632812 C-172.97412109 88.32689453 -172.57128906 87.41746094 -172.15625 86.48046875 C-171.59067383 85.17045898 -171.59067383 85.17045898 -171.01367188 83.83398438 C-165.99848662 72.31857592 -160.60901051 61.25414649 -154.15625 50.48046875 C-153.14856414 48.69311354 -152.14752341 46.90197827 -151.15625 45.10546875 C-150.764375 44.39648438 -150.3725 43.6875 -149.96875 42.95703125 C-149.700625 42.46976563 -149.4325 41.9825 -149.15625 41.48046875 C-148.49625 41.48046875 -147.83625 41.48046875 -147.15625 41.48046875 C-146.6921875 40.30484375 -146.6921875 40.30484375 -146.21875 39.10546875 C-145.15625 36.48046875 -145.15625 36.48046875 -144.15625 34.48046875 C-143.49625 34.48046875 -142.83625 34.48046875 -142.15625 34.48046875 C-141.888125 33.73796875 -141.62 32.99546875 -141.34375 32.23046875 C-140.20348249 29.58984926 -139.06244694 27.62494031 -137.15625 25.48046875 C-136.49625 25.48046875 -135.83625 25.48046875 -135.15625 25.48046875 C-135.15625 24.82046875 -135.15625 24.16046875 -135.15625 23.48046875 C-134.49625 23.48046875 -133.83625 23.48046875 -133.15625 23.48046875 C-132.9190625 22.9184375 -132.681875 22.35640625 -132.4375 21.77734375 C-130.86677303 18.96152833 -128.94153536 17.00091459 -126.65625 14.73046875 C-125.8621875 13.93125 -125.068125 13.13203125 -124.25 12.30859375 C-122.15625 10.48046875 -122.15625 10.48046875 -120.15625 10.48046875 C-119.66125 8.99546875 -119.66125 8.99546875 -119.15625 7.48046875 C-113.78482143 3.48046875 -113.78482143 3.48046875 -111.15625 3.48046875 C-111.15625 2.82046875 -111.15625 2.16046875 -111.15625 1.48046875 C-78.87225467 -24.44248513 -33.36706902 -21.44324877 0 0 Z " fill="#010101" transform="translate(342.15625,83.51953125)"/>
<path d="M0 0 C2.60002603 -0.00962883 5.19923334 -0.04069562 7.79907227 -0.07226562 C22.94649137 -0.16885406 37.89543453 1.35849382 52.38696289 5.99023438 C53.2088208 6.24554932 54.03067871 6.50086426 54.87744141 6.76391602 C67.6668267 10.8580526 79.52283293 16.66213291 91.19946289 23.24023438 C91.19946289 23.90023437 91.19946289 24.56023438 91.19946289 25.24023438 C96.13019428 24.8022611 98.25407292 23.75655423 101.57446289 20.11523438 C104.48776551 17.0346137 107.39975168 14.05312189 110.57446289 11.24023438 C111.20094727 10.68335938 111.82743164 10.12648438 112.47290039 9.55273438 C114.19946289 8.24023438 114.19946289 8.24023438 117.19946289 7.24023438 C117.19946289 6.58023438 117.19946289 5.92023437 117.19946289 5.24023438 C117.85946289 5.24023438 118.51946289 5.24023438 119.19946289 5.24023438 C119.19946289 4.58023438 119.19946289 3.92023437 119.19946289 3.24023438 C122.19946289 1.24023438 122.19946289 1.24023438 124.10180664 1.41210938 C126.68110268 2.43037895 128.57384186 3.78712832 130.76196289 5.49023438 C131.90858398 6.36421875 131.90858398 6.36421875 133.07836914 7.25585938 C135.3618444 9.3921493 136.64774355 11.5440493 138.19946289 14.24023438 C128.13112634 24.4253467 118.04835392 34.59597099 107.94871235 44.75004578 C103.25972264 49.4651574 98.57555757 54.18476942 93.90185547 58.91503906 C89.39348829 63.47763074 84.87310725 68.02799106 80.34404564 72.57003784 C78.61606246 74.30727785 76.89249486 76.0489212 75.17339516 77.79495239 C72.76946387 80.23504351 70.35047533 82.65917228 67.92724609 85.08007812 C67.21586487 85.80943573 66.50448364 86.53879333 65.77154541 87.29025269 C64.7767794 88.27470871 64.7767794 88.27470871 63.76191711 89.27905273 C63.19132726 89.85425156 62.6207374 90.42945038 62.03285694 91.02207947 C59.61585307 92.62799999 58.0472025 92.54013552 55.19946289 92.24023438 C53.05883789 91.13867188 53.05883789 91.13867188 50.94946289 89.61523438 C50.16829102 89.06609375 49.38711914 88.51695312 48.58227539 87.95117188 C47.79594727 87.3865625 47.00961914 86.82195312 46.19946289 86.24023438 C16.61890015 65.7127976 -19.67099299 52.71092141 -55.98803711 57.92773438 C-57.93357865 58.32796006 -59.8707147 58.77002384 -61.80053711 59.24023438 C-62.47149414 59.39621094 -63.14245117 59.5521875 -63.83374023 59.71289062 C-79.6707979 63.45392787 -92.0847418 69.97115811 -104.80053711 80.24023438 C-105.61522461 80.88863281 -106.42991211 81.53703125 -107.26928711 82.20507812 C-119.40506782 92.36671643 -129.84805314 108.79649744 -133.80053711 124.24023438 C-133.97480225 124.88017334 -134.14906738 125.5201123 -134.32861328 126.17944336 C-138.09213007 141.213881 -137.29747243 158.78231869 -131.80053711 173.24023438 C-131.43847168 174.21114014 -131.43847168 174.21114014 -131.0690918 175.20166016 C-127.63204239 184.24391027 -123.28981891 192.00423916 -117.52319336 199.76367188 C-115.80053711 202.24023438 -115.80053711 202.24023438 -115.80053711 204.24023438 C-115.14053711 204.24023438 -114.48053711 204.24023438 -113.80053711 204.24023438 C-112.21459961 205.88476562 -112.21459961 205.88476562 -110.42553711 208.05273438 C-108.56487429 210.30274294 -106.93181008 212.14373723 -104.57397461 213.87695312 C-103.98874023 214.32683594 -103.40350586 214.77671875 -102.80053711 215.24023438 C-102.80053711 215.90023437 -102.80053711 216.56023437 -102.80053711 217.24023438 C-102.14053711 217.24023438 -101.48053711 217.24023438 -100.80053711 217.24023438 C-100.80053711 217.90023437 -100.80053711 218.56023437 -100.80053711 219.24023438 C-100.22819336 219.51867187 -99.65584961 219.79710937 -99.06616211 220.08398438 C-96.83436145 221.2229723 -94.69182837 222.4395982 -92.55053711 223.74023438 C-91.84413086 224.16304687 -91.13772461 224.58585938 -90.40991211 225.02148438 C-89.87881836 225.42367187 -89.34772461 225.82585937 -88.80053711 226.24023438 C-88.80053711 226.90023437 -88.80053711 227.56023437 -88.80053711 228.24023438 C-88.14053711 228.30210937 -87.48053711 228.36398437 -86.80053711 228.42773438 C-83.97867708 229.19198813 -82.59940193 229.95031985 -80.24194336 231.56054688 C-75.64445426 234.49400763 -70.89501812 236.22169469 -65.73803711 237.92773438 C-64.87887695 238.22228516 -64.0197168 238.51683594 -63.13452148 238.8203125 C-50.28324804 243.18915641 -37.86658458 245.4137271 -24.30053711 245.42773438 C-23.18908325 245.42894287 -23.18908325 245.42894287 -22.05517578 245.43017578 C-18.73776367 245.3964432 -15.62245303 245.21396296 -12.33178711 244.72851562 C-8.80053711 244.24023438 -8.80053711 244.24023438 0.19946289 244.24023438 C0.19946289 250.84023438 0.19946289 257.44023438 0.19946289 264.24023438 C-17.30411788 266.18507668 -35.41413489 266.322105 -52.80053711 263.24023438 C-54.61231445 262.94826172 -54.61231445 262.94826172 -56.46069336 262.65039062 C-72.70209723 259.76416849 -87.29587879 253.9621388 -101.80053711 246.24023438 C-103.13130968 245.56847059 -104.46319598 244.89882448 -105.80053711 244.24023438 C-105.80053711 243.58023438 -105.80053711 242.92023438 -105.80053711 242.24023438 C-106.50178711 241.99917969 -107.20303711 241.758125 -107.92553711 241.50976562 C-111.2765637 240.03003242 -113.88356024 238.14151146 -116.80053711 235.92773438 C-117.81116211 235.16847656 -118.82178711 234.40921875 -119.86303711 233.62695312 C-122.71793607 231.30734772 -125.32289785 228.95926128 -127.80053711 226.24023438 C-127.80053711 225.58023438 -127.80053711 224.92023438 -127.80053711 224.24023438 C-128.46053711 224.24023438 -129.12053711 224.24023438 -129.80053711 224.24023438 C-129.80053711 223.58023438 -129.80053711 222.92023438 -129.80053711 222.24023438 C-130.46053711 222.24023438 -131.12053711 222.24023438 -131.80053711 222.24023438 C-151.33452039 204.92731625 -160.96981014 176.53755254 -162.80053711 151.24023438 C-162.95915202 146.80178739 -162.98553796 142.36872446 -162.98803711 137.92773438 C-163.0002832 136.79400391 -163.0125293 135.66027344 -163.02514648 134.4921875 C-163.06322187 112.21808592 -157.0228265 91.36242485 -145.80053711 72.24023438 C-145.14053711 72.24023438 -144.48053711 72.24023438 -143.80053711 72.24023438 C-143.49116211 71.25023437 -143.49116211 71.25023437 -143.17553711 70.24023438 C-140.01001457 63.33363974 -134.68150888 57.87241661 -129.61303711 52.30273438 C-129.08983887 51.72265625 -128.56664062 51.14257812 -128.02758789 50.54492188 C-124.15937626 46.35984743 -124.15937626 46.35984743 -120.80053711 45.24023438 C-120.80053711 44.58023438 -120.80053711 43.92023437 -120.80053711 43.24023438 C-120.14053711 43.24023438 -119.48053711 43.24023438 -118.80053711 43.24023438 C-118.80053711 42.58023438 -118.80053711 41.92023437 -118.80053711 41.24023438 C-117.47460938 39.9909668 -117.47460938 39.9909668 -115.61694336 38.59570312 C-114.94139404 38.08620117 -114.26584473 37.57669922 -113.56982422 37.05175781 C-112.84158447 36.51583008 -112.11334473 35.97990234 -111.36303711 35.42773438 C-110.25424194 34.60644043 -110.25424194 34.60644043 -109.12304688 33.76855469 C-104.18627332 30.15429594 -99.26072036 27.00191384 -93.80053711 24.24023438 C-92.7422168 23.63953125 -91.68389648 23.03882813 -90.59350586 22.41992188 C-80.71940544 16.84294598 -70.52360563 12.87950508 -59.80053711 9.24023438 C-58.6803418 8.84964844 -57.56014648 8.4590625 -56.40600586 8.05664062 C-49.90327675 5.91132435 -43.31456595 4.41773486 -36.61303711 3.05273438 C-35.38339233 2.80197144 -35.38339233 2.80197144 -34.12890625 2.54614258 C-22.75508195 0.33161826 -11.55476326 0.02573683 0 0 Z " fill="#010101" transform="translate(300.800537109375,535.759765625)"/>
<path d="M0 0 C1.32 0 2.64 0 4 0 C5.81300222 1.98951564 7.32976274 3.88118064 8.875 6.0625 C9.75359182 7.25900119 10.6337922 8.45432293 11.515625 9.6484375 C11.93908203 10.2269043 12.36253906 10.80537109 12.79882812 11.40136719 C14.31360632 13.41737686 15.94522415 15.30775084 17.625 17.1875 C20 20 20 20 20 22 C20.66 22 21.32 22 22 22 C23.625 23.375 23.625 23.375 25 25 C25 25.66 25 26.32 25 27 C25.66 27 26.32 27 27 27 C27 27.66 27 28.32 27 29 C27.66 29 28.32 29 29 29 C29 29.66 29 30.32 29 31 C29.66 31 30.32 31 31 31 C31 31.66 31 32.32 31 33 C31.99 33.3403125 31.99 33.3403125 33 33.6875 C36.3082817 35.13487324 39.20117931 36.92695493 42.23046875 38.87890625 C47.1610027 42.00266617 52.32037561 41.8486027 58 41 C61.16502604 39.45695114 63.87759537 37.69690205 66.72265625 35.62890625 C69 34 69 34 72 33 C72 32.34 72 31.68 72 31 C72.66 31 73.32 31 74 31 C74 30.34 74 29.68 74 29 C74.66 29 75.32 29 76 29 C76 28.34 76 27.68 76 27 C76.66 27 77.32 27 78 27 C78.37125 26.17242187 78.37125 26.17242187 78.75 25.328125 C80.24234474 22.54863293 82.03672523 20.2185293 84 17.75 C84.70125 16.85796875 85.4025 15.9659375 86.125 15.046875 C87.053125 14.03367187 87.053125 14.03367187 88 13 C88.66 13 89.32 13 90 13 C90 12.34 90 11.68 90 11 C92.98965642 11.59850402 94.99778498 12.48912049 97.453125 14.28515625 C98.38125 14.95708008 98.38125 14.95708008 99.328125 15.64257812 C99.96234375 16.11115234 100.5965625 16.57972656 101.25 17.0625 C101.8996875 17.53494141 102.549375 18.00738281 103.21875 18.49414062 C104.81653662 19.65723529 106.40881803 20.82788601 108 22 C106.59896549 25.28099409 105.00653684 27.07414935 102.25 29.3125 C98.98779566 32.06738142 96.19891302 34.90769082 93.51953125 38.2265625 C91.4721005 40.61610893 89.22996478 42.77908446 87 45 C85.93308342 46.07566979 84.86713611 47.15230155 83.80200195 48.22973633 C80.65354311 51.41361799 77.49913479 54.59153006 74.3425293 57.76733398 C72.98203391 59.13797377 71.62332623 60.5103902 70.26635742 61.88452148 C68.30330991 63.8716961 66.3339891 65.85245706 64.36328125 67.83203125 C63.75494949 68.45068558 63.14661774 69.0693399 62.51985168 69.70674133 C61.0507112 71.1762751 59.52984713 72.5937742 58 74 C57.34 74 56.68 74 56 74 C56 74.66 56 75.32 56 76 C53.95623745 77.82306038 51.91293963 79.51556366 49.75 81.1875 C49.11537842 81.67855225 48.48075684 82.16960449 47.8269043 82.67553711 C32.29482601 94.49666822 18.99743878 97.37176105 -0.234375 95.72265625 C-15.81619354 93.55851479 -29.17598843 86.30154149 -40 75 C-42.04463814 76.70487631 -44.08569826 78.41375985 -46.125 80.125 C-46.69476562 80.599375 -47.26453125 81.07375 -47.8515625 81.5625 C-50.81090026 84.05103402 -53.61558391 86.58653996 -56.3046875 89.3671875 C-59 92 -59 92 -61 92 C-61 92.66 -61 93.32 -61 94 C-61.66 94 -62.32 94 -63 94 C-63 94.66 -63 95.32 -63 96 C-64.98260426 97.68732277 -66.9832342 99.35366057 -69 101 C-69.33 101.66 -69.66 102.32 -70 103 C-70.66 103 -71.32 103 -72 103 C-72 103.66 -72 104.32 -72 105 C-72.66 105 -73.32 105 -74 105 C-74 105.66 -74 106.32 -74 107 C-75.75 108.6875 -75.75 108.6875 -78 110 C-80.95787723 109.90756634 -81.99341799 109.00566784 -84.25 107.0625 C-86 105 -86 105 -86 103 C-86.66 103 -87.32 103 -88 103 C-88 102.34 -88 101.68 -88 101 C-88.66 101 -89.32 101 -90 101 C-90 100.34 -90 99.68 -90 99 C-90.66 99 -91.32 99 -92 99 C-92.75759888 96.8001709 -92.75759888 96.8001709 -93 94 C-91.36959839 91.64807129 -91.36959839 91.64807129 -88.87841797 89.19726562 C-87.95350555 88.2728064 -87.02859314 87.34834717 -86.07565308 86.39587402 C-85.04813518 85.39901927 -84.02030546 84.40248586 -82.9921875 83.40625 C-81.94767931 82.37294068 -80.90449414 81.33829243 -79.86257935 80.30236816 C-77.11230647 77.57501447 -74.34451835 74.86612927 -71.57269287 72.16070557 C-68.76959859 69.41868175 -65.9831046 66.65990863 -63.1953125 63.90234375 C-58.27418392 59.03863837 -53.33863215 54.18999903 -48.39230347 49.35192871 C-43.5798043 44.76027179 -43.5798043 44.76027179 -39.3125 39.6875 C-38.879375 39.130625 -38.44625 38.57375 -38 38 C-37.34 38 -36.68 38 -36 38 C-36 37.34 -36 36.68 -36 36 C-34.01739574 34.31267723 -32.0167658 32.64633943 -30 31 C-29.67 30.34 -29.34 29.68 -29 29 C-28.34 29 -27.68 29 -27 29 C-27 28.34 -27 27.68 -27 27 C-26.34 27 -25.68 27 -25 27 C-25 26.34 -25 25.68 -25 25 C-22.625 22.375 -22.625 22.375 -20 20 C-19.34 20 -18.68 20 -18 20 C-18 19.34 -18 18.68 -18 18 C-17.34 18 -16.68 18 -16 18 C-16 17.34 -16 16.68 -16 16 C-13.625 13.375 -13.625 13.375 -11 11 C-10.34 11 -9.68 11 -9 11 C-9 10.34 -9 9.68 -9 9 C-8.34 9 -7.68 9 -7 9 C-7 8.34 -7 7.68 -7 7 C-4.625 4.375 -4.625 4.375 -2 2 C-1.34 2 -0.68 2 0 2 C0 1.34 0 0.68 0 0 Z " fill="#010101" transform="translate(569,67)"/>
</svg>
