<?xml version="1.0" standalone="no"?>
<!DOCTYPE svg PUBLIC "-//W3C//DTD SVG 20010904//EN"
 "http://www.w3.org/TR/2001/REC-SVG-20010904/DTD/svg10.dtd">
<svg version="1.0" xmlns="http://www.w3.org/2000/svg"
 width="512.000000pt" height="512.000000pt" viewBox="0 0 512.000000 512.000000"
 preserveAspectRatio="xMidYMid meet">

<g transform="translate(0.000000,512.000000) scale(0.100000,-0.100000)"
fill="#808181" stroke="none">
<path d="M486 4567 c-65 -36 -68 -44 -202 -543 -42 -157 -45 -174 -34 -214 16
-58 66 -105 133 -125 29 -8 255 -76 503 -151 l451 -136 16 -52 c22 -67 65
-135 124 -191 49 -47 48 -47 311 -125 l73 -22 -8 -127 c-4 -69 -8 -202 -8
-296 1 -153 3 -176 23 -227 13 -31 43 -79 66 -105 79 -87 125 -107 533 -229
206 -62 377 -114 378 -116 5 -5 -21 -314 -52 -623 -37 -375 -37 -385 -19 -449
18 -61 65 -122 105 -138 14 -5 220 -68 456 -140 474 -143 513 -150 593 -109
93 47 132 141 173 411 28 180 30 221 35 545 7 573 10 646 26 685 34 80 170
169 338 221 41 13 77 24 79 26 2 1 -12 26 -30 55 -47 72 -46 119 5 218 47 93
136 227 192 289 60 67 146 193 137 202 -5 4 -62 24 -127 43 -66 20 -121 37
-122 39 -1 1 -39 86 -84 188 l-81 186 -60 17 c-32 9 -61 16 -64 16 -3 0 -19
-25 -36 -55 -17 -30 -36 -55 -42 -55 -7 -1 -607 178 -1335 397 l-1324 398 -91
112 -92 112 -95 31 c-52 16 -99 30 -106 30 -6 0 -25 -29 -43 -65 -17 -36 -36
-65 -42 -65 -6 0 -130 36 -275 80 -144 44 -280 80 -301 80 -21 0 -56 -10 -77
-23z m1764 -796 c877 -264 1606 -486 1620 -493 64 -34 29 -130 -44 -119 -25 4
-3195 958 -3224 971 -32 14 -48 54 -34 85 13 27 47 46 72 40 8 -2 733 -220
1610 -484z m328 -980 c200 -60 366 -112 369 -114 6 -7 -28 -471 -36 -478 -6
-6 -505 141 -594 175 -53 20 -122 77 -143 118 -13 26 -15 54 -9 182 4 83 9
162 10 176 2 14 4 33 4 43 1 13 6 17 19 13 9 -3 181 -55 380 -115z m1039 -436
c214 -65 253 -90 272 -178 8 -31 -4 -325 -44 -1112 -8 -156 -24 -201 -84 -240
-72 -48 -104 -45 -353 30 -123 37 -235 73 -249 81 -41 21 -87 80 -95 121 -8
40 129 1180 149 1238 25 76 114 131 194 119 18 -3 112 -29 210 -59z"/>
</g>
</svg>
