<?xml version="1.0" standalone="no"?>
<!DOCTYPE svg PUBLIC "-//W3C//DTD SVG 20010904//EN"
 "http://www.w3.org/TR/2001/REC-SVG-20010904/DTD/svg10.dtd">
<svg version="1.0" xmlns="http://www.w3.org/2000/svg"
 width="750.000000pt" height="750.000000pt" viewBox="0 0 750.000000 750.000000"
 preserveAspectRatio="xMidYMid meet">

<g transform="translate(0.000000,750.000000) scale(0.100000,-0.100000)"
fill="#000000" stroke="none">
<path d="M5178 6362 c-112 -82 -358 -262 -546 -400 -189 -139 -348 -254 -354
-255 -5 -1 -24 43 -43 98 -51 154 -131 334 -175 389 -67 87 -316 292 -367 302
-24 5 -61 -10 -199 -81 -535 -277 -1119 -626 -1404 -841 -360 -271 -550 -680
-615 -1325 l-7 -67 -50 -6 c-65 -9 -236 -65 -333 -110 -199 -92 -337 -238
-380 -403 -15 -56 -21 -174 -9 -186 3 -3 35 6 71 19 111 42 189 55 318 55 131
0 238 -22 324 -66 117 -60 295 -250 370 -395 81 -158 105 -272 106 -500 l0
-175 -34 -70 c-45 -93 -133 -181 -223 -224 -81 -38 -202 -66 -357 -81 -182
-17 -263 -40 -414 -116 -269 -136 -418 -334 -434 -579 -5 -79 10 -222 26 -238
4 -4 27 22 51 58 152 234 376 303 768 240 423 -69 638 -66 817 10 133 57 273
169 347 278 79 116 141 268 204 496 l34 124 0 556 c0 306 3 640 7 744 l6 187
371 0 c204 0 377 -4 384 -9 11 -7 13 -117 10 -597 l-3 -589 -27 -58 c-16 -35
-54 -86 -93 -126 l-66 -68 138 -109 c125 -99 351 -313 527 -502 38 -40 72 -71
77 -70 14 5 1118 973 1118 981 1 4 -26 25 -59 47 l-61 39 -48 -30 c-26 -16
-64 -32 -84 -36 l-37 -6 0 573 0 573 154 206 c210 282 266 362 266 377 0 11
-39 14 -200 14 l-200 0 0 733 0 732 50 34 c39 26 55 32 77 27 29 -8 122 -68
339 -222 l131 -93 5 -1638 5 -1638 27 -88 c31 -105 81 -212 136 -294 75 -113
258 -267 349 -293 20 -6 40 -3 67 10 37 17 654 593 654 610 0 10 -99 100 -110
100 -5 0 -22 -11 -38 -25 -17 -14 -34 -25 -38 -25 -5 0 -20 -9 -34 -20 -55
-43 -75 -24 -183 171 l-37 66 0 1499 0 1499 29 77 c43 111 102 224 155 296 58
79 65 96 73 188 l6 74 -26 0 c-63 0 -186 -60 -299 -146 l-56 -44 -259 182
c-257 181 -475 328 -486 328 -3 0 -97 -67 -209 -148z m-1954 -479 c81 -43 153
-111 196 -187 l30 -51 0 -602 0 -603 -228 0 -228 0 -140 -206 -139 -206 -8 88
c-4 49 -6 366 -5 704 3 597 4 617 24 666 27 65 180 300 236 360 79 86 148 96
262 37z m-619 -260 c-12 -32 -43 -123 -68 -203 l-45 -145 -6 -1375 c-4 -756
-10 -1432 -16 -1501 -20 -272 -101 -366 -374 -433 -38 -10 -80 -15 -95 -11
-76 18 -131 37 -131 45 0 5 28 29 63 54 126 90 257 247 318 383 l30 64 6 1372
6 1372 55 95 c30 52 75 120 101 150 44 53 172 190 177 190 1 0 -8 -26 -21 -57z
m2038 -115 c4 -83 7 -361 7 -618 l0 -467 -107 -6 c-58 -4 -145 -7 -193 -7
l-87 0 -6 122 c-4 66 -7 287 -7 489 l0 367 188 136 c103 74 190 135 193 136 3
0 9 -68 12 -152z m7 -2432 l0 -724 -49 -36 c-58 -43 -147 -86 -178 -86 -27 0
-81 75 -116 161 -22 54 -22 58 -25 732 l-3 677 186 0 185 0 0 -724z"/>
</g>
</svg>
