<?xml version="1.0" standalone="no"?>
<!DOCTYPE svg PUBLIC "-//W3C//DTD SVG 20010904//EN"
 "http://www.w3.org/TR/2001/REC-SVG-20010904/DTD/svg10.dtd">
<svg version="1.0" xmlns="http://www.w3.org/2000/svg"
 width="600.000000pt" height="600.000000pt" viewBox="0 0 600.000000 600.000000"
 preserveAspectRatio="xMidYMid meet">

<g transform="translate(0.000000,600.000000) scale(0.100000,-0.100000)"
fill="#000000" stroke="none">
<path d="M2780 4713 c-470 -240 -1020 -573 -1205 -730 -244 -208 -378 -509
-429 -963 l-12 -105 -44 -7 c-70 -10 -225 -64 -303 -106 -82 -42 -184 -134
-220 -195 -14 -23 -32 -66 -41 -96 -16 -53 -22 -152 -10 -163 3 -4 25 2 48 13
125 55 291 67 426 31 98 -27 133 -47 225 -134 177 -165 255 -349 258 -608 2
-133 1 -136 -30 -202 -75 -158 -206 -228 -469 -248 -97 -7 -141 -16 -218 -44
-163 -58 -301 -156 -372 -262 -74 -113 -100 -221 -84 -349 15 -116 17 -117 53
-55 112 195 303 256 628 201 307 -53 498 -53 623 -1 253 106 368 260 464 625
l26 100 4 598 3 597 310 0 c240 0 309 -3 309 -12 0 -7 0 -218 0 -469 0 -384
-2 -462 -15 -499 -18 -52 -54 -103 -104 -147 l-36 -33 30 -22 c193 -146 298
-242 471 -432 l91 -98 129 114 c71 62 275 241 453 397 l323 284 -52 33 -53 33
-31 -23 c-17 -13 -48 -27 -68 -30 l-38 -7 0 457 0 456 170 228 c93 125 171
234 172 241 4 17 7 16 -172 18 l-150 1 0 583 0 583 28 20 c70 52 54 57 262
-88 l189 -133 3 -1305 3 -1305 22 -80 c53 -186 153 -328 301 -425 109 -72 124
-70 226 28 45 42 163 154 262 249 l181 172 -41 40 c-48 47 -56 49 -81 21 -10
-11 -23 -20 -28 -20 -6 0 -18 -6 -26 -14 -9 -7 -26 -17 -37 -20 -19 -6 -29 6
-83 100 l-61 106 0 1199 0 1198 30 83 c31 84 88 187 139 248 24 29 30 48 36
108 l7 72 -26 0 c-46 0 -150 -49 -213 -100 -34 -28 -65 -50 -68 -50 -4 0 -137
93 -296 206 -160 113 -295 203 -302 200 -7 -3 -210 -151 -452 -329 l-440 -323
-18 64 c-19 68 -83 225 -124 304 -23 43 -114 129 -238 224 -88 68 -75 68 -215
-3z m-261 -428 c29 -14 70 -38 91 -55 46 -36 108 -126 110 -160 1 -14 2 -233
1 -487 l-1 -463 -183 0 -182 0 -115 -170 -115 -169 -5 552 c-6 629 -11 585 83
734 97 156 148 216 192 229 57 17 64 17 124 -11z m-468 -203 c-11 -21 -37 -94
-58 -163 l-38 -124 -5 -1175 c-6 -1266 -3 -1201 -57 -1320 -33 -72 -76 -105
-183 -139 -52 -17 -108 -31 -125 -31 -37 0 -135 28 -135 38 0 4 21 20 47 37
105 66 219 202 266 316 l22 54 5 1095 5 1095 34 60 c19 33 44 75 56 93 23 34
173 202 181 202 2 0 -4 -17 -15 -38z m1626 -978 c-1 -2 -72 -4 -157 -5 l-155
-1 -3 390 -2 390 157 114 158 113 3 -499 c1 -274 1 -500 -1 -502z m3 -1074 l0
-579 -46 -35 c-52 -40 -126 -71 -148 -63 -8 3 -29 30 -46 59 -60 105 -60 103
-60 668 0 283 0 518 0 523 0 4 68 7 150 7 l150 0 0 -580z"/>
</g>
</svg>
