<?xml version="1.0" standalone="no"?>
<!DOCTYPE svg PUBLIC "-//W3C//DTD SVG 20010904//EN"
 "http://www.w3.org/TR/2001/REC-SVG-20010904/DTD/svg10.dtd">
<svg version="1.0" xmlns="http://www.w3.org/2000/svg"
 width="743.000000pt" height="617.000000pt" viewBox="0 0 743.000000 617.000000"
 preserveAspectRatio="xMidYMid meet">

<g transform="translate(0.000000,617.000000) scale(0.100000,-0.100000)"
fill="#000000" stroke="none">
<path d="M0 3085 l0 -3085 3715 0 3715 0 0 3085 0 3085 -3715 0 -3715 0 0
-3085z m3545 1703 c48 -34 110 -87 137 -118 62 -69 124 -194 140 -283 9 -46
17 -66 25 -63 7 3 77 47 155 98 79 52 184 120 233 152 50 31 162 104 250 161
87 57 164 101 170 97 5 -3 119 -79 252 -169 132 -90 245 -163 250 -163 5 0 48
29 97 65 48 36 93 65 100 65 6 0 23 -12 39 -25 l27 -24 -59 -81 c-73 -98 -118
-187 -131 -261 -16 -86 -8 -2093 8 -2140 37 -110 89 -134 160 -74 l42 37 41
-33 41 -32 -224 -224 c-122 -122 -229 -223 -237 -223 -32 0 -141 70 -202 130
-73 72 -115 149 -145 265 -17 65 -18 147 -21 1180 l-4 1110 -167 126 -168 127
-39 -20 c-22 -12 -41 -22 -43 -23 -1 -1 -2 -231 -2 -511 l0 -509 129 -3 130
-3 -130 -180 -130 -180 -2 -420 c-1 -230 -1 -419 0 -419 1 0 25 20 53 44 l52
44 33 -36 c18 -21 33 -41 34 -45 1 -4 -168 -159 -375 -343 l-377 -336 -30 39
c-88 109 -310 316 -429 402 -61 44 -62 65 -4 113 24 21 53 57 65 81 20 42 21
57 21 455 l0 412 -265 0 -265 0 0 -494 c0 -296 -4 -526 -11 -573 -14 -104 -61
-242 -111 -328 -58 -98 -175 -212 -266 -258 -151 -75 -268 -82 -532 -32 -197
38 -319 43 -407 17 -80 -25 -148 -78 -189 -148 -19 -33 -32 -44 -50 -44 -21 0
-24 4 -24 38 1 76 30 196 64 268 78 163 205 252 421 293 305 57 319 61 373 94
66 39 138 117 163 175 62 144 39 365 -56 528 -40 69 -160 186 -224 218 -63 32
-162 55 -217 50 -126 -11 -162 -17 -217 -34 -34 -11 -63 -17 -65 -15 -9 8 22
113 51 175 36 77 121 166 193 203 58 29 137 54 219 67 32 5 59 11 61 13 2 2 6
34 9 73 25 285 78 482 177 649 50 84 215 253 308 315 76 51 980 550 996 550 6
0 51 -28 99 -62z"/>
<path d="M2969 4423 c-92 -96 -147 -199 -173 -326 -13 -62 -16 -155 -16 -508
l0 -433 91 132 90 132 175 0 174 0 0 445 c0 484 1 473 -57 526 -36 34 -65 49
-128 65 -87 24 -105 19 -156 -33z"/>
<path d="M3988 4247 l-158 -102 0 -362 0 -363 160 0 160 0 0 465 c0 256 -1
465 -2 465 -2 0 -74 -46 -160 -103z"/>
<path d="M2690 4276 c-97 -78 -157 -174 -191 -304 -18 -72 -19 -117 -20 -797
-2 -730 -6 -900 -29 -996 -31 -133 -109 -253 -207 -318 l-45 -30 44 -12 c59
-16 163 -16 221 0 99 28 180 134 192 251 3 30 7 498 8 1040 l2 985 23 74 c12
40 32 91 43 112 10 21 18 39 17 39 -2 0 -28 -20 -58 -44z"/>
<path d="M3832 2593 c3 -428 4 -460 22 -493 23 -42 38 -55 94 -81 48 -23 43
-24 135 50 l67 55 0 463 0 463 -161 0 -160 0 3 -457z"/>
</g>
</svg>
