<?xml version="1.0" standalone="no"?>
<!DOCTYPE svg PUBLIC "-//W3C//DTD SVG 20010904//EN"
 "http://www.w3.org/TR/2001/REC-SVG-20010904/DTD/svg10.dtd">
<svg version="1.0" xmlns="http://www.w3.org/2000/svg"
 width="487.000000pt" height="480.000000pt" viewBox="0 0 487.000000 480.000000"
 preserveAspectRatio="xMidYMid meet">

<g transform="translate(0.000000,480.000000) scale(0.100000,-0.100000)"
fill="#000000" stroke="none">
<path d="M0 4455 c0 -302 5 -376 22 -337 5 11 76 42 98 42 10 0 22 5 25 10 4
6 10 8 15 5 5 -3 22 3 37 14 16 11 47 22 70 25 23 3 51 11 62 18 15 9 25 9 44
1 20 -10 26 -9 31 3 3 8 16 14 30 14 14 0 28 5 31 10 7 12 65 14 65 2 0 -4 11
-9 25 -10 18 -1 23 2 19 13 -5 12 7 15 70 15 42 0 76 -4 76 -9 0 -9 38 -7 68
4 17 6 43 -5 36 -16 -7 -12 10 -11 22 1 8 8 15 6 24 -5 16 -19 41 -20 34 -1
-3 8 -1 17 5 21 11 6 14 -9 15 -74 1 -20 7 -36 15 -39 8 -3 11 0 7 7 -4 6 -2
11 3 11 6 0 11 -7 11 -15 0 -8 -9 -15 -20 -15 -23 0 -25 -13 -9 -59 9 -25 8
-42 -4 -79 -8 -26 -18 -58 -22 -72 -7 -24 -6 -24 7 -5 17 23 40 85 63 170 21
77 131 288 189 364 67 87 132 140 268 222 206 122 283 109 -635 109 l-797 0 0
-345z"/>
<path d="M2895 4712 c188 -181 296 -351 400 -627 55 -148 85 -261 105 -405 11
-74 24 -153 30 -175 5 -22 21 -89 35 -150 14 -60 45 -164 69 -230 47 -127 83
-287 93 -414 7 -95 -23 -240 -70 -333 -36 -74 -46 -64 -18 18 10 33 25 102 32
155 11 86 10 106 -5 170 -21 90 -47 164 -86 244 -16 33 -50 112 -75 175 -25
63 -56 135 -67 160 -20 44 -21 44 -28 19 -7 -23 28 -260 44 -299 3 -8 8 -40
10 -70 3 -30 10 -82 16 -114 6 -33 9 -67 8 -75 -7 -31 -58 150 -78 276 -12 71
-30 157 -40 193 -11 36 -24 103 -30 150 -6 47 -26 137 -44 202 -26 91 -43 130
-79 181 -25 36 -48 76 -52 89 -4 12 -11 28 -16 34 -5 6 -17 34 -27 60 -22 65
-162 309 -184 323 -14 8 -23 6 -44 -14 -18 -17 -31 -22 -38 -16 -7 6 -18 6
-25 2 -14 -9 -28 3 -121 110 -121 139 -123 140 -134 129 -20 -20 -34 -9 -56
44 -16 42 -30 58 -58 72 -20 10 -44 24 -52 30 -24 18 -80 34 -80 23 0 -5 7 -9
15 -9 25 0 84 -65 103 -114 9 -24 27 -55 38 -69 71 -81 130 -195 122 -234 -2
-13 -10 -5 -26 26 -13 24 -36 60 -52 80 -106 131 -132 161 -141 161 -6 0 -22
9 -36 20 -14 11 -29 17 -33 15 -5 -3 -11 -1 -15 5 -10 16 -25 12 -26 -7 0 -14
-2 -15 -6 -3 -3 8 -12 18 -19 23 -7 4 -18 24 -24 45 -19 58 -43 106 -57 115
-7 4 -13 18 -13 30 -1 22 -1 22 -12 2 -17 -31 -28 -35 -98 -35 -56 0 -69 -4
-93 -26 -39 -36 -22 -50 32 -28 57 23 76 6 29 -27 -18 -13 -35 -26 -38 -30
-10 -14 -160 -62 -168 -54 -2 1 8 12 22 23 25 19 35 42 18 42 -5 0 -18 -9 -30
-20 -12 -11 -25 -20 -30 -20 -4 0 -64 -58 -132 -129 -68 -72 -128 -127 -133
-124 -5 3 -4 10 2 16 21 21 13 38 -9 20 -22 -20 -26 -49 -7 -56 8 -4 4 -13
-14 -29 -14 -13 -28 -32 -32 -41 -9 -24 -27 -21 -27 6 -1 22 -1 22 -15 2 -48
-66 -54 -56 -15 24 17 33 35 61 40 61 6 0 10 7 10 15 0 8 -3 15 -7 15 -12 -1
-94 -117 -130 -183 -32 -60 -33 -61 -30 -189 2 -105 4 -125 14 -111 7 9 15 14
18 11 13 -12 5 -48 -33 -158 -22 -63 -43 -139 -47 -169 -5 -35 -10 -49 -16
-40 -6 11 -9 11 -13 -1 -23 -65 -32 -171 -19 -220 l7 -25 8 25 c4 14 5 -27 3
-90 -2 -63 -5 -124 -5 -135 0 -15 -3 -16 -9 -7 -10 16 -25 -40 -40 -153 -6
-44 -20 -116 -31 -160 -23 -92 -24 -134 -9 -259 11 -87 42 -197 74 -254 17
-32 16 -45 16 173 -1 145 14 273 33 292 3 4 6 -56 6 -133 0 -138 23 -278 48
-293 6 -3 31 -65 57 -136 27 -72 52 -134 56 -139 5 -6 9 -14 9 -19 0 -19 -27
14 -45 53 -29 65 -37 46 -10 -26 14 -37 25 -82 25 -101 0 -35 1 -35 34 -29 24
5 35 2 39 -7 7 -19 -16 -101 -49 -172 -22 -48 -29 -55 -32 -37 -2 12 -8 22
-13 22 -12 0 -89 -51 -89 -59 -1 -19 -55 -64 -82 -67 -36 -5 -94 -38 -102 -59
-3 -10 7 -22 32 -35 l37 -21 -35 7 c-19 3 -47 13 -62 20 -65 33 -123 22 -200
-38 -97 -75 -132 -131 -151 -245 -10 -55 -43 -153 -102 -300 -120 -298 -155
-368 -214 -425 -45 -44 -50 -53 -61 -118 -11 -66 -10 -93 7 -136 4 -12 3 -15
-5 -10 -8 5 -12 0 -12 -14 0 -11 -17 -44 -38 -73 -21 -29 -44 -62 -51 -74
l-12 -23 636 0 c381 0 635 4 635 9 0 5 -13 22 -29 38 -15 16 -32 39 -36 52 -7
22 -5 23 18 17 19 -4 29 -1 37 11 11 17 11 16 5 -1 -3 -11 4 -44 16 -73 l21
-53 1642 0 1641 0 18 40 c9 22 21 40 26 40 5 0 12 8 15 18 3 9 17 29 30 43 13
14 34 47 45 73 21 44 21 60 21 410 -1 200 -5 379 -10 397 -5 18 -12 51 -16 73
-3 22 -11 44 -17 48 -7 4 -12 13 -12 20 -2 33 -38 127 -56 147 -12 12 -22 28
-23 34 -8 33 -47 104 -65 115 -12 7 -21 17 -21 24 0 10 -41 57 -98 111 -63 59
-105 97 -107 97 -2 0 -29 17 -61 39 -98 64 -217 120 -302 141 -41 11 -43 13
-37 38 4 15 7 27 8 28 1 0 18 11 36 24 46 32 99 60 135 70 105 33 349 -133
528 -358 46 -57 91 -114 100 -126 l17 -21 1 28 c0 19 -18 53 -52 101 -89 120
-142 185 -155 185 -6 1 -23 15 -37 31 -14 17 -29 29 -33 28 -4 -2 -44 23 -88
54 -113 79 -214 128 -265 128 -56 0 -132 20 -127 34 5 15 66 27 102 20 33 -7
191 -81 244 -116 60 -38 23 -1 -60 61 -44 33 -79 63 -79 66 1 4 -2 10 -6 13
-4 4 -4 1 0 -5 11 -19 2 -16 -77 23 -57 29 -68 38 -53 44 15 5 5 12 -43 29
-34 13 -64 27 -66 31 -3 5 -31 23 -63 40 -31 18 -75 47 -97 64 -22 18 -62 45
-90 61 -27 15 -78 46 -112 68 l-61 39 -7 146 c-4 91 -14 170 -25 207 -28 97
-41 157 -35 164 3 3 9 1 13 -4 4 -6 58 -11 121 -12 63 -2 119 -7 125 -13 5 -5
17 -10 26 -10 13 0 13 1 0 10 -22 14 51 13 87 -1 15 -6 53 -11 83 -11 60 1
120 -14 120 -29 0 -5 3 -8 8 -8 20 3 33 -2 27 -11 -4 -6 -15 -8 -25 -5 -10 3
-21 1 -25 -5 -4 -6 10 -10 37 -11 24 0 52 -2 63 -4 11 -2 37 -6 57 -9 50 -6
68 -17 42 -26 -10 -4 -23 -5 -29 -2 -19 12 -35 10 -35 -4 0 -9 -12 -14 -37
-15 -21 -1 -51 -2 -68 -4 -16 -1 -86 -6 -155 -10 -69 -4 -130 -11 -137 -17 -6
-5 -20 -8 -31 -6 -21 3 -72 -20 -72 -34 0 -4 130 -8 288 -8 159 0 404 -3 545
-7 l257 -6 0 996 0 997 -1032 0 -1033 -1 90 -87z m-825 -93 c0 -31 -20 -61
-36 -55 -8 3 -14 -1 -14 -9 0 -8 -5 -15 -11 -15 -13 0 -3 68 13 88 17 20 48
15 48 -9z m-85 -19 c-3 -5 -11 -10 -16 -10 -6 0 -7 5 -4 10 3 6 11 10 16 10 6
0 7 -4 4 -10z m-270 -150 c-3 -5 -11 -10 -16 -10 -6 0 -7 5 -4 10 3 6 11 10
16 10 6 0 7 -4 4 -10z m795 -20 c0 -5 -5 -10 -11 -10 -5 0 -7 5 -4 10 3 6 8
10 11 10 2 0 4 -4 4 -10z m-1153 -582 c-16 -63 -32 -178 -42 -298 -9 -107 -17
-206 -19 -220 -3 -27 -11 97 -9 145 1 17 -1 50 -5 75 l-6 45 -8 -45 c-29 -159
-32 -347 -7 -455 5 -22 12 -78 14 -125 l5 -85 -19 45 -19 45 5 -60 6 -60 -21
26 c-47 58 -77 304 -53 427 6 33 14 82 16 109 8 75 52 216 73 233 11 9 22 29
25 45 7 39 52 202 66 239 23 59 22 14 -2 -86z m44 -54 c-10 -94 1 -730 16
-874 7 -72 -6 -58 -29 33 -24 92 -36 233 -28 322 4 39 5 140 3 225 -5 162 7
325 26 374 19 48 23 23 12 -80z m-264 -376 c-3 -8 -6 -5 -6 6 -1 11 2 17 5 13
3 -3 4 -12 1 -19z m-10 -65 c-3 -10 -5 -2 -5 17 0 19 2 27 5 18 2 -10 2 -26 0
-35z m177 -238 c-8 -74 -22 -47 -18 34 2 31 4 72 5 91 1 31 2 30 10 -15 5 -27
6 -77 3 -110z m213 -37 c-3 -8 -6 -5 -6 6 -1 11 2 17 5 13 3 -3 4 -12 1 -19z
m10 -80 c1 -32 -1 -38 -7 -23 -11 26 -12 65 -2 65 4 0 8 -19 9 -42z m-417 -62
c-7 -7 -10 9 -9 45 l1 54 9 -45 c5 -28 5 -48 -1 -54z m3160 49 c-7 -8 -16 -12
-21 -9 -13 8 -1 24 18 24 13 0 13 -3 3 -15z m-2946 -100 c4 -60 3 -85 -4 -75
-9 14 -15 179 -6 169 2 -2 6 -44 10 -94z m1091 85 c3 -5 1 -10 -4 -10 -6 0
-11 5 -11 10 0 6 2 10 4 10 3 0 8 -4 11 -10z m-795 -114 c28 -105 21 -130 -15
-51 -33 71 -48 168 -23 147 8 -6 25 -50 38 -96z m800 84 c0 -6 -6 -23 -14 -38
-7 -15 -16 -44 -20 -64 -4 -21 -11 -38 -17 -38 -5 0 -7 -30 -5 -72 3 -40 2
-61 0 -45 -3 15 -9 27 -13 27 -7 0 -2 50 14 133 4 20 12 37 16 37 5 0 9 13 9
28 0 16 3 32 7 35 10 10 23 8 23 -3z m-890 -32 c-1 -26 -3 -30 -10 -16 -6 9
-7 23 -4 32 9 25 14 19 14 -16z m780 -130 c0 -10 -4 -18 -10 -18 -5 0 -10 10
-10 23 0 12 -3 33 -5 47 -5 22 -3 21 9 -5 9 -16 15 -38 16 -47z m219 -27 c0
-10 -2 -12 -6 -3 -2 6 -9 10 -14 6 -5 -3 -9 4 -9 14 0 11 -7 25 -15 32 -8 7
-15 16 -15 21 0 5 14 -5 30 -23 17 -17 30 -38 29 -47z m-1219 -8 c0 -142 59
-348 122 -428 28 -36 97 -149 93 -153 -8 -8 -119 50 -137 72 -60 71 -142 267
-159 384 -7 40 -9 75 -6 78 13 14 25 -10 37 -71 17 -92 33 -83 29 18 -2 45 -2
104 -1 130 3 73 22 47 22 -30z m1420 3 c-1 -13 -60 50 -60 64 0 5 14 -4 30
-22 17 -17 30 -36 30 -42z m-116 -5 c-7 -8 -33 33 -27 43 3 5 12 -2 19 -15 7
-13 10 -26 8 -28z m-300 -32 c8 -44 6 -71 -4 -34 -4 17 -11 38 -15 48 -4 9 -3
17 3 17 5 0 12 -14 16 -31z m-791 -40 c27 -7 37 -15 37 -29 0 -11 5 -20 11
-20 6 0 18 -7 26 -16 12 -11 29 -14 62 -11 37 4 52 0 77 -19 17 -13 38 -24 47
-24 33 0 16 -18 -22 -23 -61 -8 -171 8 -229 33 -46 20 -132 101 -132 125 0 7
62 -1 123 -16z m1176 -39 c6 0 14 7 17 15 7 16 30 20 38 6 9 -14 -73 -93 -90
-87 -8 3 -13 2 -10 -3 13 -20 -183 -55 -212 -37 -20 12 -14 53 11 68 35 23 57
29 51 14 -3 -9 8 -13 40 -14 61 -3 100 13 93 38 -6 24 13 32 34 14 8 -8 21
-14 28 -14z m133 -107 c-3 -16 -7 -22 -10 -15 -4 13 4 42 11 42 2 0 2 -12 -1
-27z m-26 -40 c-11 -11 -19 6 -11 24 8 17 8 17 12 0 3 -10 2 -21 -1 -24z m898
2 c76 -59 58 -92 -29 -50 -53 25 -62 36 -49 69 9 24 26 20 78 -19z m-1844 -1
c0 -10 6 -14 15 -10 25 9 17 -11 -16 -38 -36 -30 -107 -35 -164 -12 -50 21
-43 36 15 36 28 0 50 4 50 9 0 15 29 21 56 11 22 -9 25 -8 20 5 -3 9 0 15 9
15 8 0 15 -7 15 -16z m167 -36 c43 -130 42 -217 -3 -313 -15 -33 -32 -63 -36
-66 -26 -18 53 -78 113 -86 35 -5 60 8 72 39 4 10 9 8 20 -4 8 -11 28 -18 48
-18 37 0 94 -38 71 -47 -7 -3 -17 -16 -22 -29 -11 -28 -41 -32 -61 -8 -12 15
-11 19 9 32 31 20 27 32 -10 32 -25 0 -44 -10 -75 -41 -24 -22 -43 -45 -43
-50 0 -19 -21 -8 -30 16 -11 29 -50 47 -93 43 -23 -2 -31 1 -33 17 -7 40 -7
70 1 87 5 12 2 20 -10 24 -11 5 -15 14 -11 30 3 12 2 26 -4 29 -5 3 -10 15
-10 26 0 15 -7 19 -35 19 -19 0 -35 -4 -35 -10 0 -5 5 -10 10 -10 18 0 11 -15
-12 -25 -20 -9 -23 -16 -20 -58 3 -42 1 -49 -17 -54 -12 -3 -21 -9 -21 -14 0
-14 -28 -11 -33 4 -3 10 -9 10 -26 0 -25 -15 -51 -17 -51 -3 0 5 -11 12 -25
16 -14 3 -25 11 -25 16 0 6 11 8 24 4 21 -5 24 -2 29 31 4 20 4 40 1 45 -7 11
-42 10 -49 -2 -4 -6 -11 -8 -16 -4 -5 3 -7 10 -3 15 3 6 -1 9 -9 7 -9 -2 -15
1 -14 7 1 5 10 10 19 10 24 2 36 15 15 15 -9 0 -17 4 -17 9 0 17 20 23 34 11
20 -15 56 45 59 99 2 44 4 45 72 57 22 3 47 12 55 19 8 6 35 21 60 33 25 12
61 35 80 51 19 17 37 30 40 31 4 0 11 -15 17 -32z m238 -18 c14 -5 30 -21 35
-35 8 -21 6 -30 -12 -48 -15 -16 -19 -17 -15 -5 3 9 0 19 -9 22 -8 3 -14 12
-14 19 0 8 -7 20 -15 27 -32 26 -15 37 30 20z m1636 -88 c14 -12 34 -29 45
-37 10 -8 15 -15 11 -15 -14 0 -145 90 -150 105 -7 16 54 -17 94 -53z m-1533
-10 c5 -31 -24 -40 -48 -15 -14 16 -16 23 -7 32 19 19 52 9 55 -17z m512 -117
c0 -58 -60 -216 -71 -187 -12 33 12 145 37 169 8 8 14 28 14 44 0 18 4 28 10
24 6 -3 10 -26 10 -50z m1244 2 c22 -12 41 -27 43 -33 4 -11 -117 -58 -125
-49 -2 2 16 16 39 31 39 24 42 28 25 38 -10 6 -25 16 -34 23 -30 22 9 15 52
-10z m-2504 -2 c0 -8 -4 -15 -10 -15 -5 0 -10 7 -10 15 0 8 5 15 10 15 6 0 10
-7 10 -15z m-192 -75 c11 0 24 -5 27 -11 4 -5 17 -14 30 -19 16 -6 22 -15 19
-27 -3 -10 4 -29 15 -42 12 -13 21 -29 21 -34 0 -6 3 -8 6 -4 8 7 92 -56 111
-83 10 -15 26 -20 56 -20 44 0 82 -17 60 -26 -26 -11 -63 -46 -63 -61 0 -13 3
-13 15 -3 13 11 18 10 30 -6 8 -10 20 -34 27 -51 7 -18 16 -33 20 -33 18 0 4
-20 -61 -88 -69 -72 -110 -97 -77 -47 15 23 15 26 -1 43 -10 10 -45 54 -77 97
-33 44 -87 114 -120 155 -62 79 -136 218 -136 257 0 24 14 31 25 13 9 -14 27
-1 18 13 -3 7 3 4 14 -5 11 -10 29 -18 41 -18z m458 -41 c11 -18 7 -133 -5
-137 -6 -2 -11 -13 -11 -23 0 -11 -4 -18 -10 -14 -5 3 -7 12 -4 20 9 23 -18
27 -60 10 -29 -12 -37 -13 -34 -3 3 7 25 21 49 30 24 9 36 17 27 17 -19 1 -26
21 -8 21 6 0 10 17 10 38 0 21 3 42 7 45 10 11 31 8 39 -4z m-149 -121 c-3 -8
-6 -5 -6 6 -1 11 2 17 5 13 3 -3 4 -12 1 -19z m951 -53 c0 -27 -22 -52 -32
-36 -4 5 -2 12 4 16 5 3 10 15 10 26 0 10 4 19 9 19 5 0 9 -11 9 -25z m-58
-71 c0 -14 -7 -27 -15 -30 -8 -4 -13 -10 -10 -14 2 -4 -4 -15 -15 -25 -10 -9
-16 -23 -13 -31 3 -8 0 -14 -7 -14 -6 0 -8 5 -5 10 3 6 -3 10 -13 10 -11 0
-25 7 -32 15 -10 12 -9 15 6 16 11 1 23 1 27 0 5 -1 6 3 3 8 -5 8 5 35 26 66
3 6 16 11 27 12 16 1 21 -4 21 -23z m-638 -94 l116 -39 89 15 c102 16 133 17
133 5 0 -5 -10 -12 -22 -15 -21 -6 -21 -8 -6 -18 14 -11 14 -14 -8 -31 -17
-13 -33 -17 -49 -13 -32 8 -32 24 0 32 51 13 22 19 -87 19 -113 0 -208 20
-290 62 -31 15 -39 40 -10 28 9 -4 70 -24 134 -45z m105 27 c75 -8 114 -8 144
0 23 6 37 7 31 1 -5 -5 -41 -14 -80 -20 -75 -12 -145 -3 -207 28 -16 8 -21 12
-10 9 11 -4 66 -11 122 -18z m-250 -22 c8 -22 -6 -33 -17 -15 -13 20 -12 30 0
30 6 0 13 -7 17 -15z m783 -62 c-115 -132 -117 -134 -142 -124 -13 5 -31 12
-42 15 -18 6 -18 8 -2 25 9 10 35 22 58 25 56 9 92 30 124 71 15 20 29 33 32
31 2 -3 -10 -22 -28 -43z m-100 34 c0 -1 -9 -10 -19 -19 -18 -15 -19 -15 -24
3 -4 15 0 19 19 19 13 0 24 -1 24 -3z m-49 -36 c6 -14 5 -20 -1 -16 -6 3 -10
1 -10 -4 0 -6 -4 -11 -10 -11 -5 0 -10 10 -10 22 0 20 -1 20 -19 4 -11 -10
-25 -15 -32 -10 -8 4 0 13 22 25 41 22 49 20 60 -10z m-693 -99 c-45 -46 -86
-78 -90 -74 -5 5 15 27 44 50 29 22 68 57 87 76 19 20 36 34 38 33 1 -2 -34
-40 -79 -85z m582 53 c0 -8 -7 -15 -15 -15 -16 0 -20 12 -8 23 11 12 23 8 23
-8z m-416 -93 c-52 -47 -112 -90 -91 -66 43 52 143 141 146 132 2 -7 -22 -36
-55 -66z m-512 -24 c-7 -7 -12 -8 -12 -2 0 6 3 14 7 17 3 4 9 5 12 2 2 -3 -1
-11 -7 -17z m-12 -53 c11 -13 10 -14 -4 -9 -9 3 -16 10 -16 15 0 13 6 11 20
-6z m-185 -23 c17 -10 41 -22 55 -25 44 -12 110 -83 110 -119 0 -7 -8 3 -18
22 -17 35 -64 64 -187 117 -46 19 -48 21 -20 22 17 0 44 -7 60 -17z m551 -87
c15 -13 51 -29 79 -35 27 -6 80 -29 117 -50 36 -22 71 -40 76 -40 14 0 62 -59
62 -76 0 -8 7 -14 15 -14 8 0 18 -12 21 -26 5 -21 11 -25 32 -21 13 3 59 0
101 -5 83 -10 106 -23 193 -111 68 -68 64 -90 -17 -99 -33 -3 -82 -11 -108
-16 -57 -11 -69 0 -27 24 16 10 33 27 36 37 10 32 -37 66 -49 35 -2 -7 -8 -10
-12 -6 -4 4 0 15 9 24 14 13 24 14 55 7 30 -8 38 -7 38 3 0 9 -11 14 -28 14
-15 0 -31 5 -34 10 -11 18 -113 11 -162 -11 -26 -12 -74 -24 -106 -27 -40 -3
-66 -11 -79 -24 -12 -12 -26 -17 -39 -13 -29 9 -23 -2 10 -20 l29 -15 -21 -42
-21 -43 -7 32 c-8 40 -21 56 -65 84 -19 11 -34 27 -34 35 0 9 5 12 11 9 6 -4
17 2 25 14 12 17 22 20 61 16 26 -3 51 -9 57 -15 5 -5 22 -3 45 7 20 8 47 16
61 18 14 1 31 3 38 3 9 1 11 9 6 25 -9 31 -10 32 -38 13 -31 -20 -56 -20 -82
-2 -19 14 -19 15 1 21 56 18 69 26 56 35 -19 11 -81 10 -81 -1 0 -5 -4 -9 -8
-9 -7 0 -32 57 -32 73 0 13 35 7 59 -9 19 -14 25 -14 32 -3 16 26 9 38 -27 45
-20 4 -45 15 -55 25 -11 11 -30 19 -44 19 -25 0 -33 -14 -15 -25 6 -3 10 -18
9 -33 0 -26 -1 -25 -12 7 -9 26 -25 40 -72 65 -43 23 -65 41 -77 66 -28 57
-25 62 18 25z m191 -287 c-15 -10 -86 -9 -110 1 -16 6 -13 10 20 32 l38 25 32
-25 c22 -18 28 -28 20 -33z m583 52 c-19 -13 -30 -13 -30 0 0 6 10 10 23 10
18 0 19 -2 7 -10z m-715 -80 c23 -9 25 -13 15 -25 -14 -17 -56 -20 -65 -5 -8
14 1 40 14 40 5 0 22 -5 36 -10z m365 -67 c0 -3 -24 -30 -54 -59 -30 -30 -98
-108 -151 -174 -53 -66 -102 -123 -109 -127 -22 -13 -135 -145 -168 -195 -27
-41 -32 -45 -45 -32 -8 7 -26 16 -41 20 -15 3 -34 9 -42 15 -8 5 -26 14 -40
20 -14 6 -33 17 -42 26 -10 9 -28 13 -42 11 -28 -6 -135 13 -181 31 -16 7 -79
23 -140 35 -60 13 -141 33 -180 44 -38 11 -87 23 -108 26 -21 4 -65 16 -99 27
-46 14 -64 16 -74 8 -9 -8 -14 -8 -14 -1 0 6 3 12 8 14 4 2 36 36 72 76 75 85
98 102 114 80 6 -8 22 -15 36 -14 20 1 26 -4 28 -24 2 -19 -4 -28 -26 -38 -16
-7 -37 -10 -46 -6 -9 3 -16 1 -16 -5 0 -5 31 -20 70 -31 39 -11 70 -24 70 -29
0 -4 -26 -4 -57 0 -32 5 -68 9 -80 11 -24 3 -32 -13 -11 -24 12 -6 90 -30 244
-73 44 -12 66 -14 80 -7 24 13 103 -4 247 -52 109 -36 177 -46 177 -25 0 7 -8
18 -17 26 -17 13 -16 14 3 8 12 -3 33 0 48 6 20 9 29 9 40 0 12 -10 21 -8 48
12 18 14 43 28 56 32 12 3 22 11 22 16 0 5 7 9 15 9 8 0 19 9 25 19 18 34 11
36 -20 6 -43 -41 -45 -26 -5 31 19 27 35 44 36 39 0 -6 5 1 11 15 9 21 12 22
15 7 3 -10 10 -16 16 -14 7 2 18 -3 26 -11 13 -12 17 -11 32 9 21 29 15 43
-16 35 -13 -3 -26 -2 -29 3 -7 11 40 51 59 51 21 0 96 101 90 120 -4 14 3 18
45 23 28 3 60 13 72 22 23 15 48 20 48 8z m-803 -109 c-3 -3 -12 -4 -19 -1 -8
3 -5 6 6 6 11 1 17 -2 13 -5z m343 -89 c10 -9 30 -17 46 -19 41 -5 40 -19 -6
-60 -22 -20 -40 -40 -40 -44 0 -14 -80 -82 -96 -82 -9 0 -14 11 -14 28 -1 23
-2 24 -11 10 -5 -10 -14 -18 -20 -18 -17 0 30 79 75 125 l43 46 -28 15 c-16 8
-29 19 -29 24 0 12 59 -6 80 -25z m-470 11 c0 -17 -85 -106 -100 -106 -20 0
-9 18 38 69 50 53 62 60 62 37z m360 -46 c0 -11 -4 -20 -8 -20 -14 0 -82 -72
-82 -87 0 -8 -12 -13 -29 -13 -16 0 -37 -3 -46 -7 -19 -7 24 57 76 115 35 38
89 46 89 12z m720 -12 c0 -19 -2 -20 -10 -8 -13 19 -13 30 0 30 6 0 10 -10 10
-22z m-870 -19 c-6 -10 -17 -19 -25 -19 -8 0 -15 -5 -15 -12 0 -9 -3 -9 -11
-1 -20 20 27 69 54 56 4 -2 2 -13 -3 -24z m831 -7 c14 -6 11 -14 -20 -49 -34
-40 -36 -41 -36 -18 0 17 6 25 16 25 21 0 31 24 16 39 -12 12 -1 13 24 3z
m-61 -111 c0 -13 -12 -20 -26 -14 -20 8 -17 19 6 20 11 1 20 -2 20 -6z m-790
-26 c11 -13 8 -15 -17 -15 -16 0 -38 7 -49 15 -18 13 -17 14 17 15 21 0 42 -7
49 -15z m620 -25 c0 -6 6 -10 14 -10 21 0 31 -21 15 -31 -10 -6 -19 -2 -31 11
-9 11 -21 20 -27 20 -6 0 -11 9 -11 20 0 18 3 19 20 10 11 -6 20 -15 20 -20z
m-1222 -8 c2 -7 -2 -10 -12 -6 -9 3 -16 11 -16 16 0 13 23 5 28 -10z m-434
-16 c-6 -16 -24 -23 -24 -8 0 10 22 33 27 28 2 -2 1 -11 -3 -20z m482 -13 c-8
-8 -36 10 -36 25 0 13 3 12 20 -3 11 -10 18 -20 16 -22z m1291 1 c-9 -9 -28 6
-21 18 4 6 10 6 17 -1 6 -6 8 -13 4 -17z m-50 -20 c9 -23 -11 -38 -26 -20 -13
16 -7 36 10 36 5 0 12 -7 16 -16z m-904 -50 c20 -4 37 -11 37 -15 0 -9 -64 -2
-110 12 -24 7 -24 7 5 8 17 0 47 -2 68 -5z m927 -3 c0 -6 -4 -13 -10 -16 -5
-3 -10 1 -10 9 0 9 5 16 10 16 6 0 10 -4 10 -9z m-1840 -66 c0 -5 -5 -3 -10 5
-5 8 -10 20 -10 25 0 6 5 3 10 -5 5 -8 10 -19 10 -25z m1857 13 c-3 -8 -6 -5
-6 6 -1 11 2 17 5 13 3 -3 4 -12 1 -19z m-861 -177 c-27 -27 -61 -51 -76 -54
-18 -4 -35 -19 -48 -42 -23 -38 -56 -56 -100 -54 -20 1 -15 4 18 12 50 12 60
21 60 57 0 22 10 30 63 53 34 15 76 38 92 52 47 38 44 29 -9 -24z"/>
<path d="M1722 2165 c-4 -5 -5 -18 -4 -27 2 -10 -2 -18 -7 -18 -17 0 -13 -27
5 -34 22 -8 46 13 39 34 -3 11 1 20 10 23 8 4 12 12 10 19 -6 16 -44 18 -53 3z"/>
<path d="M1720 1780 c0 -5 5 -10 11 -10 5 0 7 5 4 10 -3 6 -8 10 -11 10 -2 0
-4 -4 -4 -10z"/>
<path d="M1860 1300 c0 -5 5 -10 10 -10 6 0 10 5 10 10 0 6 -4 10 -10 10 -5 0
-10 -4 -10 -10z"/>
<path d="M1920 981 c0 -5 5 -13 10 -16 6 -3 10 -2 10 4 0 5 -4 13 -10 16 -5 3
-10 2 -10 -4z"/>
<path d="M2420 953 c0 -13 5 -23 10 -23 13 0 13 11 0 30 -8 12 -10 11 -10 -7z"/>
<path d="M2215 4730 c3 -5 14 -10 23 -10 15 0 15 2 2 10 -20 13 -33 13 -25 0z"/>
<path d="M2300 4697 c0 -7 103 -37 108 -32 7 6 -32 23 -71 30 -20 4 -37 5 -37
2z"/>
<path d="M2480 4624 c0 -9 27 -30 62 -49 20 -11 26 -12 23 -3 -6 14 -85 63
-85 52z"/>
<path d="M1509 4523 c-12 -16 -12 -17 1 -7 8 6 22 14 30 17 13 5 12 6 -1 6 -9
1 -23 -7 -30 -16z"/>
<path d="M2677 4470 c59 -51 91 -67 57 -29 -24 27 -94 79 -106 79 -5 0 17 -22
49 -50z"/>
<path d="M1375 4360 c3 -5 8 -10 11 -10 2 0 4 5 4 10 0 6 -5 10 -11 10 -5 0
-7 -4 -4 -10z"/>
<path d="M1356 4265 c-3 -10 1 -15 13 -15 10 0 18 7 18 15 0 8 -6 15 -13 15
-6 0 -14 -7 -18 -15z"/>
<path d="M3208 3928 c-8 -19 5 -68 14 -52 2 5 2 23 -2 39 -4 24 -7 26 -12 13z"/>
<path d="M3224 3824 c3 -9 6 -20 6 -25 0 -5 4 -9 9 -9 4 0 6 11 3 25 -2 14 -9
25 -14 25 -6 0 -7 -7 -4 -16z"/>
<path d="M3251 3718 c-1 -33 24 -165 38 -198 l10 -25 0 25 c0 35 -25 170 -37
200 l-11 25 0 -27z"/>
<path d="M1092 3180 c0 -14 2 -19 5 -12 2 6 2 18 0 25 -3 6 -5 1 -5 -13z"/>
<path d="M936 3181 c-4 -6 -11 -54 -16 -108 -5 -54 -13 -111 -18 -128 -4 -16
-10 -73 -11 -125 -1 -52 -4 -122 -6 -155 -1 -33 2 -75 8 -93 9 -25 9 -35 -1
-41 -19 -12 -37 -231 -22 -276 12 -35 13 -36 31 -19 10 9 19 29 19 44 0 14 6
49 14 76 18 61 21 291 4 355 -9 38 -8 89 6 255 15 189 13 249 -8 215z"/>
<path d="M3650 2858 c0 -25 16 -33 62 -33 36 0 48 4 51 16 4 14 -2 17 -27 16
-17 -1 -43 2 -58 6 -20 5 -28 4 -28 -5z"/>
<path d="M845 2510 c-5 -30 -7 -71 -4 -90 5 -31 6 -27 13 31 11 88 4 131 -9
59z"/>
<path d="M985 2248 c15 -241 41 -393 79 -466 20 -38 20 -42 2 -42 -17 0 -90
74 -136 138 -34 47 -54 85 -95 180 -16 34 -29 61 -31 59 -6 -6 29 -124 57
-192 51 -121 71 -155 105 -175 20 -13 37 -35 45 -57 11 -33 10 -38 -10 -54
-12 -10 -17 -20 -12 -23 5 -4 32 13 60 36 28 24 90 77 139 118 l90 74 -44 39
c-23 21 -45 45 -48 55 -3 9 -15 23 -26 30 -19 12 -20 11 -14 -15 4 -16 20 -46
35 -67 28 -39 30 -62 3 -52 -8 3 -14 0 -14 -7 0 -17 -47 -73 -55 -66 -15 15
-55 147 -55 183 0 38 0 39 20 21 19 -17 20 -17 20 0 0 11 -13 55 -29 99 -17
45 -40 127 -53 184 -12 56 -26 102 -31 102 -5 0 -6 -46 -2 -102z m-20 -448 c3
-5 1 -10 -4 -10 -6 0 -11 5 -11 10 0 6 2 10 4 10 3 0 8 -4 11 -10z m103 -91
c-2 -6 -8 -10 -13 -10 -5 0 -11 4 -13 10 -2 6 4 11 13 11 9 0 15 -5 13 -11z"/>
<path d="M4250 2196 c0 -3 9 -10 20 -16 11 -6 20 -8 20 -6 0 3 -9 10 -20 16
-11 6 -20 8 -20 6z"/>
<path d="M720 1506 c-43 -23 -92 -66 -75 -66 10 0 145 80 145 86 0 10 -29 1
-70 -20z"/>
<path d="M23 1352 l-23 -3 0 -605 c0 -332 2 -604 5 -604 2 0 33 41 67 92 35
51 76 110 91 132 47 67 165 318 172 366 4 25 21 99 40 165 18 66 41 152 51
190 14 57 39 114 111 255 2 3 -70 6 -160 8 -89 2 -200 5 -247 6 -47 1 -95 1
-107 -2z"/>
</g>
</svg>
