<?xml version="1.0" standalone="no"?>
<!DOCTYPE svg PUBLIC "-//W3C//DTD SVG 20010904//EN"
 "http://www.w3.org/TR/2001/REC-SVG-20010904/DTD/svg10.dtd">
<svg version="1.0" xmlns="http://www.w3.org/2000/svg"
 width="359.000000pt" height="372.000000pt" viewBox="0 0 359.000000 372.000000"
 preserveAspectRatio="xMidYMid meet">

<g transform="translate(0.000000,372.000000) scale(0.100000,-0.100000)"
fill="#0f0f0f" stroke="none">
<path d="M386 3703 c-6 -14 -5 -15 5 -6 7 7 10 15 7 18 -3 3 -9 -2 -12 -12z"/>
<path d="M664 3689 c3 -17 6 -48 6 -67 0 -32 1 -34 13 -18 12 17 14 17 20 2 3
-8 -11 -67 -33 -130 -22 -63 -42 -134 -46 -158 -3 -23 -15 -56 -26 -72 -31
-43 -45 -238 -17 -220 5 3 9 -37 9 -91 0 -55 -4 -94 -9 -91 -5 4 -7 -3 -4 -14
3 -11 0 -27 -7 -34 -6 -8 -20 -66 -30 -129 -10 -63 -26 -143 -36 -178 -24 -95
-15 -307 19 -405 28 -82 44 -114 56 -114 4 0 7 73 7 163 -1 107 4 187 14 237
l15 75 6 -145 c8 -173 20 -241 53 -289 13 -20 30 -56 36 -81 7 -25 18 -58 25
-75 46 -108 59 -187 15 -88 -29 63 -37 41 -10 -28 11 -30 20 -71 20 -92 0 -38
0 -38 38 -35 37 3 37 3 35 -34 -1 -20 -17 -71 -35 -113 -31 -71 -48 -93 -48
-60 0 29 -30 14 -94 -49 -50 -48 -74 -65 -104 -69 -23 -4 -49 -18 -66 -36
l-28 -29 32 -17 c49 -26 29 -28 -35 -4 -72 27 -139 23 -185 -12 -119 -92 -165
-158 -176 -255 -3 -32 -26 -109 -50 -170 l-44 -111 0 -326 0 -327 1795 0 1795
0 0 805 0 805 -27 6 c-61 15 -63 46 -7 89 l35 26 -2 85 c-1 46 -6 84 -11 84
-5 0 -18 -5 -29 -11 -41 -21 -42 -1 -1 22 49 28 51 35 17 51 -14 6 -25 15 -25
20 0 11 7 10 31 -2 15 -9 19 -7 19 8 0 12 -31 37 -92 75 -51 32 -121 77 -155
100 -34 23 -96 63 -139 89 l-77 47 -4 78 c-7 172 -8 223 -1 223 3 0 8 -5 10
-11 3 -10 92 -21 153 -20 11 0 34 1 51 1 18 0 36 0 40 -1 5 -1 55 -1 112 0
l102 1 0 35 0 36 -102 -6 c-57 -4 -115 -11 -130 -17 -15 -6 -41 -8 -57 -6 -21
3 -32 0 -36 -11 -4 -10 -9 -12 -13 -5 -4 5 -27 11 -52 11 -89 3 -94 5 -111 59
-9 27 -19 70 -23 95 l-7 46 116 -2 c70 -1 121 -7 128 -14 13 -13 44 -15 49 -2
2 5 22 5 48 1 69 -13 71 -13 133 -12 l57 2 0 470 0 470 -391 0 c-368 0 -391
-1 -384 -17 17 -44 45 -169 60 -273 32 -214 79 -408 140 -575 43 -116 62 -202
85 -370 12 -92 -2 -187 -44 -297 -48 -129 -74 -146 -38 -25 19 63 25 107 26
192 1 125 -16 196 -84 345 -22 47 -66 150 -98 230 -33 79 -65 146 -71 148 -14
5 -14 -65 -1 -128 34 -159 72 -395 68 -422 -7 -46 -55 131 -83 307 -9 55 -24
129 -35 165 -10 36 -21 92 -25 125 -10 92 -74 315 -101 352 -13 17 -24 36 -24
41 0 5 -8 16 -18 25 -10 9 -33 53 -52 97 l-34 80 -914 0 -914 0 6 -31z m168
-81 c-25 -104 -41 -232 -49 -400 -7 -154 -24 -159 -24 -7 0 219 -25 152 -35
-93 -4 -90 -2 -167 7 -225 7 -48 12 -94 10 -102 -1 -8 3 -34 9 -57 7 -24 9
-51 5 -61 -6 -15 -9 -14 -22 12 l-14 30 4 -33 c2 -18 1 -35 -3 -37 -28 -17
-64 98 -75 240 -7 100 10 249 47 395 22 90 30 110 51 132 7 7 18 33 25 58 30
107 75 241 79 236 3 -2 -4 -42 -15 -88z m39 -89 c-12 -105 -14 -212 -6 -221 3
-2 7 -119 9 -259 3 -140 8 -290 11 -334 4 -44 4 -77 0 -73 -3 3 -16 39 -27 80
-18 65 -20 106 -23 373 -2 308 6 460 27 530 18 60 21 20 9 -96z m-92 -616 c1
-36 -3 -63 -9 -63 -6 0 -10 34 -9 83 1 97 17 79 18 -20z m221 -129 c0 -8 -4
-12 -10 -9 -5 3 -10 10 -10 16 0 5 5 9 10 9 6 0 10 -7 10 -16z m-410 -65 c0
-17 -4 -28 -10 -24 -5 3 -10 17 -10 31 0 13 5 24 10 24 6 0 10 -14 10 -31z
m1289 -45 c-18 -22 -21 -11 -7 27 11 30 13 31 16 11 2 -13 -2 -30 -9 -38z
m-791 -42 c42 -136 34 -162 -16 -53 -34 74 -44 154 -18 132 7 -6 23 -42 34
-79z m-91 36 c-3 -7 -5 -2 -5 12 0 14 2 19 5 13 2 -7 2 -19 0 -25z m-200 -20
c-3 -8 -6 -5 -6 6 -1 11 2 17 5 13 3 -3 4 -12 1 -19z m1067 -57 c-4 -17 -10
-31 -15 -31 -10 0 -12 35 -2 69 9 35 25 1 17 -38z m-1054 3 c0 -8 -7 -17 -16
-21 -15 -5 -16 -18 -10 -97 11 -154 72 -355 119 -395 10 -7 17 -19 17 -25 0
-7 13 -27 30 -46 16 -19 29 -41 30 -47 0 -7 5 -13 10 -13 6 0 10 -7 10 -15 0
-19 2 -19 -62 10 -63 29 -85 50 -126 125 -62 111 -132 343 -116 385 10 24 22
8 29 -37 4 -23 13 -58 21 -78 12 -32 13 -26 13 84 1 88 5 129 18 157 16 37 33
43 33 13z m957 -16 c-3 -7 -5 -2 -5 12 0 14 2 19 5 13 2 -7 2 -19 0 -25z m433
-60 c0 -16 -39 16 -50 41 -12 26 -11 26 19 -3 17 -17 31 -33 31 -38z m-410 22
c0 -11 -6 -20 -14 -20 -9 0 -12 7 -9 20 3 11 9 20 14 20 5 0 9 -9 9 -20z m210
-27 c0 -8 -5 -11 -11 -8 -6 4 -8 10 -5 13 3 3 -2 15 -11 26 -18 21 -18 21 5 2
12 -11 22 -25 22 -33z m71 20 c13 -16 12 -17 -3 -4 -10 7 -18 15 -18 17 0 8 8
3 21 -13z m-229 -73 c-5 -51 -8 -48 -16 14 -6 40 -5 47 6 38 9 -7 12 -26 10
-52z m248 44 c0 -2 -9 -4 -20 -4 -11 0 -20 4 -20 9 0 5 9 7 20 4 11 -3 20 -7
20 -9z m-310 -14 c0 -5 -4 -10 -10 -10 -5 0 -10 5 -10 10 0 6 5 10 10 10 6 0
10 -4 10 -10z m-755 -77 c32 -50 57 -65 104 -61 35 2 53 -2 78 -19 17 -13 38
-23 46 -23 36 0 23 -18 -16 -23 -110 -15 -274 31 -310 87 -9 13 -23 31 -32 40
-9 8 -14 20 -11 24 9 14 130 -7 141 -25z m1200 -2 c3 -6 -8 -26 -25 -45 -38
-42 -113 -72 -211 -84 -70 -8 -71 -8 -80 17 -8 20 -6 28 13 46 29 26 59 39 55
22 -3 -15 35 -20 90 -12 37 5 43 10 43 31 0 28 24 33 38 7 11 -19 42 -11 42
12 0 16 25 21 35 6z m67 -163 c-6 -6 -15 -7 -22 -3 -8 5 -6 13 7 27 16 18 18
19 21 3 2 -9 -1 -22 -6 -27z m877 2 c46 -34 59 -56 43 -72 -11 -11 -108 28
-116 47 -5 14 11 55 22 55 5 0 28 -14 51 -30z m-1839 0 c0 -5 -4 -10 -10 -10
-5 0 -10 5 -10 10 0 6 5 10 10 10 6 0 10 -4 10 -10z m-3 -20 c33 0 33 0 17
-25 -26 -39 -78 -47 -167 -24 -52 14 -42 33 22 41 29 3 58 11 64 17 7 7 14 8
21 1 6 -5 25 -10 43 -10z m176 -22 c3 -13 13 -50 22 -82 13 -48 15 -71 6 -118
-14 -83 -52 -177 -74 -184 -23 -7 -56 22 -50 44 5 22 -13 72 -27 72 -5 0 -11
-8 -11 -17 -1 -17 -2 -17 -6 0 -2 9 -13 17 -23 17 -14 0 -18 -5 -13 -16 3 -10
0 -22 -8 -28 -8 -6 -19 -21 -26 -33 -16 -29 5 -38 28 -11 10 11 23 16 34 12
29 -11 9 -174 -21 -174 -8 0 -14 9 -14 20 0 25 -1 25 -50 1 -26 -12 -40 -15
-40 -8 0 15 59 49 71 41 5 -3 9 2 9 11 0 11 -5 15 -15 11 -9 -3 -15 0 -15 9 0
13 -3 13 -21 3 -17 -11 -22 -10 -34 6 -13 17 -15 17 -31 2 -9 -9 -24 -14 -35
-11 -10 3 -28 8 -39 11 -29 8 -24 24 10 31 30 5 36 17 24 47 -4 10 -18 16 -39
16 -25 0 -33 4 -31 17 2 9 11 20 22 24 15 6 16 8 3 8 -9 1 -19 9 -23 19 -3 9
-9 23 -12 30 -3 6 -1 12 5 12 7 0 15 -8 18 -17 12 -32 43 -44 43 -18 0 8 6 15
13 15 9 0 13 13 12 40 -2 52 28 86 81 95 22 4 51 15 66 26 15 10 32 19 38 19
12 0 88 47 108 67 20 20 39 16 45 -9z m271 -64 c4 -14 5 -28 4 -30 -8 -7 -48
9 -48 19 0 6 -7 18 -16 28 -9 10 -13 23 -9 28 11 18 62 -15 69 -45z m1554 -9
c43 -28 110 -84 101 -85 -10 0 -125 78 -139 95 -18 22 -5 18 38 -10z m-1500
-21 c25 -7 29 -26 8 -43 -10 -9 -19 -7 -36 7 -13 11 -20 24 -16 30 8 14 12 14
44 6z m520 -162 c-3 -40 -12 -79 -22 -95 -15 -23 -22 -42 -25 -69 -2 -18 -20
-6 -23 15 -4 24 27 133 42 152 6 7 11 24 12 39 1 14 6 26 12 26 5 0 7 -30 4
-68z m-1451 -52 c22 0 82 -45 78 -58 -8 -21 31 -68 79 -96 24 -14 57 -40 73
-59 26 -29 36 -34 73 -33 49 1 62 -15 26 -32 -14 -6 -30 -21 -36 -32 -10 -20
-10 -21 8 -16 17 6 25 -3 51 -50 36 -66 36 -65 -48 -148 -58 -58 -86 -70 -59
-27 11 18 9 24 -13 48 -15 15 -46 55 -70 88 -24 33 -72 95 -107 138 -72 90
-159 255 -148 282 5 14 9 15 21 5 12 -10 15 -9 15 4 0 16 2 16 22 2 12 -9 28
-16 35 -16z m595 -121 c52 -42 121 -52 137 -20 12 21 51 30 51 11 0 -5 15 -10
34 -10 19 0 44 -9 57 -20 23 -19 23 -21 7 -34 -10 -7 -18 -21 -18 -30 0 -23
-47 -21 -60 3 -8 16 -6 21 10 26 31 10 25 35 -9 35 -22 0 -42 -13 -79 -51 -49
-50 -72 -56 -72 -20 0 30 -80 55 -95 31 -13 -22 -35 12 -35 55 0 66 13 70 72
24z m-277 -39 c3 -5 1 -10 -4 -10 -6 0 -11 5 -11 10 0 6 2 10 4 10 3 0 8 -4
11 -10z m947 -59 c-4 -28 -28 -49 -41 -35 -3 4 0 9 7 11 6 3 12 13 12 22 0 10
3 21 7 24 14 14 19 6 15 -22z m-66 -86 c-4 -14 -11 -23 -16 -20 -5 3 -7 0 -4
-8 3 -9 -3 -17 -17 -20 -14 -4 -20 -11 -16 -21 3 -8 2 -18 -3 -21 -6 -4 -10
-1 -10 4 0 6 -6 11 -14 11 -7 0 -19 7 -26 15 -10 12 -9 15 8 15 12 0 24 11 32
30 25 61 81 73 66 15z m-423 -100 c54 8 108 15 120 15 20 0 20 -1 -7 -19 -25
-17 -26 -20 -11 -29 17 -9 16 -11 -7 -26 -17 -11 -35 -15 -52 -10 -33 8 -33
20 0 28 47 12 17 18 -98 21 -84 2 -129 8 -178 24 -91 31 -120 44 -120 57 0 6
54 -7 128 -33 l127 -43 98 15z m-43 46 l85 -7 -57 -8 c-65 -9 -128 -2 -173 19
-30 15 -30 15 15 8 25 -3 83 -9 130 -12z m-311 -15 c9 -11 9 -16 0 -21 -10 -7
-28 10 -29 28 0 12 17 8 29 -7z m671 -36 c0 -13 -11 -13 -30 0 -12 8 -11 10 8
10 12 0 22 -4 22 -10z m140 6 c0 -2 -8 -10 -17 -17 -16 -13 -17 -12 -4 4 13
16 21 21 21 13z m-170 -38 c0 -5 -16 -7 -35 -4 -28 5 -33 3 -29 -9 5 -11 2
-13 -10 -9 -24 9 -20 19 17 35 31 15 57 9 57 -13z m103 -40 c-11 -13 -34 -38
-50 -56 -29 -32 -29 -32 -66 -17 -34 14 -50 35 -27 35 6 0 10 8 11 18 0 9 3
12 5 6 5 -12 75 4 112 25 29 18 36 12 15 -11z m-208 -12 c-31 -14 -50 -11 -40
5 4 5 21 9 38 9 l32 -1 -30 -13z m-615 -71 c-30 -30 -58 -55 -62 -55 -19 0 -5
27 26 48 18 12 43 34 56 47 13 14 26 23 29 20 2 -3 -20 -30 -49 -60z m250 56
c0 -14 -131 -133 -139 -126 -6 6 116 131 132 134 4 0 7 -3 7 -8z m-585 -151
c3 -5 2 -10 -4 -10 -5 0 -13 5 -16 10 -3 6 -2 10 4 10 5 0 13 -4 16 -10z
m-182 -20 c14 -11 33 -20 44 -20 15 0 103 -73 103 -86 0 -2 -18 9 -41 25 -22
16 -72 42 -110 57 -39 15 -72 31 -75 36 -11 17 54 7 79 -12z m552 -90 c9 -10
41 -24 69 -30 29 -6 83 -29 120 -50 38 -22 72 -40 76 -40 12 0 70 -72 65 -81
-3 -4 4 -9 15 -12 12 -3 20 -14 20 -26 0 -18 6 -21 38 -20 149 4 187 -12 290
-120 80 -84 78 -85 -133 -107 l-60 -6 35 24 c39 26 49 58 25 78 -12 10 -18 10
-30 0 -9 -7 -18 -10 -22 -6 -14 14 32 35 65 30 20 -4 32 -2 32 5 0 6 -11 11
-24 11 -14 0 -28 5 -31 10 -11 18 -114 11 -163 -12 -26 -12 -72 -23 -102 -26
-37 -3 -61 -11 -74 -24 -12 -13 -26 -18 -42 -14 -33 9 -30 0 5 -19 23 -11 28
-19 24 -37 -12 -47 -43 -65 -43 -25 0 24 -5 29 -70 87 -29 26 -31 31 -13 27
15 -3 20 -1 16 8 -11 30 90 42 123 14 10 -8 21 -7 45 5 18 9 45 16 60 16 47 0
58 8 46 34 -11 23 -13 23 -43 8 -35 -16 -88 -9 -82 10 3 7 19 16 36 20 29 8
44 26 25 29 -35 6 -69 4 -75 -5 -11 -16 -26 4 -34 42 -6 28 -4 32 14 32 11 0
28 -8 38 -17 15 -16 17 -16 30 2 17 23 11 32 -29 40 -17 4 -40 16 -50 26 -22
23 -67 26 -67 3 0 -13 -5 -12 -30 6 -18 13 -27 26 -23 35 3 8 1 15 -5 15 -6 0
-12 -6 -15 -12 -6 -20 -56 10 -73 44 -25 48 -13 65 21 28z m140 -150 c3 -5 1
-10 -4 -10 -6 0 -11 5 -11 10 0 6 2 10 4 10 3 0 8 -4 11 -10z m630 -80 c-3 -5
-13 -10 -21 -10 -8 0 -12 5 -9 10 3 6 13 10 21 10 8 0 12 -4 9 -10z m-605 -22
c16 -11 27 -25 24 -30 -6 -9 -78 -11 -111 -2 -22 6 -22 7 10 29 40 29 42 29
77 3z m-96 -68 c14 -14 -4 -30 -34 -30 -30 0 -45 21 -27 39 11 11 44 6 61 -9z
m346 -56 c0 -3 -34 -43 -76 -87 -42 -45 -96 -109 -121 -142 -25 -33 -87 -104
-140 -158 -52 -55 -112 -125 -133 -158 -31 -48 -40 -56 -50 -44 -6 7 -25 17
-42 20 -42 10 -128 54 -128 66 0 6 -16 9 -37 8 -50 -4 -141 10 -173 26 -14 7
-63 20 -110 30 -47 9 -132 29 -190 44 -58 16 -121 31 -140 35 -19 3 -66 16
-103 27 l-68 21 23 26 c120 135 145 155 160 129 5 -10 15 -14 25 -10 15 6 43
-19 43 -39 0 -13 -58 -38 -74 -32 -9 3 -16 2 -16 -4 0 -10 31 -24 98 -43 93
-27 22 -34 -78 -8 -46 12 -50 11 -50 -5 0 -13 45 -29 244 -87 56 -16 83 -20
94 -13 10 7 34 7 66 2 55 -10 194 -55 212 -69 6 -5 47 -12 90 -15 l79 -5 -22
19 c-28 25 -29 32 -4 25 10 -3 28 0 40 6 15 9 27 9 41 1 16 -9 25 -6 47 15 15
14 33 25 40 25 6 0 18 6 25 13 8 6 22 17 33 23 10 6 21 16 23 23 3 9 -5 7 -22
-4 -15 -10 -29 -15 -33 -12 -7 8 55 87 68 87 6 0 7 5 4 10 -3 6 1 10 9 10 9 0
16 -4 16 -10 0 -5 7 -10 15 -10 8 0 15 -4 15 -10 0 -20 25 -9 37 15 12 26 8
29 -29 26 -27 -3 -22 16 9 36 15 10 49 40 76 66 38 38 48 54 43 71 -5 21 -2
24 46 29 28 4 60 13 72 21 22 15 46 21 46 10z m-454 -203 c15 -12 40 -21 55
-21 25 0 28 -2 18 -17 -6 -10 -26 -29 -44 -43 -18 -14 -31 -28 -29 -31 2 -4
-19 -28 -48 -54 -48 -46 -52 -47 -64 -30 -11 15 -11 20 -1 27 6 4 7 8 1 8 -5
0 -15 -5 -22 -12 -7 -7 -12 -8 -12 -2 0 15 53 92 89 132 17 18 31 35 31 37 0
1 -11 6 -24 9 -13 3 -26 12 -29 20 -8 20 44 5 79 -23z m-466 11 c0 -12 -96
-102 -109 -102 -13 0 54 96 72 104 19 7 37 7 37 -2z m355 -32 c3 -5 -16 -31
-43 -57 -27 -26 -51 -53 -53 -59 -2 -6 -21 -14 -41 -17 l-38 -6 17 27 c46 73
96 122 124 122 15 0 31 -4 34 -10z m725 -21 c0 -6 -4 -7 -10 -4 -5 3 -10 11
-10 16 0 6 5 7 10 4 6 -3 10 -11 10 -16z m-870 -13 c0 -11 -50 -46 -66 -46 -5
0 8 34 19 48 13 17 47 15 47 -2z m819 -48 c-9 -7 -23 -24 -33 -38 -9 -13 -16
-20 -16 -14 0 6 9 23 20 37 12 15 18 32 14 44 -7 17 -6 17 12 1 16 -16 17 -19
3 -30z m-59 -78 c0 -13 -12 -19 -26 -13 -21 8 -17 22 6 20 11 -1 20 -4 20 -7z
m-788 -24 c10 -7 15 -15 12 -18 -7 -7 -76 11 -88 23 -16 14 57 10 76 -5z m618
-26 c0 -6 5 -10 11 -10 16 0 69 -52 63 -62 -9 -14 -34 -9 -34 6 0 8 -9 18 -20
21 -11 3 -20 12 -20 20 0 7 -9 15 -20 18 -11 3 -20 12 -20 21 0 14 4 15 20 6
11 -6 20 -15 20 -20z m-1220 -10 c0 -5 -7 -7 -15 -4 -8 4 -15 8 -15 10 0 2 7
4 15 4 8 0 15 -4 15 -10z m41 -17 c13 -15 12 -15 -8 -4 -24 12 -29 21 -14 21
5 0 15 -7 22 -17z m1299 -3 c0 -5 -4 -10 -10 -10 -5 0 -10 5 -10 10 0 6 5 10
10 10 6 0 10 -4 10 -10z m-957 -76 c20 -4 37 -11 37 -15 0 -10 -71 -1 -105 12
-18 7 -18 8 5 8 14 1 42 -2 63 -5z m927 -10 c0 -8 -4 -12 -10 -9 -5 3 -10 10
-10 16 0 5 5 9 10 9 6 0 10 -7 10 -16z"/>
<path d="M1194 1915 c-4 -8 -4 -21 -1 -29 3 -8 1 -16 -5 -18 -15 -5 -1 -28 18
-28 9 0 14 10 14 29 0 16 6 32 13 34 9 4 8 8 -3 16 -21 15 -30 14 -36 -4z"/>
<path d="M1190 1530 c0 -5 5 -10 10 -10 6 0 10 5 10 10 0 6 -4 10 -10 10 -5 0
-10 -4 -10 -10z"/>
<path d="M1896 695 c4 -8 13 -15 21 -15 12 0 12 2 -1 15 -8 8 -17 15 -20 15
-3 0 -3 -7 0 -15z"/>
<path d="M2681 3665 c0 -16 4 -37 9 -45 8 -12 10 -11 9 5 -1 11 -5 31 -9 45
-8 24 -8 24 -9 -5z"/>
<path d="M2691 3595 c0 -5 6 -21 14 -35 8 -14 14 -20 14 -15 0 6 -6 21 -14 35
-8 14 -14 21 -14 15z"/>
<path d="M2724 3464 c3 -16 8 -47 11 -69 11 -70 28 -134 36 -130 3 3 3 24 -1
47 -26 137 -34 169 -42 175 -6 3 -8 -6 -4 -23z"/>
<path d="M405 2919 c-9 -27 -23 -160 -35 -339 -5 -80 -12 -156 -14 -170 -2
-14 0 -33 5 -42 6 -12 6 -18 0 -18 -7 0 -7 -7 0 -23 8 -17 6 -32 -8 -62 l-17
-40 -6 40 -5 40 -8 -55 c-10 -76 -9 -102 3 -95 6 3 10 15 10 26 0 10 3 19 8
19 4 0 6 -45 4 -100 -2 -64 0 -100 7 -100 6 0 8 -7 5 -15 -4 -8 -2 -15 4 -15
18 0 32 27 38 76 4 27 12 58 17 69 13 25 10 321 -4 347 -10 18 -7 91 11 288 6
58 10 124 10 148 0 44 -14 56 -25 21z"/>
<path d="M450 2087 c0 -7 7 -96 15 -197 15 -182 41 -312 71 -357 38 -60 1 -57
-58 5 -63 65 -121 154 -153 235 -29 71 -50 99 -40 50 29 -128 101 -281 153
-322 50 -41 63 -87 31 -114 -12 -10 -20 -20 -17 -22 9 -9 70 32 140 95 40 36
92 81 116 100 23 18 42 36 42 39 0 3 -14 14 -30 23 -17 9 -39 33 -51 52 -11
19 -27 37 -36 40 -22 9 -9 -40 23 -82 25 -33 24 -58 -3 -48 -8 3 -11 2 -8 -4
3 -5 -7 -24 -23 -41 l-29 -33 -17 32 c-40 78 -55 200 -20 171 22 -18 18 19
-10 98 -21 57 -50 169 -72 271 -5 23 -24 31 -24 9z m90 -633 c0 -17 -22 -14
-28 4 -2 7 3 12 12 12 9 0 16 -7 16 -16z"/>
<path d="M205 1261 c-36 -17 -99 -71 -81 -71 8 0 136 80 136 86 0 8 -15 4 -55
-15z"/>
</g>
</svg>
