<?xml version="1.0" standalone="no"?>
<!DOCTYPE svg PUBLIC "-//W3C//DTD SVG 20010904//EN"
 "http://www.w3.org/TR/2001/REC-SVG-20010904/DTD/svg10.dtd">
<svg version="1.0" xmlns="http://www.w3.org/2000/svg"
 width="510.000000pt" height="499.000000pt" viewBox="0 0 510.000000 499.000000"
 preserveAspectRatio="xMidYMid meet">

<g transform="translate(0.000000,499.000000) scale(0.100000,-0.100000)"
fill="#000000" stroke="none">
<path d="M0 2495 l0 -2495 1496 0 c980 0 1502 3 1514 10 13 7 21 7 25 0 11
-19 25 -10 23 14 -2 20 -6 23 -19 15 -10 -5 -28 -9 -41 -8 -22 0 -22 1 -3 9
11 5 14 9 8 9 -7 1 -13 5 -13 10 0 4 11 6 25 3 14 -2 25 0 25 5 0 5 9 9 19 10
16 1 18 -4 15 -27 -4 -22 0 -31 15 -40 27 -14 974 -14 966 1 -4 5 -10 7 -15 4
-4 -3 -10 4 -13 16 -4 16 -3 18 9 8 11 -9 14 -8 15 5 2 25 4 30 19 52 12 19
16 20 27 8 8 -8 20 -14 26 -14 7 0 6 4 -3 10 -13 9 -13 11 0 20 12 8 12 10 -5
10 -18 0 -17 2 7 25 15 14 31 25 36 25 5 0 15 7 22 15 7 8 20 15 30 15 20 0
56 72 45 91 -6 9 -1 10 21 5 17 -4 24 -3 16 2 -18 12 -7 34 30 57 18 11 42 27
54 35 11 8 44 29 72 45 49 30 55 46 22 57 -12 5 -12 7 4 13 11 5 21 3 26 -6 5
-7 12 -10 17 -6 4 5 1 12 -6 16 -11 7 -11 10 0 14 8 4 2 4 -13 1 -32 -7 -36 3
-10 22 15 13 15 13 -8 10 -14 -2 -31 2 -39 8 -12 9 -13 8 -8 -6 5 -14 -2 -22
-30 -33 -43 -18 -56 -19 -50 -2 2 6 14 12 25 11 14 0 24 7 28 20 4 12 19 31
33 44 l26 23 -27 -6 c-15 -4 -34 -3 -43 3 -14 7 -10 10 17 12 18 2 55 3 82 3
l48 0 -31 13 c-37 15 -39 26 -8 47 17 13 18 16 6 16 -9 1 -19 -5 -22 -13 -7
-18 -47 -9 -47 10 0 8 -5 14 -10 14 -6 0 -2 10 10 22 21 23 25 34 13 41 -5 2
-3 2 4 1 19 -5 24 12 13 40 -8 22 -7 26 8 26 15 0 15 2 2 10 -11 7 -8 10 15 9
17 0 24 -3 17 -6 -18 -7 5 -33 30 -33 18 0 18 1 2 17 -15 16 -15 17 2 24 14 6
10 8 -16 9 -26 2 -30 4 -15 8 11 4 22 16 23 27 2 11 9 23 15 27 9 6 8 11 -3
18 -9 6 -18 6 -24 0 -12 -12 -36 -13 -36 -2 0 4 15 14 33 22 24 12 38 13 55 6
26 -12 29 -26 6 -26 -23 0 -11 -24 14 -28 15 -2 22 -10 22 -24 0 -12 3 -18 7
-15 3 4 12 -1 19 -11 11 -15 13 -12 19 21 4 21 14 41 21 44 8 3 12 9 9 14 -9
14 -34 -1 -37 -24 -5 -32 -22 -30 -35 4 -10 26 -10 30 3 25 17 -7 49 20 35 28
-5 4 -11 1 -13 -4 -2 -6 -16 -8 -36 -4 -34 7 -44 23 -14 25 17 2 40 5 56 8 5
0 4 7 -2 14 -7 8 -7 17 2 29 11 15 15 16 41 2 22 -11 31 -12 39 -3 8 9 7 10
-7 6 -9 -4 -17 -2 -17 4 0 5 -11 14 -25 19 -29 11 -33 30 -7 31 11 1 9 4 -8 9
-41 13 -50 11 -50 -12 0 -17 3 -19 9 -9 6 10 10 10 16 1 4 -6 3 -16 -1 -20
-14 -14 -64 -23 -64 -12 0 5 -10 13 -22 16 -21 6 -20 8 15 22 41 18 47 29 17
37 -12 3 -18 11 -15 19 7 18 -20 44 -30 28 -10 -16 -28 -12 -21 5 3 10 -1 15
-14 15 -10 0 -22 5 -25 10 -4 6 -10 8 -15 5 -4 -3 -10 4 -13 15 -6 23 3 26 22
7 11 -10 13 -8 9 10 -4 14 0 23 11 27 9 3 26 10 39 16 18 7 23 7 20 -2 -6 -18
17 -39 35 -33 7 3 14 12 14 20 0 8 -4 12 -8 9 -10 -6 -37 48 -31 64 2 7 7 10
11 8 4 -3 13 0 21 5 13 8 13 10 1 18 -11 7 -9 10 7 15 13 4 19 13 15 22 -3 8
1 14 8 14 7 0 20 7 29 15 9 8 35 17 57 20 34 4 41 2 39 -12 0 -10 6 -18 14
-18 8 -1 28 -7 44 -13 16 -7 35 -11 43 -8 8 4 13 -2 13 -16 0 -15 3 -19 10
-12 20 20 -1 42 -45 48 -26 4 -42 12 -41 19 4 18 16 50 27 69 8 15 6 16 -17 7
-15 -5 -29 -7 -32 -4 -10 9 32 35 50 31 10 -2 21 0 24 5 3 5 0 9 -6 9 -6 0
-15 11 -20 25 -5 14 -16 25 -25 25 -18 0 -19 -12 -3 -28 10 -10 6 -11 -18 -6
-27 5 -30 3 -29 -21 0 -16 12 -39 29 -56 l29 -29 -26 0 c-14 0 -27 6 -30 13
-3 8 -9 7 -18 -6 -13 -16 -16 -16 -37 -2 -27 20 -28 35 -2 35 30 0 24 18 -7
22 -14 2 -28 9 -29 16 -1 7 0 8 3 2 11 -23 40 -5 47 30 1 3 5 11 10 19 7 11 3
13 -22 8 -17 -4 -34 -2 -37 3 -3 6 -2 10 4 10 6 0 8 7 5 15 -8 20 -24 9 -25
-18 0 -21 -1 -21 -10 2 -13 32 -2 61 22 61 10 0 19 5 19 10 0 6 -12 10 -26 10
-19 0 -25 4 -20 15 3 8 1 15 -4 15 -5 0 -7 7 -4 15 4 8 12 15 20 15 8 0 14 5
14 11 0 5 -5 7 -10 4 -6 -3 -13 1 -16 9 -3 9 -14 16 -24 16 -27 0 -34 17 -13
30 17 11 17 11 -1 6 -10 -4 -25 -1 -32 5 -17 14 -18 5 -2 -21 15 -23 1 -41
-15 -20 -7 8 -24 21 -40 29 -22 12 -30 12 -40 2 -10 -11 -8 -12 10 -6 19 5 23
2 23 -14 0 -12 5 -21 11 -21 7 0 10 -14 7 -35 -2 -20 0 -35 6 -35 6 0 0 -7
-12 -16 -27 -18 -38 -13 -27 13 12 28 13 53 2 53 -5 0 -16 -8 -24 -18 -8 -9
-12 -12 -9 -5 4 6 2 14 -3 18 -6 3 -8 12 -4 20 7 21 -17 19 -33 -2 -7 -10 -14
-13 -14 -6 0 6 4 15 10 18 6 3 10 13 10 20 0 11 -8 13 -30 9 -29 -6 -42 7 -20
21 6 3 10 19 10 34 0 23 -5 30 -25 33 -18 4 -25 1 -26 -11 -1 -9 -6 -1 -12 17
-11 37 -6 48 20 37 17 -7 17 -8 -2 -16 -18 -8 -17 -8 5 -6 35 3 32 30 -5 42
-20 7 -29 16 -27 27 2 9 -5 18 -15 21 -15 4 -15 5 -2 6 22 1 29 33 13 56 -8
11 -12 27 -8 37 3 10 1 18 -5 18 -6 0 -11 5 -11 10 0 6 11 8 25 4 19 -5 31 -1
45 16 11 13 20 28 20 34 0 11 48 56 60 56 4 0 10 14 14 31 4 23 10 29 23 25
15 -5 18 0 18 30 l0 35 -24 -28 c-13 -15 -20 -23 -17 -16 4 6 2 14 -4 18 -6 4
-8 10 -5 15 3 5 -4 14 -16 21 -19 10 -21 9 -16 -5 4 -11 3 -15 -4 -11 -5 4
-16 1 -24 -5 -12 -10 -15 -10 -15 0 0 22 43 49 62 39 10 -5 19 -5 23 0 3 5 -5
11 -17 13 -25 4 -37 28 -14 28 9 0 16 5 16 10 0 6 -9 10 -19 10 -22 0 -38 19
-25 29 10 7 13 61 4 61 -7 0 -51 -30 -68 -47 -8 -7 -9 -13 -3 -13 6 0 8 -6 5
-14 -4 -11 0 -13 18 -9 17 3 19 2 9 -5 -17 -12 -80 -7 -94 7 -8 8 -7 11 2 11
25 0 56 34 53 58 -2 12 -8 20 -13 16 -5 -3 -7 -10 -4 -15 4 -5 -1 -9 -9 -9 -9
0 -16 5 -16 10 0 6 -5 10 -11 10 -7 0 -9 -9 -6 -22 5 -20 4 -21 -6 -7 -7 8
-20 18 -30 22 -10 4 -15 11 -12 17 4 6 11 8 16 5 5 -4 9 1 9 9 0 10 6 13 15
10 8 -4 15 -1 15 5 0 6 -5 11 -11 11 -7 0 -5 10 5 25 10 16 12 25 5 25 -6 0
-8 7 -5 16 3 9 2 12 -5 9 -5 -4 -7 -15 -4 -26 4 -11 2 -19 -4 -19 -6 0 -11 -7
-11 -15 0 -8 -7 -15 -15 -15 -8 0 -15 9 -15 19 0 11 -9 22 -19 26 -13 4 -17
12 -14 25 5 17 0 20 -30 20 -19 0 -37 -5 -39 -11 -7 -20 -36 2 -34 27 1 29 10
31 22 4 6 -14 13 -17 24 -10 12 8 11 13 -8 33 -13 14 -20 30 -17 39 6 16 -29
58 -48 58 -4 0 -1 7 7 16 9 8 16 21 16 27 0 8 -3 7 -9 -2 -6 -9 -11 -10 -15
-2 -4 6 -12 9 -17 6 -10 -7 -40 19 -43 38 -1 6 -5 17 -9 24 -4 7 2 18 14 27
12 8 23 24 24 36 1 11 11 33 23 50 27 37 27 40 0 40 -13 0 -30 5 -38 10 -12 8
-12 10 5 10 16 0 17 2 5 9 -8 6 -18 7 -22 5 -4 -3 -8 2 -8 10 0 11 -9 16 -26
16 -23 0 -25 2 -13 16 8 10 15 12 17 5 2 -6 15 -11 28 -11 14 0 22 -4 19 -10
-6 -10 6 -14 40 -10 28 3 29 6 11 32 -9 12 -17 19 -17 15 -1 -4 -2 -11 -3 -16
-4 -29 -16 -18 -16 15 -1 32 -3 36 -11 21 -6 -9 -15 -15 -20 -12 -5 4 -7 11
-4 16 13 20 -25 8 -39 -13 -9 -12 -19 -18 -23 -14 -4 4 -2 11 6 15 7 5 11 10
10 12 -2 2 5 14 16 26 14 16 23 19 35 13 10 -5 20 -7 22 -4 3 3 9 -7 12 -22 5
-19 12 -25 26 -21 11 3 21 -1 25 -10 5 -14 8 -13 25 2 20 18 20 18 -2 34 -13
8 -28 22 -35 31 -8 10 -12 11 -13 3 0 -7 -5 -13 -11 -13 -5 0 -7 5 -4 10 3 6
-1 13 -9 16 -10 4 -16 18 -16 35 0 27 2 29 28 23 15 -4 29 -10 32 -14 3 -4 23
-10 45 -14 l40 -6 -23 19 c-13 11 -21 25 -17 31 9 14 -8 13 -23 -2 -8 -8 -12
-8 -12 -1 0 11 22 23 41 23 5 0 9 -7 9 -15 0 -8 7 -15 15 -15 8 0 15 8 15 18
0 12 8 17 28 18 15 1 38 5 52 9 16 4 20 4 12 -3 -16 -11 -2 -25 51 -47 20 -8
37 -19 37 -24 0 -4 11 -6 24 -4 37 7 40 -29 5 -63 -16 -15 -29 -33 -29 -40 0
-12 -61 -29 -95 -25 -14 1 -16 -1 -7 -7 7 -5 10 -16 6 -26 -5 -13 -9 -14 -20
-5 -11 9 -14 8 -14 -5 0 -9 -8 -16 -17 -16 -15 0 -16 -2 -3 -10 13 -9 13 -11
0 -20 -23 -15 -32 -12 -28 12 2 16 -4 23 -25 29 l-27 7 20 -25 c11 -14 18 -29
15 -33 -6 -9 30 -20 67 -20 17 0 27 5 25 12 -1 7 8 14 20 16 18 3 22 0 16 -14
-4 -12 -2 -15 8 -12 16 5 19 30 6 39 -11 8 21 55 41 63 8 4 10 1 6 -7 -4 -6 3
-2 15 10 11 12 21 28 21 36 0 17 42 57 59 57 7 0 26 8 42 17 28 17 30 17 45
-5 12 -17 19 -20 28 -13 18 15 27 2 15 -21 -11 -20 -3 -40 9 -23 12 17 36 11
53 -13 9 -13 19 -23 23 -23 18 3 19 -1 3 -8 -15 -6 -9 -12 35 -36 29 -16 58
-35 64 -43 8 -11 13 -12 18 -4 4 7 11 12 17 12 12 0 12 -37 -1 -45 -14 -9 -60
-101 -60 -120 0 -8 5 -15 10 -15 6 0 10 -7 10 -15 0 -8 9 -15 20 -15 28 0 26
-30 -2 -31 -13 -1 -29 -1 -35 0 -7 1 -13 -3 -13 -9 0 -5 4 -10 10 -10 5 0 7
-7 4 -15 -4 -10 0 -15 14 -15 18 0 22 -13 12 -40 -1 -3 -2 -12 -1 -22 1 -9 -3
-19 -8 -22 -6 -4 -7 -14 -4 -22 5 -14 3 -15 -15 -5 -33 17 -50 13 -26 -7 11
-10 24 -30 28 -45 8 -32 26 -36 26 -5 0 12 3 18 6 15 4 -3 18 3 32 14 14 11
28 16 31 12 3 -5 20 -15 36 -22 l30 -14 -25 -8 c-27 -10 -58 -59 -36 -59 6 0
17 9 24 20 7 12 17 18 22 15 6 -4 17 1 26 9 18 19 38 20 63 4 11 -6 16 -19 14
-29 -3 -11 -9 -16 -14 -13 -5 3 -7 10 -4 15 4 5 1 9 -4 9 -6 0 -11 -6 -11 -14
0 -8 -9 -18 -20 -21 -11 -3 -25 -15 -30 -25 -8 -16 -8 -18 5 -14 17 7 21 -11
5 -21 -16 -10 -1 -25 23 -24 20 1 20 2 -3 9 -24 8 -24 8 8 11 17 1 37 2 44 3
6 1 13 -5 16 -12 2 -7 0 -12 -5 -11 -18 3 -36 -1 -29 -8 3 -4 -4 -13 -16 -20
-21 -12 -20 -12 15 -8 37 4 52 -9 20 -19 -11 -3 -7 -4 7 -3 17 1 25 8 24 20
-1 9 3 17 8 17 5 0 8 -10 7 -22 -1 -13 4 -35 11 -50 10 -22 20 -28 45 -28 30
0 32 -2 29 -37 -1 -21 -2 -41 -3 -44 -1 -4 -10 -9 -22 -12 -16 -4 -19 -11 -14
-26 4 -12 2 -21 -4 -21 -6 0 -11 7 -11 16 0 8 -4 13 -9 9 -5 -3 -12 -1 -16 5
-4 6 -13 5 -25 -2 -13 -9 -16 -16 -9 -24 6 -7 6 -15 1 -18 -12 -7 -3 -56 10
-56 5 0 7 14 4 31 -3 20 -1 29 7 26 7 -2 13 -12 15 -23 2 -16 11 -20 40 -21
32 -1 34 0 19 12 -23 17 -22 28 2 15 11 -5 22 -10 25 -10 13 0 5 24 -11 37
-17 14 -17 14 0 9 19 -6 24 10 5 17 -10 4 -10 6 0 6 9 1 12 276 12 1341 l0
1340 -2550 0 -2550 0 0 -2495z m2084 2075 c10 -20 12 -38 6 -57 -9 -31 -12
-30 -14 7 -1 14 -5 31 -9 38 -5 6 -5 17 -2 22 3 6 1 10 -4 10 -6 0 -11 5 -11
11 0 17 18 1 34 -31z m329 -45 c4 -8 2 -17 -3 -20 -6 -4 -10 3 -10 14 0 25 6
27 13 6z m172 -118 c16 -13 15 -14 -13 -9 -18 2 -32 8 -32 13 0 13 24 11 45
-4z m114 -61 c-12 -10 -49 -16 -49 -7 0 5 10 11 23 13 22 4 34 1 26 -6z m71
-31 c16 -19 0 -19 -26 0 -16 12 -16 14 -3 15 9 0 22 -7 29 -15z m516 -12 c4
-16 14 -38 22 -50 13 -20 13 -23 -1 -23 -8 0 -17 7 -21 15 -3 9 -12 12 -23 8
-10 -3 -15 -2 -10 2 4 5 -5 16 -19 26 -16 10 -22 19 -15 23 6 4 15 5 20 2 5
-3 11 1 15 9 9 24 25 17 32 -12z m-759 -29 c-3 -3 -12 -4 -19 -1 -8 3 -5 6 6
6 11 1 17 -2 13 -5z m168 -13 c10 -18 -17 -23 -33 -7 -15 15 -15 16 5 16 12 0
24 -4 28 -9z m25 -16 c0 -8 -4 -15 -10 -15 -5 0 -7 7 -4 15 4 8 8 15 10 15 2
0 4 -7 4 -15z m40 -5 c12 -8 11 -10 -7 -10 -13 0 -23 5 -23 10 0 13 11 13 30
0z m-323 -22 c-3 -8 -6 -5 -6 6 -1 11 2 17 5 13 3 -3 4 -12 1 -19z m728 1 c-4
-6 1 -17 11 -25 17 -12 15 -13 -14 -3 -26 9 -30 14 -21 25 13 16 33 19 24 3z
m245 1 c0 -5 -7 -10 -15 -10 -8 0 -15 5 -15 10 0 6 7 10 15 10 8 0 15 -4 15
-10z m-934 -9 c-3 -5 1 -14 9 -21 27 -22 18 -57 -17 -70 -29 -10 -31 -13 -14
-19 14 -5 16 -10 8 -15 -9 -5 -9 -12 -1 -28 10 -18 8 -25 -10 -39 -29 -24 -26
-39 7 -40 15 -1 20 -3 10 -6 -11 -3 -15 -10 -11 -21 3 -10 -7 -4 -23 13 -16
16 -28 33 -26 37 1 5 -5 8 -13 8 -8 0 -19 9 -25 20 -6 11 -15 18 -20 15 -5 -3
-11 -1 -15 5 -3 6 3 10 15 10 22 0 22 6 2 59 -3 9 -1 12 6 7 7 -4 12 -2 12 6
0 7 6 4 12 -7 6 -11 12 -21 13 -23 8 -10 33 12 28 25 -5 13 -1 15 20 9 23 -5
27 -3 27 14 0 11 -4 20 -10 20 -14 0 -13 23 2 38 14 14 22 16 14 3z m744 -1
c0 -5 -2 -10 -4 -10 -3 0 -8 5 -11 10 -3 6 -1 10 4 10 6 0 11 -4 11 -10z
m-120 -15 c0 -8 -7 -15 -15 -15 -13 0 -14 3 -3 15 16 18 18 18 18 0z m360 11
c0 -2 -7 -7 -16 -10 -8 -3 -12 -2 -9 4 6 10 25 14 25 6z m-493 -12 c-3 -3 -12
-4 -19 -1 -8 3 -5 6 6 6 11 1 17 -2 13 -5z m-981 -50 c-3 -8 0 -14 7 -14 7 0
22 -7 33 -15 18 -13 17 -14 -11 -12 -19 1 -29 -2 -27 -10 1 -7 -5 -13 -13 -13
-12 0 -13 4 -5 19 14 27 13 31 -7 32 -16 1 -17 2 -1 6 11 3 15 10 11 20 -4 11
-3 14 6 9 7 -5 10 -14 7 -22z m1218 4 c53 -29 50 -27 42 -35 -11 -11 -87 -12
-80 -1 4 5 15 8 25 5 27 -7 23 8 -5 21 -19 8 -27 8 -35 -2 -6 -7 -8 -16 -4
-19 3 -4 2 -7 -3 -7 -6 0 -15 5 -22 12 -8 8 -6 16 10 30 26 22 22 23 72 -4z
m-1301 -5 c-7 -2 -19 -2 -25 0 -7 3 -2 5 12 5 14 0 19 -2 13 -5z m143 -8 c17
-16 14 -18 -10 -9 -9 3 -16 10 -16 15 0 13 9 11 26 -6z m269 -6 c-5 -13 -3
-19 3 -15 5 3 12 -3 15 -14 8 -30 -10 -24 -27 9 -15 27 -12 41 6 41 5 0 6 -10
3 -21z m750 -9 c-3 -5 -13 -10 -21 -10 -8 0 -14 5 -14 10 0 6 9 10 21 10 11 0
17 -4 14 -10z m-1138 -6 c-3 -3 -12 -4 -19 -1 -8 3 -5 6 6 6 11 1 17 -2 13 -5z
m1358 -3 c3 -5 1 -12 -5 -16 -5 -3 -10 1 -10 9 0 18 6 21 15 7z m-720 -31 c17
-33 18 -40 7 -40 -4 0 -12 16 -18 35 -13 43 -10 45 11 5z m235 26 c0 -2 -7 -6
-15 -10 -8 -3 -15 -1 -15 4 0 6 7 10 15 10 8 0 15 -2 15 -4z m110 -7 c0 -5 -9
-9 -21 -9 -11 0 -17 -4 -14 -10 3 -5 -3 -10 -13 -10 -34 0 -16 37 19 38 16 0
29 -4 29 -9z m-1050 -3 c0 -11 -19 -15 -25 -6 -3 5 1 10 9 10 9 0 16 -2 16 -4z
m168 -18 c12 -12 36 -19 64 -19 9 0 22 -7 29 -15 24 -30 114 -10 102 23 -6 15
-5 15 17 0 14 -9 38 -17 54 -17 41 0 28 -9 -17 -12 -41 -2 -49 -14 -14 -21 22
-4 22 -4 -3 -15 -24 -12 -24 -12 8 -6 20 3 32 2 32 -5 0 -6 7 -11 15 -11 9 0
12 6 8 18 -4 11 0 10 11 -5 10 -13 23 -23 30 -23 8 0 24 -13 37 -30 13 -16 29
-30 35 -30 15 0 21 -18 20 -52 -1 -16 2 -28 6 -28 4 0 8 7 8 15 0 8 5 15 10
15 7 0 7 -6 0 -20 -14 -26 -20 -25 -48 8 -13 15 -20 21 -17 14 4 -7 2 -19 -5
-27 -7 -9 -8 -15 0 -20 5 -3 10 -1 10 5 0 6 5 8 10 5 17 -10 11 -21 -15 -33
-34 -16 -40 -15 -25 3 10 12 9 15 -4 15 -16 0 -16 1 -2 16 20 20 10 40 -11 23
-12 -10 -18 -8 -37 14 -13 15 -28 27 -35 27 -6 0 -11 5 -11 11 0 7 9 9 21 6
16 -4 20 -1 17 16 -2 17 -10 22 -38 23 -63 2 -71 4 -66 13 3 5 -1 12 -10 15
-28 11 -57 6 -78 -11 -21 -18 -21 -18 -2 5 19 22 19 22 0 22 -13 0 -15 3 -6 8
9 7 8 13 -8 27 -19 17 -21 17 -45 -8 -24 -24 -25 -26 -8 -36 28 -16 0 -13 -35
5 -34 16 -50 34 -33 34 6 0 11 -6 12 -12 0 -9 2 -9 5 -2 3 7 14 10 24 7 29 -8
25 6 -12 44 -18 18 -27 33 -22 33 6 0 15 -5 22 -12z m1192 2 c0 -5 -2 -10 -4
-10 -3 0 -8 5 -11 10 -3 6 -1 10 4 10 6 0 11 -4 11 -10z m60 -22 c0 -9 3 -9
12 0 14 14 48 16 48 2 0 -5 -7 -7 -15 -4 -9 4 -15 0 -15 -10 0 -22 -13 -20
-35 4 -10 11 -13 20 -7 20 7 0 12 -5 12 -12z m545 -20 c30 -13 30 -42 0 -46
-21 -3 -50 32 -40 48 8 13 9 12 40 -2z m-1042 -15 c-3 -8 -13 -9 -31 -3 -15 5
-34 11 -42 13 -8 3 6 4 31 3 31 0 45 -5 42 -13z m130 -16 c-6 -10 -86 -2 -106
10 -7 4 -2 9 13 13 31 7 101 -10 93 -23z m739 -2 c5 -23 0 -29 -19 -22 -12 4
-14 37 -2 37 5 0 7 5 3 12 -4 6 -3 8 3 5 6 -4 13 -18 15 -32z m-1542 -5 c0
-11 -4 -20 -8 -20 -4 0 -8 9 -9 20 -1 11 2 20 8 20 5 0 9 -9 9 -20z m1620 -10
c0 -5 -5 -10 -11 -10 -5 0 -7 5 -4 10 3 6 8 10 11 10 2 0 4 -4 4 -10z m-1184
-29 c-4 -5 0 -12 6 -14 7 -3 4 -6 -8 -6 -12 -1 -21 5 -21 14 0 8 7 15 14 15 8
0 12 -4 9 -9z m219 -1 c3 -5 1 -10 -4 -10 -6 0 -11 5 -11 10 0 6 2 10 4 10 3
0 8 -4 11 -10z m900 0 c-3 -5 -12 -10 -18 -10 -7 0 -6 4 3 10 19 12 23 12 15
0z m-1572 -7 c-7 -2 -21 -2 -30 0 -10 3 -4 5 12 5 17 0 24 -2 18 -5z m621 -8
c-7 -16 -24 -21 -24 -6 0 8 7 13 27 20 1 1 0 -6 -3 -14z m891 5 c3 -6 -1 -7
-9 -4 -18 7 -21 14 -7 14 6 0 13 -4 16 -10z m-1402 -7 c-7 -2 -21 -2 -30 0
-10 3 -4 5 12 5 17 0 24 -2 18 -5z m1017 -28 c0 -16 -27 -32 -37 -22 -3 4 -3
13 0 22 8 20 37 20 37 0z m-540 -3 c0 -11 92 -9 109 2 9 6 12 5 7 -2 -3 -6 1
-12 10 -14 14 -3 13 -6 -4 -25 -11 -13 -22 -23 -26 -23 -4 0 -5 10 -2 23 3 12
3 16 0 10 -7 -15 -40 -17 -49 -3 -3 6 -17 10 -31 10 -13 0 -24 5 -24 10 0 6
-12 8 -27 4 -22 -4 -25 -3 -13 5 18 13 50 14 50 3z m160 -2 c8 -5 11 -12 8
-16 -4 -3 -14 1 -23 10 -18 17 -9 21 15 6z m-316 -35 c-4 -8 -7 -15 -9 -15 -2
0 -5 7 -9 15 -3 9 0 15 9 15 9 0 12 -6 9 -15z m1251 -5 c3 -5 1 -10 -4 -10 -6
0 -11 5 -11 10 0 6 2 10 4 10 3 0 8 -4 11 -10z m-1887 -9 c23 -6 23 -7 5 -23
-17 -15 -21 -15 -55 0 -21 9 -38 20 -38 24 0 9 55 9 88 -1z m952 -11 c6 -11 7
-20 3 -20 -15 1 -43 27 -36 33 11 12 22 8 33 -13z m-80 -4 c0 -3 -4 -8 -10
-11 -5 -3 -10 -1 -10 4 0 6 5 11 10 11 6 0 10 -2 10 -4z m980 -1 c0 -2 -9 -9
-20 -15 -16 -9 -20 -8 -20 5 0 8 9 15 20 15 11 0 20 -2 20 -5z m-1776 -13 c3
-4 -11 -9 -30 -9 -18 -1 -31 3 -28 8 7 11 51 12 58 1z m1136 -2 c0 -5 -2 -10
-4 -10 -3 0 -8 5 -11 10 -3 6 -1 10 4 10 6 0 11 -4 11 -10z m-1242 -28 c-10
-2 -18 -7 -18 -12 0 -5 8 -7 18 -3 16 6 16 5 0 -14 -20 -22 -23 -33 -8 -33 6
0 10 7 10 15 0 8 7 15 15 15 8 0 15 -7 15 -15 0 -22 21 -18 27 5 6 24 10 25
29 5 14 -13 13 -15 -4 -15 -11 0 -25 -7 -32 -15 -10 -12 -10 -15 4 -15 9 0 16
4 16 9 0 8 10 8 40 1 3 0 -6 -7 -20 -15 -14 -8 -33 -12 -42 -9 -10 3 -18 1
-18 -5 0 -6 5 -11 10 -11 6 0 10 -7 10 -15 0 -20 -28 -8 -35 16 -4 10 -11 19
-16 19 -6 0 -7 -9 -4 -20 4 -11 2 -20 -4 -20 -10 0 -15 14 -12 33 0 4 -8 7
-19 7 -17 0 -20 -7 -20 -39 0 -34 3 -38 19 -34 28 7 41 -25 25 -62 -7 -16 -13
-23 -14 -15 0 9 -9 16 -19 17 -14 1 -19 -4 -18 -18 1 -19 5 -20 70 -22 17 0
35 -4 38 -9 5 -9 77 -15 82 -7 1 2 13 19 26 38 19 27 21 35 10 42 -9 6 -10 9
-2 9 6 0 19 -10 28 -22 12 -18 19 -20 33 -13 9 6 32 8 50 5 l34 -5 -31 -29
c-55 -53 -39 -62 59 -36 44 12 53 12 45 0 -3 -5 7 -3 22 5 15 8 36 15 46 15
17 0 58 17 162 66 86 41 65 9 -29 -43 -22 -13 -36 -23 -31 -23 20 0 -21 -20
-42 -20 -12 0 -26 -7 -31 -16 -5 -9 -12 -15 -16 -15 -3 1 -17 -6 -31 -15 -13
-9 -29 -13 -35 -9 -5 3 -10 2 -10 -4 0 -6 -7 -8 -15 -5 -8 4 -15 2 -15 -4 0
-9 -118 -63 -167 -77 -13 -4 -23 -11 -23 -16 0 -5 -7 -9 -15 -9 -7 0 -18 -6
-22 -13 -4 -8 -17 -19 -28 -25 -16 -9 -11 -10 29 -5 36 4 47 3 42 -5 -5 -8 1
-12 14 -12 20 0 20 1 5 16 -9 9 -13 19 -9 23 4 3 9 0 11 -6 3 -7 18 -13 35
-13 27 0 28 1 14 16 -9 8 -16 18 -16 21 0 4 3 3 7 0 3 -4 12 -2 18 3 8 7 18 4
30 -10 10 -11 25 -20 34 -20 13 1 13 3 -3 15 -11 8 -16 18 -12 22 8 9 45 -35
46 -55 0 -6 5 -11 12 -10 7 2 12 -2 13 -7 0 -12 100 -109 115 -112 5 -2 10 4
10 12 0 9 9 15 23 15 18 0 19 2 7 11 -12 9 -10 10 8 6 19 -5 21 -3 11 9 -9 11
-8 14 5 14 9 0 16 5 16 10 0 13 69 5 83 -9 14 -14 19 -71 6 -71 -5 0 -8 4 -4
9 3 5 1 12 -5 16 -5 3 -10 -1 -10 -9 0 -9 -4 -16 -10 -16 -5 0 -7 -7 -4 -15 7
-16 46 -11 52 7 2 5 9 5 16 -1 14 -12 88 -2 80 10 -3 5 5 9 18 10 13 0 34 3
48 5 l25 5 -24 -18 c-23 -16 -23 -17 -5 -24 17 -7 17 -8 -3 -8 -13 -1 -32 -10
-43 -21 -21 -21 -46 -28 -35 -10 3 6 -1 10 -9 10 -9 0 -16 -5 -16 -10 0 -6
-11 -15 -25 -22 -20 -9 -22 -14 -14 -29 5 -11 16 -19 24 -19 8 0 13 -6 11 -12
-1 -7 -1 -10 1 -5 3 4 11 7 19 7 20 0 17 20 -3 21 -14 0 -15 2 -3 6 8 3 22 11
30 19 8 7 17 12 20 12 15 -3 80 14 80 20 0 5 16 6 35 4 19 -2 35 -9 35 -15 0
-6 7 -4 17 5 14 14 14 20 3 33 -11 13 -10 14 6 8 36 -13 52 -39 22 -34 -5 0
-8 -5 -8 -13 0 -10 9 -12 43 -5 58 11 77 11 77 -2 0 -6 -7 -8 -16 -5 -8 3 -12
2 -9 -4 3 -6 -3 -10 -14 -10 -12 0 -21 -6 -21 -12 0 -9 -4 -8 -10 2 -8 12 -10
11 -10 -7 0 -23 19 -43 21 -21 0 10 2 10 6 1 2 -7 9 -13 14 -13 6 0 5 8 -1 20
-7 12 -7 20 -1 20 5 0 13 -9 16 -20 7 -22 20 -26 30 -10 5 8 12 7 23 -2 12
-10 16 -10 19 0 3 6 9 12 15 12 6 0 5 -7 -3 -16 -7 -8 -21 -13 -31 -11 -10 3
-21 0 -25 -6 -3 -7 -3 -9 2 -5 12 11 45 -11 39 -26 -3 -7 -24 -17 -47 -21 -38
-6 -40 -8 -19 -16 14 -5 20 -13 16 -20 -5 -8 -3 -9 5 -5 7 5 10 14 7 22 -4 10
2 12 27 7 18 -3 35 -10 38 -16 4 -5 9 -5 13 2 4 6 12 11 18 11 6 0 5 -6 -3
-16 -10 -13 -10 -17 2 -25 8 -5 9 -9 3 -9 -6 0 -17 7 -24 15 -15 19 -38 19
-70 0 -25 -14 -24 -15 11 -9 26 3 41 0 53 -11 10 -10 24 -14 36 -10 18 6 20 3
17 -22 -5 -34 11 -84 32 -100 9 -7 11 -13 5 -13 -13 0 -6 -60 7 -60 5 0 9 -9
9 -19 0 -34 11 -51 34 -51 14 0 17 -3 8 -8 -16 -10 -5 -42 14 -42 8 0 14 10
14 24 0 16 5 23 15 22 21 -3 31 -16 12 -16 -9 0 -17 -5 -17 -11 0 -6 7 -9 15
-5 8 3 15 1 15 -4 0 -6 -8 -10 -17 -10 -16 -1 -16 -2 2 -16 13 -11 16 -18 8
-21 -9 -3 -9 -12 -2 -30 5 -13 7 -28 4 -33 -3 -5 -1 -11 5 -15 5 -3 10 -1 10
4 0 34 15 50 41 44 13 -4 16 -9 10 -17 -7 -8 0 -11 22 -10 49 2 50 3 38 18 -7
8 -8 17 -4 19 12 7 29 -4 35 -23 4 -11 9 -7 16 12 8 19 16 26 27 22 8 -3 15
-11 15 -16 0 -6 7 -7 15 -4 9 3 18 -1 21 -9 4 -8 15 -15 25 -15 10 0 19 -4 19
-10 0 -6 19 -8 44 -5 42 4 44 3 48 -25 3 -17 0 -30 -5 -30 -5 0 -4 -6 2 -13 6
-8 12 -22 14 -33 1 -10 6 -24 10 -31 4 -6 4 -19 0 -29 -4 -12 -3 -15 5 -10 8
5 12 0 12 -14 0 -18 3 -19 21 -10 25 14 41 2 16 -12 -14 -8 -16 -13 -6 -24 14
-17 43 -19 36 -1 -3 7 5 13 19 13 13 1 24 -4 24 -10 0 -13 -3 -14 -53 -19 -15
-2 -27 -8 -26 -13 0 -5 6 -8 14 -6 9 2 12 -4 8 -18 -3 -11 -1 -20 3 -20 5 0
15 -14 23 -31 10 -24 11 -36 3 -49 -8 -13 -7 -23 4 -39 8 -11 14 -26 13 -33
-3 -28 2 -38 20 -38 28 0 34 27 8 34 -37 9 -13 15 27 6 48 -11 47 -10 37 -48
-5 -18 -6 -32 -2 -32 4 0 6 -13 3 -30 -2 -16 -7 -28 -11 -26 -4 3 -7 -5 -7
-17 -1 -107 -4 -119 -24 -112 -14 5 -20 2 -20 -9 0 -9 8 -16 18 -16 16 0 18
-7 14 -57 -2 -32 -8 -76 -14 -98 -5 -22 -10 -46 -10 -53 -1 -8 -9 -11 -20 -9
-10 3 -18 1 -18 -4 0 -5 -7 -9 -15 -9 -8 0 -14 -5 -13 -12 2 -6 -4 -13 -13
-15 -12 -3 -16 3 -16 24 0 77 -3 100 -17 100 -11 0 -12 -5 -5 -18 13 -24 -14
-49 -54 -50 -18 -1 -24 -3 -14 -6 21 -6 22 -29 1 -37 -10 -4 -14 -14 -11 -26
3 -11 2 -20 -2 -20 -11 0 -30 -37 -36 -71 -3 -17 -11 -41 -18 -53 -6 -11 -10
-24 -9 -28 4 -15 -16 -8 -22 8 -8 20 -26 9 -26 -16 0 -10 -7 -20 -16 -22 -13
-2 -11 -8 10 -31 14 -15 23 -27 21 -27 -2 0 -11 -3 -21 -7 -12 -4 -15 -3 -10
5 4 7 2 12 -3 12 -6 0 -11 -7 -11 -16 0 -8 -4 -12 -10 -9 -5 3 -10 1 -10 -4 0
-6 7 -11 16 -11 8 0 13 -4 9 -9 -3 -5 -1 -12 5 -16 6 -4 7 -11 4 -17 -5 -7
-12 -5 -20 7 -12 16 -14 16 -28 2 -21 -20 -20 -27 2 -25 9 1 26 0 36 0 17 -2
18 -4 4 -19 -8 -10 -18 -26 -21 -35 -4 -11 -12 -15 -22 -12 -8 3 -15 1 -15 -5
0 -6 10 -12 23 -12 18 -1 18 -2 4 -6 -11 -3 -16 -11 -13 -18 3 -9 0 -12 -10
-8 -12 4 -14 0 -8 -21 5 -22 3 -28 -13 -32 -19 -5 -25 -36 -10 -50 13 -14 7
-26 -7 -15 -11 10 -17 4 -29 -32 -8 -24 -13 -58 -11 -75 2 -17 -2 -37 -9 -44
-7 -7 -13 -24 -14 -37 -2 -31 -12 -39 -23 -21 -8 12 -10 11 -11 -5 -1 -11 -2
-26 -2 -33 1 -18 -35 -54 -46 -48 -5 3 -6 17 -3 31 3 19 0 25 -13 25 -15 0
-15 2 -4 16 10 13 10 17 -2 25 -8 5 -9 9 -4 9 6 0 3 5 -5 10 -12 8 -11 11 8
16 15 4 21 12 18 21 -3 8 -6 19 -6 24 0 5 -8 10 -17 10 -17 1 -17 2 0 6 9 2
17 11 17 19 0 8 -4 13 -9 9 -13 -7 -26 16 -14 24 6 3 12 18 15 34 4 21 1 27
-13 27 -11 0 -19 5 -19 11 0 6 9 9 20 6 13 -3 20 0 20 9 0 13 -12 18 -32 15
-16 -2 -7 19 11 28 28 15 34 52 10 58 -24 7 -24 15 1 38 24 21 26 41 5 49 -8
3 -15 1 -15 -4 0 -6 -7 -10 -15 -10 -18 0 -19 -5 -1 -63 l14 -47 -26 1 c-23 0
-24 2 -8 8 12 5 15 10 9 14 -6 4 -25 0 -42 -9 -40 -20 -49 -13 -27 21 14 22
15 25 1 25 -8 0 -15 4 -15 9 0 20 -54 3 -72 -23 -24 -32 -38 -33 -38 -4 0 12
-3 18 -7 14 -5 -4 -8 -16 -8 -27 0 -27 -19 -28 -23 -2 -3 17 5 26 35 40 24 12
39 26 41 40 2 12 10 24 18 27 11 4 13 0 8 -19 -4 -15 -2 -25 5 -25 6 0 11 20
12 48 0 26 2 62 3 80 1 17 -1 32 -6 32 -4 0 -8 -4 -8 -10 0 -5 -4 -10 -10 -10
-5 0 -7 7 -4 15 4 9 1 15 -7 15 -8 0 -6 5 6 14 11 8 16 19 12 30 -8 20 -27 21
-27 1 0 -8 -7 -15 -16 -15 -10 0 -14 -5 -10 -16 3 -8 2 -12 -4 -9 -6 3 -10 2
-10 -4 0 -5 -7 -17 -16 -25 -11 -11 -12 -16 -3 -16 10 0 10 -3 1 -12 -7 -7
-12 -36 -12 -64 0 -46 -2 -53 -20 -51 -15 1 -18 6 -14 24 4 13 2 23 -4 23 -16
0 -22 -13 -24 -56 -2 -22 -5 -41 -8 -44 -15 -15 -60 -88 -60 -97 0 -6 9 -9 20
-6 13 4 26 -1 35 -13 8 -11 15 -14 15 -7 0 6 9 9 20 6 13 -4 20 0 20 9 0 21
57 78 78 78 13 -1 11 -6 -10 -23 -34 -28 -35 -37 -4 -37 14 0 32 -7 40 -16 18
-18 21 -11 6 16 -7 13 -6 21 5 30 9 8 15 8 15 2 0 -6 -6 -13 -12 -15 -7 -3 -2
-6 11 -6 17 -1 22 3 17 15 -5 13 -1 15 21 9 16 -4 28 -7 28 -8 0 -1 6 -13 13
-26 12 -20 12 -23 0 -18 -8 3 -21 1 -29 -4 -11 -7 -11 -9 4 -9 9 0 17 -5 17
-11 0 -6 6 -9 13 -6 10 4 14 -5 15 -27 1 -30 -1 -32 -36 -33 -30 -1 -34 1 -21
10 16 12 22 47 7 47 -4 0 -8 -7 -8 -15 0 -18 -14 -19 -41 -5 -11 7 -19 7 -19
1 0 -5 5 -11 12 -13 9 -3 9 -6 1 -11 -6 -4 -18 0 -27 8 -9 9 -17 11 -21 5 -3
-6 2 -13 11 -17 16 -6 16 -7 -2 -14 -17 -7 -16 -8 6 -8 17 -1 21 -4 12 -10 -7
-4 -12 -12 -10 -17 2 -5 -10 -22 -25 -38 -26 -26 -29 -27 -41 -10 -8 11 -20
15 -30 11 -11 -4 -15 -3 -11 4 4 5 2 16 -5 24 -7 8 -7 15 -1 19 6 4 15 -3 21
-14 13 -24 42 -28 33 -5 -3 9 -8 13 -11 11 -3 -3 -15 6 -28 19 -26 28 -54 33
-54 9 0 -11 -8 -9 -35 11 -19 15 -34 30 -34 33 3 22 -3 31 -18 25 -11 -4 -14
-3 -9 5 5 8 2 10 -8 6 -9 -3 -16 -1 -16 5 0 25 -65 11 -109 -24 -24 -19 -47
-33 -50 -29 -3 3 3 12 13 20 20 14 20 14 0 14 -12 0 -24 -3 -27 -7 -4 -3 -19
-8 -33 -9 -40 -4 -51 -21 -12 -18 18 2 24 1 13 -2 -30 -9 -43 -23 -41 -42 3
-17 -20 -41 -38 -42 -6 0 -1 7 10 15 17 13 18 14 1 15 -10 0 -20 -7 -23 -15
-4 -9 -19 -15 -38 -15 -40 -1 -83 -34 -67 -53 20 -25 -89 -107 -143 -107 -26
0 -60 -19 -36 -20 11 0 9 -4 -5 -13 -20 -11 -25 -13 -46 -16 -5 0 -8 -5 -5 -9
7 -11 -58 -42 -87 -42 -13 0 -28 5 -34 11 -6 6 -37 13 -69 15 -76 5 -120 35
-135 89 -20 73 -62 166 -112 248 -27 45 -54 96 -61 114 -13 36 -77 91 -115 99
-41 8 -94 38 -98 54 -1 8 -7 34 -11 57 -7 32 -5 50 9 80 21 44 13 51 -34 28
-27 -12 -34 -21 -30 -36 5 -16 8 -17 21 -7 13 11 14 10 10 -2 -5 -15 -13 -15
-95 -6 -41 5 -64 28 -74 74 -9 49 -31 105 -45 117 -6 6 -15 17 -20 26 -5 8
-34 38 -65 66 l-56 50 -88 7 c-73 5 -98 12 -147 39 -38 21 -56 37 -53 46 3 9
0 11 -10 8 -29 -12 -24 12 20 101 25 50 45 97 45 103 0 7 11 29 25 49 14 20
26 49 27 65 1 17 7 37 14 45 6 8 10 31 9 50 -4 54 40 230 57 230 6 0 8 6 5 14
-3 7 -2 17 2 22 5 5 11 21 15 36 5 23 3 28 -18 34 -14 3 -30 12 -37 20 -6 8
-20 14 -30 14 -11 0 -19 4 -19 8 0 5 -18 18 -39 30 -48 27 -121 97 -140 135
-8 15 -18 27 -23 27 -4 0 -8 7 -8 15 0 8 -5 15 -11 15 -5 0 -7 5 -4 10 3 6 -1
10 -9 10 -10 0 -16 9 -16 25 0 14 -5 25 -11 25 -5 0 -8 4 -5 9 3 5 -1 14 -9
21 -8 7 -12 16 -9 21 3 5 -5 9 -17 9 -18 0 -19 2 -9 15 10 12 10 15 -4 15 -9
0 -16 5 -16 10 0 6 -8 10 -18 10 -22 0 -33 9 -26 22 3 5 11 4 19 -2 9 -7 16
-6 25 5 11 13 10 14 -5 8 -14 -5 -17 -3 -12 9 3 9 0 19 -7 21 -9 4 -12 15 -8
34 3 15 7 22 9 16 3 -7 10 -13 16 -13 7 1 1 10 -12 20 -18 15 -19 20 -7 20 18
0 22 15 6 25 -5 3 -10 11 -10 17 0 6 14 -8 30 -30 34 -48 44 -53 30 -17 -7 17
-6 25 2 25 7 0 9 16 6 44 -3 25 -1 49 5 55 8 8 8 11 -1 11 -7 0 -12 5 -12 10
0 6 8 10 18 10 9 0 24 5 32 10 11 8 7 9 -14 4 l-29 -7 19 32 c18 31 34 41 34
21 0 -5 7 -10 15 -10 8 0 15 -5 15 -10 0 -6 6 -10 13 -9 30 4 58 -2 52 -10 -3
-6 3 -15 14 -20 27 -15 40 -13 20 2 -9 7 -16 17 -16 22 0 6 -10 15 -22 21 -28
14 -16 25 15 14 31 -12 30 -5 -3 26 -16 14 -21 23 -13 20 8 -3 23 -9 33 -12 9
-4 17 -11 17 -16 0 -5 4 -6 10 -3 6 3 2 25 -9 53 l-19 48 21 0 c24 0 47 -18
47 -36 0 -6 4 -9 9 -6 5 4 7 -2 4 -12 -4 -18 35 -91 50 -92 8 0 9 42 1 64 -3
9 -11 13 -17 9 -6 -4 -7 -1 -2 6 4 7 2 24 -6 37 -7 13 -10 27 -6 30 6 6 21 -4
69 -49 16 -15 34 -25 39 -21 5 3 9 -1 9 -8 0 -8 14 -28 30 -46 16 -18 30 -43
31 -55 0 -21 1 -21 9 -2 5 11 9 15 9 8 1 -6 10 -14 20 -18 11 -3 23 -15 27
-27 3 -12 18 -42 33 -67 15 -25 33 -62 41 -81 59 -149 94 -207 220 -362 17
-20 30 -41 30 -45 0 -5 20 -28 45 -52 48 -46 53 -65 11 -37 -14 9 -30 16 -37
16 -6 0 -24 14 -39 30 -15 17 -36 30 -45 30 -16 0 -16 -2 -2 -23 9 -12 33 -49
53 -81 38 -60 90 -115 110 -116 6 0 28 -16 50 -35 21 -19 54 -42 72 -50 43
-21 41 -29 -5 -20 -38 7 -102 40 -115 59 -17 25 -7 -18 15 -62 40 -79 79 -212
75 -252 -2 -29 1 -41 15 -49 10 -7 22 -9 28 -5 5 3 17 0 26 -8 14 -11 16 -11
10 4 -4 12 -2 15 9 11 7 -3 14 0 14 6 0 6 -4 11 -10 11 -5 0 -10 7 -10 14 0
12 6 13 32 4 33 -12 68 -41 68 -58 0 -5 5 -10 10 -10 6 0 10 -6 10 -14 0 -17
18 -25 43 -18 12 3 16 11 12 26 -5 15 -4 17 3 7 7 -9 12 -10 16 -2 4 6 12 8
18 5 6 -4 14 -1 19 7 6 10 13 8 29 -11 l22 -25 19 24 c11 14 23 37 26 53 3 15
9 25 14 22 5 -3 9 4 9 15 0 10 5 21 10 23 12 4 12 1 10 141 -1 120 -28 278
-60 352 -5 11 -14 36 -20 56 -6 20 -22 51 -35 69 -14 19 -25 47 -25 62 0 15
-5 28 -10 28 -6 0 -8 -10 -5 -22 2 -13 6 -37 9 -54 2 -17 9 -39 15 -50 28 -45
68 -211 70 -286 2 -65 -2 -86 -24 -133 -15 -30 -33 -55 -41 -55 -8 0 -14 5
-14 10 0 6 4 10 9 10 18 0 51 99 51 155 0 62 -26 192 -41 200 -5 4 -9 15 -9
26 0 11 -4 18 -9 15 -4 -3 -6 -17 -3 -31 2 -15 0 -25 -7 -25 -7 0 -10 -23 -8
-67 1 -38 -2 -68 -8 -70 -6 -2 -10 -18 -9 -36 1 -17 -2 -41 -7 -52 -6 -15 -8
-10 -8 21 -2 71 -53 276 -90 356 -27 60 -54 174 -46 199 5 14 -1 22 -20 31
-24 11 -25 13 -8 19 15 6 14 8 -7 9 -14 0 -36 7 -50 15 -32 18 -67 20 -52 3 5
-7 13 -24 17 -38 7 -21 6 -23 -7 -13 -12 10 -24 6 -64 -20 -134 -90 -161 -107
-174 -107 -18 0 -39 30 -40 56 0 23 57 104 102 144 15 13 28 30 28 36 0 6 -28
17 -62 24 -56 12 -69 20 -148 94 -138 130 -160 146 -189 141 -14 -3 -20 -2
-13 1 22 10 13 23 -22 30 -26 4 -36 12 -41 31 -4 17 -11 23 -21 19 -9 -3 -12
-1 -9 4 3 6 0 10 -8 10 -19 0 -29 37 -12 44 15 5 9 46 -6 46 -5 0 -9 6 -9 13
0 7 -16 28 -35 46 -20 18 -33 36 -31 39 3 3 1 11 -5 19 -9 10 -6 13 15 13 14
0 26 -4 26 -10 0 -5 4 -10 10 -10 15 0 7 24 -10 31 -8 4 6 6 32 6 31 0 49 -5
53 -14 3 -11 14 -13 35 -8 22 5 32 3 36 -9 3 -9 14 -16 25 -16 10 0 23 -8 28
-17 9 -15 12 -15 20 -4 9 14 51 7 51 -10 0 -5 14 -9 31 -9 17 0 28 4 24 10 -3
5 -12 7 -20 3 -8 -3 -15 0 -15 6 0 6 6 10 13 9 6 -2 11 4 9 12 -1 8 6 4 17
-10 11 -14 23 -21 27 -17 4 4 1 7 -6 7 -11 0 -11 3 -2 12 9 9 7 14 -5 23 -17
13 -53 9 -53 -6 0 -5 -4 -9 -10 -9 -5 0 -10 10 -10 23 0 18 -2 19 -10 7 -8
-13 -10 -12 -10 3 0 9 -6 17 -13 17 -7 0 -47 18 -90 40 -42 22 -84 40 -94 41
-13 0 -11 3 7 10 17 7 26 7 28 -1 2 -5 8 -8 12 -5 5 3 33 -2 62 -12 29 -10 62
-17 73 -17 11 1 26 2 33 3 6 1 12 6 12 12 0 5 -5 7 -10 4 -6 -3 -18 2 -28 11
-16 17 -16 18 1 11 22 -8 22 9 0 22 -16 9 -15 10 5 8 12 -1 22 -5 22 -8 0 -4
16 -5 35 -2 28 5 35 2 35 -11 0 -14 3 -15 22 -5 l22 12 -22 8 c-12 5 -22 14
-22 21 0 9 3 9 12 0 7 -7 25 -12 40 -12 33 0 38 24 8 42 -11 7 -20 19 -20 27
0 11 3 11 15 1 12 -10 15 -9 15 6 0 11 -9 25 -20 32 -11 7 -20 18 -20 24 0 9
3 9 12 0 7 -7 30 -13 52 -13 38 -1 39 -2 11 -8 -22 -5 -26 -9 -16 -15 11 -7
11 -10 0 -17 -11 -7 -10 -11 6 -23 15 -12 17 -18 8 -24 -7 -4 -14 -17 -16 -27
-1 -11 -6 -26 -10 -32 -5 -8 -4 -13 2 -13 6 0 11 5 11 10 0 17 22 11 40 -10
13 -15 20 -17 25 -9 6 8 10 7 16 -2 7 -11 9 -11 9 -1 0 7 -12 17 -27 23 -22 8
-24 12 -13 19 10 7 11 10 3 10 -7 0 -13 9 -13 19 0 11 6 21 13 24 9 3 9 9 -1
26 -12 21 -11 21 7 12 11 -6 31 -11 45 -11 19 0 24 -4 19 -15 -5 -16 -1 -16
70 -2 7 1 11 -4 9 -12 -2 -8 3 -11 13 -8 18 7 20 -4 4 -20 -9 -9 -7 -12 10
-10 11 1 21 8 21 16 0 11 4 10 15 -5 20 -26 19 -38 -2 -29 -14 5 -15 4 -6 -6
10 -10 15 -9 27 0 8 7 20 10 27 6 6 -4 15 -1 20 6 7 11 9 10 9 -3 0 -10 10
-20 25 -24 13 -3 23 -11 22 -17 -1 -6 4 -11 11 -12 8 0 19 -7 25 -16 17 -22
47 -32 47 -15 0 8 5 16 12 18 19 7 -13 68 -35 68 -11 0 -17 5 -14 13 2 7 17
11 35 9 18 -2 32 1 32 6 0 13 -25 33 -32 26 -3 -3 -9 0 -14 7 -4 8 -3 10 4 5
16 -10 15 7 0 23 -11 10 -7 11 17 5 48 -11 49 -10 53 13 2 17 -3 24 -21 28
-18 5 -23 12 -20 26 7 24 23 25 24 2 0 -14 2 -15 6 -3 9 24 25 30 47 17 19
-10 19 -12 4 -15z m1612 4 c0 -2 -7 -6 -15 -10 -8 -3 -15 -1 -15 4 0 6 7 10
15 10 8 0 15 -2 15 -4z m-1555 -16 c-3 -5 -14 -10 -23 -10 -15 0 -15 2 -2 10
20 13 33 13 25 0z m665 -10 c20 -6 21 -8 5 -8 -11 0 -29 3 -40 8 -25 11 1 11
35 0z m-1176 -24 c-10 -8 -21 -12 -24 -9 -3 2 4 11 14 19 11 7 22 12 25 9 2
-3 -4 -12 -15 -19z m356 14 c0 -5 -4 -10 -10 -10 -5 0 -10 5 -10 10 0 6 5 10
10 10 6 0 10 -4 10 -10z m900 -21 c0 -28 -15 -23 -16 6 -1 14 2 22 7 19 5 -3
9 -14 9 -25z m760 21 c0 -5 -2 -10 -4 -10 -3 0 -8 5 -11 10 -3 6 -1 10 4 10 6
0 11 -4 11 -10z m-933 -6 c-3 -3 -12 -4 -19 -1 -8 3 -5 6 6 6 11 1 17 -2 13
-5z m-1017 -23 c0 -10 -9 -21 -20 -24 -19 -5 -19 -4 -2 19 21 29 22 29 22 5z
m340 9 c0 -5 -9 -10 -20 -10 -11 0 -20 5 -20 10 0 6 9 10 20 10 11 0 20 -4 20
-10z m641 -8 c-7 -2 -18 1 -23 6 -8 8 -4 9 13 5 13 -4 18 -8 10 -11z m-1301
-2 c0 -5 -4 -10 -10 -10 -5 0 -10 5 -10 10 0 6 5 10 10 10 6 0 10 -4 10 -10z
m69 -26 c-7 -9 -4 -14 10 -19 12 -3 21 -11 21 -16 0 -13 -42 -1 -53 15 -6 7
-7 5 -4 -6 8 -23 -21 -47 -33 -27 -7 10 -5 15 6 17 12 3 13 7 3 18 -9 11 -8
14 5 14 9 0 21 9 28 20 9 13 15 16 20 7 4 -6 2 -17 -3 -23z m1205 17 c3 -5 -1
-11 -9 -15 -9 -3 -15 0 -15 9 0 16 16 20 24 6z m206 -13 c0 -20 -25 -34 -50
-27 -25 7 -25 7 3 8 24 1 27 4 22 21 -5 15 -3 18 9 14 9 -3 16 -10 16 -16z
m-1070 2 c0 -5 -5 -10 -11 -10 -5 0 -7 5 -4 10 3 6 8 10 11 10 2 0 4 -4 4 -10z
m1320 -5 c0 -9 -9 -15 -22 -15 -22 1 -23 1 -4 15 25 19 26 19 26 0z m-162 -26
c0 -16 -4 -29 -9 -29 -6 0 -8 -4 -5 -9 4 -5 -3 -7 -14 -4 -23 6 -43 36 -32 47
3 4 1 10 -5 14 -6 4 5 8 26 8 35 1 38 -1 39 -27z m-742 -6 c-10 -10 -19 5 -10
18 6 11 8 11 12 0 2 -7 1 -15 -2 -18z m562 20 c-10 -2 -28 -2 -40 0 -13 2 -5
4 17 4 22 1 32 -1 23 -4z m272 -10 c0 -11 -3 -14 -8 -7 -4 6 -14 14 -22 17
-10 4 -8 6 8 6 15 1 22 -5 22 -16z m883 -2 c-5 -19 -31 -36 -41 -26 -4 3 35
43 45 45 0 0 -1 -9 -4 -19z m-2101 -9 c3 -11 0 -19 -8 -19 -16 0 -16 0 -8 21
8 21 11 20 16 -2z m128 8 c0 -5 -4 -10 -10 -10 -5 0 -10 5 -10 10 0 6 5 10 10
10 6 0 10 -4 10 -10z m-590 -10 c0 -5 -5 -10 -11 -10 -5 0 -7 5 -4 10 3 6 8
10 11 10 2 0 4 -4 4 -10z m1680 -23 c11 -4 9 -7 -7 -12 -13 -4 -23 -11 -23
-16 0 -5 -7 -9 -16 -9 -8 0 -13 4 -10 9 4 5 2 11 -3 13 -5 2 -5 13 0 27 9 22
11 22 27 9 9 -9 24 -18 32 -21z m-1123 1 c-3 -8 -6 -5 -6 6 -1 11 2 17 5 13 3
-3 4 -12 1 -19z m1523 2 c0 -5 -4 -10 -10 -10 -5 0 -10 5 -10 10 0 6 5 10 10
10 6 0 10 -4 10 -10z m737 4 c-3 -3 -12 -4 -19 -1 -8 3 -5 6 6 6 11 1 17 -2
13 -5z m-3047 -14 c0 -5 -9 -10 -21 -10 -11 0 -17 5 -14 10 3 6 13 10 21 10 8
0 14 -4 14 -10z m1005 -34 c0 -9 -4 -16 -10 -15 -5 0 -9 7 -7 15 2 8 -4 14
-13 14 -8 0 -15 7 -15 16 0 15 2 15 23 2 12 -9 22 -23 22 -32z m112 28 c-3 -3
-12 -4 -19 -1 -8 3 -5 6 6 6 11 1 17 -2 13 -5z m1699 -15 c7 -11 -12 -29 -31
-29 -5 0 -4 4 4 9 7 5 10 14 7 20 -4 6 -3 11 3 11 5 0 13 -5 17 -11z m46 -4
c0 -5 -5 -11 -11 -13 -6 -2 -11 4 -11 13 0 9 5 15 11 13 6 -2 11 -8 11 -13z
m240 -25 c-7 -19 -10 -21 -15 -7 -8 22 3 51 15 39 5 -5 5 -19 0 -32z m-2294 5
c-3 -3 -9 2 -12 12 -6 14 -5 15 5 6 7 -7 10 -15 7 -18z m1842 9 c0 -2 -9 -4
-20 -4 -11 0 -20 4 -20 9 0 5 9 7 20 4 11 -3 20 -7 20 -9z m41 -15 c-13 -11
-27 -17 -30 -13 -7 7 28 34 43 34 6 -1 0 -10 -13 -21z m-1611 -9 c0 -5 -2 -10
-4 -10 -3 0 -8 5 -11 10 -3 6 -1 10 4 10 6 0 11 -4 11 -10z m1160 0 c0 -5 -4
-10 -10 -10 -5 0 -10 5 -10 10 0 6 5 10 10 10 6 0 10 -4 10 -10z m737 4 c-3
-3 -12 -4 -19 -1 -8 3 -5 6 6 6 11 1 17 -2 13 -5z m-447 -44 c13 -8 13 -10 -2
-10 -9 0 -20 5 -23 10 -8 13 5 13 25 0z m787 4 c-3 -3 -12 -4 -19 -1 -8 3 -5
6 6 6 11 1 17 -2 13 -5z m-63 -18 c-3 -8 3 -16 15 -19 12 -3 21 -11 20 -19 0
-10 -2 -10 -6 0 -7 18 -21 15 -32 -7 -9 -16 -8 -18 8 -14 14 3 20 -2 23 -22 4
-20 2 -25 -11 -22 -9 2 -15 8 -14 14 1 6 -6 9 -17 6 -16 -4 -19 -2 -13 12 4
13 3 16 -5 11 -19 -12 -14 2 10 24 l22 20 -22 0 c-11 0 -24 -4 -27 -10 -8 -12
-35 -13 -35 -1 0 5 19 16 43 24 23 8 43 15 44 16 1 0 0 -5 -3 -13z m-154 -5
c0 -6 -4 -13 -10 -16 -5 -3 -10 1 -10 9 0 9 5 16 10 16 6 0 10 -4 10 -9z
m-3190 -11 c0 -5 -2 -10 -4 -10 -3 0 -8 5 -11 10 -3 6 -1 10 4 10 6 0 11 -4
11 -10z m3407 4 c-3 -3 -12 -4 -19 -1 -8 3 -5 6 6 6 11 1 17 -2 13 -5z m-909
-72 c-1 -15 3 -36 7 -47 8 -18 7 -19 -10 -5 -16 14 -17 13 -12 -5 6 -18 2 -20
-30 -20 -20 0 -38 6 -41 13 -2 7 2 10 11 6 8 -3 17 2 20 10 4 9 13 16 22 16
19 0 20 29 1 36 -8 3 -12 13 -9 24 8 31 43 7 41 -28z m-2228 28 c0 -5 -7 -10
-15 -10 -8 0 -15 5 -15 10 0 6 7 10 15 10 8 0 15 -4 15 -10z m3170 -5 c11 -13
10 -14 -4 -9 -9 3 -16 10 -16 15 0 13 6 11 20 -6z m-174 -42 c-7 -7 -36 23
-36 38 0 7 9 3 21 -10 12 -12 19 -25 15 -28z m-52 13 c-6 -15 -24 -23 -24 -11
0 8 24 34 28 30 1 -1 0 -10 -4 -19z m101 -14 c-7 -8 -35 7 -35 18 0 6 7 6 20
-2 10 -7 17 -14 15 -16z m-3435 -16 c0 -8 6 -17 13 -19 6 -3 2 -6 -10 -6 -13
-1 -23 1 -23 3 0 2 -3 11 -6 20 -4 11 -1 16 10 16 9 0 16 -6 16 -14z m45 -6
c3 -5 1 -10 -4 -10 -6 0 -11 5 -11 10 0 6 2 10 4 10 3 0 8 -4 11 -10z m3305
-10 c0 -5 -2 -10 -4 -10 -3 0 -8 5 -11 10 -3 6 -1 10 4 10 6 0 11 -4 11 -10z
m-226 -25 c3 -9 0 -15 -9 -15 -9 0 -12 6 -9 15 4 8 7 15 9 15 2 0 5 -7 9 -15z
m-3058 -52 c-4 -4 -16 3 -26 17 -28 36 -24 45 7 16 15 -14 24 -29 19 -33z
m1487 21 c-7 -20 -18 -17 -20 5 -1 13 3 18 12 15 8 -3 11 -12 8 -20z m1125 -3
c16 -22 20 -36 14 -52 -7 -19 -10 -20 -15 -6 -4 10 -1 17 5 17 7 0 2 9 -10 20
-27 25 -28 25 -27 -4 0 -13 8 -33 18 -44 14 -15 15 -21 5 -24 -10 -4 -10 -9 2
-24 14 -18 14 -18 -2 -5 -10 7 -18 22 -18 33 0 13 -5 18 -14 15 -8 -3 -22 1
-33 8 -10 8 -14 15 -9 15 6 0 1 7 -10 16 -18 14 -18 15 4 4 25 -12 46 -4 38
15 -2 7 2 16 10 19 9 3 12 10 9 16 -15 24 13 7 33 -19z m-2498 -1 c0 -5 -4
-10 -10 -10 -5 0 -10 5 -10 10 0 6 5 10 10 10 6 0 10 -4 10 -10z m1420 -10 c0
-5 -4 -10 -9 -10 -6 0 -13 5 -16 10 -3 6 1 10 9 10 9 0 16 -4 16 -10z m1510 6
c0 -11 -19 -15 -25 -6 -3 5 1 10 9 10 9 0 16 -2 16 -4z m-1550 -26 c0 -5 -4
-10 -9 -10 -6 0 -13 5 -16 10 -3 6 1 10 9 10 9 0 16 -4 16 -10z m1680 0 c0 -5
-7 -10 -16 -10 -8 0 -12 5 -9 10 3 6 10 10 16 10 5 0 9 -4 9 -10z m-45 -19 c3
-5 1 -12 -5 -16 -5 -3 -10 1 -10 9 0 18 6 21 15 7z m-454 -28 c13 -16 12 -17
-3 -4 -10 7 -18 15 -18 17 0 8 8 3 21 -13z m-2761 -3 c0 -5 -4 -10 -10 -10 -5
0 -10 5 -10 10 0 6 5 10 10 10 6 0 10 -4 10 -10z m2255 0 c3 -5 -1 -10 -9 -10
-9 0 -16 5 -16 10 0 6 4 10 9 10 6 0 13 -4 16 -10z m-2205 -17 c0 -10 -4 -14
-8 -8 -4 6 -11 13 -16 18 -5 4 -2 7 7 7 10 0 17 -8 17 -17z m-243 -15 c-3 -8
-6 -5 -6 6 -1 11 2 17 5 13 3 -3 4 -12 1 -19z m73 -43 c0 -8 -4 -15 -10 -15
-5 0 -10 7 -10 15 0 8 5 15 10 15 6 0 10 -7 10 -15z m2200 5 c0 -5 -7 -10 -16
-10 -8 0 -12 5 -9 10 3 6 10 10 16 10 5 0 9 -4 9 -10z m-2300 -10 c0 -5 -4
-10 -10 -10 -5 0 -10 5 -10 10 0 6 5 10 10 10 6 0 10 -4 10 -10z m3495 0 c3
-5 -1 -10 -9 -10 -9 0 -16 5 -16 10 0 6 4 10 9 10 6 0 13 -4 16 -10z m-45 -20
c0 -5 -2 -10 -4 -10 -3 0 -8 5 -11 10 -3 6 -1 10 4 10 6 0 11 -4 11 -10z
m-1170 -14 c0 -8 6 -17 13 -20 6 -3 3 -5 -8 -3 -20 2 -35 37 -16 37 6 0 11 -6
11 -14z m165 -26 c-3 -5 -12 -7 -20 -3 -21 7 -19 13 6 13 11 0 18 -4 14 -10z
m1051 -16 c21 -22 28 -24 35 -13 7 11 9 11 9 -3 0 -10 -4 -18 -10 -18 -5 0 -7
-6 -4 -14 3 -7 -3 -16 -13 -20 -10 -3 -24 -9 -32 -12 -10 -5 -12 -2 -7 11 5
15 2 17 -24 11 -19 -3 -29 -2 -25 4 3 6 12 10 20 10 8 0 17 5 21 12 5 8 2 9
-9 5 -10 -3 -17 -2 -17 3 0 9 22 50 27 50 1 0 14 -12 29 -26z m41 15 c-14 -8
-22 -8 -30 0 -8 8 -3 11 19 11 25 -1 27 -2 11 -11z m-107 -9 c0 -5 -2 -10 -4
-10 -3 0 -8 5 -11 10 -3 6 -1 10 4 10 6 0 11 -4 11 -10z m-870 -20 c0 -5 -4
-10 -10 -10 -5 0 -10 5 -10 10 0 6 5 10 10 10 6 0 10 -4 10 -10z m1890 -16 c0
-16 -18 -18 -40 -4 -12 8 -10 10 8 10 15 0 21 4 16 12 -4 7 -3 8 4 4 7 -4 12
-14 12 -22z m-1030 2 c0 -3 -4 -8 -10 -11 -5 -3 -10 -1 -10 4 0 6 5 11 10 11
6 0 10 -2 10 -4z m964 -42 c8 -22 -1 -34 -27 -33 -21 0 -21 1 3 11 21 9 22 12
7 15 -9 3 -15 9 -12 14 9 14 22 11 29 -7z m-1714 -14 c0 -5 -7 -10 -15 -10 -8
0 -15 5 -15 10 0 6 7 10 15 10 8 0 15 -4 15 -10z m1657 -52 c-3 -8 -6 -5 -6 6
-1 11 2 17 5 13 3 -3 4 -12 1 -19z m143 2 c0 -5 -4 -10 -10 -10 -5 0 -10 5
-10 10 0 6 5 10 10 10 6 0 10 -4 10 -10z m-55 -10 c-3 -5 -11 -10 -16 -10 -6
0 -7 5 -4 10 3 6 11 10 16 10 6 0 7 -4 4 -10z m-4405 -10 c0 -5 -5 -10 -11
-10 -5 0 -7 5 -4 10 3 6 8 10 11 10 2 0 4 -4 4 -10z m2660 -40 c0 -5 -4 -10
-10 -10 -5 0 -10 5 -10 10 0 6 5 10 10 10 6 0 10 -4 10 -10z m1745 0 c-3 -5
-1 -10 5 -10 6 0 8 -5 5 -10 -4 -6 -11 -8 -16 -5 -12 8 -11 35 2 35 5 0 7 -4
4 -10z m110 -12 c-2 -13 -8 -36 -15 -53 -6 -16 -11 -32 -10 -35 1 -2 -3 -6 -9
-8 -6 -2 -11 1 -11 7 0 6 -7 11 -16 11 -10 0 -14 -6 -10 -15 4 -11 -1 -15 -18
-15 -29 0 -40 -24 -20 -41 12 -10 17 -10 23 -1 5 9 12 8 27 -4 19 -15 19 -15
0 -9 -11 3 -23 0 -28 -7 -6 -10 -10 -10 -18 2 -8 13 -11 13 -19 1 -7 -11 -13
-9 -30 8 -21 21 -21 21 -2 40 11 11 17 22 14 25 -12 12 28 18 42 6 12 -10 15
-9 15 4 0 9 4 16 10 16 5 0 12 15 15 33 5 24 14 37 33 44 15 6 28 11 28 12 1
1 0 -9 -1 -21z m-145 -3 c0 -9 -9 -15 -25 -15 -14 0 -25 5 -25 11 0 5 4 8 8 5
4 -2 14 -1 22 5 20 12 20 11 20 -6z m-15 -34 c10 -17 -9 -20 -30 -5 -18 14
-18 14 2 14 12 0 24 -4 28 -9z m40 -1 c3 -5 1 -10 -4 -10 -6 0 -11 5 -11 10 0
6 2 10 4 10 3 0 8 -4 11 -10z m-62 -62 c-7 -40 -17 -54 -43 -61 -17 -4 -19 -1
-14 21 5 23 46 72 59 72 3 0 2 -15 -2 -32z m-3188 -8 c3 -5 1 -10 -4 -10 -6 0
-11 5 -11 10 0 6 2 10 4 10 3 0 8 -4 11 -10z m48 -79 c27 -46 14 -38 -18 12
-16 23 -22 37 -14 30 8 -6 22 -25 32 -42z m1657 19 c0 -5 -5 -10 -11 -10 -5 0
-7 5 -4 10 3 6 8 10 11 10 2 0 4 -4 4 -10z m-85 -10 c3 -5 1 -10 -4 -10 -6 0
-11 5 -11 10 0 6 2 10 4 10 3 0 8 -4 11 -10z m-1920 -30 c10 -11 13 -20 7 -20
-6 0 -16 9 -22 20 -6 11 -9 20 -7 20 2 0 12 -9 22 -20z m1935 -24 c0 -3 -4 -8
-10 -11 -5 -3 -10 -1 -10 4 0 6 5 11 10 11 6 0 10 -2 10 -4z m-36 -37 c-3 -5
-10 -7 -15 -3 -5 3 -7 10 -3 15 3 5 10 7 15 3 5 -3 7 -10 3 -15z m1730 -15 c9
-3 16 -13 16 -21 0 -20 -34 -12 -38 10 -4 19 -1 20 22 11z m-1509 -80 c0 -12
-6 -18 -17 -18 -10 1 -15 -3 -11 -9 4 -7 0 -8 -11 -4 -10 4 -23 7 -29 7 -6 0
-2 7 9 15 10 8 15 15 9 15 -5 1 -1 5 10 10 28 12 40 7 40 -16z m939 19 c-5 -5
-12 -12 -15 -16 -3 -5 -9 -2 -12 7 -5 12 0 16 15 16 12 0 17 -3 12 -7z m-761
-78 c-6 -17 -23 -20 -23 -5 0 6 5 10 11 10 5 0 7 5 3 12 -4 7 -3 8 4 4 6 -4 9
-13 5 -21z m643 16 c-4 -5 0 -12 6 -14 7 -3 3 -6 -9 -6 -25 -1 -31 14 -10 22
18 8 19 8 13 -2z m-3396 -81 c0 -5 -4 -10 -10 -10 -5 0 -10 5 -10 10 0 6 5 10
10 10 6 0 10 -4 10 -10z m641 0 c5 0 9 -4 9 -10 0 -16 -26 -12 -41 7 -12 15
-12 16 4 10 10 -4 23 -7 28 -7z m2424 0 c3 -5 -3 -10 -15 -10 -12 0 -18 5 -15
10 3 6 10 10 15 10 5 0 12 -4 15 -10z m417 -35 c-2 -14 -9 -25 -16 -25 -6 0
-6 -4 3 -9 10 -6 10 -10 1 -16 -18 -11 -40 17 -34 43 4 14 14 22 28 23 11 0
15 3 9 6 -7 2 -13 9 -13 15 0 7 5 6 14 -1 7 -6 11 -22 8 -36z m58 16 c0 -5 -7
-12 -16 -15 -24 -9 -28 -7 -14 9 14 17 30 20 30 6z m-725 -11 c3 -5 1 -10 -4
-10 -6 0 -11 5 -11 10 0 6 2 10 4 10 3 0 8 -4 11 -10z m600 0 c3 -5 1 -10 -4
-10 -6 0 -11 5 -11 10 0 6 2 10 4 10 3 0 8 -4 11 -10z m-535 -10 c0 -5 -5 -10
-11 -10 -5 0 -7 5 -4 10 3 6 8 10 11 10 2 0 4 -4 4 -10z m517 -62 c-3 -8 -6
-5 -6 6 -1 11 2 17 5 13 3 -3 4 -12 1 -19z m-557 -8 c0 -5 -4 -10 -10 -10 -5
0 -10 5 -10 10 0 6 5 10 10 10 6 0 10 -4 10 -10z m1320 -10 c0 -5 -7 -10 -16
-10 -8 0 -12 5 -9 10 3 6 10 10 16 10 5 0 9 -4 9 -10z m-1206 -12 c-3 -4 -14
-8 -24 -8 -10 0 -21 4 -24 8 -3 5 8 9 24 9 16 0 27 -4 24 -9z m536 -25 c0 -7
-33 -32 -42 -33 -12 0 -9 25 3 37 11 11 39 7 39 -4z m-325 -53 c3 -5 1 -10 -4
-10 -6 0 -11 5 -11 10 0 6 2 10 4 10 3 0 8 -4 11 -10z m-195 -15 c-30 -17 -40
-18 -40 -6 0 8 22 16 55 19 6 1 -1 -5 -15 -13z m-67 -15 c-3 -11 -9 -17 -14
-14 -14 8 -10 34 5 34 9 0 12 -7 9 -20z m90 -30 c9 0 17 -4 17 -9 0 -4 -18 -8
-40 -8 -29 0 -40 4 -40 15 0 10 7 13 23 8 12 -3 30 -6 40 -6z m27 -46 c0 -18
-26 -19 -33 -1 -3 8 3 14 14 14 11 1 19 -5 19 -13z m-83 -26 c-3 -8 -6 -5 -6
6 -1 11 2 17 5 13 3 -3 4 -12 1 -19z m53 -48 c0 -11 -7 -20 -15 -20 -13 0 -14
4 -5 20 6 11 13 20 15 20 3 0 5 -9 5 -20z m-2240 -30 c0 -5 -2 -10 -4 -10 -3
0 -8 5 -11 10 -3 6 -1 10 4 10 6 0 11 -4 11 -10z m-935 -48 c-6 -6 -35 18 -35
29 0 5 9 1 20 -8 11 -9 17 -19 15 -21z m3368 11 c-7 -2 -19 -2 -25 0 -7 3 -2
5 12 5 14 0 19 -2 13 -5z m57 -13 c0 -5 -2 -10 -4 -10 -3 0 -8 5 -11 10 -3 6
-1 10 4 10 6 0 11 -4 11 -10z m20 -49 c0 -17 -18 -22 -47 -14 l-28 7 25 7 c36
10 50 10 50 0z m-210 -11 c0 -5 -7 -10 -15 -10 -8 0 -15 5 -15 10 0 6 7 10 15
10 8 0 15 -4 15 -10z m285 0 c3 -5 2 -10 -4 -10 -5 0 -13 5 -16 10 -3 6 -2 10
4 10 5 0 13 -4 16 -10z m-255 -10 c0 -5 -4 -10 -10 -10 -5 0 -10 5 -10 10 0 6
5 10 10 10 6 0 10 -4 10 -10z m670 -50 c0 -5 -7 -10 -16 -10 -8 0 -12 5 -9 10
3 6 10 10 16 10 5 0 9 -4 9 -10z m-46 -37 c2 -24 0 -30 -11 -26 -10 4 -11 9
-2 19 9 11 8 14 -5 14 -19 0 -22 16 -3 23 16 6 16 5 21 -30z m42 -28 c1 -14
-2 -25 -6 -25 -11 0 -21 30 -14 41 10 16 19 9 20 -16z m1 -81 c-3 -3 -12 -4
-19 -1 -8 3 -5 6 6 6 11 1 17 -2 13 -5z m-109 -41 c-18 -22 -27 -15 -15 11 8
16 14 20 19 13 4 -6 2 -17 -4 -24z m-408 17 c0 -5 -5 -10 -11 -10 -5 0 -7 5
-4 10 3 6 8 10 11 10 2 0 4 -4 4 -10z m524 -5 c3 -8 1 -15 -4 -15 -19 0 -41
-33 -35 -54 5 -18 4 -17 -9 4 -14 23 -14 26 4 39 24 16 27 36 4 27 -8 -3 -12
-2 -9 4 9 15 42 12 49 -5z m46 -25 c13 -8 13 -10 -2 -10 -9 0 -20 5 -23 10 -8
13 5 13 25 0z m-20 -34 c0 -2 -7 -9 -15 -16 -13 -11 -14 -10 -9 4 5 14 24 23
24 12z m-71 -42 c2 -2 -5 -6 -15 -9 -10 -4 -27 -11 -36 -16 -10 -5 -19 -5 -22
0 -3 5 2 12 11 15 15 6 15 8 3 17 -10 6 -4 7 20 3 19 -4 37 -8 39 -10z m116
-33 c5 -9 -35 -44 -43 -37 -5 6 21 46 30 46 4 0 9 -4 13 -9z m-175 -342 c0 -5
8 -9 17 -9 13 0 14 -3 5 -12 -9 -9 -16 -6 -32 12 -24 28 -25 31 -5 24 8 -4 15
-10 15 -15z m45 11 c3 -5 -1 -10 -10 -10 -9 0 -13 5 -10 10 3 6 8 10 10 10 2
0 7 -4 10 -10z m-63 -68 c-2 -16 2 -33 7 -36 6 -4 8 -13 5 -20 -4 -11 -11 -11
-35 -3 -16 6 -29 15 -29 19 0 4 6 5 14 2 18 -7 28 9 20 30 -5 14 -9 14 -22 4
-13 -11 -14 -10 -10 2 2 8 11 16 19 16 32 3 33 5 19 15 -13 9 -13 10 0 6 10
-3 14 -14 12 -35z m38 -2 c0 -11 0 -23 1 -27 0 -4 -4 -9 -10 -11 -5 -2 -9 11
-9 27 1 34 18 44 18 11z m-100 -24 c0 -2 -7 -7 -16 -10 -8 -3 -12 -2 -9 4 6
10 25 14 25 6z m195 -29 c7 -6 3 -8 -13 -4 -12 3 -20 1 -17 -4 8 -11 -73 -51
-93 -46 -12 3 -8 8 16 18 35 15 42 29 15 29 -14 0 -12 4 7 14 26 14 68 11 85
-7z m-1638 -9 c-3 -8 -6 -5 -6 6 -1 11 2 17 5 13 3 -3 4 -12 1 -19z m1440 6
c-3 -3 -12 -4 -19 -1 -8 3 -5 6 6 6 11 1 17 -2 13 -5z m-1339 -60 c1 -1 -5 -4
-16 -6 -12 -4 -18 1 -19 14 -2 17 0 18 15 7 9 -8 18 -14 20 -15z m1207 -50
c-9 -9 -18 -14 -21 -11 -9 9 6 27 22 27 13 0 13 -2 -1 -16z m232 -10 c-3 -3
-12 -4 -19 -1 -8 3 -5 6 6 6 11 1 17 -2 13 -5z m-263 -38 c-3 -9 -10 -13 -16
-10 -5 3 -4 12 3 20 15 18 22 13 13 -10z m-771 -25 c-5 -3 -12 -14 -16 -24 -4
-10 -11 -16 -16 -13 -5 3 -2 22 7 41 13 29 18 32 25 19 6 -10 6 -19 0 -23z
m113 10 c17 -13 20 -21 12 -24 -7 -3 -1 -6 15 -6 31 -1 30 -1 17 -35 -7 -19
-6 -24 4 -20 14 6 17 -61 3 -83 -5 -8 -3 -13 5 -13 8 0 9 -3 3 -8 -5 -4 -12
-16 -14 -27 -6 -39 -21 -56 -43 -49 -14 4 -18 2 -14 -5 4 -6 2 -11 -4 -11 -6
0 -9 -4 -5 -9 5 -8 -23 -31 -38 -31 -2 0 -2 22 1 50 5 51 -5 63 -28 35 -7 -8
-23 -15 -35 -15 -13 0 -26 -6 -29 -12 -3 -7 -4 -6 -3 4 1 9 -2 17 -8 17 -5 1
-10 -3 -9 -9 1 -5 2 -16 3 -24 1 -15 51 -10 51 5 0 5 7 6 15 3 8 -4 15 -10 15
-16 0 -5 -5 -6 -12 -2 -8 5 -9 0 -6 -14 6 -20 3 -22 -28 -18 -18 3 -43 7 -56
10 -13 3 -17 3 -10 0 6 -3 9 -10 6 -15 -4 -6 -11 -6 -19 1 -11 9 -17 7 -27 -9
-7 -12 -16 -21 -20 -21 -10 0 2 31 21 53 14 17 14 18 -13 15 -19 -2 -30 2 -33
12 -3 11 -2 11 4 3 11 -15 38 0 29 16 -4 6 0 11 9 11 9 0 13 5 10 10 -3 6 -1
10 4 10 6 0 11 7 11 15 0 8 -4 15 -10 15 -20 0 -10 28 13 34 18 5 19 8 7 15
-8 6 -11 13 -7 17 3 4 12 2 19 -3 28 -23 83 -2 75 28 -4 14 0 19 16 20 21 0
21 1 2 9 -18 8 -18 9 -2 9 10 1 15 6 12 11 -3 6 -2 10 4 10 5 0 12 -6 15 -12
3 -7 2 1 -1 17 -6 28 -5 29 12 15 17 -13 18 -13 13 1 -6 14 7 39 20 39 2 0 15
-9 28 -19z m-201 -61 c8 -13 -5 -13 -25 0 -13 8 -13 10 2 10 9 0 20 -4 23 -10z
m63 -13 c3 -12 -4 -17 -22 -17 -24 0 -25 2 -14 20 15 23 31 21 36 -3z m-68
-22 c0 -9 -6 -12 -15 -9 -8 4 -15 10 -15 15 0 5 7 9 15 9 8 0 15 -7 15 -15z
m-250 -5 c0 -5 -4 -10 -10 -10 -5 0 -10 5 -10 10 0 6 5 10 10 10 6 0 10 -4 10
-10z m1171 -11 c16 -8 18 -13 9 -24 -15 -18 -36 -9 -36 15 0 23 1 23 27 9z
m-1201 -14 c0 -8 5 -15 10 -15 6 0 10 5 10 10 0 6 5 10 11 10 6 0 8 -8 4 -19
-5 -17 -1 -19 30 -17 34 3 46 -6 24 -20 -6 -3 -15 -2 -20 3 -13 13 -57 5 -62
-11 -2 -6 -2 0 0 14 l4 24 -22 -19 c-12 -11 -19 -14 -15 -8 4 7 2 21 -3 31
-11 21 -6 32 16 32 7 0 13 -7 13 -15z m-35 -25 c3 -5 1 -10 -4 -10 -6 0 -11 5
-11 10 0 6 2 10 4 10 3 0 8 -4 11 -10z m669 -9 c8 -12 -3 -41 -15 -41 -5 0 -9
11 -9 25 0 25 14 34 24 16z m-714 -41 c-4 -22 -3 -40 1 -40 5 0 9 -4 9 -10 0
-17 -30 -11 -38 8 -4 9 -13 17 -19 17 -7 0 -12 5 -10 10 1 6 10 9 20 7 14 -1
17 3 12 17 -4 14 0 21 12 24 10 3 19 5 19 6 1 0 -2 -17 -6 -39z m1377 11 c-1
-11 -7 -17 -17 -16 -8 2 -17 4 -19 4 -4 1 30 30 36 31 1 0 1 -8 0 -19z m-1262
-11 c3 -5 1 -10 -4 -10 -6 0 -11 5 -11 10 0 6 2 10 4 10 3 0 8 -4 11 -10z
m1313 -11 c-7 -5 -19 -9 -27 -9 -11 0 -11 3 -1 14 6 8 18 12 27 9 12 -5 12 -7
1 -14z m-1372 -65 c-3 -9 1 -11 12 -8 14 5 14 3 -1 -6 -12 -8 -22 -9 -28 -3
-12 12 0 45 13 37 5 -3 7 -12 4 -20z m124 -25 c0 -11 -4 -18 -10 -14 -5 3 -7
12 -3 20 7 21 13 19 13 -6z m1175 1 c0 -22 -29 -18 -33 3 -3 14 1 18 15 15 10
-2 18 -10 18 -18z m-985 -40 c13 -8 13 -11 1 -19 -8 -5 -10 -14 -6 -21 6 -10
2 -12 -14 -7 -14 3 -24 0 -28 -9 -3 -8 -9 -12 -14 -9 -10 7 22 74 36 75 6 0
17 -5 25 -10z m74 -12 c-1 -13 -3 -24 -3 -26 -1 -1 -10 2 -21 8 -21 11 -27 1
-10 -16 6 -6 6 -15 0 -24 -8 -12 -10 -10 -10 8 0 12 -5 22 -12 22 -6 0 -1 11
12 25 29 31 47 32 44 3z m972 -4 c-23 -16 -40 -19 -31 -4 3 6 13 10 21 10 8 0
14 5 14 12 0 6 3 8 7 4 5 -4 -1 -14 -11 -22z m-156 0 c0 -2 -9 -4 -21 -4 -11
0 -18 4 -14 10 5 8 35 3 35 -6z m110 -28 c0 -3 -4 -8 -10 -11 -5 -3 -10 -1
-10 4 0 6 5 11 10 11 6 0 10 -2 10 -4z m46 -31 c-11 -8 -24 -15 -30 -15 -5 0
-1 7 10 15 10 8 24 14 29 14 6 0 1 -6 -9 -14z m-1103 -10 c8 -8 18 -11 22 -7
5 4 5 2 1 -5 -4 -7 -13 -10 -21 -6 -11 3 -13 1 -9 -10 8 -21 -11 -30 -26 -12
-12 15 -5 55 10 55 5 0 15 -7 23 -15z m1052 -25 c-3 -5 -11 -10 -16 -10 -6 0
-7 5 -4 10 3 6 11 10 16 10 6 0 7 -4 4 -10z m-40 -30 c-3 -5 -10 -10 -16 -10
-5 0 -9 5 -9 10 0 6 7 10 16 10 8 0 12 -4 9 -10z m-165 -25 c0 -8 10 -21 22
-29 12 -9 16 -16 9 -16 -7 0 -25 10 -40 23 -20 16 -24 26 -17 34 13 13 26 7
26 -12z m-40 -15 c8 -5 11 -12 7 -17 -5 -4 -12 -1 -16 6 -5 7 -13 11 -18 8 -5
-3 -15 -2 -23 4 -12 7 -9 9 10 9 14 0 32 -4 40 -10z m70 0 c0 -5 -2 -10 -4
-10 -3 0 -8 5 -11 10 -3 6 -1 10 4 10 6 0 11 -4 11 -10z m-114 -36 c-3 -9 -6
-18 -6 -20 0 -2 -4 -4 -9 -4 -7 0 -8 17 -2 38 1 1 6 2 12 2 6 0 8 -7 5 -16z
m-1111 -112 c-11 -20 -21 -29 -31 -25 -12 4 -9 11 13 33 15 16 29 27 31 26 1
-2 -5 -17 -13 -34z m30 -4 c-6 -17 -4 -20 10 -15 11 5 15 3 13 -5 -3 -7 -14
-14 -26 -14 -26 -1 -25 -2 -10 31 14 31 22 33 13 3z m1055 -32 c0 -2 -7 -7
-16 -10 -8 -3 -12 -2 -9 4 6 10 25 14 25 6z m-1024 -51 c-3 -8 -1 -15 5 -15 6
0 7 -5 3 -11 -4 -8 -11 -4 -19 11 -8 15 -15 19 -19 11 -11 -16 -26 -13 -20 4
4 8 17 15 31 15 18 0 24 -4 19 -15z m929 -23 c-3 -3 -11 0 -18 7 -9 10 -8 11
6 5 10 -3 15 -9 12 -12z m-985 -13 c0 -6 -4 -7 -10 -4 -5 3 -10 11 -10 16 0 6
5 7 10 4 6 -3 10 -11 10 -16z"/>
<path d="M2410 4090 c0 -5 5 -10 11 -10 5 0 7 5 4 10 -3 6 -8 10 -11 10 -2 0
-4 -4 -4 -10z"/>
<path d="M2432 4040 c7 -10 14 -18 15 -16 6 6 -9 36 -18 36 -5 0 -4 -9 3 -20z"/>
<path d="M2050 4051 c0 -5 5 -13 10 -16 6 -3 10 -2 10 4 0 5 -4 13 -10 16 -5
3 -10 2 -10 -4z"/>
<path d="M2210 4020 c0 -5 5 -10 11 -10 5 0 7 5 4 10 -3 6 -8 10 -11 10 -2 0
-4 -4 -4 -10z"/>
<path d="M2150 4010 c0 -13 11 -13 30 0 12 8 11 10 -7 10 -13 0 -23 -4 -23
-10z"/>
<path d="M2350 3941 c0 -10 30 -24 37 -17 3 3 2 9 -2 15 -8 13 -35 15 -35 2z"/>
<path d="M1362 3705 c4 -4 3 -14 -4 -22 -8 -10 -8 -17 0 -25 7 -7 12 -10 13
-7 6 30 4 51 -5 56 -6 3 -8 3 -4 -2z"/>
<path d="M1156 3622 c-3 -6 -1 -14 5 -17 14 -9 20 -2 10 14 -6 8 -11 9 -15 3z"/>
<path d="M1780 3620 c0 -13 28 -25 38 -16 3 4 0 11 -8 16 -20 13 -30 12 -30 0z"/>
<path d="M1211 3584 c12 -15 54 -20 45 -5 -3 5 -17 11 -31 13 -20 4 -23 3 -14
-8z"/>
<path d="M1155 3570 c3 -5 8 -10 11 -10 2 0 4 5 4 10 0 6 -5 10 -11 10 -5 0
-7 -4 -4 -10z"/>
<path d="M1634 3558 c-5 -8 -2 -9 9 -5 10 3 17 2 17 -3 0 -6 5 -10 11 -10 8 0
8 5 -1 15 -15 18 -26 19 -36 3z"/>
<path d="M1216 3551 c5 -4 23 -11 39 -15 28 -6 29 -5 11 9 -21 16 -67 22 -50
6z"/>
<path d="M1695 3530 c3 -5 8 -10 11 -10 2 0 4 5 4 10 0 6 -5 10 -11 10 -5 0
-7 -4 -4 -10z"/>
<path d="M1934 3340 c-28 -11 -38 -27 -23 -36 8 -4 9 -3 5 4 -4 8 3 16 18 22
14 5 26 12 26 15 0 6 1 6 -26 -5z"/>
<path d="M900 3315 c0 -3 16 -19 35 -36 19 -17 33 -34 31 -38 -2 -3 10 -7 27
-7 l31 -1 -22 17 c-12 10 -22 21 -22 25 0 14 -43 45 -62 45 -10 0 -18 -2 -18
-5z"/>
<path d="M1880 3300 c0 -5 5 -10 11 -10 5 0 7 5 4 10 -3 6 -8 10 -11 10 -2 0
-4 -4 -4 -10z"/>
<path d="M1836 3251 c5 -5 20 -12 34 -16 24 -7 24 -7 5 9 -21 16 -56 23 -39 7z"/>
<path d="M1065 3219 c20 -18 38 -29 41 -27 5 5 -60 58 -71 58 -3 0 10 -14 30
-31z"/>
<path d="M762 3168 c-7 -10 -4 -21 14 -43 l24 -30 -11 40 c-13 48 -14 49 -27
33z"/>
<path d="M2035 3173 c11 -3 24 -9 30 -14 5 -5 16 -9 25 -9 13 0 13 1 0 10 -12
8 -9 10 13 10 16 0 26 -3 24 -7 -3 -5 11 -7 31 -6 55 2 56 3 50 8 -2 3 -47 7
-99 9 -52 3 -85 2 -74 -1z"/>
<path d="M852 3148 c-7 -9 -3 -24 14 -50 25 -39 44 -49 44 -23 0 8 -4 15 -9
15 -10 0 -24 38 -22 58 1 6 -2 12 -7 12 -5 0 -14 -6 -20 -12z"/>
<path d="M905 3039 c-4 -5 -3 -15 2 -22 5 -7 17 -33 27 -59 10 -27 21 -48 25
-48 5 0 19 -20 32 -45 13 -25 28 -45 32 -45 5 0 -6 25 -23 56 -18 30 -30 63
-28 72 3 10 -2 24 -9 31 -13 11 -13 15 -1 22 7 5 8 9 2 9 -5 0 -20 9 -32 20
-13 12 -23 16 -27 9z"/>
<path d="M1026 3018 c20 -39 38 -58 56 -58 10 0 9 3 -2 10 -8 5 -10 10 -5 10
6 0 1 7 -9 15 -11 8 -17 15 -13 15 4 0 -1 9 -10 20 -26 30 -36 24 -17 -12z"/>
<path d="M2810 3034 c0 -8 4 -13 9 -9 6 3 14 -2 19 -11 11 -20 25 -3 16 20 -8
21 -44 21 -44 0z"/>
<path d="M2413 3028 c-18 -5 -33 -11 -33 -13 0 -9 45 -5 60 5 22 14 9 18 -27
8z"/>
<path d="M2885 2990 c-2 -3 7 -7 20 -8 13 -1 26 2 29 6 2 4 -7 7 -21 7 -14 0
-26 -2 -28 -5z"/>
<path d="M1820 2952 c0 -5 7 -9 15 -9 8 0 15 4 15 9 0 4 -7 8 -15 8 -8 0 -15
-4 -15 -8z"/>
<path d="M1080 2946 c0 -2 18 -35 40 -74 22 -38 40 -72 40 -77 0 -4 11 -20 25
-37 35 -42 31 -27 -14 50 -21 37 -46 84 -54 105 -9 20 -21 37 -26 37 -6 0 -11
-2 -11 -4z"/>
<path d="M1880 2940 c0 -5 5 -10 10 -10 6 0 10 5 10 10 0 6 -4 10 -10 10 -5 0
-10 -4 -10 -10z"/>
<path d="M1913 2927 c2 -6 17 -12 33 -13 17 -1 41 -5 55 -9 16 -5 21 -4 14 3
-16 15 -107 32 -102 19z"/>
<path d="M2163 2933 c9 -2 23 -2 30 0 6 3 -1 5 -18 5 -16 0 -22 -2 -12 -5z"/>
<path d="M2880 2922 c0 -5 7 -15 15 -22 8 -7 15 -9 15 -6 0 4 -7 14 -15 22 -8
9 -15 11 -15 6z"/>
<path d="M2995 2870 c-3 -5 -1 -10 4 -10 6 0 11 5 11 10 0 6 -2 10 -4 10 -3 0
-8 -4 -11 -10z"/>
<path d="M1220 2705 c7 -9 15 -13 17 -11 7 7 -7 26 -19 26 -6 0 -6 -6 2 -15z"/>
<path d="M753 2600 c13 -19 33 -36 43 -38 15 -3 14 0 -6 14 -14 10 -33 28 -44
39 -10 11 -7 4 7 -15z"/>
<path d="M3060 2606 c0 -22 17 -28 24 -10 9 22 8 24 -9 24 -8 0 -15 -6 -15
-14z"/>
<path d="M3080 2560 c0 -5 5 -10 10 -10 6 0 10 5 10 10 0 6 -4 10 -10 10 -5 0
-10 -4 -10 -10z"/>
<path d="M825 2521 c27 -26 95 -58 70 -33 -5 5 -19 12 -30 14 -11 2 -19 7 -17
12 4 9 -28 35 -43 36 -5 0 4 -13 20 -29z"/>
<path d="M3170 2519 c0 -5 10 -9 22 -9 12 0 18 3 14 7 -10 11 -36 12 -36 2z"/>
<path d="M3420 2459 c0 -5 6 -9 14 -9 7 0 19 -7 26 -15 8 -10 21 -13 33 -9 11
4 23 1 28 -7 6 -11 11 -11 21 -1 9 9 9 12 -5 12 -9 0 -17 5 -17 10 0 6 -7 10
-15 10 -8 0 -15 -4 -15 -10 0 -5 -6 -7 -14 -4 -8 3 -13 11 -10 19 3 8 -4 13
-20 13 -14 0 -26 -4 -26 -9z"/>
<path d="M3390 2440 c0 -5 5 -10 11 -10 5 0 7 5 4 10 -3 6 -8 10 -11 10 -2 0
-4 -4 -4 -10z"/>
<path d="M3568 2416 c-10 -10 -18 -21 -18 -26 0 -16 31 -39 45 -34 19 8 9 24
-13 24 -13 0 -14 2 -4 9 8 5 12 17 10 26 -3 18 -4 18 -20 1z"/>
<path d="M3495 2400 c3 -5 8 -10 11 -10 2 0 4 5 4 10 0 6 -5 10 -11 10 -5 0
-7 -4 -4 -10z"/>
<path d="M1095 2365 c22 -19 52 -46 66 -60 14 -14 32 -25 40 -26 8 0 3 -4 -9
-10 -13 -5 -29 -6 -35 -3 -7 3 1 -6 16 -20 17 -16 40 -26 58 -26 18 0 28 -4
24 -10 -3 -5 1 -10 10 -10 9 0 13 5 10 10 -3 6 3 10 14 10 12 0 21 -4 21 -10
0 -5 -5 -10 -11 -10 -5 0 -7 -5 -3 -11 4 -8 9 -8 17 0 18 18 30 13 24 -10 -3
-13 -1 -19 6 -16 7 3 11 9 10 15 -1 6 6 6 22 -1 13 -7 21 -15 19 -19 -3 -5 4
-8 16 -8 12 0 18 5 15 10 -10 16 7 12 27 -7 18 -16 18 -16 12 0 -3 9 -10 17
-16 17 -5 0 -8 8 -6 18 2 9 -2 16 -9 15 -7 -2 -10 3 -7 10 7 19 -34 67 -57 67
-10 0 -19 -5 -19 -11 0 -6 -7 -18 -17 -27 -15 -16 -16 -15 -11 11 4 19 1 27
-8 27 -8 0 -14 7 -14 16 0 8 -5 12 -11 9 -6 -4 -19 2 -30 14 -11 12 -27 21
-37 21 -9 0 -26 7 -36 15 -11 8 -29 15 -41 15 -12 0 -30 7 -41 15 -40 30 -48
14 -9 -20z m125 -45 c0 -5 -4 -10 -9 -10 -6 0 -13 5 -16 10 -3 6 1 10 9 10 9
0 16 -4 16 -10z m68 -55 c-3 -3 -9 2 -12 12 -6 14 -5 15 5 6 7 -7 10 -15 7
-18z m-30 -31 c-9 -9 -68 6 -68 17 0 14 28 11 33 -3 3 -7 6 -4 6 7 1 18 2 18
18 2 9 -9 14 -19 11 -23z"/>
<path d="M3606 2341 c-4 -7 -5 -15 -2 -18 9 -9 19 4 14 18 -4 11 -6 11 -12 0z"/>
<path d="M1104 2300 c22 -11 42 -18 44 -15 5 5 -61 35 -75 35 -4 -1 10 -10 31
-20z"/>
<path d="M1210 2200 c0 -5 4 -10 9 -10 6 0 13 5 16 10 3 6 -1 10 -9 10 -9 0
-16 -4 -16 -10z"/>
<path d="M2170 2133 c0 -12 5 -25 10 -28 13 -8 13 15 0 35 -8 12 -10 11 -10
-7z"/>
<path d="M1340 2120 c14 -10 36 -25 50 -32 44 -23 89 -55 84 -60 -2 -3 12 -22
32 -42 20 -20 39 -34 42 -32 2 3 -5 30 -18 61 -16 39 -28 55 -41 55 -11 0 -19
5 -19 10 0 6 -7 10 -16 10 -8 0 -40 11 -70 25 -65 30 -78 31 -44 5z"/>
<path d="M2162 2050 c8 -25 -47 -113 -71 -115 -11 -1 -21 2 -21 7 0 4 6 8 13
8 7 1 5 6 -5 14 -10 7 -18 21 -18 31 0 10 -13 -6 -28 -36 -37 -71 -54 -100
-71 -122 -17 -21 -1 -67 24 -67 9 0 13 5 10 10 -7 12 5 13 21 2 13 -8 15 -42
2 -42 -4 0 -8 4 -8 9 0 5 -8 7 -18 4 -14 -3 -18 -11 -14 -29 2 -13 9 -24 14
-24 5 0 7 -4 3 -9 -6 -10 25 -31 44 -31 18 0 13 18 -6 22 -16 3 -16 4 0 20 9
9 17 31 17 48 0 24 4 31 14 27 22 -9 27 4 11 27 -8 11 -15 31 -15 43 0 20 5
23 38 24 20 1 29 3 20 6 -15 4 -15 6 3 24 10 10 19 26 19 34 0 8 4 15 9 15 15
0 32 93 19 105 -7 7 -9 5 -6 -5z m-122 -240 c0 -5 -4 -10 -10 -10 -5 0 -10 5
-10 10 0 6 5 10 10 10 6 0 10 -4 10 -10z"/>
<path d="M3688 2013 c7 -3 16 -2 19 1 4 3 -2 6 -13 5 -11 0 -14 -3 -6 -6z"/>
<path d="M3687 1984 c-14 -14 -7 -26 8 -14 10 9 15 9 15 1 0 -6 7 -11 15 -11
8 0 15 5 15 10 0 6 -4 10 -9 10 -5 0 -16 2 -23 5 -8 3 -17 2 -21 -1z"/>
<path d="M3660 1930 c0 -5 5 -10 11 -10 5 0 7 5 4 10 -3 6 -8 10 -11 10 -2 0
-4 -4 -4 -10z"/>
<path d="M2174 1873 c3 -6 0 -13 -6 -16 -7 -2 -10 -8 -5 -12 4 -5 13 -3 19 3
9 9 9 15 -1 25 -9 8 -12 8 -7 0z"/>
<path d="M2082 1840 c-10 -17 -10 -20 4 -20 15 0 44 23 44 34 0 15 -37 4 -48
-14z"/>
<path d="M2320 1839 c0 -5 5 -7 10 -4 6 3 10 8 10 11 0 2 -4 4 -10 4 -5 0 -10
-5 -10 -11z"/>
<path d="M2172 1815 c-17 -22 -20 -30 -10 -36 8 -5 17 1 26 17 20 38 9 51 -16
19z"/>
<path d="M2403 1813 c-7 -20 -8 -33 -2 -33 13 0 22 24 17 47 -3 13 -7 9 -15
-14z"/>
<path d="M1806 1805 c4 -8 16 -15 28 -15 21 1 21 1 2 15 -25 19 -37 19 -30 0z"/>
<path d="M2326 1804 c-3 -9 -6 -33 -6 -54 0 -21 -5 -40 -11 -42 -16 -5 -17
-68 -2 -83 15 -15 18 -29 4 -21 -5 3 -9 -10 -9 -30 l0 -35 32 24 c17 14 31 32
31 40 0 9 4 19 9 24 5 5 6 2 1 -7 -8 -13 -7 -13 10 0 16 13 16 15 2 18 -10 2
-17 12 -17 23 0 16 -5 19 -20 14 -18 -6 -20 -2 -20 54 0 33 5 63 10 66 12 8
13 25 1 25 -5 0 -12 -7 -15 -16z"/>
<path d="M3620 1785 c-2 -5 -2 -14 -1 -19 1 -5 -4 -13 -11 -17 -7 -4 -10 -10
-7 -13 3 -3 13 0 21 7 11 8 13 18 8 32 -5 11 -9 16 -10 10z"/>
<path d="M2087 1765 c-13 -9 -17 -20 -12 -34 3 -12 9 -21 13 -22 4 0 19 -2 35
-4 40 -5 57 29 26 56 -26 22 -38 23 -62 4z m28 -14 c7 -12 -12 -24 -25 -16
-11 7 -4 25 10 25 5 0 11 -4 15 -9z"/>
<path d="M1850 1756 c0 -8 5 -18 10 -21 6 -4 8 -11 5 -16 -4 -5 -2 -9 3 -9 6
0 15 -14 21 -31 8 -24 15 -30 28 -24 10 4 29 8 43 7 15 0 18 2 8 5 -9 2 -20
13 -23 23 -3 11 -12 17 -20 14 -8 -4 -23 8 -37 30 -24 38 -38 45 -38 22z"/>
<path d="M3736 1751 c-8 -12 3 -41 15 -41 5 0 9 11 9 25 0 25 -14 34 -24 16z"/>
<path d="M2390 1731 c0 -11 6 -22 13 -24 7 -3 5 -6 -5 -6 -22 -1 -24 -18 -3
-18 8 0 15 3 16 6 0 3 2 13 4 21 1 8 -4 21 -11 28 -12 11 -14 9 -14 -7z"/>
<path d="M2219 1719 c-8 -13 -14 -31 -15 -39 -1 -8 -3 -21 -5 -29 -5 -17 12
-23 31 -11 11 7 12 12 3 21 -9 9 -8 17 2 33 9 13 11 27 6 35 -7 11 -12 9 -22
-10z"/>
<path d="M988 1717 c-16 -6 -28 -16 -28 -23 0 -10 7 -9 28 2 15 7 33 14 40 14
7 0 10 5 7 10 -7 12 -11 11 -47 -3z"/>
<path d="M1070 1720 c14 -4 34 -8 45 -9 16 -1 17 1 5 9 -8 5 -28 9 -45 9 -29
-1 -29 -1 -5 -9z"/>
<path d="M3630 1721 c0 -4 -11 -7 -25 -6 -24 3 -43 -9 -28 -18 13 -7 73 13 73
23 0 6 -4 10 -10 10 -5 0 -10 -4 -10 -9z"/>
<path d="M2430 1710 c0 -5 5 -10 10 -10 6 0 10 5 10 10 0 6 -4 10 -10 10 -5 0
-10 -4 -10 -10z"/>
<path d="M3567 1658 c-8 -29 -5 -31 26 -17 22 10 24 14 12 25 -19 20 -32 17
-38 -8z"/>
<path d="M2467 1653 c-5 -7 -5 -18 -1 -25 4 -6 3 -8 -3 -5 -6 4 -18 -2 -28
-13 -17 -18 -16 -19 9 -26 26 -6 36 -24 14 -24 -9 0 -8 -4 2 -10 25 -16 30
-12 29 23 -2 53 -13 94 -22 80z"/>
<path d="M2740 1630 c0 -5 5 -10 10 -10 6 0 10 5 10 10 0 6 -4 10 -10 10 -5 0
-10 -4 -10 -10z"/>
<path d="M3591 1627 c-6 -8 -8 -17 -4 -20 3 -4 1 -7 -5 -7 -7 0 -12 -9 -12
-20 0 -17 -5 -19 -27 -14 -22 4 -25 3 -13 -5 28 -20 45 -11 66 34 20 44 18 59
-5 32z"/>
<path d="M3703 1623 c-20 -7 -15 -23 6 -23 11 0 23 -4 26 -10 3 -5 15 -10 26
-10 22 0 23 -4 9 -30 -6 -11 -6 -21 -1 -24 9 -6 22 17 26 46 1 10 -14 24 -38
37 -21 12 -40 21 -40 20 -1 0 -8 -3 -14 -6z"/>
<path d="M3540 1594 c0 -8 5 -12 10 -9 6 3 10 10 10 16 0 5 -4 9 -10 9 -5 0
-10 -7 -10 -16z"/>
<path d="M3330 1590 c0 -5 5 -10 10 -10 6 0 10 5 10 10 0 6 -4 10 -10 10 -5 0
-10 -4 -10 -10z"/>
<path d="M2383 1545 c-37 -39 -45 -59 -10 -28 12 11 32 26 45 32 12 6 22 16
22 21 0 19 -26 8 -57 -25z"/>
<path d="M2332 1540 c-18 -15 -28 -17 -42 -10 -27 15 -34 12 -16 -6 19 -18 21
-45 4 -62 -6 -6 -8 -15 -4 -19 4 -5 14 1 22 12 8 11 18 19 22 18 4 0 14 3 22
9 11 7 10 8 -8 4 -25 -5 -23 1 22 52 24 27 10 29 -22 2z"/>
<path d="M2600 1539 c0 -13 -3 -34 -6 -46 -4 -14 -2 -23 5 -23 6 0 11 7 11 16
0 9 5 12 13 8 6 -4 9 -4 5 1 -4 4 -3 14 2 20 7 8 4 18 -10 30 -19 18 -20 17
-20 -6z"/>
<path d="M3390 1551 c0 -6 5 -13 10 -16 6 -3 10 1 10 9 0 9 -4 16 -10 16 -5 0
-10 -4 -10 -9z"/>
<path d="M3590 1549 c0 -5 5 -7 10 -4 6 3 10 8 10 11 0 2 -4 4 -10 4 -5 0 -10
-5 -10 -11z"/>
<path d="M3510 1528 c0 -6 3 -9 6 -5 4 3 13 -1 21 -9 17 -16 34 -15 41 4 2 7
-2 10 -12 6 -9 -3 -16 -1 -16 5 0 6 -9 11 -20 11 -11 0 -20 -5 -20 -12z"/>
<path d="M3635 1520 c-3 -5 -1 -10 4 -10 6 0 11 5 11 10 0 6 -2 10 -4 10 -3 0
-8 -4 -11 -10z"/>
<path d="M2695 1510 c-3 -5 -1 -10 4 -10 6 0 11 5 11 10 0 6 -2 10 -4 10 -3 0
-8 -4 -11 -10z"/>
<path d="M3514 1494 c3 -8 6 -18 6 -20 0 -3 5 -2 10 1 15 9 12 22 -6 29 -12 5
-15 2 -10 -10z"/>
<path d="M2475 1490 c-3 -5 -1 -10 4 -10 6 0 11 5 11 10 0 6 -2 10 -4 10 -3 0
-8 -4 -11 -10z"/>
<path d="M2682 1466 c-15 -33 -11 -44 7 -22 7 8 11 23 9 32 -2 14 -6 11 -16
-10z"/>
<path d="M2630 1460 c0 -5 5 -10 11 -10 5 0 7 5 4 10 -3 6 -8 10 -11 10 -2 0
-4 -4 -4 -10z"/>
<path d="M2579 1433 c-6 -15 -8 -36 -5 -47 3 -11 -2 -24 -12 -32 -14 -10 -15
-15 -2 -40 11 -23 14 -25 17 -11 3 9 9 17 14 17 5 0 19 11 31 25 25 29 48 33
49 8 0 -15 2 -15 8 2 5 11 4 23 -1 26 -5 3 -6 13 -2 22 10 27 -12 20 -39 -13
-14 -16 -28 -30 -30 -30 -2 0 -1 17 3 38 11 62 -11 88 -31 35z"/>
<path d="M3560 1450 c0 -5 5 -10 10 -10 6 0 10 5 10 10 0 6 -4 10 -10 10 -5 0
-10 -4 -10 -10z"/>
<path d="M2720 1369 c0 -5 5 -7 10 -4 6 3 10 8 10 11 0 2 -4 4 -10 4 -5 0 -10
-5 -10 -11z"/>
<path d="M2764 1355 c-3 -8 -3 -19 1 -25 3 -5 2 -10 -3 -10 -14 0 -30 -71 -24
-108 7 -48 27 -46 40 4 7 24 16 44 22 44 20 0 10 28 -12 34 -13 3 -19 9 -13
13 13 10 17 63 4 63 -5 0 -12 -7 -15 -15z"/>
<path d="M3065 1350 c4 -6 11 -8 16 -5 14 9 11 15 -7 15 -8 0 -12 -5 -9 -10z"/>
<path d="M2475 1320 c-4 -17 -5 -34 -2 -36 3 -3 8 9 12 26 4 17 5 34 2 36 -3
3 -8 -9 -12 -26z"/>
<path d="M3378 1333 c7 -3 16 -2 19 1 4 3 -2 6 -13 5 -11 0 -14 -3 -6 -6z"/>
<path d="M3535 1320 c-3 -5 -1 -10 4 -10 6 0 11 5 11 10 0 6 -2 10 -4 10 -3 0
-8 -4 -11 -10z"/>
<path d="M3440 1270 c0 -5 5 -10 11 -10 5 0 7 5 4 10 -3 6 -8 10 -11 10 -2 0
-4 -4 -4 -10z"/>
<path d="M3155 1260 c-3 -5 -1 -10 4 -10 6 0 11 5 11 10 0 6 -2 10 -4 10 -3 0
-8 -4 -11 -10z"/>
<path d="M3240 1256 c0 -2 7 -9 15 -16 12 -10 15 -10 15 4 0 9 -7 16 -15 16
-8 0 -15 -2 -15 -4z"/>
<path d="M2800 1210 c0 -5 5 -10 11 -10 5 0 7 5 4 10 -3 6 -8 10 -11 10 -2 0
-4 -4 -4 -10z"/>
<path d="M3377 1213 c-4 -3 -7 -15 -7 -26 0 -25 13 -14 15 13 2 22 1 23 -8 13z"/>
<path d="M2918 1193 c6 -2 18 -2 25 0 6 3 1 5 -13 5 -14 0 -19 -2 -12 -5z"/>
<path d="M2899 1157 c-7 -15 -8 -34 -4 -44 6 -14 10 -9 15 22 9 48 5 57 -11
22z"/>
<path d="M3400 1170 c0 -5 5 -10 10 -10 6 0 10 5 10 10 0 6 -4 10 -10 10 -5 0
-10 -4 -10 -10z"/>
<path d="M3250 1154 c0 -8 5 -12 10 -9 6 3 10 10 10 16 0 5 -4 9 -10 9 -5 0
-10 -7 -10 -16z"/>
<path d="M2797 1139 c4 -13 9 -17 15 -11 11 11 3 32 -12 32 -4 0 -6 -9 -3 -21z"/>
<path d="M3380 1136 c0 -2 9 -6 20 -9 11 -3 20 -1 20 4 0 5 -9 9 -20 9 -11 0
-20 -2 -20 -4z"/>
<path d="M3350 1120 c0 -5 5 -10 11 -10 5 0 7 5 4 10 -3 6 -8 10 -11 10 -2 0
-4 -4 -4 -10z"/>
<path d="M2855 1089 c-4 -17 -5 -32 -2 -35 8 -8 38 46 32 56 -11 18 -23 10
-30 -21z"/>
<path d="M3148 1108 c-14 -11 -15 -15 -3 -25 11 -10 16 -7 29 12 13 19 13 25
3 25 -7 0 -21 -6 -29 -12z"/>
<path d="M3265 1110 c-3 -5 1 -10 9 -10 9 0 16 5 16 10 0 6 -4 10 -9 10 -6 0
-13 -4 -16 -10z"/>
<path d="M3090 1103 c1 -11 26 -43 33 -43 4 0 1 11 -5 25 -10 23 -28 35 -28
18z"/>
<path d="M2794 1093 c3 -6 0 -13 -6 -16 -7 -2 -10 -8 -5 -12 4 -5 13 -3 19 3
9 9 9 15 -1 25 -9 8 -12 8 -7 0z"/>
<path d="M3337 1061 c-9 -16 -17 -32 -17 -35 0 -12 37 28 43 47 10 27 -7 20
-26 -12z"/>
<path d="M3080 1065 c0 -8 5 -15 10 -15 6 0 10 7 10 15 0 8 -4 15 -10 15 -5 0
-10 -7 -10 -15z"/>
<path d="M3370 1060 c0 -5 5 -10 10 -10 6 0 10 5 10 10 0 6 -4 10 -10 10 -5 0
-10 -4 -10 -10z"/>
<path d="M3413 1058 c2 -7 10 -13 17 -13 7 0 15 6 18 13 2 7 -5 12 -18 12 -13
0 -20 -5 -17 -12z"/>
<path d="M3124 1018 c4 -36 22 -43 39 -16 8 12 7 21 -2 32 -23 28 -41 20 -37
-16z"/>
<path d="M2807 973 c-4 -3 -7 -11 -7 -17 0 -6 5 -5 12 2 6 6 9 14 7 17 -3 3
-9 2 -12 -2z"/>
<path d="M2640 900 c0 -5 5 -10 11 -10 5 0 7 5 4 10 -3 6 -8 10 -11 10 -2 0
-4 -4 -4 -10z"/>
<path d="M2575 870 c-13 -6 -15 -9 -5 -9 8 0 22 4 30 9 18 12 2 12 -25 0z"/>
<path d="M3261 824 c0 -11 3 -14 6 -6 3 7 2 16 -1 19 -3 4 -6 -2 -5 -13z"/>
<path d="M2995 750 c3 -5 8 -10 11 -10 2 0 4 5 4 10 0 6 -5 10 -11 10 -5 0 -7
-4 -4 -10z"/>
<path d="M2670 3686 c0 -2 7 -6 15 -10 8 -3 15 -1 15 4 0 6 -7 10 -15 10 -8 0
-15 -2 -15 -4z"/>
<path d="M3370 620 c0 -5 7 -10 16 -10 8 0 12 5 9 10 -3 6 -10 10 -16 10 -5 0
-9 -4 -9 -10z"/>
<path d="M3367 526 c-4 -10 -1 -13 9 -9 7 3 14 9 14 14 0 14 -17 10 -23 -5z"/>
<path d="M4156 3382 c-8 -13 20 -30 35 -21 20 13 29 11 29 -6 0 -8 5 -15 11
-15 6 0 8 7 5 16 -5 12 -2 15 10 10 9 -4 14 -1 12 6 -4 12 -95 22 -102 10z"/>
<path d="M4285 3338 c9 -29 11 -31 24 -23 16 9 13 19 -10 33 -19 12 -20 12
-14 -10z"/>
<path d="M4035 3340 c4 -6 11 -8 16 -5 14 9 11 15 -7 15 -8 0 -12 -5 -9 -10z"/>
<path d="M4072 3317 c-9 -11 -10 -17 -2 -22 15 -9 23 -1 18 21 -3 15 -4 16
-16 1z"/>
<path d="M4240 3320 c0 -5 7 -7 15 -4 8 4 15 8 15 10 0 2 -7 4 -15 4 -8 0 -15
-4 -15 -10z"/>
<path d="M4445 3300 c-3 -5 1 -10 9 -10 9 0 16 5 16 10 0 6 -4 10 -9 10 -6 0
-13 -4 -16 -10z"/>
<path d="M4220 3286 c0 -9 5 -16 10 -16 6 0 10 4 10 9 0 6 -4 13 -10 16 -5 3
-10 -1 -10 -9z"/>
<path d="M4270 3260 c0 -5 5 -10 10 -10 6 0 10 5 10 10 0 6 -4 10 -10 10 -5 0
-10 -4 -10 -10z"/>
<path d="M4105 3240 c3 -5 8 -10 11 -10 2 0 4 5 4 10 0 6 -5 10 -11 10 -5 0
-7 -4 -4 -10z"/>
<path d="M4170 3240 c0 -5 5 -10 10 -10 6 0 10 5 10 10 0 6 -4 10 -10 10 -5 0
-10 -4 -10 -10z"/>
<path d="M4440 3220 c0 -5 5 -10 11 -10 5 0 7 5 4 10 -3 6 -8 10 -11 10 -2 0
-4 -4 -4 -10z"/>
<path d="M4150 3210 c-8 -5 -11 -12 -7 -16 4 -4 13 -2 19 4 15 15 7 24 -12 12z"/>
<path d="M4447 3193 c-10 -9 23 -43 43 -43 9 0 21 -5 28 -12 6 -6 14 -10 16
-7 8 8 -6 49 -14 44 -12 -8 -41 6 -34 16 6 10 -29 12 -39 2z"/>
<path d="M4300 3179 c0 -5 5 -7 10 -4 6 3 10 8 10 11 0 2 -4 4 -10 4 -5 0 -10
-5 -10 -11z"/>
<path d="M4025 3170 c-4 -6 6 -10 22 -10 23 0 29 -5 30 -22 2 -22 1 -22 -13
-4 -14 19 -14 19 -14 -3 0 -16 5 -21 18 -19 9 1 23 -1 30 -5 17 -11 15 1 -3
20 -8 8 -12 19 -9 25 8 12 -14 28 -38 28 -9 0 -20 -4 -23 -10z"/>
<path d="M4318 3163 c-22 -6 -24 -23 -2 -23 8 0 13 -4 9 -9 -3 -6 4 -15 15
-21 16 -8 20 -8 20 3 0 8 -7 20 -15 27 -13 11 -13 15 -3 21 14 9 5 10 -24 2z"/>
<path d="M4394 3151 c4 -5 0 -12 -6 -14 -8 -4 -9 -6 -2 -6 6 -1 17 6 24 14 10
12 9 15 -4 15 -10 0 -15 -4 -12 -9z"/>
<path d="M4557 3143 c-4 -3 -7 -11 -7 -17 0 -6 5 -5 12 2 6 6 9 14 7 17 -3 3
-9 2 -12 -2z"/>
<path d="M4380 3111 c0 -5 9 -11 20 -14 24 -6 27 8 4 17 -21 8 -24 8 -24 -3z"/>
<path d="M4237 3094 c3 -8 15 -14 26 -14 16 0 18 -3 10 -11 -9 -9 -19 -6 -42
10 -31 22 -31 22 -31 2 0 -15 -9 -22 -35 -27 -19 -3 -35 -10 -35 -16 0 -5 -4
-6 -10 -3 -5 3 -10 -1 -10 -10 0 -12 6 -15 20 -10 11 4 20 2 20 -4 0 -6 -6
-11 -12 -11 -9 0 -8 -4 2 -10 10 -6 11 -10 3 -10 -7 0 -13 -5 -13 -11 0 -6 8
-9 18 -7 9 2 16 11 14 20 -2 11 7 18 27 23 16 3 32 13 35 22 10 26 -2 28 -23
5 -19 -22 -31 -28 -31 -14 0 4 12 15 26 25 28 21 66 15 57 -9 -3 -8 1 -14 11
-14 9 0 16 -6 16 -13 0 -22 -34 -42 -70 -40 -19 1 -27 -1 -17 -3 21 -7 21 -13
1 -42 -14 -21 -14 -22 10 -22 29 0 43 15 20 24 -21 8 -6 29 17 23 12 -3 19 0
19 9 0 7 9 18 20 24 13 7 20 7 20 1 0 -6 6 -8 14 -5 18 7 54 -12 78 -40 10
-12 17 -15 18 -8 0 6 -5 12 -11 12 -6 0 -9 6 -6 13 3 9 -13 20 -48 32 -37 12
-52 22 -48 31 3 8 0 14 -5 14 -6 0 -10 9 -9 20 1 14 6 19 17 15 8 -3 4 4 -10
14 -33 26 -60 33 -53 15z"/>
<path d="M4490 3100 c0 -5 4 -10 9 -10 6 0 13 5 16 10 3 6 -1 10 -9 10 -9 0
-16 -4 -16 -10z"/>
<path d="M4538 3094 c-30 -16 -37 -34 -13 -34 8 0 15 -5 15 -11 0 -6 7 -9 15
-5 8 3 15 1 15 -4 0 -6 -4 -10 -10 -10 -16 0 -11 -17 6 -24 22 -8 25 -5 29 40
2 22 -2 43 -10 51 -16 16 -13 16 -47 -3z"/>
<path d="M4040 3086 c0 -13 58 -31 68 -21 3 3 -10 8 -28 12 -29 5 -31 7 -15
14 19 7 18 8 -2 8 -13 1 -23 -5 -23 -13z"/>
<path d="M4110 3090 c-12 -8 -11 -10 8 -10 12 0 22 5 22 10 0 13 -11 13 -30 0z"/>
<path d="M4308 3093 c6 -2 18 -2 25 0 6 3 1 5 -13 5 -14 0 -19 -2 -12 -5z"/>
<path d="M4700 3090 c0 -5 5 -10 10 -10 6 0 10 5 10 10 0 6 -4 10 -10 10 -5 0
-10 -4 -10 -10z"/>
<path d="M4376 3081 c-4 -6 -11 -9 -15 -7 -4 3 -8 -1 -8 -9 0 -8 5 -15 11 -15
6 0 0 -9 -14 -20 l-25 -20 32 0 c17 0 33 -4 35 -9 2 -4 12 -5 23 0 19 7 19 8
1 8 -20 1 -20 1 0 16 18 14 18 14 -11 15 -22 1 -25 3 -12 8 15 7 16 10 4 26
-10 13 -16 16 -21 7z"/>
<path d="M4019 3061 c-1 -3 0 -18 1 -33 1 -16 -3 -28 -9 -28 -6 0 -8 8 -4 18
8 22 -1 13 -17 -16 -11 -22 -10 -23 9 -17 15 5 21 2 21 -9 0 -9 -3 -15 -7 -15
-5 1 -15 1 -23 0 -12 -1 -13 -3 -1 -10 17 -11 71 9 71 27 0 9 7 11 20 7 18 -6
20 -3 16 20 -3 15 -7 30 -10 32 -7 8 -46 -8 -46 -18 0 -6 5 -7 11 -3 7 4 10
-1 7 -11 -6 -35 -28 -28 -28 8 0 29 4 36 23 39 20 3 20 4 -5 9 -16 4 -28 3
-29 0z"/>
<path d="M4680 3060 c0 -5 4 -10 9 -10 6 0 13 5 16 10 3 6 -1 10 -9 10 -9 0
-16 -4 -16 -10z"/>
<path d="M4500 3019 c0 -5 5 -7 10 -4 6 3 10 8 10 11 0 2 -4 4 -10 4 -5 0 -10
-5 -10 -11z"/>
<path d="M4458 2992 c-22 -4 -24 -22 -3 -22 8 0 15 -6 15 -14 0 -18 17 -29 31
-21 7 5 6 12 -4 23 -8 10 -16 22 -18 27 -2 6 -12 9 -21 7z"/>
<path d="M4550 2990 c0 -5 5 -10 10 -10 6 0 10 5 10 10 0 6 -4 10 -10 10 -5 0
-10 -4 -10 -10z"/>
<path d="M4605 2960 c3 -5 8 -10 11 -10 2 0 4 5 4 10 0 6 -5 10 -11 10 -5 0
-7 -4 -4 -10z"/>
<path d="M4280 2944 c0 -8 5 -12 10 -9 6 3 10 10 10 16 0 5 -4 9 -10 9 -5 0
-10 -7 -10 -16z"/>
<path d="M4428 2943 c7 -3 16 -2 19 1 4 3 -2 6 -13 5 -11 0 -14 -3 -6 -6z"/>
<path d="M4120 2928 c0 -4 16 -8 35 -8 19 0 35 3 35 8 0 4 -16 7 -35 8 -19 0
-35 -3 -35 -8z"/>
<path d="M4315 2928 c-4 -10 -4 -22 -1 -27 4 -6 -8 -15 -26 -20 -18 -5 -25
-10 -16 -10 9 -1 18 -6 20 -12 2 -7 12 -7 31 0 27 10 37 31 16 31 -6 0 -9 6
-6 13 3 8 1 20 -3 28 -7 11 -10 10 -15 -3z"/>
<path d="M4350 2920 c0 -19 3 -21 12 -12 9 9 9 15 0 24 -9 9 -12 7 -12 -12z"/>
<path d="M4606 2924 c-5 -12 -2 -15 10 -10 8 3 20 6 25 6 5 0 9 5 9 10 0 16
-37 11 -44 -6z"/>
<path d="M4255 2920 c-3 -5 -1 -10 4 -10 6 0 11 5 11 10 0 6 -2 10 -4 10 -3 0
-8 -4 -11 -10z"/>
<path d="M4457 2903 c-4 -6 2 -18 13 -28 32 -29 19 -83 -13 -57 -7 5 -25 12
-40 16 -25 6 -28 5 -22 -14 7 -23 -4 -26 -24 -7 -8 6 -6 -1 4 -16 13 -21 24
-27 39 -23 31 8 68 -4 62 -20 -3 -8 1 -14 10 -14 11 0 13 6 9 21 -5 14 -3 20
7 19 19 -3 58 11 58 20 0 4 -13 10 -29 13 -29 6 -38 33 -16 49 5 4 1 10 -10
14 -11 4 -25 14 -31 22 -7 10 -13 11 -17 5z"/>
<path d="M4268 2893 c7 -3 16 -2 19 1 4 3 -2 6 -13 5 -11 0 -14 -3 -6 -6z"/>
<path d="M4048 2883 c7 -3 16 -2 19 1 4 3 -2 6 -13 5 -11 0 -14 -3 -6 -6z"/>
<path d="M4420 2880 c0 -5 5 -10 10 -10 6 0 10 5 10 10 0 6 -4 10 -10 10 -5 0
-10 -4 -10 -10z"/>
<path d="M4610 2860 c0 -13 5 -20 13 -17 6 2 12 10 12 17 0 7 -6 15 -12 18 -8
2 -13 -5 -13 -18z"/>
<path d="M4229 2834 c-14 -17 -12 -19 19 -28 18 -6 22 -3 22 12 0 25 -25 35
-41 16z"/>
<path d="M4460 2840 c0 -5 5 -10 10 -10 6 0 10 5 10 10 0 6 -4 10 -10 10 -5 0
-10 -4 -10 -10z"/>
<path d="M4687 2824 c-8 -8 1 -24 14 -24 5 0 9 7 9 15 0 15 -12 20 -23 9z"/>
<path d="M4525 2750 c3 -5 8 -10 11 -10 2 0 4 5 4 10 0 6 -5 10 -11 10 -5 0
-7 -4 -4 -10z"/>
<path d="M4190 2738 c0 -10 -4 -18 -10 -18 -5 0 -10 -4 -10 -10 0 -5 9 -10 20
-10 22 0 26 16 10 40 -8 13 -10 12 -10 -2z"/>
<path d="M4258 2743 c7 -3 16 -2 19 1 4 3 -2 6 -13 5 -11 0 -14 -3 -6 -6z"/>
<path d="M4524 2718 c-11 -18 26 -40 44 -26 12 10 11 14 -4 25 -22 16 -31 16
-40 1z"/>
<path d="M4285 2660 c-4 -6 3 -10 14 -10 25 0 27 6 6 13 -8 4 -17 2 -20 -3z"/>
<path d="M4510 2641 c0 -5 6 -14 14 -20 11 -9 16 -9 21 0 4 6 1 15 -6 20 -18
11 -29 11 -29 0z"/>
<path d="M4850 2635 c0 -8 4 -15 9 -15 5 0 14 7 21 15 10 13 9 15 -9 15 -12 0
-21 -6 -21 -15z"/>
<path d="M4322 2620 c-7 -11 -9 -20 -4 -20 4 0 13 9 20 20 7 11 9 20 4 20 -4
0 -13 -9 -20 -20z"/>
<path d="M4727 2604 c3 -8 12 -13 20 -10 8 3 20 6 26 6 19 0 -16 20 -35 20
-12 0 -15 -5 -11 -16z"/>
<path d="M4760 2570 c0 -5 7 -10 15 -10 8 0 15 5 15 10 0 6 -7 10 -15 10 -8 0
-15 -4 -15 -10z"/>
<path d="M4820 2570 c0 -5 5 -10 11 -10 5 0 7 5 4 10 -3 6 -8 10 -11 10 -2 0
-4 -4 -4 -10z"/>
<path d="M4710 2529 c0 -5 5 -7 10 -4 6 3 10 8 10 11 0 2 -4 4 -10 4 -5 0 -10
-5 -10 -11z"/>
<path d="M4430 2510 c0 -5 5 -10 11 -10 5 0 7 5 4 10 -3 6 -8 10 -11 10 -2 0
-4 -4 -4 -10z"/>
<path d="M4670 2493 c-16 -12 -19 -18 -10 -27 8 -8 14 -7 23 5 7 9 21 18 32
21 19 4 19 4 -2 10 -12 3 -31 -1 -43 -9z"/>
<path d="M4858 2503 c7 -3 16 -2 19 1 4 3 -2 6 -13 5 -11 0 -14 -3 -6 -6z"/>
<path d="M4462 2474 c-12 -13 -10 -14 12 -8 16 4 26 2 26 -5 0 -6 -5 -11 -11
-11 -5 0 -7 -5 -4 -10 5 -8 11 -8 19 -1 7 6 16 8 19 4 4 -3 7 1 7 10 0 15 -28
37 -47 37 -4 -1 -14 -8 -21 -16z"/>
<path d="M4828 2483 c6 -2 18 -2 25 0 6 3 1 5 -13 5 -14 0 -19 -2 -12 -5z"/>
<path d="M4955 2460 c-3 -5 1 -10 10 -10 9 0 13 5 10 10 -3 6 -8 10 -10 10 -2
0 -7 -4 -10 -10z"/>
<path d="M4793 2453 c-18 -7 -16 -23 2 -23 8 0 15 7 15 15 0 8 -1 15 -2 14 -2
0 -9 -3 -15 -6z"/>
<path d="M4831 2457 c2 -1 12 -9 22 -16 14 -12 17 -11 17 3 0 10 -8 16 -22 16
-12 0 -19 -1 -17 -3z"/>
<path d="M4889 2449 c-11 -7 -10 -10 8 -15 13 -4 20 -11 16 -20 -3 -9 2 -14
16 -14 18 0 19 3 9 24 -13 29 -29 38 -49 25z"/>
<path d="M4975 2432 c-5 -4 -11 -14 -13 -22 -3 -12 -1 -13 9 -2 19 17 29 15
22 -5 -6 -16 -5 -16 10 -5 14 12 14 16 2 28 -16 16 -17 16 -30 6z"/>
<path d="M4703 2423 c9 -2 23 -2 30 0 6 3 -1 5 -18 5 -16 0 -22 -2 -12 -5z"/>
<path d="M4500 2409 c0 -5 5 -7 10 -4 6 3 10 8 10 11 0 2 -4 4 -10 4 -5 0 -10
-5 -10 -11z"/>
<path d="M4870 2410 c8 -5 20 -10 25 -10 6 0 3 5 -5 10 -8 5 -19 10 -25 10 -5
0 -3 -5 5 -10z"/>
<path d="M5020 2395 c-15 -18 18 -29 35 -11 12 12 11 15 -5 19 -11 3 -24 -1
-30 -8z"/>
<path d="M4750 2370 c0 -5 5 -10 11 -10 5 0 7 5 4 10 -3 6 -8 10 -11 10 -2 0
-4 -4 -4 -10z"/>
<path d="M4888 2373 c7 -3 16 -2 19 1 4 3 -2 6 -13 5 -11 0 -14 -3 -6 -6z"/>
<path d="M5060 2365 c0 -8 4 -15 10 -15 5 0 7 7 4 15 -4 8 -8 15 -10 15 -2 0
-4 -7 -4 -15z"/>
<path d="M4995 2358 c3 -7 17 -14 32 -15 l28 -1 -25 14 c-31 17 -41 17 -35 2z"/>
<path d="M4845 2350 c-3 -5 1 -10 9 -10 9 0 16 5 16 10 0 6 -4 10 -9 10 -6 0
-13 -4 -16 -10z"/>
<path d="M4960 2340 c0 -5 5 -10 11 -10 5 0 7 5 4 10 -3 6 -8 10 -11 10 -2 0
-4 -4 -4 -10z"/>
<path d="M4485 2279 c-9 -14 -2 -20 14 -10 8 6 9 11 3 15 -6 3 -14 1 -17 -5z"/>
<path d="M4555 2279 c-4 -6 -5 -12 -2 -15 2 -3 7 2 10 11 7 17 1 20 -8 4z"/>
<path d="M4926 2231 c-4 -7 -5 -15 -2 -18 9 -9 19 4 14 18 -4 11 -6 11 -12 0z"/>
<path d="M5020 2200 l-25 -6 23 -6 c18 -5 22 -11 17 -26 -4 -16 -2 -19 12 -16
28 8 56 32 49 42 -8 13 -46 19 -76 12z"/>
<path d="M4838 2183 c7 -3 16 -2 19 1 4 3 -2 6 -13 5 -11 0 -14 -3 -6 -6z"/>
<path d="M4400 2165 c0 -8 7 -15 16 -15 14 0 14 3 4 15 -7 8 -14 15 -16 15 -2
0 -4 -7 -4 -15z"/>
<path d="M4975 2160 c-3 -5 3 -10 14 -10 12 0 21 5 21 10 0 6 -6 10 -14 10 -8
0 -18 -4 -21 -10z"/>
<path d="M4295 2150 c4 -6 11 -8 16 -5 14 9 11 15 -7 15 -8 0 -12 -5 -9 -10z"/>
<path d="M4864 2151 c3 -5 18 -11 33 -14 26 -5 26 -4 8 9 -21 15 -49 19 -41 5z"/>
<path d="M4980 2128 c0 -6 -8 -7 -17 -4 -9 4 -20 1 -24 -5 -8 -14 -1 -39 12
-39 4 0 6 6 3 14 -3 9 4 16 21 20 20 5 31 1 45 -16 18 -22 24 -8 7 18 -9 15
-47 25 -47 12z"/>
<path d="M5060 2129 c0 -5 5 -7 10 -4 6 3 10 8 10 11 0 2 -4 4 -10 4 -5 0 -10
-5 -10 -11z"/>
<path d="M4702 2095 c-11 -12 -10 -15 3 -15 8 0 15 7 15 15 0 18 -2 18 -18 0z"/>
<path d="M5078 2083 c7 -3 16 -2 19 1 4 3 -2 6 -13 5 -11 0 -14 -3 -6 -6z"/>
<path d="M4982 2065 c-11 -13 -9 -15 8 -15 11 0 20 -5 20 -10 0 -6 -12 -8 -27
-5 -27 5 -27 5 -5 -5 13 -5 28 -8 33 -5 5 3 25 3 44 -1 29 -5 35 -10 30 -25
-4 -11 -2 -19 4 -19 6 0 11 19 11 43 l0 43 -51 -3 c-31 -2 -48 1 -44 7 9 15
-8 11 -23 -5z"/>
<path d="M4810 2050 c0 -5 6 -10 14 -10 8 0 18 5 21 10 3 6 -3 10 -14 10 -12
0 -21 -4 -21 -10z"/>
<path d="M4731 2008 c-11 -30 -4 -36 14 -12 17 23 19 34 5 34 -6 0 -14 -10
-19 -22z"/>
<path d="M4840 2020 c0 -5 5 -10 11 -10 5 0 7 5 4 10 -3 6 -8 10 -11 10 -2 0
-4 -4 -4 -10z"/>
<path d="M5013 2010 c-26 -11 -31 -30 -8 -30 8 0 15 5 15 10 0 6 6 10 13 8 13
-3 24 15 10 19 -4 1 -18 -2 -30 -7z"/>
<path d="M4807 2003 c-14 -13 -6 -33 13 -33 11 0 20 4 20 9 0 13 -26 32 -33
24z"/>
<path d="M4875 2000 c-3 -5 3 -10 15 -10 12 0 18 5 15 10 -3 6 -10 10 -15 10
-5 0 -12 -4 -15 -10z"/>
<path d="M4960 1989 c0 -5 5 -7 10 -4 6 3 10 8 10 11 0 2 -4 4 -10 4 -5 0 -10
-5 -10 -11z"/>
<path d="M4630 1980 c0 -5 5 -10 11 -10 5 0 7 5 4 10 -3 6 -8 10 -11 10 -2 0
-4 -4 -4 -10z"/>
<path d="M5041 1981 c-11 -7 -11 -9 0 -14 8 -3 -1 -6 -18 -6 -18 -1 -33 -5
-33 -11 0 -5 -7 -10 -15 -10 -19 0 -20 -16 -1 -23 12 -5 13 -11 3 -38 -9 -25
-9 -33 1 -36 14 -5 17 -23 3 -23 -5 0 -14 14 -21 30 -13 31 -40 41 -40 15 0
-8 6 -15 13 -15 7 0 21 -15 32 -32 10 -18 22 -35 26 -38 12 -8 -1 -51 -15 -49
-25 3 -36 -2 -36 -15 0 -8 6 -17 13 -19 7 -4 6 -6 -4 -6 -9 -1 -19 -10 -22
-21 -3 -12 -14 -20 -26 -20 -15 0 -19 -4 -14 -17 6 -15 4 -16 -9 -5 -9 7 -23
9 -34 5 -15 -6 -14 -8 11 -15 23 -6 34 -3 50 12 12 11 28 20 36 20 18 0 80
-55 72 -64 -4 -3 -20 9 -36 27 -18 19 -27 25 -23 14 4 -12 -2 -29 -14 -44 -11
-15 -18 -29 -14 -32 3 -3 11 2 18 11 12 16 13 16 27 0 8 -9 13 -27 11 -39 -2
-13 1 -23 7 -23 6 0 11 8 12 18 0 14 2 14 9 -3 13 -30 12 -38 -5 -32 -18 7
-31 -11 -17 -25 5 -5 23 -10 40 -10 27 -1 30 -3 21 -20 -5 -10 -7 -23 -4 -28
3 -5 -1 -7 -9 -4 -9 4 -16 -2 -19 -18 l-4 -23 -2 23 c-1 29 -21 29 -21 -1 0
-13 -3 -27 -7 -31 -11 -11 -10 -40 2 -48 6 -5 6 -8 -2 -8 -15 0 -94 52 -88 58
2 3 11 -1 19 -7 15 -13 36 -7 36 10 0 17 43 59 61 59 20 0 34 16 21 23 -15 10
-102 -16 -102 -30 0 -8 5 -11 11 -7 7 4 10 1 7 -7 -3 -8 -11 -13 -17 -11 -6 1
-11 -3 -11 -9 0 -5 -5 -7 -11 -3 -8 4 -7 9 2 14 10 7 10 11 0 24 -10 12 -16
13 -32 3 -15 -9 -21 -9 -28 1 -6 9 -12 7 -26 -8 -15 -17 -16 -23 -6 -29 8 -5
11 -17 6 -30 -7 -22 10 -30 18 -8 4 7 6 6 6 -5 1 -9 4 -23 7 -31 4 -10 -1 -15
-13 -14 -12 2 -17 -4 -15 -16 2 -14 -2 -18 -15 -15 -10 2 -17 11 -15 21 2 9
-1 17 -6 17 -6 0 -12 -16 -14 -35 -3 -30 -1 -35 17 -35 18 -1 19 -1 2 -11 -9
-5 -22 -7 -27 -4 -6 3 -10 -5 -10 -20 0 -14 -9 -33 -20 -42 -25 -22 -27 -57
-2 -49 9 3 24 1 32 -5 13 -9 12 -10 -2 -5 -14 4 -18 0 -18 -18 0 -40 -12 -86
-21 -81 -4 3 -6 12 -3 20 4 10 0 12 -15 8 -29 -7 -37 -23 -12 -23 11 0 22 -9
26 -20 7 -21 25 -28 25 -10 0 6 9 10 20 10 23 0 24 4 10 31 -8 15 -7 19 4 19
9 0 23 11 32 25 16 24 18 25 40 10 13 -8 24 -11 24 -5 0 5 7 10 15 10 18 0 20
-16 3 -24 -7 -3 1 -3 17 1 25 5 28 3 18 -8 -18 -18 -16 -30 4 -22 13 5 15 3 9
-13 -9 -22 -9 -22 -7 -52 1 -14 11 -27 26 -34 14 -6 25 -19 25 -30 0 -21 11
-23 28 -6 19 19 15 26 -18 33 -17 4 -28 10 -26 14 3 4 -2 20 -10 35 -18 35
-18 37 3 29 10 -4 14 -2 9 5 -3 6 -2 13 4 17 5 3 10 -1 10 -9 0 -9 5 -16 11
-16 6 0 8 -7 5 -15 -9 -24 16 -55 42 -55 17 0 23 -4 18 -15 -4 -10 1 -15 14
-15 15 0 20 7 20 25 0 21 -5 25 -31 25 -22 0 -30 4 -26 14 3 7 0 19 -6 25 -6
6 -8 11 -3 11 4 0 14 -7 22 -15 25 -24 44 -18 44 13 0 15 -5 33 -12 40 -9 9
-9 12 0 12 9 0 12 83 11 332 0 301 -1 333 -17 345 -16 12 -16 13 1 7 16 -6 17
2 16 95 l-1 101 -29 0 c-21 0 -29 5 -28 18 0 10 3 12 6 5 6 -17 53 -17 53 0 0
13 -32 57 -41 57 -2 0 -10 -4 -18 -9z m36 -93 c-2 -7 -13 -13 -25 -12 -13 0
-18 -4 -15 -13 3 -7 12 -13 20 -13 8 0 11 -4 8 -10 -10 -16 -42 -11 -49 8 -3
9 -9 22 -12 29 -5 10 10 15 64 22 8 0 12 -5 9 -11z m-37 -132 c0 -11 -19 -15
-25 -6 -3 5 1 10 9 10 9 0 16 -2 16 -4z m-45 -56 c3 -5 -1 -10 -10 -10 -9 0
-13 5 -10 10 3 6 8 10 10 10 2 0 7 -4 10 -10z m9 -28 c3 -5 -8 -9 -25 -10 -16
0 -27 4 -24 9 8 11 42 12 49 1z m76 -162 c8 -5 11 -12 7 -16 -3 -4 -14 -1 -23
6 -13 12 -17 11 -25 -1 -7 -11 -9 -11 -9 4 0 19 26 23 50 7z m10 -109 c0 -5
-7 -11 -14 -14 -10 -4 -13 -1 -9 9 6 15 23 19 23 5z m-200 -86 c0 -8 -4 -15
-10 -15 -5 0 -7 7 -4 15 4 8 8 15 10 15 2 0 4 -7 4 -15z m183 8 c-7 -2 -19 -2
-25 0 -7 3 -2 5 12 5 14 0 19 -2 13 -5z m-43 -33 c0 -5 -2 -10 -4 -10 -3 0 -8
5 -11 10 -3 6 -1 10 4 10 6 0 11 -4 11 -10z m37 4 c-3 -3 -12 -4 -19 -1 -8 3
-5 6 6 6 11 1 17 -2 13 -5z m-147 -20 c0 -8 -4 -12 -10 -9 -5 3 -10 10 -10 16
0 5 5 9 10 9 6 0 10 -7 10 -16z m-43 -22 c8 -5 9 -13 3 -22 -5 -8 -4 -22 2
-34 10 -18 9 -19 -4 -8 -13 10 -19 10 -34 -5 -17 -17 -17 -17 -11 0 8 21 -6
22 -28 1 -9 -9 -19 -13 -23 -10 -3 4 0 11 8 16 38 23 60 44 60 56 0 16 9 17
27 6z m193 -7 c-11 -13 -15 -13 -21 -3 -6 9 -9 8 -10 -7 -1 -11 -1 -26 0 -33
2 -10 -2 -10 -16 -1 -11 6 -20 21 -21 33 -1 17 1 18 9 6 8 -13 11 -13 20 3 5
9 19 17 31 17 17 0 18 -2 8 -15z m-90 -15 c0 -5 -6 -10 -14 -10 -8 0 -18 5
-21 10 -3 6 3 10 14 10 12 0 21 -4 21 -10z m-57 -20 c3 -11 1 -20 -4 -20 -5 0
-9 2 -9 4 0 2 -3 11 -6 20 -3 9 -2 16 4 16 5 0 12 -9 15 -20z m144 -42 c-3 -8
-6 -5 -6 6 -1 11 2 17 5 13 3 -3 4 -12 1 -19z m-117 -3 c-7 -9 -15 -13 -19
-10 -3 3 1 10 9 15 21 14 24 12 10 -5z m89 1 c9 -11 9 -16 0 -22 -8 -4 -9 -3
-5 4 4 7 2 12 -3 12 -6 0 -11 5 -11 10 0 14 5 13 19 -4z m-130 -32 c3 -16 1
-17 -13 -5 -19 16 -21 34 -3 29 6 -3 14 -13 16 -24z m96 16 c3 -6 -1 -7 -9 -4
-18 7 -21 14 -7 14 6 0 13 -4 16 -10z m-65 -42 c0 -5 -4 -8 -10 -8 -5 0 -10
10 -10 23 0 18 2 19 10 7 5 -8 10 -18 10 -22z m40 22 c0 -5 -4 -10 -9 -10 -6
0 -13 5 -16 10 -3 6 1 10 9 10 9 0 16 -4 16 -10z m-110 -16 c0 -7 6 -11 14 -8
7 3 16 -3 20 -12 8 -22 -2 -33 -14 -14 -8 12 -10 11 -11 -5 0 -14 -2 -15 -6
-6 -3 8 -17 24 -31 36 l-26 23 27 0 c16 0 27 -6 27 -14z m140 -24 c0 -5 -6
-10 -14 -10 -8 0 -18 5 -21 10 -3 6 3 10 14 10 12 0 21 -4 21 -10z m-214 -38
c-18 -16 -18 -16 -6 6 6 13 14 21 18 18 3 -4 -2 -14 -12 -24z m149 18 c3 -6
-1 -7 -9 -4 -18 7 -21 14 -7 14 6 0 13 -4 16 -10z m135 0 c0 -5 -7 -7 -15 -4
-8 4 -15 8 -15 10 0 2 7 4 15 4 8 0 15 -4 15 -10z m-55 -10 c-3 -5 -11 -10
-16 -10 -6 0 -7 5 -4 10 3 6 11 10 16 10 6 0 7 -4 4 -10z m-60 -30 c3 -5 1
-10 -4 -10 -6 0 -11 5 -11 10 0 6 2 10 4 10 3 0 8 -4 11 -10z"/>
<path d="M4853 1223 c-15 -5 -17 -23 -4 -23 5 0 11 7 15 15 3 8 4 15 3 14 -1
0 -8 -3 -14 -6z"/>
<path d="M4855 1970 c3 -5 16 -10 27 -10 26 0 16 13 -13 17 -12 2 -18 -1 -14
-7z"/>
<path d="M4876 1943 c-12 -12 -6 -33 9 -33 8 0 15 6 15 14 0 17 -14 28 -24 19z"/>
<path d="M4555 1930 c-3 -5 1 -10 9 -10 9 0 16 5 16 10 0 6 -4 10 -9 10 -6 0
-13 -4 -16 -10z"/>
<path d="M4614 1916 c1 -23 2 -23 19 -9 9 9 17 18 17 21 0 3 -3 2 -7 -1 -3 -4
-12 -2 -19 3 -9 8 -12 5 -10 -14z"/>
<path d="M4686 1921 c-4 -7 -5 -15 -2 -18 9 -9 19 4 14 18 -4 11 -6 11 -12 0z"/>
<path d="M4748 1895 c-3 -14 -1 -25 3 -25 5 0 9 4 9 9 0 5 3 16 6 25 3 9 2 16
-4 16 -5 0 -12 -11 -14 -25z"/>
<path d="M4795 1910 c-3 -5 3 -10 15 -10 12 0 18 5 15 10 -3 6 -10 10 -15 10
-5 0 -12 -4 -15 -10z"/>
<path d="M4934 1906 c23 -18 36 -20 36 -6 0 6 -4 10 -9 10 -5 0 -18 3 -28 6
-16 5 -16 4 1 -10z"/>
<path d="M4890 1890 c0 -5 5 -10 10 -10 6 0 10 5 10 10 0 6 -4 10 -10 10 -5 0
-10 -4 -10 -10z"/>
<path d="M4790 1869 c0 -5 5 -7 10 -4 6 3 10 8 10 11 0 2 -4 4 -10 4 -5 0 -10
-5 -10 -11z"/>
<path d="M4870 1840 c13 -9 13 -11 0 -20 -12 -8 -11 -10 8 -10 15 0 21 4 16
11 -3 6 0 15 7 20 10 6 5 9 -16 9 -23 0 -27 -3 -15 -10z"/>
<path d="M4715 1820 c-3 -5 3 -10 15 -10 12 0 18 5 15 10 -3 6 -10 10 -15 10
-5 0 -12 -4 -15 -10z"/>
<path d="M4667 1804 c-11 -11 -8 -44 3 -44 6 0 10 -7 10 -16 0 -8 5 -12 11 -8
6 3 8 17 4 33 -8 31 -19 44 -28 35z"/>
<path d="M4716 1762 c-2 -4 1 -18 9 -31 12 -24 12 -24 11 8 -1 30 -9 40 -20
23z"/>
<path d="M4775 1760 c3 -5 8 -10 11 -10 2 0 4 5 4 10 0 6 -5 10 -11 10 -5 0
-7 -4 -4 -10z"/>
<path d="M4888 1763 c6 -2 18 -2 25 0 6 3 1 5 -13 5 -14 0 -19 -2 -12 -5z"/>
<path d="M4826 1735 c-3 -8 -3 -22 0 -30 4 -8 -1 -17 -10 -21 -22 -9 -10 -24
19 -24 19 0 23 4 18 17 -5 12 -3 14 8 7 26 -16 44 -14 57 7 16 25 10 35 -23
41 -28 6 -33 -6 -9 -20 15 -8 15 -10 0 -15 -18 -7 -46 1 -46 13 0 5 5 10 12
12 6 2 8 10 4 16 -10 16 -23 15 -30 -3z"/>
<path d="M4670 1700 c0 -5 5 -10 10 -10 6 0 10 5 10 10 0 6 -4 10 -10 10 -5 0
-10 -4 -10 -10z"/>
<path d="M4700 1670 c0 -5 7 -10 16 -10 8 0 12 5 9 10 -3 6 -10 10 -16 10 -5
0 -9 -4 -9 -10z"/>
<path d="M4912 1606 c2 -19 5 -22 15 -14 18 14 16 38 -2 38 -10 0 -14 -9 -13
-24z"/>
<path d="M4834 1525 c-10 -24 2 -42 36 -53 24 -9 31 -9 27 1 -2 6 -11 11 -19
9 -18 -3 -44 25 -34 35 4 4 10 3 14 -3 10 -15 94 -12 99 4 3 6 -2 12 -10 12
-9 0 -17 -5 -19 -10 -2 -7 -16 -5 -40 5 -46 19 -47 19 -54 0z"/>
<path d="M4940 1486 c0 -2 7 -6 15 -10 8 -3 15 -1 15 4 0 6 -7 10 -15 10 -8 0
-15 -2 -15 -4z"/>
<path d="M4677 1464 c-4 -4 -2 -13 4 -21 9 -10 7 -13 -11 -13 -23 0 -23 0 3
-26 29 -29 61 -27 50 3 -5 16 -4 16 9 -1 10 -13 17 -15 22 -8 4 7 23 12 41 12
26 0 33 3 29 15 -7 16 -34 21 -34 6 0 -5 -8 -8 -17 -6 -10 2 -22 4 -26 4 -5 1
-5 6 -2 11 3 6 -1 10 -9 10 -9 0 -16 -4 -16 -10 0 -5 -4 -10 -9 -10 -5 0 -8 7
-7 16 1 18 -16 29 -27 18z"/>
<path d="M4926 1457 c-14 -11 -13 -12 9 -13 14 -1 25 2 25 6 0 16 -17 19 -34
7z"/>
<path d="M4731 1374 c0 -11 3 -14 6 -6 3 7 2 16 -1 19 -3 4 -6 -2 -5 -13z"/>
<path d="M4750 1375 c0 -8 7 -15 15 -15 18 0 19 -12 4 -27 -16 -16 -3 -32 20
-26 23 6 18 39 -10 66 -22 21 -29 22 -29 2z"/>
<path d="M4632 1368 c6 -18 28 -21 28 -4 0 9 -7 16 -16 16 -9 0 -14 -5 -12
-12z"/>
<path d="M4688 1363 c-10 -2 -18 -13 -18 -23 0 -13 5 -17 14 -14 16 6 16 -12
2 -35 -7 -12 -3 -13 25 -8 19 4 29 4 22 -1 -15 -10 -15 -84 1 -79 6 2 10 14 8
26 -2 12 1 28 6 34 16 20 2 77 -19 77 -12 0 -16 5 -13 15 6 15 3 16 -28 8z"/>
<path d="M4590 1336 c0 -2 9 -6 20 -9 11 -3 20 -1 20 4 0 5 -9 9 -20 9 -11 0
-20 -2 -20 -4z"/>
<path d="M4635 1291 c5 -16 -1 -20 -37 -27 -24 -5 -56 -7 -73 -5 -37 4 -27 -9
23 -26 38 -13 100 -18 89 -7 -3 4 3 14 15 23 17 15 19 21 9 39 -14 27 -35 29
-26 3z m-18 -47 c-3 -3 -12 -4 -19 -1 -8 3 -5 6 6 6 11 1 17 -2 13 -5z"/>
<path d="M4670 1233 c-13 -15 -12 -16 3 -10 11 4 17 1 17 -8 0 -8 -8 -15 -19
-15 -10 0 -21 -9 -24 -20 -5 -20 12 -28 27 -12 4 4 13 7 19 7 7 0 13 16 14 38
1 40 -12 47 -37 20z"/>
<path d="M4725 1170 c3 -5 8 -10 11 -10 2 0 4 5 4 10 0 6 -5 10 -11 10 -5 0
-7 -4 -4 -10z"/>
<path d="M4585 1110 c3 -5 8 -10 11 -10 2 0 4 5 4 10 0 6 -5 10 -11 10 -5 0
-7 -4 -4 -10z"/>
<path d="M4695 1041 c-3 -5 -1 -12 5 -16 12 -7 30 2 30 16 0 12 -27 12 -35 0z"/>
<path d="M4795 1000 c-3 -5 -2 -10 4 -10 5 0 13 5 16 10 3 6 2 10 -4 10 -5 0
-13 -4 -16 -10z"/>
<path d="M4875 981 c-6 -11 9 -23 19 -14 9 9 7 23 -3 23 -6 0 -12 -4 -16 -9z"/>
<path d="M4711 936 c12 -10 59 -15 59 -6 0 5 -14 10 -32 10 -17 0 -29 -2 -27
-4z"/>
<path d="M4560 921 c0 -4 9 -20 21 -35 22 -29 49 -35 49 -11 0 8 -8 15 -19 15
-10 0 -25 8 -32 17 -12 15 -12 16 4 10 9 -3 17 -2 17 3 0 6 -9 10 -20 10 -11
0 -20 -4 -20 -9z"/>
<path d="M4860 911 c0 -11 4 -21 9 -21 18 0 21 18 6 30 -13 10 -15 9 -15 -9z"/>
<path d="M4675 870 c3 -5 1 -10 -4 -10 -6 0 -11 -5 -11 -11 0 -8 5 -8 15 1 17
14 20 30 4 30 -5 0 -7 -4 -4 -10z"/>
<path d="M4864 868 c-3 -4 1 -8 8 -8 10 0 10 -2 1 -8 -8 -5 1 -8 22 -8 21 0
30 3 22 8 -9 6 -9 10 1 16 8 6 2 9 -18 9 -17 0 -33 -4 -36 -9z"/>
<path d="M4701 851 c-13 -12 -18 -22 -11 -26 5 -3 10 -3 10 2 0 4 14 9 31 10
38 3 46 10 31 25 -9 9 -12 9 -12 -1 0 -10 -3 -11 -13 -2 -11 8 -19 6 -36 -8z"/>
<path d="M4805 854 c11 -8 19 -18 17 -22 -2 -4 4 -8 12 -10 23 -5 19 15 -6 32
-29 20 -49 20 -23 0z"/>
<path d="M5048 863 c6 -2 18 -2 25 0 6 3 1 5 -13 5 -14 0 -19 -2 -12 -5z"/>
<path d="M4480 840 c0 -5 4 -10 9 -10 6 0 13 5 16 10 3 6 -1 10 -9 10 -9 0
-16 -4 -16 -10z"/>
<path d="M4788 812 c-7 -25 27 -48 36 -25 6 15 -9 43 -24 43 -4 0 -10 -8 -12
-18z"/>
<path d="M4938 822 c-33 -7 -18 -18 17 -14 19 2 35 5 35 7 0 6 -36 11 -52 7z"/>
<path d="M5071 825 c-8 -37 -8 -46 1 -51 5 -3 15 -1 21 5 8 8 8 11 0 11 -7 0
-14 10 -16 23 -2 12 -5 18 -6 12z"/>
<path d="M4532 815 c10 -11 48 -14 48 -4 0 5 -12 9 -27 9 -14 0 -24 -2 -21 -5z"/>
<path d="M4885 810 c-3 -5 -1 -10 4 -10 6 0 11 5 11 10 0 6 -2 10 -4 10 -3 0
-8 -4 -11 -10z"/>
<path d="M4607 804 c-8 -8 1 -24 14 -24 5 0 9 7 9 15 0 15 -12 20 -23 9z"/>
<path d="M4680 795 c0 -8 0 -18 1 -21 0 -4 -5 -11 -13 -15 -10 -7 -10 -9 0 -9
6 0 12 -7 12 -15 0 -8 5 -15 10 -15 13 0 13 17 0 25 -13 8 -1 35 16 35 8 0 14
7 14 15 0 8 -9 15 -20 15 -11 0 -20 -7 -20 -15z"/>
<path d="M4490 790 c0 -5 4 -10 9 -10 6 0 13 5 16 10 3 6 -1 10 -9 10 -9 0
-16 -4 -16 -10z"/>
<path d="M4849 783 c-10 -2 -16 -15 -17 -33 -1 -36 15 -40 24 -7 4 18 11 23
28 20 15 -3 25 1 29 11 5 12 0 16 -21 15 -15 -1 -34 -3 -43 -6z"/>
<path d="M5033 764 c-3 -8 -2 -19 4 -25 5 -5 9 1 11 16 2 28 -6 33 -15 9z"/>
<path d="M4465 750 c-3 -5 -1 -10 4 -10 6 0 11 5 11 10 0 6 -2 10 -4 10 -3 0
-8 -4 -11 -10z"/>
<path d="M4766 743 c-3 -10 -9 -25 -12 -33 -3 -9 0 -8 10 3 10 13 22 17 38 12
18 -5 20 -4 8 4 -13 10 -13 11 0 12 10 0 8 3 -5 9 -29 12 -32 12 -39 -7z"/>
<path d="M5075 750 c3 -5 8 -10 11 -10 2 0 4 5 4 10 0 6 -5 10 -11 10 -5 0 -7
-4 -4 -10z"/>
<path d="M4808 703 c7 -3 16 -2 19 1 4 3 -2 6 -13 5 -11 0 -14 -3 -6 -6z"/>
<path d="M4528 693 c7 -3 16 -2 19 1 4 3 -2 6 -13 5 -11 0 -14 -3 -6 -6z"/>
<path d="M4780 676 c0 -2 7 -9 15 -16 12 -10 15 -10 15 4 0 9 -7 16 -15 16 -8
0 -15 -2 -15 -4z"/>
<path d="M4693 663 c-7 -3 -13 -9 -13 -14 0 -6 4 -8 9 -5 5 4 11 0 14 -6 2 -7
7 -11 9 -8 10 9 -7 37 -19 33z"/>
<path d="M4738 644 c3 -15 8 -22 14 -16 9 9 1 42 -12 42 -4 0 -5 -12 -2 -26z"/>
<path d="M5070 660 c-8 -5 -12 -12 -9 -15 8 -8 39 5 39 16 0 11 -11 11 -30 -1z"/>
<path d="M5083 620 c1 -11 5 -20 9 -20 4 0 8 9 8 20 0 11 -4 20 -9 20 -6 0 -9
-9 -8 -20z"/>
<path d="M5041 603 c-1 -17 -5 -21 -18 -16 -16 6 -16 5 -3 -11 12 -16 11 -20
-10 -37 -14 -10 -20 -19 -14 -19 5 0 16 6 22 12 10 10 15 10 22 -2 5 -8 13
-11 17 -6 4 5 2 11 -4 13 -15 5 -18 40 -4 45 4 2 5 12 0 23 -7 19 -8 19 -8 -2z"/>
<path d="M4463 595 c0 -11 4 -12 14 -4 7 6 13 13 13 15 0 2 -6 4 -13 4 -8 0
-14 -7 -14 -15z"/>
<path d="M4643 597 c-3 -5 0 -14 6 -20 8 -8 11 -8 11 1 0 7 9 12 19 12 11 0
22 4 26 10 3 5 -8 8 -26 7 -17 -1 -33 -6 -36 -10z"/>
<path d="M4790 600 c0 -5 7 -10 15 -10 8 0 15 5 15 10 0 6 -7 10 -15 10 -8 0
-15 -4 -15 -10z"/>
<path d="M4530 580 c0 -5 5 -10 10 -10 6 0 10 5 10 10 0 6 -4 10 -10 10 -5 0
-10 -4 -10 -10z"/>
<path d="M4610 570 c0 -11 5 -20 10 -20 6 0 10 9 10 20 0 11 -4 20 -10 20 -5
0 -10 -9 -10 -20z"/>
<path d="M5070 570 c0 -5 5 -10 10 -10 6 0 10 5 10 10 0 6 -4 10 -10 10 -5 0
-10 -4 -10 -10z"/>
<path d="M4548 542 c-10 -2 -18 -8 -18 -14 0 -5 8 -7 17 -4 9 4 19 3 22 -2 3
-5 15 -6 26 -1 19 7 19 8 -2 8 -12 1 -23 5 -25 9 -1 4 -11 6 -20 4z"/>
<path d="M4910 540 c0 -5 5 -10 10 -10 6 0 10 5 10 10 0 6 -4 10 -10 10 -5 0
-10 -4 -10 -10z"/>
<path d="M4652 529 c2 -7 10 -15 17 -17 8 -3 12 1 9 9 -2 7 -10 15 -17 17 -8
3 -12 -1 -9 -9z"/>
<path d="M4950 530 c0 -5 5 -10 11 -10 5 0 7 5 4 10 -3 6 -8 10 -11 10 -2 0
-4 -4 -4 -10z"/>
<path d="M5035 500 c3 -5 8 -10 11 -10 2 0 4 5 4 10 0 6 -5 10 -11 10 -5 0 -7
-4 -4 -10z"/>
<path d="M5036 464 c-5 -14 -4 -15 9 -4 17 14 19 20 6 20 -5 0 -12 -7 -15 -16z"/>
<path d="M5060 422 c0 -4 9 -13 21 -20 19 -12 19 -11 9 8 -10 19 -30 28 -30
12z"/>
<path d="M5020 370 c0 -22 8 -25 30 -10 13 9 13 11 0 20 -22 15 -30 12 -30
-10z"/>
<path d="M5063 353 c-7 -2 -13 -12 -13 -21 1 -15 2 -15 15 2 8 10 19 15 26 10
8 -4 10 -3 5 4 -8 13 -13 14 -33 5z"/>
<path d="M4741 314 c0 -11 3 -14 6 -6 3 7 2 16 -1 19 -3 4 -6 -2 -5 -13z"/>
<path d="M5072 301 c-8 -4 -14 -12 -15 -17 -1 -5 -13 -8 -25 -6 -15 2 -21 -1
-17 -7 3 -6 18 -11 33 -11 21 0 24 -2 12 -10 -13 -8 -12 -10 3 -10 19 0 23
-15 7 -25 -6 -4 -8 -10 -6 -14 3 -4 1 -13 -5 -21 -7 -13 -9 -12 -9 2 0 9 -5
20 -10 23 -6 4 -9 1 -8 -7 2 -7 -7 -14 -20 -16 -14 -2 -21 1 -20 9 2 6 -3 14
-10 16 -9 4 -11 -3 -7 -24 3 -15 2 -22 -1 -15 -6 12 -34 17 -34 6 0 -3 17 -21
38 -39 34 -32 35 -35 15 -35 -13 0 -23 -4 -23 -10 0 -5 -10 -10 -21 -10 -28 0
-63 -39 -49 -55 5 -6 8 -14 5 -17 -3 -3 40 -6 95 -7 l100 -2 0 156 c0 85 -3
155 -7 155 -5 0 -14 -4 -21 -9z m-116 -246 c-3 -8 -1 -15 5 -15 6 0 7 -4 4
-10 -8 -13 -42 -13 -50 1 -4 6 1 17 11 24 25 19 38 19 30 0z"/>
<path d="M4350 290 c0 -5 5 -10 10 -10 6 0 10 5 10 10 0 6 -4 10 -10 10 -5 0
-10 -4 -10 -10z"/>
<path d="M4310 240 c0 -5 7 -10 16 -10 8 0 12 5 9 10 -3 6 -10 10 -16 10 -5 0
-9 -4 -9 -10z"/>
<path d="M4683 223 c-14 -5 -18 -33 -5 -33 10 0 32 22 32 32 0 9 -8 9 -27 1z"/>
<path d="M4780 150 c0 -5 5 -10 10 -10 6 0 10 5 10 10 0 6 -4 10 -10 10 -5 0
-10 -4 -10 -10z"/>
<path d="M4927 133 c-15 -15 -7 -43 13 -43 21 0 24 8 14 34 -7 17 -16 20 -27
9z"/>
<path d="M4190 119 c0 -5 5 -7 10 -4 6 3 10 8 10 11 0 2 -4 4 -10 4 -5 0 -10
-5 -10 -11z"/>
<path d="M4214 105 c-10 -8 -14 -15 -8 -15 6 0 17 7 24 15 16 19 9 19 -16 0z"/>
<path d="M4220 80 c-8 -5 -24 -7 -34 -4 -15 5 -18 3 -13 -10 6 -15 -3 -20 -30
-17 -6 1 -15 -4 -19 -10 -4 -7 -1 -10 7 -7 8 3 20 -1 27 -9 16 -16 36 -17 26
-2 -4 6 8 24 27 40 34 29 38 38 9 19z"/>
<path d="M4090 55 c-20 -24 -6 -28 15 -5 10 11 13 20 8 20 -6 0 -16 -7 -23
-15z"/>
<path d="M4224 48 l-19 -23 23 19 c12 11 22 21 22 23 0 8 -8 2 -26 -19z"/>
<path d="M4807 20 c-16 -19 -16 -20 3 -20 11 0 20 5 20 10 0 6 10 10 23 10 18
0 19 2 7 10 -22 14 -34 12 -53 -10z"/>
<path d="M4591 21 c-10 -6 -10 -10 -1 -16 13 -8 24 -1 19 14 -3 6 -10 7 -18 2z"/>
</g>
</svg>
