<svg version="1.1" id="Layer_1" xmlns="http://www.w3.org/2000/svg" xmlns:xlink="http://www.w3.org/1999/xlink" x="0px" y="0px"
	 width="100%" viewBox="0 0 1024 1024" enable-background="new 0 0 1024 1024" xml:space="preserve">
<path fill="#808181" opacity="1.000000" stroke="none" 
	d="
M485.372864,69.182831 
	C513.010132,66.092903 540.241516,64.099342 567.506592,68.130577 
	C594.667725,72.146446 620.723999,80.097252 646.169556,90.337212 
	C682.803894,105.079826 717.719849,122.939011 749.317627,146.783798 
	C764.598816,158.315521 779.681946,170.113892 791.176514,185.840042 
	C801.423889,199.859909 801.289734,214.858749 796.613342,230.527161 
	C796.110352,232.212509 795.727600,234.163895 793.428894,234.921738 
	C793.000977,234.608444 792.324097,234.339996 791.998047,233.841873 
	C760.923035,186.366791 716.461487,155.151794 666.350769,131.054047 
	C640.664246,118.701691 614.170959,108.188324 586.536804,100.902367 
	C559.490234,93.771294 531.883362,92.914825 504.181976,94.740944 
	C457.442108,97.822121 412.986359,111.627892 368.233002,124.104713 
	C330.165588,134.717575 294.029480,149.944153 259.264374,168.509018 
	C245.746185,175.727859 232.603760,183.750885 221.803726,194.873489 
	C214.705444,202.183777 209.193100,210.773865 203.498642,219.185089 
	C203.052383,219.844254 202.417221,220.819977 202.611633,221.399948 
	C204.665558,227.527420 200.505417,231.570450 197.661301,235.886200 
	C185.082382,254.973953 171.586838,273.359009 155.171783,289.407928 
	C142.745331,301.557190 128.230972,310.070526 111.204239,313.872528 
	C105.005356,315.256714 99.456322,318.318237 93.154480,319.584656 
	C82.308250,321.764313 71.963516,320.655457 61.679432,317.309418 
	C55.836037,315.408173 50.075325,313.252869 43.821121,311.051392 
	C44.072678,313.661469 46.036308,315.087097 47.115566,316.967682 
	C60.471138,340.239899 82.181190,352.885529 105.867119,362.849548 
	C110.411011,364.760986 112.013153,366.665649 111.557495,371.981140 
	C110.093636,389.058014 103.356789,404.537628 97.935982,420.396545 
	C89.243835,445.825958 82.099289,471.615784 78.552032,498.287872 
	C75.876534,518.405212 78.948059,538.135986 83.482002,557.691406 
	C88.074173,577.497986 95.126923,596.545898 101.684387,615.737183 
	C105.060471,625.617737 111.781837,633.706482 117.031830,642.574951 
	C124.612999,655.381348 129.257782,668.500916 126.400009,683.882263 
	C124.120049,696.153625 123.286987,708.642639 117.176147,719.948853 
	C114.745239,724.446411 111.421120,728.075623 108.022041,731.728943 
	C106.803566,733.038574 105.345001,734.188416 104.921577,736.418701 
	C108.823845,737.330078 111.891609,735.420959 114.956139,734.150085 
	C128.789246,728.413025 142.549973,722.501526 156.335403,716.649597 
	C161.024078,714.659302 166.092926,712.646545 170.470093,716.319397 
	C175.233017,720.315979 174.942276,726.120422 173.385208,731.625671 
	C171.574509,738.027710 169.450668,744.343323 167.372849,750.666809 
	C166.439682,753.506775 165.457001,756.196289 165.975769,759.371460 
	C166.413895,762.052979 165.858154,764.799988 162.277878,765.337219 
	C161.010941,765.527283 160.119415,766.398621 159.631241,767.445129 
	C156.208099,774.783691 151.201508,780.960876 145.698929,786.795227 
	C145.264633,787.255737 145.066437,787.938782 144.757538,788.520264 
	C145.884216,790.876099 148.056122,790.698059 149.954254,790.775879 
	C158.159210,791.112488 166.255829,790.131042 174.276260,788.465759 
	C177.930969,787.706909 178.922455,786.064575 177.770782,782.042419 
	C173.069824,765.624756 173.613052,749.263000 179.637329,733.182617 
	C180.187988,731.712769 180.918854,730.337280 182.738998,730.429688 
	C184.665039,730.527527 185.587173,732.043274 186.304657,733.562988 
	C190.281311,741.985413 194.234741,750.419006 198.148163,758.871033 
	C206.081009,776.004028 219.204651,789.075439 231.997086,802.442932 
	C242.670074,813.595764 254.738907,823.016846 267.948120,830.823059 
	C275.144653,835.075989 282.928162,839.224365 291.694366,833.436890 
	C293.784332,832.057068 296.793427,832.137756 299.296814,831.299011 
	C302.649658,830.175659 303.306305,828.359131 300.802643,825.421387 
	C297.566071,821.623474 294.670532,817.536560 291.585846,813.607300 
	C279.023651,797.605896 272.144714,779.106689 266.122986,759.851929 
	C260.931885,743.253113 258.765869,726.413086 257.121368,709.355347 
	C256.338745,701.237732 257.697815,693.363770 260.460388,685.817017 
	C260.961090,685.833374 261.461761,685.849731 261.962433,685.866089 
	C263.024597,691.823303 263.796082,697.850098 265.203369,703.724609 
	C269.464508,721.511841 273.479462,739.382385 278.550537,756.943115 
	C282.146820,769.396606 290.213470,779.526855 298.978638,788.953003 
	C299.771179,789.805420 300.721527,790.568481 302.213806,789.615356 
	C301.120972,781.712402 300.029205,773.739136 297.399231,766.067322 
	C293.481476,754.639160 291.893646,742.734314 290.924133,730.810974 
	C289.171143,709.252136 287.970490,687.648376 286.540314,666.063354 
	C286.474396,665.068420 286.307404,664.063416 286.388672,663.079712 
	C286.486816,661.891724 286.861145,660.713013 288.260651,660.447937 
	C289.675659,660.179932 290.509583,661.139343 290.902222,662.252747 
	C292.064484,665.548462 293.394348,668.830811 294.101959,672.234070 
	C300.435577,702.697388 314.315430,728.839172 338.129272,749.261475 
	C342.907928,753.359619 347.766235,757.522583 354.111237,759.199585 
	C355.417786,759.544983 356.767578,760.050110 357.774170,758.720398 
	C358.660095,757.550110 357.801422,756.546753 357.243439,755.527161 
	C345.888885,734.779663 343.502777,711.954895 341.879333,688.963867 
	C340.601807,670.871704 339.559326,652.760864 338.057831,634.687866 
	C337.599792,629.174561 339.349060,623.791992 338.478180,618.044617 
	C334.929108,617.697388 332.393829,619.867493 329.698029,621.179077 
	C314.572845,628.537659 299.544678,636.095398 284.457428,643.532410 
	C271.218567,650.058411 261.040649,660.440491 250.466888,670.334045 
	C248.277832,672.382263 246.057709,674.397705 243.831345,676.405396 
	C242.389343,677.705811 240.971695,679.823669 238.783447,678.298340 
	C237.023849,677.071777 237.671219,674.925659 238.326218,673.209778 
	C240.638748,667.151978 242.389969,660.758606 245.546204,655.165222 
	C258.807648,631.663879 271.003754,607.559753 285.299866,584.642029 
	C292.099030,573.742554 300.638062,564.113281 307.753021,553.419495 
	C319.668274,535.510681 330.695587,517.102844 340.908417,498.188446 
	C342.967529,494.374939 345.076782,490.575714 348.004395,487.343048 
	C349.382172,485.821686 351.131836,484.708191 353.322479,485.229858 
	C355.703918,485.796997 356.026367,487.935486 356.482452,489.886444 
	C357.388580,493.762573 356.553284,497.480194 355.495941,501.202972 
	C349.272461,523.114746 338.936035,543.321838 329.513458,563.904114 
	C325.217682,573.287720 320.903900,582.670288 315.751984,591.632812 
	C315.586884,591.919983 315.429230,592.225952 315.346344,592.543579 
	C314.485107,595.842651 312.245026,599.634888 314.623322,602.452698 
	C317.516663,605.880737 320.615173,602.017456 323.569458,601.052979 
	C330.533752,598.779480 337.480011,596.450867 344.442444,594.171692 
	C345.066223,593.967468 345.805450,593.748962 346.405334,593.893311 
	C357.445709,596.550354 366.965363,591.281311 376.609344,587.666626 
	C396.104584,580.359497 415.199890,572.024109 433.762848,562.571167 
	C443.963806,557.376465 453.338531,549.939453 464.044312,546.478149 
	C490.642242,537.878967 509.436188,518.573608 529.962830,501.539215 
	C544.269897,489.666168 554.853149,474.229004 567.889099,461.145721 
	C572.832581,456.184296 576.371582,450.419586 579.632874,444.225800 
	C581.863403,445.975433 580.816284,447.408539 580.440125,448.728638 
	C576.369751,463.013824 572.039429,477.241669 563.612061,489.685791 
	C556.478210,500.219879 555.257996,512.408081 553.499146,524.354431 
	C550.659241,543.643433 543.068054,561.443481 537.118896,579.758423 
	C532.322021,594.525940 525.244751,608.334351 518.600464,622.317444 
	C516.150635,627.473145 512.612305,631.907593 509.493408,636.626160 
	C508.314484,638.409851 506.094757,640.624084 508.647125,642.781006 
	C511.048981,644.810669 513.490234,643.223633 515.389771,641.616089 
	C534.037231,625.835693 552.615540,609.973572 571.225830,594.149231 
	C576.679871,589.511597 581.977539,584.659546 587.693909,580.368042 
	C596.653320,573.642029 602.356873,564.819214 606.688538,554.628357 
	C619.652588,524.128113 631.803040,493.312805 643.314819,462.242523 
	C644.989014,457.723816 646.177185,453.023834 647.554504,448.397095 
	C647.965027,447.017822 647.742615,445.310516 649.700562,444.752197 
	C651.808899,445.513977 651.737671,447.562073 652.141113,449.250214 
	C657.033203,469.720856 655.319763,489.911133 649.525452,509.930786 
	C646.889099,519.039734 642.576904,528.085449 642.121521,537.312622 
	C641.275757,554.452087 630.293274,566.897705 624.359131,581.598938 
	C613.769470,607.833740 602.220398,633.681396 591.057739,659.684692 
	C590.361023,661.307617 589.536682,662.875793 589.054871,664.721802 
	C599.389587,654.543335 611.110962,646.077209 621.964233,636.587769 
	C640.145996,620.690735 659.353577,605.935242 676.450195,588.837036 
	C695.542969,569.742554 716.604004,552.795593 735.687500,533.695068 
	C746.007751,523.365662 751.988647,510.766846 756.865967,497.356964 
	C759.480347,490.168823 762.506592,483.127899 765.453857,476.065125 
	C766.256165,474.142548 767.034241,471.951141 769.582886,471.821930 
	C771.491699,472.760162 770.356812,474.670258 771.071167,475.932404 
	C773.181091,475.798920 773.434265,474.046722 773.904419,472.807129 
	C785.532959,442.142914 797.364502,411.592743 803.104065,379.030121 
	C808.173523,350.268799 804.737488,322.751892 794.193848,295.763397 
	C788.916321,282.254578 785.313110,268.198669 782.204529,254.041000 
	C780.937500,248.270386 781.884399,247.358185 787.656189,246.818405 
	C792.989746,246.319656 797.951782,248.085846 802.789795,249.567642 
	C824.592896,256.245544 846.880310,257.311279 869.491089,257.165527 
	C893.750549,257.009125 909.390442,245.151917 919.739990,224.149841 
	C925.147278,213.177002 924.997192,203.014023 919.061218,192.294678 
	C909.251343,174.579285 894.366882,163.912231 875.149231,158.636139 
	C860.810547,154.699524 846.176208,152.577225 831.414612,151.146362 
	C829.199646,150.931671 827.080261,150.935913 825.269226,152.489502 
	C825.018433,152.704575 824.738037,152.947281 824.432312,153.026428 
	C820.953979,153.926987 816.743958,156.474091 814.079529,153.522522 
	C811.421387,150.577942 816.433655,148.411743 817.348206,144.914825 
	C807.168762,143.422348 796.585327,144.384430 786.785889,140.398102 
	C792.385193,137.648926 798.298279,137.375580 804.109619,136.829880 
	C830.797546,134.323853 857.374451,135.927994 883.781250,139.959473 
	C899.415405,142.346329 913.860352,148.340958 927.331482,156.699799 
	C954.196960,173.369751 972.600342,196.976471 984.908447,225.813370 
	C997.378113,255.028778 986.675415,277.489929 963.001892,293.619843 
	C940.583618,308.894562 915.948059,313.111542 889.542175,306.541840 
	C888.130310,306.190582 886.647827,306.122894 884.988220,305.894226 
	C885.387329,309.116608 887.687988,310.764160 889.307983,312.729065 
	C915.918945,345.005310 934.523987,381.662506 948.999390,420.670471 
	C959.545471,449.089752 967.975403,478.230438 978.834106,506.546509 
	C984.098694,520.274902 981.599182,533.269897 973.058228,545.357788 
	C964.460938,557.525574 954.219666,568.238953 944.189087,579.132507 
	C931.897217,592.481995 920.822998,606.940430 907.455872,619.317871 
	C904.759399,621.814636 902.659912,624.946411 902.590820,629.655884 
	C906.195862,627.547363 905.958740,623.239197 909.101990,621.681580 
	C910.915527,622.979004 910.248779,624.786499 910.310059,626.319397 
	C911.113403,646.406311 925.434875,664.875183 944.743591,670.141296 
	C956.153870,673.253235 964.804626,668.554810 971.813416,659.689514 
	C973.441406,657.630310 974.554749,653.884521 978.061462,654.943176 
	C982.068787,656.152893 983.403503,659.751953 984.447876,663.734131 
	C986.508606,671.591553 981.508728,676.415527 977.327881,681.397644 
	C972.819641,686.769958 967.158447,690.941528 960.853760,694.183228 
	C957.452637,695.932007 954.357239,697.951782 952.603333,701.763550 
	C950.859863,705.552429 947.199768,706.713135 943.210144,707.451721 
	C929.298889,710.027039 915.482483,713.262634 901.161255,712.157166 
	C900.544189,712.109558 899.897705,712.444275 898.587402,712.768555 
	C903.155457,719.160461 900.171448,726.475525 902.018921,733.209167 
	C905.276794,745.083191 912.929932,753.625610 922.494324,760.639160 
	C926.094788,763.279358 930.589050,762.310852 934.633423,761.364441 
	C939.812439,760.152588 944.855713,758.372009 950.007202,757.026672 
	C952.639526,756.339172 955.927246,754.685730 957.710022,757.897339 
	C959.388184,760.920654 956.856079,763.136047 954.713745,765.087952 
	C949.954956,769.423889 945.869751,774.671875 939.659058,775.677551 
	C938.804443,777.352661 939.279419,778.062012 939.646667,778.807251 
	C942.882019,785.372070 942.027710,789.794250 936.854614,794.994080 
	C928.406433,803.485901 917.833557,807.763000 906.436523,810.145691 
	C886.399231,814.334717 866.700562,812.557129 847.373352,806.008362 
	C846.765381,805.802368 846.112976,805.727661 844.648071,805.412415 
	C843.791931,816.953735 840.573303,828.068481 843.417603,839.538879 
	C844.035461,842.030640 846.274658,842.650085 848.290222,843.367371 
	C850.249756,844.064514 852.183472,844.628784 851.996826,847.285706 
	C851.822510,849.767029 850.936401,851.625732 848.461792,852.808350 
	C838.544312,857.547546 829.517212,855.338867 820.727661,849.774231 
	C807.901611,841.653870 795.451355,833.067383 784.998962,821.921570 
	C782.709961,819.480713 780.874756,820.912231 778.923218,822.314331 
	C771.752197,827.466187 764.583313,832.621094 757.394653,837.748291 
	C739.920166,850.211731 719.682129,855.666565 699.303955,860.945068 
	C669.609985,868.636719 639.563416,874.403015 609.226379,878.849670 
	C577.972229,883.430786 546.691528,885.478455 515.125793,882.460449 
	C504.550293,881.449341 493.851654,881.536011 483.180939,882.677612 
	C472.819336,883.786194 462.602509,881.707825 452.395721,880.128174 
	C427.391052,876.258240 402.231567,873.129150 378.038818,865.254822 
	C367.269653,861.749695 356.535034,858.059509 346.304749,853.174011 
	C340.920868,850.602783 335.926392,849.990540 329.990723,851.601196 
	C316.256897,855.327942 302.547455,852.441040 288.913025,850.061523 
	C265.588318,845.990662 243.928131,836.854126 222.116943,828.171204 
	C220.572021,827.556213 219.043716,826.662415 217.440170,826.474426 
	C211.735214,825.805847 207.755402,822.554016 204.103592,818.464355 
	C199.538162,813.351562 193.560242,810.470886 187.128235,808.397095 
	C183.894012,807.354187 181.466934,810.002380 178.460159,810.067810 
	C158.995377,810.491333 139.505219,811.782532 120.393517,806.283203 
	C115.144295,804.772705 109.652496,804.037354 104.232635,803.201843 
	C92.929153,801.459229 84.006027,795.043274 75.059265,788.639404 
	C74.874313,788.507019 74.930298,788.038025 74.870964,787.710022 
	C75.078926,787.476196 75.318565,787.016418 75.490639,787.040466 
	C86.641083,788.597961 96.752464,783.825195 107.100288,781.296692 
	C120.681702,777.977966 130.728394,768.704346 139.231522,757.885437 
	C141.697845,754.747498 143.887039,751.383728 146.078323,748.041504 
	C147.042114,746.571472 148.323181,745.021973 147.152512,743.036987 
	C145.549026,741.923889 144.184128,742.975037 142.941940,743.604065 
	C130.818817,749.743225 117.847694,753.446411 104.798622,756.887512 
	C92.701775,760.077637 81.357040,756.681580 70.240334,752.337219 
	C59.895012,748.294312 50.644646,742.379761 42.497349,734.838623 
	C40.137756,732.654602 36.856453,730.329834 38.452137,726.492126 
	C39.963421,722.857422 43.722885,722.953613 47.096310,722.829163 
	C55.046532,722.535767 63.033714,723.668457 70.905800,721.156494 
	C84.040489,716.965332 91.427078,707.154724 95.847542,695.102234 
	C100.569138,682.228760 99.282387,668.813660 96.611191,655.624695 
	C96.067902,652.942200 94.614662,650.271729 93.003761,648.006042 
	C83.627281,634.818420 74.925262,621.179993 66.946739,607.137756 
	C48.134308,574.027710 38.598389,538.433472 42.039368,500.268616 
	C45.035099,467.042175 56.096924,436.332123 74.734436,408.487549 
	C81.034416,399.075287 87.205933,389.577057 93.429749,380.113922 
	C93.971710,379.289856 94.632179,378.491699 94.186501,376.546021 
	C87.715141,374.998077 80.800812,373.480682 74.098480,371.144287 
	C53.184055,363.853577 39.767200,349.005402 32.274223,328.955109 
	C29.705063,322.080322 27.652248,314.354004 28.711597,306.501007 
	C29.308441,302.076508 28.583405,298.163330 23.793369,296.190002 
	C22.860596,295.805695 22.230061,294.925262 22.736145,293.740112 
	C30.202417,292.929871 30.330950,292.946838 31.473133,284.289154 
	C32.041241,279.982910 34.237823,277.414062 38.080341,275.976318 
	C45.016899,288.411896 57.575989,290.051147 69.084831,290.443756 
	C108.961700,291.804077 141.214706,276.130829 165.105469,243.892532 
	C175.022980,230.509827 183.457413,216.098297 193.627441,202.881607 
	C220.117584,168.455734 253.529053,143.340637 293.261871,125.704559 
	C332.403381,108.330948 372.919678,95.441422 414.182556,84.559868 
	C437.531342,78.402496 461.028931,72.869057 485.372864,69.182831 
M762.639099,812.101196 
	C768.212219,809.125671 774.820801,807.334167 778.844421,802.433289 
	C784.709045,795.290222 792.623535,791.011597 799.654236,785.531555 
	C818.727356,770.665405 835.195129,753.933350 843.331299,730.348145 
	C845.913879,722.861572 843.088623,716.696533 840.583496,710.231079 
	C840.332092,709.582397 839.243652,708.706848 838.703613,708.806213 
	C833.179688,709.822144 827.758606,707.113403 822.446411,708.000488 
	C814.679749,709.297485 806.896851,709.736328 799.093445,709.883606 
	C792.455872,710.008911 786.697266,711.403503 782.148315,716.746399 
	C780.154419,719.088318 776.937805,721.622009 773.920837,719.330811 
	C770.979492,717.096985 773.148560,713.763550 774.509766,711.155640 
	C778.664490,703.196228 781.083069,694.385498 786.404297,686.992798 
	C787.030518,686.122742 787.678711,684.979370 786.671936,683.305908 
	C781.321045,683.619324 776.533569,686.516541 771.374268,688.019531 
	C755.634216,692.604919 739.802551,696.504883 723.210022,694.457947 
	C706.177490,692.356750 690.966736,685.163391 676.342285,676.753784 
	C667.102722,671.440674 662.103027,663.112915 661.262390,652.265991 
	C660.778259,646.019409 660.619202,640.854309 667.705566,637.396545 
	C674.189270,634.232910 675.234924,634.074280 676.228760,641.198792 
	C677.317261,649.001892 681.436401,654.305298 689.156860,656.697021 
	C694.080200,658.222229 698.942749,659.961060 703.775940,661.756348 
	C719.003052,667.412292 734.566345,669.963806 750.833862,667.770569 
	C775.761353,664.409790 792.853210,645.698975 792.974854,621.188599 
	C792.986694,618.790833 793.861694,615.376221 791.213745,614.396545 
	C788.128723,613.255127 787.484009,616.962646 786.206726,618.848816 
	C777.769226,631.308533 768.246155,642.193054 751.917480,643.766663 
	C747.940063,644.149902 743.968872,644.843994 739.988159,644.897461 
	C729.860474,645.033691 720.534119,643.037170 713.276917,634.972534 
	C710.433044,631.812256 707.870911,627.912292 703.569397,626.537842 
	C697.671936,624.653442 694.751831,620.416931 692.951782,614.915710 
	C692.055542,612.176636 691.782593,609.121338 689.468750,606.644226 
	C688.519226,607.478638 687.690369,608.036255 687.075806,608.772705 
	C677.621887,620.100525 666.310120,629.443787 654.890503,638.629517 
	C634.507141,655.025574 613.478760,670.587097 592.385620,686.049316 
	C579.489746,695.502563 566.750732,705.150574 554.124390,714.956360 
	C551.252625,717.186462 547.953735,718.713806 544.605713,715.749084 
	C541.176086,712.712036 540.618530,708.943542 542.584167,704.873474 
	C545.626404,698.574097 548.765808,692.321655 551.865540,686.050049 
	C552.824158,684.110474 553.907227,682.223938 553.686035,679.917908 
	C552.980225,672.558105 555.716187,666.215698 559.530090,660.179443 
	C566.392639,649.318115 572.094360,637.832642 577.644043,626.269043 
	C578.119263,625.278931 579.018921,624.286255 577.551941,622.094421 
	C561.152893,632.708740 545.451233,644.500854 528.122620,653.841797 
	C530.694702,653.826721 532.999207,652.338074 535.442078,653.266052 
	C538.271973,654.341064 540.591736,653.523071 542.895203,651.854004 
	C544.368652,650.786377 545.962524,649.792786 547.645996,649.131409 
	C549.590515,648.367432 551.699280,648.561035 553.274536,650.048767 
	C554.849243,651.536011 554.222595,653.419434 553.605164,655.185852 
	C552.429749,658.548828 550.480713,661.470703 548.126465,664.070557 
	C537.034180,676.319824 523.849426,685.895752 509.148926,693.243774 
	C488.629944,703.500244 466.988647,707.459595 444.186890,703.185669 
	C423.970825,699.396362 403.047668,697.815002 386.377197,683.389221 
	C381.760376,679.394104 377.781525,675.200623 374.938873,669.771790 
	C372.499542,665.113159 371.614502,659.916260 369.786255,654.591492 
	C368.032074,656.162903 368.312927,657.564209 368.306763,658.822876 
	C368.272522,665.822266 368.083282,672.829163 368.333221,679.819702 
	C368.832794,693.791443 369.354614,707.771118 373.779236,721.252563 
	C377.196167,731.663574 383.690002,740.458557 388.833466,749.942566 
	C391.424072,754.719421 393.971191,759.743652 397.040222,764.066589 
	C403.624359,773.340698 413.987610,779.235107 421.004120,788.344482 
	C421.723236,789.278137 423.409302,789.421082 424.561554,790.079834 
	C425.705780,790.734009 426.850067,791.463257 427.798004,792.365784 
	C428.888184,793.403625 429.929230,794.733459 429.187500,796.335815 
	C428.568848,797.672241 427.062408,797.963928 425.732391,797.946472 
	C409.915039,797.739380 393.880676,800.062805 378.330048,797.338440 
	C357.825134,793.746155 338.085693,786.967896 319.795715,776.588501 
	C317.401398,775.229736 315.097809,773.401794 312.082153,773.654358 
	C310.423279,775.711731 311.594238,777.543823 312.276855,779.355774 
	C314.625122,785.588684 317.049408,791.793091 319.381592,798.031982 
	C323.416718,808.826355 330.870911,816.623291 340.663361,822.352295 
	C347.892822,826.581787 355.709045,829.414307 363.673859,831.910522 
	C380.519073,837.190125 397.340576,842.651062 414.613647,846.291931 
	C446.502045,853.013489 478.888763,854.919861 511.407104,855.967163 
	C540.426880,856.901733 569.373901,856.854797 598.235596,853.725098 
	C616.764343,851.715759 635.246033,849.248535 653.615051,845.954895 
	C691.125549,839.229065 727.842346,830.034912 762.639099,812.101196 
M872.838745,722.854187 
	C874.683289,712.033325 881.416565,702.737488 882.574158,691.539368 
	C874.467957,686.282043 865.382935,681.831177 862.003235,671.370239 
	C864.666321,670.428955 866.590088,670.878784 868.510620,671.482239 
	C876.429810,673.970337 884.354431,676.441223 892.268250,678.946350 
	C894.399353,679.620972 896.443665,680.092224 897.802124,678.318542 
	C893.401306,660.698792 883.764709,645.329285 880.500244,627.584167 
	C877.257080,609.954346 875.584839,592.405396 878.089600,574.527893 
	C882.333557,582.587341 881.914368,591.865112 885.136230,601.287048 
	C887.621643,598.089478 889.490479,595.985107 891.022949,593.658997 
	C896.252686,585.721069 901.815247,577.998230 908.253479,571.040100 
	C912.148010,566.831055 915.905151,561.664307 922.982056,562.357727 
	C923.872253,562.444946 924.952820,561.275635 925.843933,560.562073 
	C936.038269,552.399414 944.182007,542.249451 952.818909,532.584534 
	C956.150024,528.857056 958.195312,524.332642 957.689087,519.338562 
	C955.975769,502.436737 953.785706,485.594238 947.974854,469.483704 
	C941.128601,450.502197 931.813171,432.583466 924.019958,414.008911 
	C914.046936,390.238770 901.992310,367.634613 885.351990,347.813507 
	C868.105957,327.270996 850.924683,306.700378 835.696716,284.581421 
	C834.346741,282.620544 832.434753,281.306000 830.238831,280.348511 
	C821.092773,276.360474 813.082458,270.923065 807.078430,262.728943 
	C805.341614,260.358673 803.745544,257.481049 799.781189,256.450867 
	C800.376099,258.000153 800.704224,258.901428 801.065674,259.789185 
	C806.778198,273.822540 812.444885,287.882690 817.072998,302.313568 
	C825.111755,327.379486 826.926819,353.215302 825.919678,379.334229 
	C825.501892,390.167816 824.426880,400.920593 820.295593,411.120026 
	C812.062805,431.444977 802.029785,451.033203 795.462769,472.046143 
	C794.530640,475.028839 792.777893,477.759247 791.366516,480.587219 
	C787.171570,488.992767 786.244324,496.305023 792.760010,505.012207 
	C805.164062,521.588196 812.009460,541.072083 816.766296,561.134155 
	C820.402161,576.468384 825.729553,591.531860 826.044189,607.487122 
	C826.520630,631.646973 823.141907,655.260254 815.015564,678.120361 
	C814.248169,680.279053 812.471252,682.504395 814.167297,685.580444 
	C833.428040,680.661987 840.973328,664.360596 848.853882,649.362366 
	C850.988708,649.769897 851.417297,650.565002 851.607178,651.338013 
	C853.668030,659.731567 856.814270,668.057800 857.417908,676.561890 
	C858.266846,688.522766 860.444153,700.268433 861.602234,712.161865 
	C863.727600,733.989014 866.260498,755.753723 857.384460,777.862366 
	C867.477051,778.671936 877.207947,781.235657 888.786560,778.592896 
	C876.112854,761.808411 872.860291,743.203308 872.838745,722.854187 
M894.298889,270.964661 
	C885.385254,274.063354 876.295227,276.166656 865.337341,275.353729 
	C867.324829,276.469574 867.980835,276.930511 868.703796,277.229614 
	C877.497070,280.867584 886.684143,283.217682 895.933350,285.287323 
	C921.738586,291.061584 944.314148,285.353149 963.296021,266.420166 
	C969.355042,260.376831 971.549194,253.303177 970.615051,245.089966 
	C970.108276,240.634033 969.252014,236.205872 967.427673,232.047363 
	C960.811096,216.964828 951.720032,203.529770 940.421448,191.572235 
	C939.976929,191.101776 939.372559,190.748215 938.293640,191.774872 
	C943.276733,208.295227 939.671875,223.920258 931.217346,238.809799 
	C922.814270,253.608658 911.650635,265.230377 894.298889,270.964661 
M430.649506,646.925415 
	C421.788635,640.809937 415.498901,632.639404 411.221130,622.814697 
	C409.632019,619.165039 408.077148,615.459412 406.048981,612.051758 
	C403.046906,607.007874 397.354004,606.795654 394.356049,611.742676 
	C390.179199,618.635071 385.798889,625.639648 389.363800,634.366394 
	C390.427826,636.971130 391.029083,639.760864 391.951294,642.428162 
	C397.175201,657.537720 407.223602,667.596008 422.349670,673.264038 
	C434.055145,677.650269 446.329346,678.830444 458.382782,680.609436 
	C473.982208,682.911926 488.162048,677.328979 500.690063,667.929138 
	C502.305145,666.717285 503.967468,665.099915 504.405975,662.860229 
	C499.755951,658.654968 496.799347,658.090576 491.966339,661.276245 
	C487.509094,664.214050 482.720764,664.810730 477.674164,664.355957 
	C475.054535,664.119751 473.450562,662.949646 475.389923,660.082703 
	C475.946808,659.259399 476.601318,658.459412 475.673706,656.194580 
	C460.064667,659.018250 444.976227,656.221313 430.649506,646.925415 
M805.730469,816.627869 
	C808.069397,817.307983 809.418762,819.873108 811.981140,820.231384 
	C815.395813,813.417542 814.480774,805.956604 817.503845,798.137939 
	C809.634583,802.669250 802.851196,806.448975 796.221130,811.923889 
	C799.795898,813.675598 802.444092,814.973328 805.730469,816.627869 
M866.531006,784.102051 
	C863.746887,782.997559 861.012634,781.737305 858.166870,780.825256 
	C853.945496,779.472351 850.323730,780.211731 847.966553,784.421997 
	C853.556763,788.363892 868.142944,789.370911 872.802307,786.153198 
	C871.285095,784.496948 869.036743,785.106506 866.531006,784.102051 
M731.389832,632.511597 
	C733.121948,632.928894 734.860535,633.435547 736.613342,632.196350 
	C735.475098,630.420349 733.728943,629.688232 731.991028,629.487976 
	C729.518250,629.203247 728.696960,630.159363 731.389832,632.511597 
z"/>
<path fill="#808181" opacity="1.000000" stroke="none" 
	d="
M630.210327,783.831055 
	C634.150635,783.633301 637.720764,783.058533 640.605042,785.826782 
	C642.748657,787.884277 644.281799,790.533264 643.861877,793.351746 
	C643.432007,796.237427 640.247131,796.499023 637.909302,797.100891 
	C627.337646,799.822327 616.746826,798.604919 606.204895,796.850830 
	C603.865601,796.461548 601.283264,796.003906 599.416382,792.978516 
	C608.912720,787.023193 619.335938,785.446411 630.210327,783.831055 
z"/>
</svg>
