<svg version="1.1" id="Layer_1" xmlns="http://www.w3.org/2000/svg" xmlns:xlink="http://www.w3.org/1999/xlink" x="0px" y="0px"
	 width="100%" viewBox="0 0 512 512" enable-background="new 0 0 512 512" xml:space="preserve">
<path fill="#000000" opacity="1.000000" stroke="none" 
	d="
M350.539368,1.000000 
	C352.296478,3.839891 354.911896,5.494440 357.010254,7.595707 
	C387.382721,38.009880 417.764465,68.414894 448.219666,98.746078 
	C451.166779,101.681175 452.354279,104.987000 452.343994,109.007416 
	C452.302307,125.335915 452.280762,141.664810 452.362274,157.993027 
	C452.382660,162.080673 451.078766,165.293320 448.066315,168.155197 
	C443.117767,172.856354 438.634094,178.049805 433.645691,182.704895 
	C430.615723,185.532455 430.696472,187.426941 433.621796,190.317139 
	C449.619751,206.123047 465.437775,222.110947 481.336670,238.017258 
	C489.537994,246.222382 489.599640,250.824203 481.496887,258.932068 
	C450.049805,290.398987 418.676178,321.940247 387.054688,353.230988 
	C382.768890,357.471954 380.970917,361.737061 381.224304,367.683014 
	C381.642456,377.495728 381.196991,387.342224 381.407745,397.168213 
	C381.497284,401.342529 380.146881,404.503174 377.163574,407.339111 
	C372.213959,412.044159 367.524445,417.021515 362.631012,421.787292 
	C357.336456,426.943604 350.773041,426.820770 345.338043,421.747406 
	C341.938507,418.574066 338.859070,415.096619 335.253662,412.094269 
	C332.209015,409.558868 330.434601,409.966827 327.835602,412.587250 
	C307.889160,432.697601 287.800385,452.666687 267.796417,472.720123 
	C254.620514,485.928589 241.512009,499.204346 228.186661,512.724976 
	C224.307098,513.000000 220.614182,513.000000 216.460632,513.000000 
	C213.750992,510.552429 211.588058,508.018829 209.240417,505.669830 
	C150.227325,446.622650 91.194054,387.595612 32.166660,328.562714 
	C24.592758,320.988098 24.616663,315.892242 32.211529,308.323486 
	C55.812126,284.803986 79.413589,261.285339 102.995399,237.747009 
	C105.214722,235.531769 107.297791,233.180008 109.496750,230.835510 
	C107.330544,226.972839 104.002182,224.639450 101.353752,221.719055 
	C96.012825,215.829651 95.983521,209.711121 101.580986,204.075394 
	C114.967148,190.597748 128.511078,177.275192 141.780701,163.684387 
	C145.353622,160.024979 149.402191,158.657822 154.241959,158.667953 
	C161.906906,158.683975 169.574860,158.543427 177.235550,158.723648 
	C180.488647,158.800171 182.930893,157.806900 185.216797,155.515091 
	C224.745880,115.883850 264.333008,76.310539 303.885315,36.702457 
	C315.533997,25.037365 327.114349,13.304075 338.862976,1.301020 
	C342.692902,1.000000 346.385834,1.000000 350.539368,1.000000 
M127.353622,396.162842 
	C158.586304,427.313263 189.819000,458.463684 220.889297,489.452148 
	C223.824722,488.348785 225.185425,486.364014 226.809082,484.743378 
	C253.934982,457.667999 281.111725,430.642731 308.096771,403.427490 
	C318.081726,393.357361 318.819733,396.938629 307.147766,385.686554 
	C289.443939,368.619537 271.090851,352.227295 253.078522,335.478516 
	C241.633667,324.836517 230.286072,314.089478 218.948914,303.332581 
	C217.283371,301.752319 215.308502,300.948883 213.209732,300.523560 
	C204.289459,298.715698 195.388763,296.727631 186.393372,295.397095 
	C176.843719,293.984558 169.032700,290.322815 162.317490,282.978607 
	C151.646149,271.307709 140.086380,260.447540 128.852432,249.294769 
	C127.491280,247.943466 126.430153,246.055206 124.009781,245.809982 
	C123.428329,246.279404 122.737503,246.740463 122.161331,247.316254 
	C99.295006,270.166870 76.482964,293.072174 53.528419,315.833740 
	C50.531231,318.805756 51.886440,320.488800 54.137527,322.740051 
	C78.407242,347.011566 102.629341,371.330719 127.353622,396.162842 
M317.442963,368.063995 
	C319.932190,370.262543 322.489563,372.389221 324.898224,374.672791 
	C332.982086,382.336792 340.984100,390.087250 349.087982,397.729858 
	C350.725647,399.274292 352.766235,401.633087 355.069519,399.988129 
	C358.348602,397.646301 361.841736,395.212463 361.728271,390.168182 
	C361.514771,380.676941 361.606567,371.177002 361.702789,361.681976 
	C361.728210,359.173035 360.995300,357.293152 359.194061,355.494141 
	C304.738770,301.105621 250.004486,246.989059 196.186676,191.976074 
	C185.739349,181.296753 175.334000,176.244690 160.897690,178.217117 
	C157.783142,178.642670 155.231094,179.141785 152.940536,181.479004 
	C143.729126,190.878006 134.456436,200.221420 125.011253,209.384201 
	C122.149574,212.160324 122.316490,214.004257 125.050896,216.716187 
	C143.618256,235.130859 162.077927,253.654282 180.521271,272.193451 
	C181.986359,273.666138 183.555481,274.854187 185.531158,275.252960 
	C193.147064,276.790131 200.841599,277.974792 208.401550,279.741394 
	C215.685028,281.443451 223.724518,280.747498 229.845947,286.391327 
	C241.077301,296.746368 252.698471,306.698029 263.604736,317.381775 
	C281.051910,334.472931 299.423157,350.566772 317.442963,368.063995 
M308.562073,60.954525 
	C306.501282,63.044933 307.964905,64.530594 309.436829,66.003960 
	C323.213318,79.793892 337.048065,93.526428 350.723785,107.415565 
	C353.517700,110.253075 355.375610,109.447296 357.727478,107.049126 
	C366.126343,98.484825 374.561462,89.953499 383.123505,81.553093 
	C386.314606,78.422287 389.892639,75.685890 392.877411,73.126999 
	C376.200989,56.396271 360.641663,40.786270 344.527649,24.619743 
	C332.901855,36.354660 320.966370,48.402210 308.562073,60.954525 
M319.045929,145.554413 
	C324.916779,139.656570 330.661102,133.624390 336.715668,127.921623 
	C339.450470,125.345734 339.406219,123.695854 336.753448,121.095169 
	C325.698578,110.257347 314.757996,99.299889 303.935120,88.230217 
	C300.348328,84.561638 297.240997,80.424301 293.667114,76.209572 
	C279.165955,89.651245 266.843903,102.538109 254.629852,115.001717 
	C270.654755,131.065384 286.118561,146.566574 302.667603,163.155640 
	C307.937134,157.489014 313.243500,151.782791 319.045929,145.554413 
M218.900711,186.584778 
	C228.390564,196.554626 237.880432,206.524475 247.070129,216.178986 
	C260.914581,202.500809 273.519684,190.047104 285.818787,177.895691 
	C270.208099,162.381927 254.588837,146.859619 239.419937,131.784882 
	C227.389267,143.801483 214.768555,156.407455 201.148468,170.011612 
	C206.760773,175.232040 212.593430,180.657440 218.900711,186.584778 
M429.046234,282.524933 
	C439.300171,272.274078 449.494751,261.962616 459.849304,251.814438 
	C462.478302,249.237823 463.130829,247.382812 460.170593,244.471451 
	C446.507019,231.033417 432.967285,217.467834 419.515198,203.817871 
	C416.899567,201.163773 415.092438,201.231125 412.542450,203.831406 
	C402.041077,214.539902 391.457458,225.170059 380.760651,235.683060 
	C378.026550,238.370224 378.475769,240.160095 380.995911,242.646713 
	C394.517731,255.988693 407.965851,269.406952 421.297974,282.938232 
	C423.978210,285.658569 426.093628,286.251007 429.046234,282.524933 
M340.468994,275.969116 
	C336.362091,280.108002 332.370026,284.370117 328.107422,288.341919 
	C325.317261,290.941772 325.146149,292.854309 328.000397,295.660614 
	C341.658386,309.089355 355.197113,322.641235 368.638672,336.286774 
	C371.342133,339.031281 373.109802,338.608429 375.588470,336.083374 
	C385.858093,325.621826 396.170715,315.196808 406.707764,305.006805 
	C409.925262,301.895264 409.699524,299.975830 406.619415,296.953186 
	C392.827576,283.418518 379.255188,269.660248 365.590057,255.996262 
	C364.795105,255.201385 364.146973,254.102020 361.717926,254.265793 
	C355.165710,260.959930 348.066132,268.213257 340.468994,275.969116 
M281.426697,249.086044 
	C289.688141,257.309387 298.054260,265.431549 306.154755,273.810486 
	C309.023529,276.777863 310.956696,276.806946 313.849243,273.834229 
	C323.721558,263.688293 333.839783,253.781967 343.830811,243.750961 
	C348.524261,239.038712 348.507690,238.986389 343.940918,234.406021 
	C331.240051,221.667252 318.533142,208.934479 305.796021,196.232010 
	C304.524475,194.963943 303.466614,193.371201 301.319855,192.731003 
	C288.954346,205.483337 276.516632,218.310089 263.642609,231.586838 
	C269.078644,236.934799 274.996582,242.756866 281.426697,249.086044 
M341.855072,203.612427 
	C347.656982,209.341400 353.600922,214.935974 359.202026,220.854980 
	C362.084167,223.900711 364.022095,223.733246 366.879669,220.794556 
	C376.857147,210.533691 386.946594,200.373840 397.253754,190.445816 
	C400.645294,187.179016 400.926605,185.106934 397.389313,181.666061 
	C384.148315,168.785812 371.212219,155.592346 358.129181,142.548996 
	C356.995819,141.419067 356.072174,139.878952 355.365448,139.831802 
	C342.139618,152.810379 329.495087,165.218521 315.672607,178.782578 
	C324.257782,186.915848 332.815521,195.023102 341.855072,203.612427 
M374.951569,118.447861 
	C373.674286,119.760178 372.441559,121.119865 371.108673,122.373077 
	C369.352417,124.024399 368.998077,125.545258 370.891388,127.430885 
	C385.043030,141.524841 399.161835,155.651825 413.255646,169.803574 
	C414.934326,171.489151 416.286194,171.351028 417.881165,169.719727 
	C422.187317,165.315552 426.541779,160.957626 430.931061,156.636185 
	C432.523651,155.068222 432.688049,153.170212 432.684570,151.126770 
	C432.663727,138.972900 432.680145,126.818993 432.666412,114.665115 
	C432.664551,113.019035 432.877991,111.302399 431.540894,109.959564 
	C423.698029,102.083290 415.858551,94.203651 407.293701,85.597389 
	C396.410370,96.651764 385.929169,107.297684 374.951569,118.447861 
z"/>
<path fill="#000000" opacity="1.000000" stroke="none" 
	d="
M101.069138,344.328644 
	C94.988129,338.349213 89.163811,332.647552 83.443817,326.843079 
	C77.996681,321.315521 78.009293,315.766815 83.363609,310.253906 
	C85.565086,307.987213 87.759956,305.706879 90.076515,303.560883 
	C93.780487,300.129639 100.810287,299.538361 104.376457,302.240570 
	C107.660095,304.728699 108.966927,311.261139 106.166832,315.500183 
	C103.904297,318.925385 104.952354,320.843750 107.465248,323.056671 
	C109.084160,324.482361 110.531166,326.103577 112.051003,327.641296 
	C116.598076,332.241791 117.730713,337.670410 115.037666,341.941101 
	C112.370232,346.171143 107.962875,347.016235 101.069138,344.328644 
z"/>
<path fill="#000000" opacity="1.000000" stroke="none" 
	d="
M120.212296,274.825134 
	C125.907867,272.987213 130.867737,274.309235 132.945541,277.949951 
	C135.163376,281.836029 134.632553,287.616547 131.786026,290.576660 
	C128.715836,293.769379 123.175613,294.161499 118.879654,291.490204 
	C112.892570,287.767334 113.387482,279.328308 120.212296,274.825134 
z"/>
</svg>