<svg xmlns="http://www.w3.org/2000/svg" width="416" height="389" viewBox="0 0 416 389" version="1.1"><path d="M 321.269 92.693 C 322.242 92.947, 323.592 92.930, 324.269 92.656 C 324.946 92.382, 324.150 92.175, 322.500 92.195 C 320.850 92.215, 320.296 92.439, 321.269 92.693 M 109.750 99.706 C 110.987 99.944, 113.013 99.944, 114.250 99.706 C 115.487 99.467, 114.475 99.272, 112 99.272 C 109.525 99.272, 108.513 99.467, 109.750 99.706 M 121.250 99.689 C 122.213 99.941, 123.787 99.941, 124.750 99.689 C 125.713 99.438, 124.925 99.232, 123 99.232 C 121.075 99.232, 120.287 99.438, 121.250 99.689 M 259 104.318 C 256.778 106.176, 251.551 112, 252.105 112 C 252.368 112, 254.571 109.975, 257 107.500 C 261.218 103.202, 262.197 101.644, 259 104.318 M 107.345 106.750 C 107.599 107.162, 105.713 107.545, 103.154 107.599 C 96.540 107.741, 81.425 111.990, 83.158 113.221 C 84.107 113.894, 83.800 114.018, 82.110 113.644 C 78.561 112.857, 59.600 120.543, 60.699 122.322 C 61.041 122.876, 60.799 122.994, 60.148 122.591 C 58.715 121.706, 52.752 125.790, 53.563 127.101 C 53.885 127.623, 53.629 127.926, 52.994 127.775 C 52.359 127.624, 51.088 128.606, 50.170 129.957 C 49.251 131.309, 49.041 132.083, 49.702 131.678 C 50.363 131.273, 49.162 133.532, 47.034 136.699 C 44.905 139.865, 43.424 142.916, 43.742 143.478 C 44.060 144.040, 43.955 144.169, 43.507 143.764 C 43.060 143.359, 40.841 144.736, 38.575 146.824 C 34.848 150.260, 29.766 152.543, 21.666 154.423 C 19.814 154.853, 19.055 154.720, 19.475 154.040 C 19.829 153.468, 19.431 153, 18.590 153 C 16.215 153, 17.783 155.703, 21.486 157.992 C 23.295 159.109, 25.500 159.745, 26.387 159.405 C 27.303 159.054, 28 159.290, 28 159.952 C 28 160.593, 27.480 160.797, 26.845 160.405 C 26.107 159.948, 25.963 160.132, 26.447 160.914 C 26.862 161.586, 27.817 161.900, 28.569 161.612 C 29.321 161.323, 30.245 161.587, 30.622 162.198 C 31.014 162.831, 30.858 163.030, 30.259 162.660 C 29.611 162.259, 29.061 163.568, 28.821 166.080 C 28.608 168.318, 28.785 170.367, 29.216 170.634 C 29.647 170.900, 29.993 171.654, 29.985 172.309 C 29.975 173.088, 29.666 173.020, 29.092 172.115 C 27.916 170.258, 26.671 172.620, 24.586 180.668 C 22.599 188.335, 22.579 194.832, 24.512 204.185 C 26.393 213.285, 27.920 217.167, 29.286 216.323 C 29.937 215.921, 30.100 216.296, 29.714 217.304 C 29.369 218.202, 29.587 219.245, 30.198 219.622 C 30.911 220.063, 31.048 219.805, 30.580 218.905 C 30.180 218.132, 30.546 218.354, 31.394 219.397 C 32.242 220.441, 32.717 221.650, 32.449 222.083 C 32.180 222.517, 32.372 224.701, 32.874 226.936 C 33.376 229.171, 33.495 231, 33.138 231 C 32.417 231, 29.949 238.283, 30.488 238.822 C 30.676 239.009, 31.767 238.660, 32.914 238.046 C 34.412 237.244, 35 235.954, 35 233.465 C 35 231.052, 35.455 230, 36.500 230 C 37.496 230, 38 230.997, 38 232.969 C 38 235.098, 38.394 235.786, 39.396 235.401 C 40.164 235.107, 41.442 235.793, 42.236 236.926 C 43.030 238.060, 43.943 238.723, 44.266 238.400 C 44.589 238.078, 46.029 240.298, 47.465 243.335 C 50.183 249.080, 61.199 260.433, 63.358 259.714 C 65.535 258.990, 65.138 255.946, 62.252 251.235 C 57.560 243.576, 55.513 234.423, 57.338 229.256 C 57.937 227.562, 57.798 227.140, 56.769 227.535 C 55.800 227.907, 55.455 227.256, 55.574 225.279 C 55.667 223.751, 55.853 222.275, 55.989 222 C 56.126 221.725, 56.172 221.129, 56.094 220.676 C 56.015 220.222, 56.381 220.117, 56.906 220.442 C 57.432 220.767, 58.176 220.525, 58.559 219.905 C 58.942 219.284, 58.648 218.400, 57.904 217.941 C 56.828 217.276, 57.008 216.621, 58.785 214.728 C 60.013 213.421, 60.677 211.975, 60.259 211.515 C 59.842 211.056, 60.026 210.981, 60.670 211.349 C 62.132 212.186, 66.210 207.180, 65.326 205.632 C 64.970 205.010, 65.046 204.832, 65.494 205.237 C 66.550 206.194, 72.125 198.632, 71.673 196.855 C 71.483 196.110, 71.527 195.869, 71.771 196.320 C 72.311 197.320, 73.700 195.330, 77.926 187.500 C 83.177 177.772, 84.473 177.805, 81.517 187.591 C 80.702 190.291, 80.281 193.400, 80.583 194.500 C 80.940 195.804, 80.829 196.068, 80.263 195.260 C 79.160 193.686, 76.539 200.446, 77.592 202.149 C 77.995 202.801, 77.875 203.041, 77.319 202.697 C 76.775 202.361, 75.588 203.641, 74.681 205.543 C 72.891 209.296, 73.398 209.810, 76.646 207.535 C 79.008 205.881, 80.158 206.425, 79.257 208.771 C 78.781 210.012, 79.062 210.174, 80.576 209.532 C 81.634 209.083, 84.750 207.923, 87.500 206.954 C 100.513 202.370, 108.411 197.426, 118.914 187.294 C 123.593 182.780, 127.584 179.250, 127.783 179.450 C 127.983 179.649, 127.676 181.512, 127.103 183.590 C 126.327 186.399, 126.373 187.769, 127.280 188.934 C 128.340 190.295, 128.282 190.330, 126.839 189.201 C 124.985 187.752, 124.057 188.603, 123.455 192.307 C 122.251 199.719, 119.662 208.908, 117.969 211.776 C 116.886 213.612, 116 215.554, 116 216.092 C 116 217.519, 119.524 215.425, 124.138 211.257 C 127.127 208.556, 127.779 207.457, 126.799 206.774 C 125.932 206.170, 126.232 206.074, 127.698 206.485 C 129.437 206.973, 130.219 206.478, 131.441 204.114 C 132.291 202.471, 132.722 200.311, 132.399 199.313 C 131.961 197.962, 132.057 197.843, 132.774 198.846 C 133.515 199.882, 133.975 199.536, 134.766 197.346 C 135.332 195.781, 136.143 193.639, 136.568 192.586 C 137.080 191.315, 136.978 190.895, 136.263 191.337 C 135.572 191.765, 135.382 191.257, 135.732 189.917 C 136.098 188.518, 136.520 188.224, 137.015 189.024 C 137.470 189.760, 138.414 188.482, 139.482 185.685 C 140.434 183.193, 140.907 180.658, 140.532 180.052 C 139.690 178.690, 142.212 179.107, 143.235 180.500 C 143.639 181.050, 143.971 182.850, 143.973 184.500 C 143.977 188.172, 140.691 201.839, 139.081 204.849 C 138.436 206.055, 138.223 207.552, 138.608 208.175 C 139.011 208.826, 138.866 209.035, 138.268 208.666 C 137.696 208.312, 136.993 208.918, 136.707 210.013 C 136.421 211.107, 136.547 211.780, 136.988 211.507 C 137.430 211.235, 138.029 211.633, 138.320 212.393 C 138.701 213.384, 138.263 213.620, 136.769 213.229 C 135.353 212.859, 134.916 213.055, 135.403 213.842 C 135.796 214.479, 135.638 215, 135.051 215 C 134.343 215, 134.390 215.652, 135.192 216.935 C 135.856 218, 136.768 218.644, 137.216 218.366 C 137.665 218.089, 137.731 217.373, 137.362 216.776 C 136.975 216.150, 137.154 215.977, 137.784 216.367 C 138.385 216.738, 139.341 216.245, 139.908 215.271 C 140.475 214.297, 140.953 213.893, 140.970 214.372 C 140.986 214.852, 141.670 214.689, 142.489 214.009 C 143.308 213.329, 143.686 212.262, 143.329 211.637 C 142.972 211.012, 143.041 210.827, 143.483 211.227 C 144.678 212.307, 161.548 196.505, 163.037 192.912 C 164.107 190.327, 164.086 189.653, 162.910 188.832 C 161.716 187.999, 161.725 187.909, 162.970 188.247 C 164.538 188.673, 170.220 181.165, 169.370 179.789 C 169.102 179.355, 169.273 179, 169.752 179 C 171.002 179, 173.208 169.707, 172.436 167.693 C 172.066 166.731, 172.264 166, 172.893 166 C 174.577 166, 174.247 155.511, 172.350 148.750 C 171.169 144.542, 170.431 143.243, 169.755 144.184 C 169.072 145.137, 168.975 144.995, 169.406 143.668 C 169.733 142.661, 170 140.507, 170 138.883 C 170 136.273, 170.225 136.050, 171.934 136.965 C 174.637 138.411, 176 138.255, 176 136.500 C 176 135.124, 174.775 134.539, 172.666 134.910 C 172.207 134.990, 170.934 133.914, 169.836 132.518 C 168.738 131.123, 167.356 130.280, 166.765 130.645 C 166.128 131.039, 165.981 130.839, 166.405 130.155 C 166.843 129.446, 166.420 128.994, 165.309 128.985 C 164.011 128.974, 163.858 128.742, 164.767 128.165 C 166.334 127.171, 161.490 123.138, 151.554 117.165 C 146.947 114.395, 143.917 113.182, 142.554 113.560 C 141.110 113.962, 140.895 113.857, 141.831 113.206 C 143.399 112.117, 138.716 110.018, 129.242 107.563 C 123.147 105.983, 106.490 105.365, 107.345 106.750 M 361 108.265 C 361 108.485, 362.913 110.185, 365.250 112.043 C 367.587 113.900, 368.865 114.630, 368.089 113.663 C 366.627 111.843, 361 107.558, 361 108.265 M 172.670 114.663 C 171.914 115.419, 177.413 119.012, 179.274 118.977 C 179.948 118.965, 179.011 118.220, 177.190 117.323 C 174.792 116.141, 174.241 115.463, 175.190 114.861 C 176.205 114.218, 176.143 114.027, 174.917 114.015 C 174.046 114.007, 173.035 114.298, 172.670 114.663 M 187.269 114.693 C 188.242 114.947, 189.592 114.930, 190.269 114.656 C 190.946 114.382, 190.150 114.175, 188.500 114.195 C 186.850 114.215, 186.296 114.439, 187.269 114.693 M 168.997 121.502 C 170.921 123.701, 172.888 125.950, 173.370 126.500 C 173.851 127.050, 173.778 126.600, 173.208 125.500 C 172.638 124.400, 170.671 122.151, 168.836 120.502 L 165.500 117.504 168.997 121.502 M 203.573 131.250 C 203.213 133.037, 202.840 135.254, 202.745 136.177 C 202.650 137.099, 202.298 137.684, 201.964 137.478 C 201.251 137.037, 197.447 141.208, 197.726 142.125 C 197.831 142.469, 196.777 142.750, 195.383 142.750 C 192.284 142.750, 189.725 144.836, 192.601 145.018 C 199.337 145.445, 202.300 144.989, 203.667 143.315 C 204.482 142.317, 204.797 142.175, 204.367 143 C 203.709 144.262, 203.975 144.244, 206.043 142.887 C 209.368 140.703, 209.759 135.964, 206.984 131.474 C 205.803 129.563, 204.700 128, 204.532 128 C 204.364 128, 203.933 129.463, 203.573 131.250 M 388.121 141.023 C 389.635 145.501, 390.488 146.370, 389.570 142.500 C 389.179 140.850, 388.428 139.060, 387.902 138.523 C 387.376 137.985, 387.475 139.110, 388.121 141.023 M 176 143.878 C 176 144.495, 176.477 145, 177.059 145 C 177.641 145, 177.905 145.345, 177.645 145.766 C 177.384 146.187, 177.808 148.985, 178.586 151.984 C 180.480 159.285, 180.388 169.172, 178.383 173.782 C 177.494 175.827, 175.932 179.708, 174.912 182.406 L 173.058 187.313 176.658 199.255 C 179.710 209.377, 180.171 212.134, 179.685 217.348 C 179.370 220.732, 178.809 224.512, 178.439 225.750 C 177.383 229.282, 179.791 228.468, 182.132 224.501 C 184.296 220.833, 186 220.690, 186 224.176 C 186 225.741, 186.478 226.108, 188.001 225.710 C 189.102 225.422, 189.751 225.595, 189.442 226.093 C 189.134 226.592, 189.557 227, 190.382 227 C 192.519 227, 193.452 225.035, 191.966 223.663 C 190.984 222.756, 190.884 222.830, 191.514 224 C 191.957 224.825, 191.945 225.159, 191.486 224.743 C 191.028 224.326, 190.553 222.976, 190.432 221.743 C 190.311 220.509, 189.880 217.166, 189.474 214.314 C 189.069 211.462, 189.053 208.312, 189.441 207.314 C 190.083 205.660, 190.255 205.706, 191.402 207.834 L 192.660 210.168 194.552 207.334 C 195.593 205.775, 196.307 204.050, 196.139 203.500 C 195.971 202.950, 196.155 202.822, 196.548 203.215 C 197.629 204.295, 201.157 202.064, 200.373 200.795 C 199.997 200.186, 200.143 199.970, 200.700 200.315 C 201.255 200.658, 202.618 199.940, 203.729 198.719 C 205.272 197.023, 205.697 195.322, 205.533 191.500 C 205.137 182.260, 189.193 152.527, 185.769 154.643 C 185.114 155.047, 184.982 154.838, 185.432 154.111 C 186.256 152.777, 184.216 149.749, 183 150.500 C 182.574 150.763, 182.288 150.196, 182.363 149.239 C 182.438 148.283, 181.938 147.613, 181.250 147.750 C 180.563 147.887, 180.113 147.514, 180.250 146.920 C 180.387 146.325, 179.488 145.145, 178.250 144.298 C 176.836 143.329, 176 143.173, 176 143.878 M 196.269 151.693 C 197.242 151.947, 198.592 151.930, 199.269 151.656 C 199.946 151.382, 199.150 151.175, 197.500 151.195 C 195.850 151.215, 195.296 151.439, 196.269 151.693 M 166 179.972 C 166 181.328, 167.777 182.170, 168.425 181.121 C 168.735 180.620, 168.316 179.952, 167.494 179.636 C 166.672 179.321, 166 179.472, 166 179.972 M 13.195 194.500 C 13.215 196.150, 13.439 196.704, 13.693 195.731 C 13.947 194.758, 13.930 193.408, 13.656 192.731 C 13.382 192.054, 13.175 192.850, 13.195 194.500 M 212.195 195.500 C 212.215 197.150, 212.439 197.704, 212.693 196.731 C 212.947 195.758, 212.930 194.408, 212.656 193.731 C 212.382 193.054, 212.175 193.850, 212.195 195.500 M 400.195 198.500 C 400.215 200.150, 400.439 200.704, 400.693 199.731 C 400.947 198.758, 400.930 197.408, 400.656 196.731 C 400.382 196.054, 400.175 196.850, 400.195 198.500 M 246.346 203.346 C 246.431 204.805, 246.838 205.999, 247.250 205.999 C 248.266 206, 248.171 203.819, 247.081 202.097 C 246.445 201.093, 246.236 201.448, 246.346 203.346 M 205.946 205.750 L 202.500 209.500 206.250 206.054 C 209.740 202.846, 210.460 202, 209.696 202 C 209.529 202, 207.842 203.688, 205.946 205.750 M 272.627 205.222 C 274.961 207.843, 275.670 213.958, 273.779 215.158 C 272.779 215.792, 272.773 215.973, 273.750 215.985 C 275.628 216.008, 275.255 218.860, 273 221.727 C 271.900 223.126, 271 223.932, 271 223.520 C 271 223.107, 269.986 223.435, 268.746 224.247 C 267.198 225.261, 264.142 225.676, 258.996 225.571 C 249.845 225.385, 249.346 225.232, 245.992 221.581 L 243.310 218.663 242.628 222.928 C 242.122 226.089, 241.569 227.049, 240.493 226.636 C 239.293 226.175, 239.080 227.333, 239.270 233.289 C 239.441 238.658, 239.838 240.430, 240.824 240.225 C 241.553 240.074, 241.883 240.381, 241.558 240.906 C 240.548 242.540, 242.997 243.243, 244.794 241.836 C 246.331 240.633, 246.364 240.674, 245.128 242.250 C 243.552 244.259, 244.900 244.615, 247.023 242.750 C 247.806 242.063, 247.633 242.477, 246.639 243.672 C 244.879 245.786, 244.893 245.884, 247.166 247.370 C 252.180 250.650, 257.092 252.168, 258.612 250.907 C 259.402 250.252, 260.337 250.004, 260.691 250.357 C 261.044 250.711, 260.808 251, 260.167 251 C 259.525 251, 259 251.498, 259 252.107 C 259 252.716, 259.698 252.946, 260.552 252.618 C 261.442 252.277, 261.843 252.445, 261.493 253.011 C 261.157 253.555, 261.782 254, 262.882 254 C 263.982 254, 265.124 254.392, 265.420 254.871 C 265.984 255.783, 271.840 257.403, 273.408 257.081 C 273.908 256.978, 274.584 257.327, 274.911 257.855 C 275.237 258.384, 277.304 259.116, 279.502 259.483 C 282.452 259.975, 283.107 259.872, 282 259.090 C 281.175 258.507, 280.987 258.024, 281.583 258.015 C 282.179 258.007, 283.004 258.337, 283.416 258.750 C 283.829 259.163, 285.366 259.667, 286.833 259.871 C 290.557 260.390, 319.453 260.425, 325.435 259.918 L 330.370 259.500 331.688 254.500 C 334.131 245.227, 335.807 225, 334.132 225 C 333.509 225, 332.993 225.563, 332.985 226.250 C 332.974 227.090, 332.728 227.148, 332.235 226.427 C 331.746 225.714, 330.425 226.090, 328.290 227.551 C 326.525 228.758, 325.246 229.916, 325.449 230.123 C 326.531 231.228, 315.750 230.829, 311.715 229.615 C 309.122 228.834, 307 228.564, 307 229.015 C 307 229.465, 307.563 230.060, 308.250 230.338 C 309.233 230.735, 309.228 230.859, 308.225 230.921 C 307.524 230.964, 306.523 229.875, 306 228.500 C 305.477 227.125, 304.363 226, 303.525 226 C 302.686 226, 302 225.523, 302 224.941 C 302 224.359, 301.663 224.090, 301.250 224.345 C 300.837 224.600, 300.434 223.706, 300.353 222.360 C 300.118 218.440, 297.896 214.006, 296.129 213.930 C 294.896 213.877, 294.986 213.670, 296.498 213.080 C 298.262 212.391, 298.144 212.233, 295.498 211.732 C 288.717 210.446, 283.517 208.801, 277.233 205.952 C 271.005 203.128, 270.722 203.083, 272.627 205.222 M 400.272 209 C 400.272 211.475, 400.467 212.488, 400.706 211.250 C 400.944 210.012, 400.944 207.988, 400.706 206.750 C 400.467 205.512, 400.272 206.525, 400.272 209 M 198.552 213.942 C 197.586 215.010, 197.030 216.473, 197.318 217.192 C 197.722 218.199, 197.860 218.173, 197.921 217.079 C 197.964 216.297, 198.745 214.835, 199.655 213.829 C 200.565 212.823, 201.085 212, 200.810 212 C 200.535 212, 199.519 212.874, 198.552 213.942 M 88.390 215.427 C 88.088 216.212, 88.041 217.900, 88.285 219.177 C 88.631 220.992, 88.757 220.808, 88.864 218.333 C 88.939 216.592, 89.563 214.940, 90.250 214.662 C 91.229 214.267, 91.222 214.141, 90.219 214.079 C 89.514 214.036, 88.691 214.642, 88.390 215.427 M 186.015 215.691 C 186.024 216.136, 186.467 217.175, 187 218 C 187.835 219.293, 187.971 219.266, 187.985 217.809 C 187.993 216.879, 187.550 215.840, 187 215.500 C 186.450 215.160, 186.007 215.246, 186.015 215.691 M 20.970 217.944 C 21.543 219.014, 22.505 220.194, 23.109 220.567 C 23.713 220.941, 23.434 220.066, 22.489 218.623 C 20.487 215.568, 19.451 215.105, 20.970 217.944 M 69.500 219.158 C 62.565 222.696, 58.491 226.068, 60.013 227.008 C 60.582 227.360, 61.448 230.111, 61.938 233.122 C 62.428 236.132, 63.497 240.149, 64.312 242.048 C 65.762 245.422, 65.787 245.319, 65.428 237.526 C 65.226 233.140, 64.795 228.190, 64.470 226.526 C 64.080 224.529, 64.192 223.954, 64.801 224.835 C 65.308 225.570, 66.045 226.020, 66.438 225.835 C 66.832 225.651, 68.018 227.955, 69.075 230.956 C 70.744 235.695, 77.639 244.694, 78.751 243.583 C 78.960 243.373, 78.621 241.305, 77.996 238.986 C 76.943 235.076, 76.165 227.009, 76.093 219.250 C 76.076 217.463, 75.936 216.022, 75.781 216.048 C 75.627 216.075, 72.800 217.474, 69.500 219.158 M 151.609 217.423 C 151.909 218.205, 152.882 219.125, 153.771 219.466 C 155.099 219.975, 155.058 219.721, 153.539 218.043 C 151.361 215.636, 150.862 215.476, 151.609 217.423 M 169.076 218.412 C 167.742 219.836, 167.018 221, 167.465 221 C 167.913 221, 168.877 220.213, 169.608 219.250 C 170.475 218.108, 170.947 217.950, 170.968 218.795 C 170.986 219.508, 169.849 221.241, 168.443 222.648 C 167.037 224.054, 166.447 225.018, 167.132 224.789 C 169.157 224.114, 172.225 219.400, 171.848 217.542 C 171.551 216.076, 171.146 216.203, 169.076 218.412 M 133 217.918 C 133 218.423, 132.709 219.661, 132.353 220.668 C 131.826 222.160, 131.954 222.270, 133.043 221.260 C 134.635 219.784, 135.202 217, 133.912 217 C 133.410 217, 133 217.413, 133 217.918 M 144.500 219.541 C 142.850 220.898, 141.599 222.795, 141.721 223.755 C 141.842 224.715, 141.694 224.941, 141.390 224.258 C 140.978 223.329, 140.328 223.289, 138.812 224.101 C 137.330 224.894, 137.083 225.483, 137.893 226.293 C 138.502 226.902, 139 227.792, 139 228.271 C 139 228.751, 138.292 228.435, 137.427 227.569 C 135.995 226.138, 135.316 226.409, 129.911 230.568 C 126.643 233.083, 124.171 235.467, 124.417 235.866 C 124.664 236.265, 123.658 236.566, 122.183 236.536 C 120.062 236.493, 119.517 236.012, 119.579 234.241 C 119.623 233.008, 119.098 232, 118.413 232 C 117.727 232, 117.008 231.525, 116.815 230.945 C 116.599 230.297, 114.736 230.708, 111.982 232.013 C 108.564 233.632, 108.212 233.982, 110.498 233.487 C 112.147 233.130, 113.121 233.212, 112.663 233.669 C 112.205 234.126, 108.090 234.500, 103.518 234.500 C 98.947 234.500, 95.722 234.142, 96.353 233.705 C 97.068 233.210, 96.747 232.986, 95.500 233.112 C 94.400 233.222, 92.150 232.720, 90.500 231.996 C 88.850 231.272, 86.892 230.782, 86.150 230.907 C 85.407 231.032, 85.064 230.705, 85.389 230.180 C 85.713 229.656, 85.308 228.671, 84.489 227.991 C 83.455 227.133, 83 227.098, 83 227.878 C 83 228.495, 83.360 229, 83.799 229 C 84.239 229, 84.422 230.511, 84.206 232.358 C 83.960 234.468, 84.600 237.255, 85.928 239.858 C 88.070 244.057, 89.458 245.451, 88.309 242.250 C 87.964 241.287, 88.039 240.823, 88.476 241.218 C 88.913 241.613, 89.340 242.963, 89.426 244.218 C 89.511 245.473, 90.125 246.387, 90.791 246.250 C 91.456 246.112, 92 246.605, 92 247.345 C 92 248.085, 92.889 249.495, 93.976 250.479 C 96.130 252.428, 95.815 254, 93.270 254 C 92.383 254, 90.815 254.762, 89.786 255.694 C 88.027 257.286, 87.953 257.286, 88.564 255.694 C 89.071 254.373, 88.648 254, 86.644 254 C 85.231 254, 81.807 253.107, 79.037 252.015 C 76.267 250.923, 73.993 250.360, 73.985 250.765 C 73.976 251.169, 73.533 250.825, 73 250 C 72.289 248.900, 72.027 248.851, 72.015 249.816 C 71.990 252, 74.033 255.097, 75.075 254.454 C 75.611 254.122, 75.926 254.286, 75.775 254.817 C 75.294 256.507, 80.212 260.068, 82.169 259.446 C 83.204 259.118, 84 259.355, 84 259.992 C 84 260.611, 84.457 260.835, 85.016 260.490 C 85.575 260.144, 85.728 259.330, 85.356 258.681 C 84.967 258.002, 85.066 257.854, 85.590 258.333 C 86.090 258.792, 86.500 259.692, 86.500 260.333 C 86.500 262.654, 96.497 264.151, 114 264.451 C 123.625 264.616, 133.750 264.337, 136.500 263.831 C 139.250 263.324, 142.512 262.925, 143.750 262.944 C 144.988 262.962, 146 262.575, 146 262.082 C 146 261.590, 146.900 261.423, 148 261.710 C 149.162 262.014, 150 261.741, 150 261.058 C 150 260.411, 150.459 260.166, 151.020 260.512 C 152.355 261.337, 159 259.132, 159 257.863 C 159 257.324, 159.409 257.135, 159.910 257.444 C 161.303 258.305, 164.074 256.929, 163.340 255.741 C 162.952 255.114, 163.174 254.989, 163.889 255.432 C 165.333 256.324, 170.088 253.420, 169.744 251.856 C 169.610 251.248, 170.175 250.547, 171 250.299 C 172.333 249.898, 172.333 249.966, 171 250.909 C 170.175 251.492, 169.960 251.976, 170.522 251.985 C 172.013 252.007, 178.830 246.186, 180.107 243.801 C 180.949 242.228, 180.917 241.933, 179.970 242.519 C 179.169 243.014, 178.916 242.795, 179.245 241.889 C 179.523 241.125, 180.226 240.602, 180.807 240.727 C 181.389 240.853, 181.827 239.615, 181.780 237.977 C 181.700 235.142, 181.487 235, 177.334 235 C 174.935 235, 172.099 235.545, 171.032 236.212 C 168.467 237.814, 167.408 236.594, 168.771 233.604 C 169.373 232.282, 169.661 230.994, 169.410 230.743 C 168.725 230.058, 163.961 231.129, 164.419 231.864 C 164.637 232.214, 161.932 232.349, 158.408 232.165 C 154.883 231.980, 152 231.490, 152 231.075 C 152 229.947, 146.995 227.885, 145.900 228.562 C 145.378 228.884, 145.035 228.778, 145.139 228.324 C 145.243 227.871, 144.979 226.257, 144.552 224.737 C 144.040 222.914, 144.218 221.442, 145.075 220.409 C 146.235 219.012, 146.576 219.094, 148.254 221.172 L 150.134 223.500 148.855 221 C 148.151 219.625, 147.671 218.162, 147.788 217.750 C 148.096 216.659, 147.815 216.813, 144.500 219.541 M 123.232 219.550 C 121.177 220.989, 121.121 224.661, 123.173 223.393 C 123.703 223.066, 123.886 222.145, 123.580 221.347 C 123.273 220.549, 123.437 220.152, 123.942 220.464 C 124.448 220.777, 125.163 220.545, 125.531 219.950 C 126.643 218.151, 125.511 217.954, 123.232 219.550 M 313.250 218.689 C 314.212 218.941, 315.788 218.941, 316.750 218.689 C 317.712 218.438, 316.925 218.232, 315 218.232 C 313.075 218.232, 312.288 218.438, 313.250 218.689 M 103.491 225.070 C 108.061 226.424, 109.929 226.588, 109.705 225.616 C 109.592 225.129, 107.475 224.608, 105 224.458 C 101.008 224.215, 100.838 224.284, 103.491 225.070 M 25.195 227.500 C 25.215 229.150, 25.439 229.704, 25.693 228.731 C 25.947 227.758, 25.930 226.408, 25.656 225.731 C 25.382 225.054, 25.175 225.850, 25.195 227.500 M 119.161 227.328 C 117.015 229.613, 117.162 231, 119.550 231 C 120.569 231, 122.331 226.018, 121.582 225.254 C 121.450 225.119, 120.360 226.052, 119.161 227.328 M 159.762 225.707 C 161.006 225.946, 162.806 225.937, 163.762 225.687 C 164.718 225.437, 163.700 225.241, 161.500 225.252 C 159.300 225.263, 158.518 225.468, 159.762 225.707 M 134.507 229.011 C 134.843 229.555, 134.218 230, 133.118 230 C 132.018 230, 130.858 230.421, 130.540 230.936 C 130.183 231.514, 131.168 231.525, 133.117 230.967 C 137.064 229.834, 137.501 229.406, 135.491 228.635 C 134.567 228.280, 134.153 228.439, 134.507 229.011 M 88.174 232.603 C 89.070 233.499, 90.283 234.067, 90.869 233.866 C 91.455 233.665, 90.722 232.931, 89.240 232.237 C 86.749 231.069, 86.668 231.097, 88.174 232.603 M 274.358 234.510 C 273.542 236.635, 274.836 237.991, 277.471 237.773 C 279.348 237.618, 279.659 237.231, 278.957 235.920 C 278.469 235.009, 278.260 234.073, 278.492 233.841 C 278.724 233.609, 278.009 233.351, 276.903 233.268 C 275.797 233.184, 274.652 233.744, 274.358 234.510 M 127.557 235.418 C 128.624 236.198, 129.710 236.624, 129.969 236.364 C 130.520 235.814, 127.941 234.038, 126.559 234.015 C 126.041 234.007, 126.491 234.638, 127.557 235.418 M 145 238.500 C 145 239.325, 145.450 240, 146 240 C 146.550 240, 147 239.325, 147 238.500 C 147 237.675, 146.550 237, 146 237 C 145.450 237, 145 237.675, 145 238.500 M 33.336 243.669 C 33.703 244.037, 33.216 245.274, 32.252 246.419 C 30.501 248.498, 30.502 248.498, 32.750 246.595 C 35.207 244.515, 35.663 243, 33.833 243 C 33.192 243, 32.968 243.301, 33.336 243.669 M 396.346 246.999 C 395.768 249.164, 395.644 250.720, 396.071 250.456 C 396.956 249.909, 398.396 244.062, 397.793 243.460 C 397.575 243.242, 396.924 244.834, 396.346 246.999 M 187.760 246.475 C 187.384 248.444, 187.688 249, 189.139 249 C 191.324 249, 191.440 248.163, 189.590 245.725 C 188.338 244.075, 188.209 244.128, 187.760 246.475 M 280.326 246.593 C 279.233 249.442, 282.801 251.128, 289.250 250.811 C 298.477 250.358, 295.763 246.084, 285.738 245.279 C 281.955 244.976, 280.843 245.245, 280.326 246.593 M 39.234 247.434 C 39.638 247.912, 39.188 248.895, 38.234 249.619 C 36.665 250.811, 36.762 250.939, 39.250 250.968 C 42.402 251.005, 42.782 249.843, 40.250 247.905 C 39.288 247.169, 38.831 246.957, 39.234 247.434 M 133.559 249.574 C 135.462 251.118, 135.459 251.140, 133.377 250.701 C 131.731 250.354, 131.358 250.654, 131.719 252.033 C 132.053 253.312, 133.385 253.910, 136.444 254.157 C 140.177 254.458, 140.691 254.253, 140.602 252.500 C 140.534 251.159, 139.677 250.390, 138 250.165 C 136.625 249.981, 135.072 249.419, 134.550 248.915 C 134.028 248.412, 133.154 248, 132.609 248 C 132.064 248, 132.491 248.708, 133.559 249.574 M 95 249.571 C 95 249.886, 95.675 250.818, 96.500 251.643 C 98.128 253.271, 98.332 253.029, 97.393 250.582 C 96.823 249.095, 95 248.326, 95 249.571 M 21.015 251.750 C 21.024 252.749, 21.351 253.071, 21.777 252.500 C 22.187 251.950, 22.931 251.162, 23.428 250.750 C 23.926 250.338, 23.583 250, 22.667 250 C 21.740 250, 21.007 250.777, 21.015 251.750 M 81.149 256.671 C 79.336 258.632, 80.062 259.159, 82.311 257.514 C 83.306 256.787, 83.755 255.971, 83.310 255.701 C 82.864 255.431, 81.892 255.867, 81.149 256.671 M 42.500 257.086 C 40.863 257.859, 41.008 257.931, 43.302 257.483 C 45.232 257.106, 46.907 257.568, 48.686 258.968 C 50.107 260.086, 51.722 261, 52.274 261 C 52.827 261, 51.621 259.875, 49.595 258.500 C 45.547 255.753, 45.388 255.721, 42.500 257.086 M 183 258.941 C 183 260.559, 183.356 262.102, 183.791 262.371 C 184.226 262.640, 184.402 261.316, 184.182 259.430 C 183.691 255.227, 183 254.941, 183 258.941 M 172.496 260.843 C 173.586 262.131, 175.383 263.649, 176.489 264.215 C 178.613 265.303, 178.303 264.967, 173.507 260.985 C 170.620 258.588, 170.584 258.583, 172.496 260.843 M 103 263 C 103 263.550, 103.423 264, 103.941 264 C 104.459 264, 105.160 263.550, 105.500 263 C 105.840 262.450, 105.416 262, 104.559 262 C 103.702 262, 103 262.450, 103 263 M 325.519 267.939 C 325.154 269.089, 324.438 269.771, 323.928 269.456 C 323.418 269.140, 323 269.359, 323 269.941 C 323 270.523, 323.434 271, 323.965 271 C 325.097 271, 327.389 267.055, 326.672 266.339 C 326.403 266.070, 325.884 266.790, 325.519 267.939 M 358.776 268.733 C 361.128 268.945, 364.728 268.942, 366.776 268.727 C 368.824 268.512, 366.900 268.339, 362.500 268.343 C 358.100 268.346, 356.424 268.522, 358.776 268.733" stroke="none" fill="#f4eee5" fill-rule="evenodd"/><path d="M 300.269 92.693 C 301.242 92.947, 302.592 92.930, 303.269 92.656 C 303.946 92.382, 303.150 92.175, 301.500 92.195 C 299.850 92.215, 299.296 92.439, 300.269 92.693 M 315.250 92.689 C 316.212 92.941, 317.788 92.941, 318.750 92.689 C 319.712 92.438, 318.925 92.232, 317 92.232 C 315.075 92.232, 314.288 92.438, 315.250 92.689 M 292.238 98.040 C 280.890 100.082, 272.896 103.510, 259.474 112.091 C 248.494 119.110, 238.129 134.585, 230.063 156 C 228.924 159.025, 226.112 170.275, 223.814 181 C 219.896 199.290, 219.644 201.431, 219.758 215.500 C 219.896 232.721, 222.435 248.195, 225.831 252.512 C 230.566 258.532, 238.406 262.976, 244.323 262.994 C 246.022 263, 246.005 262.822, 244.070 260.362 C 242.109 257.869, 242.091 257.653, 243.748 256.436 C 245.386 255.232, 245.331 254.965, 242.906 252.324 C 234.261 242.911, 232.384 236.895, 234.105 224.110 C 235.068 216.953, 234.976 215.837, 233.081 211.679 C 231.440 208.075, 231 205.103, 231 197.614 C 231 192.391, 231.421 187.858, 231.936 187.540 C 232.840 186.981, 233.275 189.263, 234.506 201.009 C 235.296 208.541, 236.964 211.039, 236.985 204.718 C 236.993 202.089, 237.935 197.163, 239.077 193.772 C 241.051 187.913, 241.075 187.329, 239.577 181.988 C 237.742 175.450, 237.530 166.648, 239.098 162.149 C 240.761 157.378, 242 158.367, 242 164.465 C 242 170.890, 245.512 189.912, 246.968 191.368 C 248.426 192.826, 264.396 201.937, 264.795 201.539 C 264.980 201.354, 263.751 198.470, 262.065 195.130 C 260.379 191.790, 259 188.028, 259 186.771 C 259 185.513, 257.763 182.238, 256.252 179.492 C 253.652 174.769, 253.504 173.800, 253.502 161.500 C 253.500 148.183, 255.072 140.025, 258.497 135.573 C 260.827 132.544, 261.087 134.092, 259.503 141.569 C 258.662 145.538, 258.027 153.913, 258.017 161.167 C 258.003 171.607, 258.349 174.648, 259.985 178.465 C 263.162 185.878, 267.498 191.433, 274.225 196.713 C 280.879 201.935, 291.879 208.455, 292.681 207.652 C 292.944 207.389, 292.466 206.115, 291.618 204.820 C 288.770 200.474, 287.067 193.987, 285.988 183.379 C 284.222 166.022, 286.461 164.152, 289.888 180.122 C 291.023 185.414, 292.360 190.814, 292.859 192.122 C 294.695 196.933, 311.626 210.967, 313.900 209.562 C 314.906 208.940, 314.779 201.758, 313.544 189.331 C 312.821 182.060, 314.236 180.236, 316.464 185.568 C 317.302 187.574, 319.607 191.421, 321.584 194.115 C 325.262 199.125, 333.654 206.680, 334.548 205.786 C 335.220 205.114, 332.410 181.030, 329.440 162 C 328.109 153.475, 327.038 145.600, 327.059 144.500 C 327.113 141.708, 331.661 153.841, 334.012 163.046 C 338.479 180.543, 339.289 190.657, 338.611 220.500 C 337.841 254.401, 336.906 261.150, 332.321 265.881 C 328.506 269.817, 328.795 271.158, 333.289 270.376 C 346.287 268.113, 356.340 262.640, 365.087 253.063 C 371.107 246.471, 371.993 245.821, 371.996 248 C 371.999 251.370, 366.835 261.978, 363.881 264.670 C 362.572 265.863, 360.150 267.033, 358.500 267.270 C 356.850 267.507, 359.550 267.689, 364.500 267.675 C 369.450 267.662, 371.476 267.473, 369.002 267.256 L 364.505 266.861 372.316 264.276 C 382.260 260.985, 389.234 255.137, 390.809 248.768 C 394.680 233.114, 394.848 196.748, 391.140 177 C 387.989 160.222, 385.185 148.543, 382.938 142.842 C 376.458 126.404, 355.478 107.921, 337 102.373 C 322.281 97.954, 303.059 96.093, 292.238 98.040 M 266.789 100.753 C 261.583 103.257, 252.221 111.445, 243.500 121.121 C 241.850 122.952, 245.455 119.736, 251.512 113.975 C 260.308 105.609, 263.830 102.957, 269.012 100.802 C 272.580 99.318, 274.825 98.082, 274 98.055 C 273.175 98.028, 269.930 99.242, 266.789 100.753 M 343.083 99.381 C 344.102 100.314, 356 105.977, 356 105.529 C 356 104.968, 344.447 99, 343.362 99 C 342.979 99, 342.854 99.172, 343.083 99.381 M 107.250 100.689 C 108.213 100.941, 109.787 100.941, 110.750 100.689 C 111.713 100.438, 110.925 100.232, 109 100.232 C 107.075 100.232, 106.287 100.438, 107.250 100.689 M 123.250 100.689 C 124.213 100.941, 125.787 100.941, 126.750 100.689 C 127.713 100.438, 126.925 100.232, 125 100.232 C 123.075 100.232, 122.287 100.438, 123.250 100.689 M 92 103.497 C 87.325 104.789, 82.375 106.344, 81 106.952 L 78.500 108.056 81 107.475 C 91.058 105.138, 105.046 101.096, 103 101.119 C 101.625 101.134, 96.675 102.204, 92 103.497 M 134.460 103.011 C 137.738 104.057, 140.575 104.759, 140.764 104.569 C 141.268 104.065, 131.918 100.991, 130.072 101.054 C 129.207 101.083, 131.182 101.964, 134.460 103.011 M 103.058 106.090 C 97.284 107.223, 95.314 108.196, 100.500 107.354 C 102.700 106.997, 109 106.392, 114.500 106.009 L 124.500 105.314 116 105.266 C 111.325 105.240, 105.501 105.611, 103.058 106.090 M 144 106.500 C 145.375 107.286, 146.950 107.929, 147.500 107.929 C 148.050 107.929, 147.375 107.286, 146 106.500 C 144.625 105.714, 143.050 105.071, 142.500 105.071 C 141.950 105.071, 142.625 105.714, 144 106.500 M 129.465 107.541 C 132.196 108.290, 134.601 108.732, 134.809 108.524 C 135.309 108.024, 127.923 105.987, 126 106.095 C 125.175 106.141, 126.734 106.792, 129.465 107.541 M 357 106.350 C 357 106.581, 358.180 107.543, 359.623 108.489 C 361.066 109.434, 361.941 109.713, 361.567 109.109 C 360.854 107.955, 357 105.626, 357 106.350 M 70 110.832 C 62.063 114.224, 53.359 119.759, 50 123.550 C 48.297 125.473, 49.093 125.066, 52.500 122.273 C 56.775 118.769, 66.904 113.141, 76 109.214 C 77.375 108.621, 78.050 108.117, 77.500 108.095 C 76.950 108.072, 73.575 109.304, 70 110.832 M 90.500 109 C 87.952 110.095, 90.581 110.095, 94 109 C 96.010 108.356, 96.108 108.194, 94.500 108.170 C 93.400 108.154, 91.600 108.527, 90.500 109 M 151 109.449 C 151 109.724, 152.350 110.647, 154 111.500 C 155.650 112.353, 157 112.826, 157 112.551 C 157 112.276, 155.650 111.353, 154 110.500 C 152.350 109.647, 151 109.174, 151 109.449 M 80 111.892 C 65.429 116.621, 50.717 125.060, 48.886 129.741 C 45.072 139.489, 38.839 147.260, 32.539 150.122 C 30.317 151.131, 29.085 151.966, 29.800 151.978 C 34.442 152.056, 44.207 142.484, 48.291 133.850 C 49.758 130.750, 52.430 126.974, 54.229 125.459 C 58.111 122.190, 69.382 116.820, 80.500 112.941 C 89.262 109.885, 88.850 109.021, 80 111.892 M 145.500 113.811 C 158.376 120.724, 163.021 124.244, 169.252 131.815 C 172.429 135.675, 174 135.247, 174 130.522 C 174 127.892, 172.936 126.003, 169.106 121.831 C 166.414 118.899, 162.701 115.693, 160.856 114.706 C 157.629 112.982, 157.596 112.982, 159.991 114.706 C 168.304 120.692, 173 126.610, 173 131.103 C 173 132.995, 172.191 132.537, 167.250 127.849 C 160.444 121.393, 154.760 117.404, 146.279 113.133 C 137.593 108.759, 137.020 109.258, 145.500 113.811 M 175.197 114.680 C 172.907 115.597, 177.175 117.943, 181 117.869 C 184.162 117.807, 184.259 117.727, 182 117.038 C 179.423 116.252, 180.049 115.659, 184.500 114.675 C 185.600 114.431, 184.250 114.215, 181.500 114.195 C 178.750 114.175, 175.914 114.393, 175.197 114.680 M 192.243 116.083 C 199.648 117.829, 207.966 124.622, 211.121 131.500 C 213.666 137.047, 213.451 140.310, 210.297 144.059 C 206.938 148.051, 202.422 150, 196.532 150 C 194.039 150, 192 150.268, 192 150.596 C 192 150.923, 193.012 152.610, 194.250 154.344 C 195.488 156.078, 198.176 160.647, 200.224 164.498 C 202.272 168.349, 203.959 171.148, 203.974 170.717 C 204.017 169.430, 198.945 159.812, 195.817 155.250 L 192.904 151 197.202 150.978 C 205.923 150.933, 214.023 144.666, 213.974 138 C 213.949 134.474, 210.822 128.005, 207.087 123.752 C 203.449 119.609, 194.820 114.952, 191.054 115.100 C 189.055 115.179, 189.314 115.393, 192.243 116.083 M 187.500 118.935 C 195.959 120.995, 200.738 126.584, 198.798 132.150 C 197.611 135.553, 193.569 138.972, 190.615 139.070 C 189.452 139.109, 187.600 139.564, 186.500 140.081 C 185.047 140.764, 185.585 140.858, 188.465 140.425 C 194.317 139.545, 197.523 137.524, 199.424 133.518 C 201.242 129.687, 200.857 126.744, 198.132 123.644 C 195.869 121.070, 189.544 117.979, 186.790 118.102 C 184.927 118.186, 185.059 118.341, 187.500 118.935 M 372.785 119.511 C 373.351 120.617, 374.869 122.414, 376.157 123.504 C 378.417 125.416, 378.412 125.380, 376.015 122.493 C 372.033 117.697, 371.697 117.387, 372.785 119.511 M 202.701 127.963 C 202.983 129.043, 202.218 131.983, 201.002 134.497 C 198.719 139.212, 193.364 143, 188.981 143 C 185.301 143, 187.837 144.799, 193.110 145.930 C 202.154 147.870, 210 144.092, 210 137.799 C 210 134.157, 205.542 126, 203.551 126 C 202.688 126, 202.376 126.721, 202.701 127.963 M 42.245 133.614 C 39.051 138.066, 35.865 141.168, 32.500 143.105 C 29.750 144.687, 27.910 145.985, 28.412 145.991 C 31.377 146.021, 38.412 140.213, 42.925 134.008 C 45.728 130.154, 47.790 127, 47.506 127 C 47.222 127, 44.854 129.976, 42.245 133.614 M 204 130.114 C 204 134.251, 199.823 139.907, 195.068 142.209 L 190.504 144.419 194.002 145.157 C 197.933 145.987, 203.378 144.838, 206.750 142.468 C 209.638 140.438, 209.708 135.881, 206.918 131.368 C 204.492 127.441, 204 127.230, 204 130.114 M 235.947 132.639 C 235.395 134.090, 235.130 135.463, 235.356 135.690 C 235.583 135.917, 236.247 134.729, 236.832 133.051 C 238.133 129.321, 237.348 128.955, 235.947 132.639 M 387.845 143.563 C 389.477 147.998, 391.018 152.723, 391.270 154.063 C 391.711 156.409, 391.733 156.415, 391.864 154.231 C 392.021 151.608, 387.479 138.074, 385.925 136.536 C 385.349 135.966, 386.213 139.128, 387.845 143.563 M 170 139.095 C 170 140.247, 170.962 144.357, 172.138 148.228 C 173.848 153.857, 174.173 156.892, 173.763 163.383 C 173.477 167.906, 173.585 170.172, 174.006 168.500 C 175.424 162.882, 175.004 154.642, 172.923 147.224 C 170.958 140.222, 170.952 137.477, 172.906 139.567 C 173.386 140.080, 174.841 143.425, 176.139 147 C 179.339 155.809, 179.474 169.385, 176.428 176 C 174.472 180.249, 172.459 185.437, 171.320 189.163 C 171.041 190.078, 171.727 192.103, 172.846 193.663 C 176.570 198.857, 179.330 210.403, 178.754 218.373 C 178.459 222.443, 178.573 224.428, 179.019 223 C 180.729 217.530, 179.968 210.149, 176.526 198.793 L 173.051 187.332 174.909 182.416 C 175.931 179.712, 177.494 175.827, 178.383 173.782 C 181.065 167.615, 180.169 154.311, 176.420 144.634 C 174.875 140.646, 179.720 144.951, 186.908 153.953 C 191.543 159.757, 196.103 167.046, 199.609 174.254 C 202.618 180.439, 204.804 184.479, 204.467 183.231 C 203.408 179.315, 196.259 164.642, 193.827 161.391 C 192.547 159.681, 189.162 155.152, 186.305 151.326 C 183.447 147.501, 179.924 143.831, 178.476 143.171 C 174.689 141.446, 175.883 139.483, 180.580 139.712 C 183.459 139.852, 182.774 139.534, 178 138.513 C 169.563 136.709, 170 136.677, 170 139.095 M 11.630 146.250 C 10.623 150.008, 10.911 152.184, 12.979 156.456 C 14.852 160.326, 20.446 164.887, 21.736 163.597 C 22.064 163.269, 21.843 163, 21.243 163 C 20.644 163, 18.777 161.842, 17.095 160.426 C 13.631 157.512, 11.417 151.458, 12.393 147.569 C 12.947 145.364, 13.348 145.116, 14.959 145.978 C 16.009 146.540, 17.461 146.982, 18.184 146.961 C 19.212 146.930, 13.588 144, 12.502 144 C 12.354 144, 11.962 145.012, 11.630 146.250 M 229.667 147.667 C 229.300 148.033, 229.014 149.046, 229.030 149.917 C 229.055 151.217, 229.251 151.174, 230.122 149.675 C 231.199 147.823, 230.887 146.447, 229.667 147.667 M 15 152.397 C 15 153.973, 20.587 159.205, 24.840 161.611 C 27.839 163.307, 28.130 163.857, 27.688 167 C 27.418 168.925, 26.921 171.400, 26.583 172.500 C 26.246 173.600, 26.631 173.150, 27.440 171.500 C 28.248 169.850, 28.930 167.120, 28.955 165.434 C 28.993 162.861, 28.334 161.994, 24.854 160.038 C 19.240 156.883, 16.400 153.989, 17.967 153.021 C 18.781 152.517, 18.496 152.101, 17.085 151.732 C 15.820 151.402, 15 151.663, 15 152.397 M 23 153 C 19.540 153.728, 19.534 153.738, 22.500 153.853 C 24.150 153.917, 26.175 153.533, 27 153 C 28.665 151.924, 28.112 151.924, 23 153 M 392.152 158 C 392.152 158.825, 392.759 161.075, 393.500 163 C 394.241 164.925, 394.848 165.825, 394.848 165 C 394.848 164.175, 394.241 161.925, 393.500 160 C 392.759 158.075, 392.152 157.175, 392.152 158 M 23.748 164.823 C 24.685 165.418, 24.373 166.462, 22.498 169.002 C 20.007 172.380, 19.675 173, 20.364 173 C 20.910 173, 26 165.500, 26 164.696 C 26 164.313, 25.212 164.007, 24.250 164.015 C 23.003 164.026, 22.859 164.259, 23.748 164.823 M 395.170 168 C 395.186 168.825, 395.560 170.625, 396 172 C 396.644 174.010, 396.806 174.108, 396.830 172.500 C 396.846 171.400, 396.473 169.600, 396 168.500 C 395.473 167.275, 395.152 167.081, 395.170 168 M 17.390 177.608 C 16.561 179.593, 16.064 181.397, 16.286 181.619 C 16.507 181.840, 17.397 180.217, 18.264 178.011 C 20.223 173.023, 19.454 172.669, 17.390 177.608 M 23.500 181 C 23.120 182.729, 23.018 184.351, 23.273 184.606 C 23.528 184.861, 24.024 183.632, 24.375 181.875 C 25.209 177.707, 24.401 176.899, 23.500 181 M 118.954 187.252 C 108.414 197.425, 100.529 202.364, 87.500 206.954 C 84.750 207.923, 81.634 209.083, 80.576 209.532 C 79.062 210.174, 78.781 210.012, 79.257 208.771 C 80.158 206.425, 79.008 205.881, 76.646 207.535 C 73.109 210.013, 73.018 209.236, 76.063 202.522 C 77.678 198.959, 78.971 195.697, 78.935 195.272 C 78.899 194.847, 77.314 197.842, 75.413 201.928 C 73.024 207.063, 72.307 209.572, 73.092 210.057 C 73.898 210.555, 73.832 210.938, 72.863 211.380 C 69.861 212.751, 79.915 210.768, 86 208.789 C 98.437 204.744, 109.425 198.385, 118.132 190.194 C 124.286 184.404, 126.101 183.133, 125.531 185.012 C 125.115 186.380, 124.376 187.928, 123.888 188.450 C 123.399 188.972, 123.008 189.873, 123.017 190.450 C 123.048 192.403, 126.790 185.524, 127.477 182.250 C 127.852 180.463, 128.011 179.001, 127.829 179.002 C 127.648 179.002, 123.654 182.715, 118.954 187.252 M 141.024 181.534 C 135.333 197.007, 131.358 204.640, 126.558 209.312 L 121.500 214.235 126.422 210.367 C 130.553 207.121, 132.187 204.734, 136.600 195.500 C 141.223 185.824, 141.861 184.921, 141.892 188 C 141.951 193.598, 139.552 201.732, 134.559 212.872 C 132.002 218.576, 130.137 223.471, 130.415 223.748 C 130.918 224.251, 141 216.242, 141 215.340 C 141 215.079, 138.911 216.578, 136.357 218.670 C 130.941 223.109, 130.958 222.687, 136.711 210.174 C 142.365 197.874, 145.347 183.679, 143.042 180.034 C 142.306 178.870, 141.890 179.178, 141.024 181.534 M 80.996 182 C 80.217 183.375, 79.530 186.750, 79.470 189.500 L 79.360 194.500 81.209 188.521 C 83.341 181.627, 83.225 178.067, 80.996 182 M 398.195 182.500 C 398.215 184.150, 398.439 184.704, 398.693 183.731 C 398.947 182.758, 398.930 181.408, 398.656 180.731 C 398.382 180.054, 398.175 180.850, 398.195 182.500 M 167.312 184.311 C 166.133 186.065, 164.451 189.300, 163.573 191.500 C 162.545 194.076, 158.484 198.881, 152.163 205 C 146.765 210.225, 143.508 213.540, 144.924 212.366 C 154.953 204.057, 163.056 195.421, 164.588 191.408 C 165.514 188.984, 166.588 187, 166.975 187 C 167.738 187, 170.273 181.940, 169.765 181.432 C 169.595 181.261, 168.491 182.557, 167.312 184.311 M 22.144 192.294 C 22.016 198.340, 24.627 212.707, 25.665 211.669 C 25.886 211.447, 25.554 209.068, 24.926 206.383 C 24.298 203.697, 23.447 197.900, 23.036 193.500 L 22.287 185.500 22.144 192.294 M 205.730 190.843 L 206.301 196.187 199.177 202.966 C 193.102 208.747, 191.966 209.467, 191.455 207.858 C 190.537 204.966, 189 206.693, 189 210.616 C 189 214.615, 190.891 222.815, 191.967 223.479 C 192.363 223.724, 192.083 221.594, 191.344 218.745 C 190.605 215.895, 190.052 212.425, 190.116 211.032 C 190.206 209.072, 190.342 208.932, 190.721 210.413 C 191.155 212.112, 191.616 211.923, 194.855 208.717 C 196.860 206.733, 200.412 203.458, 202.750 201.439 C 206.512 198.189, 206.992 197.292, 206.930 193.634 C 206.891 191.360, 206.477 188.600, 206.010 187.500 C 205.480 186.254, 205.375 187.515, 205.730 190.843 M 74.995 192.704 C 70.652 200.456, 65.542 207.579, 60.587 212.789 C 57.290 216.255, 56.787 217.250, 57.964 217.978 C 59.201 218.742, 59.126 219.204, 57.460 221.044 C 55.166 223.578, 54.658 228.345, 56.769 227.535 C 57.798 227.140, 57.937 227.562, 57.338 229.256 C 55.513 234.423, 57.560 243.576, 62.252 251.235 C 65.138 255.946, 65.535 258.990, 63.358 259.714 C 61.199 260.433, 50.183 249.080, 47.465 243.335 C 46.029 240.298, 44.589 238.078, 44.266 238.400 C 43.943 238.723, 43.030 238.060, 42.236 236.926 C 41.442 235.793, 40.164 235.107, 39.396 235.401 C 38.394 235.786, 38 235.098, 38 232.969 C 38 230.997, 37.496 230, 36.500 230 C 35.455 230, 35 231.052, 35 233.465 C 35 235.954, 34.412 237.244, 32.914 238.046 C 30.066 239.570, 29.864 239.058, 31.501 234.462 C 32.277 232.283, 32.932 229.375, 32.956 228 C 32.999 225.618, 27.024 212.643, 26.244 213.423 C 26.039 213.628, 27.264 216.407, 28.967 219.597 C 31.609 224.548, 31.969 226.067, 31.424 229.950 C 31.073 232.452, 29.949 235.963, 28.927 237.750 C 26.709 241.626, 27.777 241.918, 33.500 239 C 35.658 237.900, 38.285 237, 39.339 237 C 41.025 237, 41.176 237.497, 40.594 241.135 C 40.231 243.409, 39.048 246.394, 37.967 247.770 C 35.214 251.269, 35.501 252.175, 39.250 251.813 C 42.419 251.508, 42.508 251.370, 42.802 246.250 C 42.969 243.363, 43.419 241.020, 43.802 241.045 C 44.186 241.070, 46.145 243.726, 48.155 246.947 C 52.499 253.907, 60.962 261, 64.923 261 C 68.997 261, 69.128 260.271, 65.954 255.266 C 62.627 250.020, 60.261 243.412, 59.116 236.169 C 57.758 227.582, 59.542 228.460, 61.767 237.476 C 63.725 245.407, 66.998 252, 68.978 252 C 69.440 252, 69.190 249.637, 68.421 246.750 C 67.653 243.863, 67.018 239.256, 67.012 236.513 L 67 231.527 70.562 236.816 C 73.994 241.913, 80.184 246.923, 80.797 245.101 C 80.961 244.615, 80.404 242.706, 79.560 240.859 L 78.026 237.500 78.606 241 L 79.186 244.500 75.106 240.498 C 72.687 238.126, 70.308 234.458, 69.263 231.490 C 68.293 228.737, 67.100 226.414, 66.612 226.328 C 66.123 226.241, 65.308 225.570, 64.801 224.835 C 64.192 223.954, 64.080 224.529, 64.470 226.526 C 64.795 228.190, 65.226 233.140, 65.428 237.526 C 65.787 245.319, 65.762 245.422, 64.312 242.048 C 63.497 240.149, 62.428 236.132, 61.938 233.122 C 61.448 230.111, 60.582 227.360, 60.013 227.008 C 58.491 226.068, 62.565 222.696, 69.500 219.158 C 72.800 217.474, 75.148 216.075, 74.717 216.048 C 73.518 215.975, 63.803 221.033, 61.132 223.121 C 54.649 228.191, 57.658 219.879, 67.033 206.816 C 73.065 198.413, 79.335 188.002, 78.729 187.396 C 78.461 187.128, 76.781 189.517, 74.995 192.704 M 14.328 194.500 C 14.333 198.350, 14.513 199.802, 14.730 197.728 C 14.946 195.653, 14.943 192.503, 14.722 190.728 C 14.501 188.952, 14.324 190.650, 14.328 194.500 M 399.272 192 C 399.272 194.475, 399.467 195.488, 399.706 194.250 C 399.944 193.012, 399.944 190.988, 399.706 189.750 C 399.467 188.512, 399.272 189.525, 399.272 192 M 210.676 193.115 C 211.198 198.086, 210.397 199.467, 200.660 210.381 L 194.819 216.928 197.689 221.200 C 200.978 226.099, 205.054 228.072, 208.035 226.210 C 210.446 224.704, 212 224.661, 212 226.099 C 212 227.505, 206.160 232.983, 203.518 234.055 C 202.071 234.642, 201.948 234.891, 203.084 234.937 C 205.213 235.022, 213 227.732, 213 225.654 C 213 223.846, 209.525 223.341, 208.500 225 C 207.585 226.481, 203.749 226.213, 201.299 224.497 C 200.119 223.670, 198.629 221.407, 197.989 219.468 C 196.828 215.950, 196.844 215.922, 204.413 207.437 C 210.995 200.059, 211.998 198.440, 211.985 195.216 C 211.976 193.172, 211.575 190.877, 211.092 190.115 C 210.546 189.252, 210.389 190.382, 210.676 193.115 M 120.060 201.674 C 119.402 204.287, 117.316 209.776, 115.424 213.871 C 113.532 217.966, 112.118 221.452, 112.283 221.616 C 112.447 221.780, 114.588 220.112, 117.041 217.908 C 119.637 215.574, 120.351 214.596, 118.750 215.565 C 115.495 217.536, 115.253 216.381, 117.960 211.792 C 119.935 208.445, 122.598 198.264, 121.726 197.393 C 121.468 197.135, 120.718 199.061, 120.060 201.674 M 246.015 199.750 C 246.027 201.134, 246.213 201.212, 246.904 200.122 C 248.428 197.714, 249.994 199.958, 250.175 204.809 L 250.349 209.500 250.736 205.176 C 251.132 200.740, 249.850 198, 247.378 198 C 246.620 198, 246.007 198.787, 246.015 199.750 M 269.500 203 C 270.353 204.650, 271.490 206, 272.026 206 C 272.562 206, 273 206.480, 273 207.067 C 273 207.695, 272.073 207.874, 270.750 207.502 C 268.989 207.006, 268.826 207.097, 270 207.919 C 271.688 209.101, 275 209.363, 275 208.314 C 275 207.937, 273.988 206.532, 272.750 205.192 L 270.500 202.754 274.710 204.877 C 281.135 208.117, 281.063 207.410, 274.570 203.500 C 271.373 201.575, 268.576 200, 268.353 200 C 268.131 200, 268.647 201.350, 269.500 203 M 15.071 203 C 14.992 204.706, 20.618 217, 21.478 217 C 21.787 217, 21.078 215.112, 19.900 212.805 C 18.723 210.497, 17.171 207.010, 16.450 205.055 C 15.730 203.100, 15.110 202.175, 15.071 203 M 245.395 205.564 C 245.041 206.974, 245.190 209.111, 245.727 210.314 C 246.522 212.093, 246.684 211.617, 246.602 207.750 C 246.546 205.138, 246.396 203, 246.269 203 C 246.142 203, 245.749 204.154, 245.395 205.564 M 296.645 207.973 C 297.347 211.485, 298.313 211.441, 286.501 208.436 C 283.752 207.736, 281.346 207.321, 281.154 207.513 C 280.962 207.704, 282.762 208.388, 285.153 209.031 C 287.544 209.675, 290.534 210.606, 291.797 211.100 C 295.994 212.744, 298 212.226, 298 209.500 C 298 208.125, 298.034 206.674, 298.075 206.275 C 298.116 205.876, 297.670 205.390, 297.084 205.195 C 296.396 204.965, 296.240 205.951, 296.645 207.973 M 324 207.969 C 324 208.501, 324.634 208.694, 325.410 208.396 C 326.185 208.099, 328.210 208.574, 329.910 209.453 C 331.609 210.332, 333 210.826, 333 210.551 C 333 209.745, 327.241 207, 325.550 207 C 324.697 207, 324 207.436, 324 207.969 M 300.035 208.849 C 299.994 210.437, 305.696 216.003, 307.356 215.993 C 307.985 215.990, 307.180 215.117, 305.567 214.054 C 303.955 212.990, 302.058 211.081, 301.353 209.810 C 300.648 208.540, 300.055 208.107, 300.035 208.849 M 265.035 213.118 C 263.275 214.582, 261.510 215.068, 258.869 214.816 C 256.834 214.622, 255.382 214.809, 255.643 215.232 C 256.728 216.988, 262.965 215.933, 265.694 213.532 C 269.074 210.558, 268.525 210.214, 265.035 213.118 M 87.458 213.751 C 86.857 214.183, 86.701 215.768, 87.090 217.500 C 87.760 220.484, 87.764 220.486, 87.882 217.809 C 88.021 214.632, 89.821 213.169, 91.188 215.122 C 91.981 216.255, 92.079 216.233, 91.743 215 C 91.279 213.296, 89.011 212.635, 87.458 213.751 M 145.500 217.581 C 142.750 220.051, 136.729 224.643, 132.119 227.786 C 127.510 230.929, 123.144 233.934, 122.417 234.465 C 121.691 234.995, 120.869 235.203, 120.592 234.926 C 120.021 234.355, 122.310 227.327, 124.597 222.630 L 126.120 219.500 124.214 221.872 C 122.605 223.874, 122.212 223.995, 121.696 222.649 C 121.044 220.952, 124.662 217.673, 126.163 218.601 C 126.623 218.885, 127 218.593, 127 217.952 C 127 216.516, 125.370 217.110, 119.983 220.511 C 116.172 222.916, 115.966 223.254, 117.583 224.437 C 119.204 225.623, 118.992 225.993, 115.059 228.843 C 110.827 231.908, 108.392 232.658, 100.500 233.325 C 97.330 233.594, 97.642 233.694, 102 233.810 C 108.233 233.976, 114.847 231.462, 119.250 227.254 C 122.445 224.200, 122.520 224.400, 120.453 230.485 C 118.880 235.118, 119.243 237.504, 121.395 236.679 C 122.050 236.427, 127.405 232.571, 133.293 228.111 C 143.736 220.199, 145.801 218.896, 144.465 221.057 C 141.715 225.507, 151.044 232.114, 159.717 231.859 L 164.500 231.718 159.500 231.085 C 151.809 230.111, 146.573 227.139, 146.161 223.514 C 145.840 220.689, 145.920 220.615, 147.661 222.146 C 148.672 223.036, 150.625 224.037, 152 224.372 C 154.344 224.942, 154.329 224.900, 151.759 223.694 C 150.252 222.986, 148.370 221.528, 147.577 220.454 C 146.278 218.692, 146.394 218.229, 148.755 215.750 C 152.652 211.658, 151.159 212.498, 145.500 217.581 M 247.004 213.527 C 246.996 215.635, 250.370 219.257, 253.599 220.606 C 258.018 222.452, 264.148 222.376, 266.559 220.445 C 268.434 218.943, 268.426 218.926, 266.316 219.945 C 260.820 222.600, 251.799 220.358, 248.910 215.619 C 247.863 213.904, 247.006 212.962, 247.004 213.527 M 320.551 214.944 C 319.583 216.013, 317.826 217.077, 316.646 217.308 C 314.554 217.717, 314.552 217.731, 316.576 217.864 C 317.717 217.939, 319.708 216.875, 321 215.500 C 322.292 214.125, 323.115 213, 322.829 213 C 322.544 213, 321.518 213.875, 320.551 214.944 M 76.070 219.691 C 76.123 223.298, 76.355 224, 77 222.500 C 78.194 219.721, 78.194 216.238, 77 215.500 C 76.383 215.119, 76.027 216.724, 76.070 219.691 M 168.234 218.029 C 166.438 219.663, 165.347 221, 165.810 221 C 166.273 221, 167.713 219.870, 169.010 218.489 C 170.764 216.623, 171.574 216.302, 172.169 217.239 C 172.746 218.148, 172.974 218.011, 172.985 216.750 C 173.006 214.322, 172.017 214.588, 168.234 218.029 M 242.438 219.620 C 241.482 224.915, 240.921 225.612, 239.347 223.460 C 238.185 221.871, 238.027 222.845, 238.196 230.559 C 238.375 238.735, 238.422 238.926, 238.740 232.798 C 239.017 227.493, 239.387 226.211, 240.517 226.645 C 241.560 227.045, 242.125 226.072, 242.610 223.040 L 243.274 218.888 245.887 221.380 C 247.324 222.751, 249.767 224.351, 251.315 224.936 C 254.590 226.174, 262.393 226.179, 266 224.946 C 267.602 224.399, 266.108 224.293, 261.839 224.653 C 253.218 225.379, 248.671 223.881, 245.548 219.286 L 243.139 215.741 242.438 219.620 M 271.507 216.989 C 271.157 217.555, 271.558 217.723, 272.448 217.382 C 274.543 216.578, 274.433 218.828, 272.250 221.421 C 270.502 223.498, 270.502 223.498, 272.750 221.595 C 275.270 219.462, 275.770 216, 273.559 216 C 272.766 216, 271.843 216.445, 271.507 216.989 M 92.963 218.740 C 94.479 221.837, 98.882 223.892, 105.178 224.440 C 108.105 224.696, 110.725 224.940, 111 224.984 C 111.275 225.028, 110.626 225.724, 109.559 226.532 C 108.491 227.339, 108.099 228, 108.686 228 C 110.157 228, 112.439 225.105, 111.616 224.283 C 111.249 223.915, 108.440 223.468, 105.374 223.289 C 99.192 222.928, 96.392 221.813, 93.683 218.633 L 91.866 216.500 92.963 218.740 M 326.566 220.750 C 324.405 223.512, 324.232 223.976, 325.909 222.511 C 327.914 220.760, 330.558 217, 329.785 217 C 329.628 217, 328.180 218.688, 326.566 220.750 M 399.328 223.500 C 399.333 227.350, 399.513 228.802, 399.730 226.728 C 399.946 224.653, 399.943 221.503, 399.722 219.728 C 399.501 217.952, 399.324 219.650, 399.328 223.500 M 23.210 219.507 C 23.600 220.112, 24.359 221.708, 24.896 223.054 C 25.514 224.600, 25.897 224.897, 25.937 223.861 C 25.971 222.959, 25.212 221.363, 24.250 220.314 C 23.288 219.264, 22.819 218.901, 23.210 219.507 M 169.500 222.670 C 168.276 224.130, 165.755 225.390, 163 225.918 C 160.148 226.465, 159.452 226.821, 161.101 226.890 C 164.989 227.054, 169.904 225.049, 171.102 222.809 C 172.625 219.963, 171.827 219.893, 169.500 222.670 M 300 220.806 C 300 221.341, 300.788 222.637, 301.750 223.686 C 302.712 224.736, 303.147 225.058, 302.715 224.402 C 302.283 223.747, 302.058 222.657, 302.215 221.980 C 302.372 221.304, 301.938 220.544, 301.250 220.292 C 300.563 220.040, 300 220.271, 300 220.806 M 334.278 221.250 C 333.746 221.938, 332.930 223.175, 332.464 224 C 331.741 225.279, 331.858 225.304, 333.260 224.167 C 334.751 222.959, 334.938 223.474, 335.257 229.667 L 335.608 236.500 335.804 228.250 C 335.912 223.713, 335.830 220, 335.622 220 C 335.415 220, 334.810 220.563, 334.278 221.250 M 182.886 223.222 C 181.810 225.243, 181.849 225.354, 183.239 224.208 C 184.519 223.153, 184.900 223.153, 185.324 224.208 C 185.663 225.054, 185.869 224.916, 185.921 223.809 C 186.048 221.098, 184.208 220.742, 182.886 223.222 M 216.232 225 C 216.232 226.925, 216.438 227.713, 216.689 226.750 C 216.941 225.787, 216.941 224.213, 216.689 223.250 C 216.438 222.287, 216.232 223.075, 216.232 225 M 83 225.552 C 83 226.820, 89.789 232.725, 90.286 231.889 C 90.414 231.675, 88.827 229.859, 86.759 227.853 C 84.692 225.847, 83 224.812, 83 225.552 M 313.269 224.693 C 314.242 224.947, 315.592 224.930, 316.269 224.656 C 316.946 224.382, 316.150 224.175, 314.500 224.195 C 312.850 224.215, 312.296 224.439, 313.269 224.693 M 192.464 226.059 C 192.099 226.648, 190.413 226.871, 188.655 226.561 C 186.219 226.132, 185.956 226.216, 187.500 226.932 C 190.671 228.402, 194 228.181, 194 226.500 C 194 224.744, 193.386 224.567, 192.464 226.059 M 328 227.089 C 325.846 228.851, 325.804 228.986, 327.694 228.062 C 328.901 227.472, 330.165 226.542, 330.503 225.995 C 331.406 224.534, 330.800 224.799, 328 227.089 M 176.732 227.915 C 176.003 230.705, 178.159 230.622, 180.595 227.767 C 182.310 225.757, 182.318 225.676, 180.674 226.953 C 179.217 228.084, 178.689 228.114, 178.063 227.101 C 177.498 226.187, 177.125 226.416, 176.732 227.915 M 305.506 227.010 C 306.351 228.377, 315.852 231.019, 319.432 230.883 C 321.548 230.802, 320.865 230.494, 317.231 229.889 C 314.333 229.406, 310.379 228.350, 308.444 227.541 C 306.509 226.733, 305.187 226.493, 305.506 227.010 M 101.762 228.707 C 103.006 228.946, 104.806 228.937, 105.762 228.687 C 106.718 228.437, 105.700 228.241, 103.500 228.252 C 101.300 228.263, 100.518 228.468, 101.762 228.707 M 77.272 233 C 77.272 235.475, 77.467 236.488, 77.706 235.250 C 77.944 234.012, 77.944 231.988, 77.706 230.750 C 77.467 229.512, 77.272 230.525, 77.272 233 M 83.252 232.500 C 83.263 234.700, 83.468 235.482, 83.707 234.238 C 83.946 232.994, 83.937 231.194, 83.687 230.238 C 83.437 229.282, 83.241 230.300, 83.252 232.500 M 169.311 230.750 C 169.247 231.713, 168.873 233.512, 168.480 234.750 C 167.949 236.426, 168.164 237, 169.324 237 C 170.181 237, 171.160 236.550, 171.500 236 C 171.840 235.450, 174.341 235, 177.059 235 C 181.783 235, 182 235.121, 181.996 237.750 C 181.994 239.262, 181.122 241.928, 180.058 243.673 C 177.730 247.490, 168.773 254.277, 161.666 257.610 C 158.825 258.942, 157.625 259.742, 159 259.387 C 163.104 258.330, 169.178 255.018, 174.601 250.879 C 180.004 246.756, 183.414 240.966, 182.838 236.891 C 182.523 234.659, 182.083 234.501, 176.250 234.510 C 172.048 234.516, 170 234.126, 170 233.319 C 170 232.658, 170.450 231.840, 171 231.500 C 172.423 230.620, 172.238 229, 170.714 229 C 170.007 229, 169.376 229.787, 169.311 230.750 M 187.500 237.294 C 187.500 243.412, 187.055 246.268, 185.802 248.179 C 183.356 251.912, 185.145 253.036, 190.370 251.050 L 192.870 250.099 190.735 245.046 C 188.896 240.694, 188.767 239.534, 189.800 236.676 C 191.413 232.217, 191.311 230.333, 189.418 229.607 C 188.548 229.273, 187.761 229, 187.668 229 C 187.576 229, 187.500 232.732, 187.500 237.294 M 188.710 233 C 188.998 234.100, 189.406 235, 189.617 235 C 189.827 235, 190 234.100, 190 233 C 190 231.900, 189.592 231, 189.094 231 C 188.595 231, 188.423 231.900, 188.710 233 M 274.380 234.452 C 273.676 236.286, 274.700 238, 276.500 238 C 278.558 238, 279.338 236.112, 277.964 234.456 C 276.425 232.603, 275.090 232.601, 274.380 234.452 M 397.636 237.636 C 397.283 240.216, 397.186 242.520, 397.422 242.755 C 397.657 242.991, 398.163 241.096, 398.545 238.545 C 398.928 235.995, 399.025 233.691, 398.760 233.427 C 398.496 233.162, 397.990 235.057, 397.636 237.636 M 23.251 235.149 C 22.619 235.781, 20.396 236.576, 18.312 236.914 C 12.763 237.816, 12.848 240.264, 18.524 243.012 C 23.100 245.227, 28.297 245.358, 33.432 243.388 C 36.432 242.237, 34.802 245.191, 31.025 247.750 C 29.199 248.988, 28.205 250, 28.817 250 C 30.519 250, 37 243.978, 37 242.396 C 37 240.681, 37.333 240.667, 31.605 242.619 C 26.355 244.408, 21.189 244.009, 17.394 241.523 C 14.176 239.414, 14.375 238, 17.889 238 C 19.478 238, 21.841 237.115, 23.139 236.033 C 24.438 234.952, 25.253 234.052, 24.950 234.033 C 24.647 234.015, 23.883 234.517, 23.251 235.149 M 194.686 238.250 C 195.508 242.456, 197.824 246, 199.750 246 C 200.774 246, 200.448 245.353, 198.751 244.019 C 197.366 242.929, 196.036 240.701, 195.797 239.068 C 195.420 236.504, 195.712 236.043, 197.930 235.699 C 200.123 235.358, 200.027 235.278, 197.275 235.150 C 194.153 235.005, 194.070 235.104, 194.686 238.250 M 84.572 238.985 C 84.963 240.351, 87.034 243.839, 89.173 246.735 C 91.313 249.631, 92.711 252.047, 92.282 252.105 C 89.335 252.503, 83.014 252.314, 80.500 251.752 L 77.500 251.082 80.500 252.496 C 83.775 254.039, 94.564 254.515, 95.405 253.153 C 95.693 252.687, 94.550 251, 92.864 249.403 C 91.178 247.806, 88.463 244.250, 86.829 241.500 C 85.196 238.750, 84.180 237.618, 84.572 238.985 M 145 238.500 C 145 239.325, 145.450 240, 146 240 C 146.550 240, 147 239.325, 147 238.500 C 147 237.675, 146.550 237, 146 237 C 145.450 237, 145 237.675, 145 238.500 M 334.145 240.500 C 334.049 242.700, 333.292 247.378, 332.463 250.895 C 331.634 254.412, 331.152 257.485, 331.392 257.725 C 332.252 258.586, 335.136 243.177, 334.733 239.875 C 334.331 236.593, 334.315 236.610, 334.145 240.500 M 239 240.313 C 239 240.485, 240.463 241.948, 242.250 243.563 L 245.500 246.500 242.563 243.250 C 239.825 240.221, 239 239.540, 239 240.313 M 187.760 246.475 C 187.384 248.444, 187.688 249, 189.139 249 C 191.324 249, 191.440 248.163, 189.590 245.725 C 188.338 244.075, 188.209 244.128, 187.760 246.475 M 202.656 248.455 C 203.098 252.459, 201.634 253.601, 193.500 255.601 C 190.750 256.277, 189.400 256.866, 190.500 256.909 C 196.294 257.140, 204 253.295, 204 250.174 C 204 249.340, 204.745 247.835, 205.655 246.829 C 207.217 245.103, 207.168 245, 204.793 245 C 202.516 245, 202.312 245.329, 202.656 248.455 M 280.355 246.518 C 279.006 250.033, 285.953 252.191, 292.750 250.370 C 297.625 249.063, 294.214 246.495, 286.190 245.431 C 281.795 244.848, 280.934 245.008, 280.355 246.518 M 282.459 247.067 C 281.477 248.655, 282.437 249.182, 287.320 249.733 C 293.007 250.374, 294.392 248.480, 289.276 247.060 C 284.506 245.735, 283.281 245.736, 282.459 247.067 M 38.200 249.051 C 37.115 250.789, 37.255 251, 39.492 251 C 42.233 251, 42.728 249.849, 40.709 248.173 C 39.750 247.378, 39.104 247.603, 38.200 249.051 M 70.710 248.624 C 69.724 249.609, 73.794 256.820, 76.003 258.002 C 78.793 259.495, 78.496 258.649, 75 255.154 C 72.111 252.264, 70.726 248.095, 73.155 249.595 C 73.870 250.038, 74.038 249.870, 73.595 249.155 C 72.807 247.878, 71.665 247.668, 70.710 248.624 M 394.144 250.750 C 393.053 253.300, 393.078 253.359, 394.484 251.559 C 395.318 250.491, 396 249.254, 396 248.809 C 396 247.289, 395.322 247.999, 394.144 250.750 M 23.250 250.662 C 22.563 250.940, 22 251.601, 22 252.132 C 22 253.257, 29.794 256.979, 32 256.908 C 32.825 256.881, 31.711 256.204, 29.524 255.404 C 24.399 253.528, 23.055 252.209, 25.008 250.974 C 26.563 249.991, 25.417 249.788, 23.250 250.662 M 133.750 250.668 C 132.787 250.931, 132 251.815, 132 252.631 C 132 253.758, 133.021 254.041, 136.250 253.807 C 139.224 253.592, 140.500 253.050, 140.500 252 C 140.500 250.461, 137.020 249.775, 133.750 250.668 M 134.500 252 C 134.149 252.567, 134.990 253, 136.441 253 C 137.848 253, 139 252.550, 139 252 C 139 251.450, 138.127 251, 137.059 251 C 135.991 251, 134.840 251.450, 134.500 252 M 255 251.831 C 255.825 252.341, 257.625 253.059, 259 253.427 C 260.737 253.892, 261.042 253.813, 260 253.169 C 259.175 252.659, 257.375 251.941, 256 251.573 C 254.263 251.108, 253.958 251.187, 255 251.831 M 174.131 255.342 C 173.519 256.080, 173.313 256.980, 173.675 257.342 C 174.970 258.636, 176.776 257.966, 177.290 256 C 177.893 253.693, 175.852 253.268, 174.131 255.342 M 390.500 256 C 388.872 257.799, 388.857 258, 390.345 258 C 391.255 258, 391.983 258.337, 391.961 258.750 C 391.910 259.736, 383.691 263.659, 378 265.414 C 375.010 266.336, 374.277 266.835, 375.816 266.901 C 378.431 267.013, 392.347 260.865, 393.424 259.122 C 393.811 258.497, 393.412 257.712, 392.538 257.376 C 391.309 256.905, 391.209 256.453, 392.097 255.383 C 393.880 253.234, 392.531 253.755, 390.500 256 M 43.507 255.989 C 43.154 256.560, 43.566 256.720, 44.485 256.367 C 45.359 256.032, 46.881 256.487, 47.867 257.380 C 49.843 259.168, 61.217 264.031, 63.230 263.948 C 63.929 263.919, 62.025 262.949, 59 261.793 C 55.975 260.636, 51.821 258.635, 49.770 257.345 C 45.673 254.769, 44.427 254.500, 43.507 255.989 M 184.269 255.693 C 185.242 255.947, 186.592 255.930, 187.269 255.656 C 187.946 255.382, 187.150 255.175, 185.500 255.195 C 183.850 255.215, 183.296 255.439, 184.269 255.693 M 248 256.941 C 248 257.459, 248.450 258.160, 249 258.500 C 249.550 258.840, 250 258.416, 250 257.559 C 250 256.702, 249.550 256, 249 256 C 248.450 256, 248 256.423, 248 256.941 M 268.500 257 C 271.249 258.181, 272.828 258.181, 271 257 C 270.175 256.467, 268.825 256.055, 268 256.086 C 267.011 256.122, 267.181 256.433, 268.500 257 M 36.250 257.689 C 37.212 257.941, 38.788 257.941, 39.750 257.689 C 40.712 257.438, 39.925 257.232, 38 257.232 C 36.075 257.232, 35.288 257.438, 36.250 257.689 M 182.136 259.050 C 182.061 260.453, 182.526 262.126, 183.170 262.770 C 184.062 263.662, 183.766 264.168, 181.920 264.906 C 180.589 265.438, 180.175 265.895, 181 265.921 C 183.690 266.008, 185.496 264.304, 184.282 262.826 C 183.682 262.097, 182.985 260.375, 182.732 259 L 182.272 256.500 182.136 259.050 M 170.660 259.265 C 171.849 259.944, 174.324 261.563, 176.160 262.862 C 178.938 264.826, 178.827 264.622, 175.500 261.649 C 173.300 259.683, 170.825 258.065, 170 258.052 C 169.038 258.038, 169.275 258.473, 170.660 259.265 M 164.973 260.747 C 163.613 261.708, 159.575 263.496, 156 264.721 C 152.425 265.946, 150.271 266.960, 151.212 266.974 C 153.804 267.013, 163.171 263.236, 166 261.011 C 169.103 258.570, 168.333 258.372, 164.973 260.747 M 283.500 260 C 280.889 260.664, 281.149 260.777, 285.500 260.866 C 289.065 260.940, 290.069 260.691, 289 260 C 288.175 259.467, 287.275 259.077, 287 259.134 C 286.725 259.190, 285.150 259.580, 283.500 260 M 322.264 260.718 C 323.784 260.947, 326.034 260.941, 327.264 260.704 C 328.494 260.467, 327.250 260.279, 324.500 260.286 C 321.750 260.294, 320.744 260.488, 322.264 260.718 M 297.750 261.743 C 301.738 261.932, 308.262 261.932, 312.250 261.743 C 316.238 261.553, 312.975 261.397, 305 261.397 C 297.025 261.397, 293.762 261.553, 297.750 261.743 M 136.500 264 L 132.500 264.716 136 264.740 C 137.925 264.753, 140.850 264.420, 142.500 264 C 145.151 263.326, 145.209 263.239, 143 263.260 C 141.625 263.273, 138.700 263.606, 136.500 264 M 66.269 264.693 C 67.242 264.947, 68.592 264.930, 69.269 264.656 C 69.946 264.382, 69.150 264.175, 67.500 264.195 C 65.850 264.215, 65.296 264.439, 66.269 264.693 M 74.083 264.356 C 74.313 264.552, 76.075 265.002, 78 265.355 C 80.462 265.807, 81.055 265.706, 80 265.014 C 78.644 264.125, 73.092 263.508, 74.083 264.356 M 98.250 264.689 C 99.213 264.941, 100.787 264.941, 101.750 264.689 C 102.713 264.438, 101.925 264.232, 100 264.232 C 98.075 264.232, 97.287 264.438, 98.250 264.689 M 111.292 265.742 C 115.027 265.935, 120.877 265.934, 124.292 265.739 C 127.706 265.545, 124.650 265.387, 117.500 265.389 C 110.350 265.390, 107.556 265.550, 111.292 265.742 M 325.250 265.689 C 327.307 266.227, 327.352 266.474, 325.897 269.193 C 324.579 271.654, 326.096 273.018, 330 272.883 C 332.268 272.804, 332.202 272.700, 329.293 271.766 C 326.137 270.752, 326.110 270.689, 327.568 267.868 C 329.032 265.037, 329.016 265.001, 326.276 265.116 C 324.584 265.187, 324.184 265.411, 325.250 265.689 M 82.206 266.539 C 83.131 267.464, 93.944 269.993, 96.500 269.882 C 97.600 269.834, 96.025 269.247, 93 268.578 C 89.975 267.908, 86.151 267.018, 84.502 266.599 C 82.853 266.180, 81.820 266.153, 82.206 266.539 M 311.762 267.707 C 313.006 267.946, 314.806 267.937, 315.762 267.687 C 316.718 267.437, 315.700 267.241, 313.500 267.252 C 311.300 267.263, 310.518 267.468, 311.762 267.707 M 130.500 270 C 127.098 270.609, 126.949 270.729, 129.500 270.800 C 131.150 270.847, 134.300 270.512, 136.500 270.057 C 139.811 269.372, 139.983 269.235, 137.500 269.257 C 135.850 269.272, 132.700 269.606, 130.500 270 M 101.500 271.073 C 104.469 271.756, 127.427 272.162, 125.500 271.497 C 124.950 271.307, 118.650 270.979, 111.500 270.767 C 104.350 270.556, 99.850 270.693, 101.500 271.073 M 334.269 273.693 C 335.242 273.947, 336.592 273.930, 337.269 273.656 C 337.946 273.382, 337.150 273.175, 335.500 273.195 C 333.850 273.215, 333.296 273.439, 334.269 273.693" stroke="none" fill="#eadaa3" fill-rule="evenodd"/><path d="M 301.500 92.631 C 292.220 93.932, 277.477 97.578, 270.500 100.298 C 263.082 103.189, 261.658 104.255, 250.917 114.958 C 239.657 126.177, 239.219 126.780, 235.241 136.508 C 229.447 150.677, 226.278 160.489, 223.519 172.801 C 216.397 204.588, 215.209 234.727, 220.566 247.760 C 222.547 252.578, 229.880 260.763, 234.883 263.739 C 238.311 265.778, 240.982 266.445, 247.133 266.802 C 251.460 267.052, 255 267.017, 255 266.723 C 255 266.429, 253.425 264.304, 251.500 262 C 249.575 259.696, 248 257.395, 248 256.886 C 248 255.767, 252.078 256.714, 257.500 259.094 C 259.700 260.059, 263.525 261.119, 266 261.448 C 268.475 261.778, 272.525 262.465, 275 262.975 C 290.293 266.124, 314.426 267.419, 324.341 265.623 L 329.183 264.745 327.640 267.729 L 326.097 270.713 329.915 271.856 C 335.569 273.550, 338.033 273.302, 348.341 270 C 353.492 268.350, 358.589 267, 359.666 267 C 360.744 267, 362.807 265.762, 364.250 264.250 C 367.464 260.881, 371.978 251.401, 371.987 248 C 371.992 245.825, 371.096 246.482, 365.087 253.063 C 356.340 262.640, 346.287 268.113, 333.289 270.376 C 328.795 271.158, 328.506 269.817, 332.321 265.881 C 336.906 261.150, 337.841 254.401, 338.611 220.500 C 339.289 190.657, 338.479 180.543, 334.012 163.046 C 331.661 153.841, 327.113 141.708, 327.059 144.500 C 327.038 145.600, 328.109 153.475, 329.440 162 C 332.410 181.030, 335.220 205.114, 334.548 205.786 C 333.654 206.680, 325.262 199.125, 321.584 194.115 C 319.607 191.421, 317.302 187.574, 316.464 185.568 C 314.236 180.236, 312.821 182.060, 313.544 189.331 C 314.779 201.758, 314.906 208.940, 313.900 209.562 C 311.626 210.967, 294.695 196.933, 292.859 192.122 C 292.360 190.814, 291.023 185.414, 289.888 180.122 C 286.461 164.152, 284.222 166.022, 285.988 183.379 C 287.067 193.987, 288.770 200.474, 291.618 204.820 C 292.466 206.115, 292.944 207.389, 292.681 207.652 C 291.879 208.455, 280.879 201.935, 274.225 196.713 C 267.498 191.433, 263.162 185.878, 259.985 178.465 C 258.349 174.648, 258.003 171.607, 258.017 161.167 C 258.027 153.913, 258.662 145.538, 259.503 141.569 C 261.087 134.092, 260.827 132.544, 258.497 135.573 C 255.072 140.025, 253.500 148.183, 253.502 161.500 C 253.504 173.800, 253.652 174.769, 256.252 179.492 C 257.763 182.238, 259 185.513, 259 186.771 C 259 188.028, 260.379 191.790, 262.065 195.130 C 263.751 198.470, 264.980 201.354, 264.795 201.539 C 264.396 201.937, 248.426 192.826, 246.968 191.368 C 245.512 189.912, 242 170.890, 242 164.465 C 242 158.367, 240.761 157.378, 239.098 162.149 C 237.530 166.648, 237.742 175.450, 239.577 181.988 C 241.075 187.329, 241.051 187.913, 239.077 193.772 C 237.935 197.163, 236.993 202.089, 236.985 204.718 C 236.964 211.039, 235.296 208.541, 234.506 201.009 C 233.275 189.263, 232.840 186.981, 231.936 187.540 C 231.421 187.858, 231 192.391, 231 197.614 C 231 205.103, 231.440 208.075, 233.081 211.679 C 234.976 215.837, 235.068 216.953, 234.105 224.110 C 232.384 236.895, 234.261 242.911, 242.906 252.324 C 245.331 254.965, 245.386 255.232, 243.748 256.436 C 242.091 257.653, 242.109 257.869, 244.070 260.362 C 246.005 262.822, 246.022 263, 244.323 262.994 C 238.406 262.976, 230.566 258.532, 225.831 252.512 C 222.435 248.195, 219.896 232.721, 219.758 215.500 C 219.644 201.431, 219.896 199.290, 223.814 181 C 226.112 170.275, 228.924 159.025, 230.063 156 C 238.414 133.826, 248.454 119.107, 260.500 111.376 C 277.129 100.704, 287.105 97.614, 305 97.594 C 317.546 97.580, 323.933 98.511, 336 102.111 C 355.483 107.923, 376.291 125.979, 382.938 142.842 C 385.185 148.543, 387.989 160.222, 391.140 177 C 394.848 196.748, 394.680 233.114, 390.809 248.768 C 389.240 255.112, 382.267 260.973, 372.314 264.313 C 365.052 266.750, 364.782 266.936, 368.500 266.957 C 373.184 266.982, 380.578 264.926, 387.211 261.753 C 392.067 259.431, 393.255 258, 390.326 258 C 388.873 258, 388.924 257.702, 390.709 255.750 C 396.951 248.924, 399.249 236.479, 399.345 209 C 399.421 187.120, 398.927 183.071, 393.859 164 C 389.207 146.495, 385.475 136.589, 381.108 130.159 C 376.275 123.042, 366.955 113.441, 360.705 109.141 C 354.123 104.613, 336.490 96.285, 330 94.640 C 324.181 93.165, 306.553 91.922, 301.500 92.631 M 105 101.482 C 89.433 104.443, 73.056 109.858, 63 115.370 C 54.029 120.288, 51.003 123.022, 43.917 132.615 C 38.443 140.025, 36.194 142.223, 31.895 144.365 C 26.296 147.155, 18.539 147.894, 14.959 145.978 C 13.348 145.116, 12.947 145.364, 12.393 147.569 C 10.826 153.815, 16.522 162.354, 23.140 163.678 C 24.713 163.993, 26 164.498, 26 164.802 C 26 165.105, 24.429 167.637, 22.509 170.427 C 14.004 182.789, 12.625 197.369, 18.737 210.313 C 20.506 214.060, 22.864 218.283, 23.977 219.698 C 27.051 223.606, 26.815 232.276, 23.545 235.545 C 22.014 237.077, 19.946 238, 18.045 238 C 14.387 238, 14.131 239.385, 17.394 241.523 C 21.189 244.009, 26.355 244.408, 31.605 242.619 C 37.313 240.674, 37 240.692, 37 242.313 C 37 244.497, 31.551 249.009, 27.594 250.102 C 22.915 251.394, 23.387 253.009, 29.083 255.196 C 34.220 257.168, 41.243 257.490, 43.832 255.873 C 45.280 254.968, 46.414 255.234, 49.568 257.216 C 56.225 261.400, 64.987 264.156, 72.500 264.430 C 76.350 264.571, 80.710 265.185, 82.189 265.795 C 87.616 268.033, 106.348 271, 115.057 271 C 132.395 271, 152.355 267.024, 163.654 261.320 L 170.807 257.708 175.257 261.354 C 179.484 264.818, 181.924 265.743, 183.274 264.392 C 183.609 264.058, 183.393 263.001, 182.795 262.043 C 182.197 261.085, 181.992 259.168, 182.340 257.782 C 182.941 255.388, 183.309 255.267, 189.736 255.352 C 198.552 255.468, 202.905 253.352, 202.781 249.009 C 202.712 246.588, 202.260 246, 200.463 246 C 197.913 246, 195.602 242.935, 194.710 238.372 C 194.102 235.262, 194.126 235.242, 198.906 234.783 C 202.071 234.479, 204.927 233.395, 207.269 231.608 C 212.709 227.459, 213.610 223.265, 208.471 226.015 C 204.823 227.968, 201.125 226.317, 197.689 221.200 L 194.819 216.928 200.660 210.381 C 208.821 201.233, 211 197.966, 211 194.875 C 211 188.573, 201.208 164.566, 194.867 155.320 C 193.290 153.021, 192 150.883, 192 150.570 C 192 150.256, 194.039 150, 196.532 150 C 202.422 150, 206.938 148.051, 210.297 144.059 C 213.448 140.314, 213.665 137.054, 211.131 131.500 C 207.239 122.970, 197.597 116.450, 187.277 115.371 C 179.816 114.591, 177.575 116.524, 184.731 117.567 C 196.707 119.314, 202.949 126.090, 199.424 133.518 C 196.688 139.284, 191.119 141.192, 180.580 139.974 C 175.863 139.429, 174.571 141.392, 178.476 143.171 C 179.924 143.831, 183.447 147.501, 186.305 151.326 C 189.162 155.152, 192.551 159.681, 193.835 161.391 C 199.153 168.472, 207 187.932, 207 194.040 C 207 197.182, 206.333 198.343, 202.750 201.439 C 200.412 203.458, 196.860 206.733, 194.855 208.717 C 191.585 211.953, 191.151 212.128, 190.640 210.413 C 190.327 209.361, 190.301 210.907, 190.583 213.849 C 190.865 216.790, 191.805 220.971, 192.673 223.140 C 193.540 225.309, 193.990 227.343, 193.672 227.662 C 192.385 228.949, 186.256 226.888, 185.353 224.865 C 184.459 222.861, 184.291 222.930, 181.657 226.383 C 177.486 231.851, 175.970 231.246, 177.646 224.782 C 178.391 221.912, 179 217.435, 179 214.834 C 179 209.231, 174.658 194.791, 172.413 192.928 C 170.378 191.239, 171.405 186.911, 176.428 176 C 179.474 169.385, 179.339 155.809, 176.139 147 C 174.841 143.425, 173.386 140.080, 172.906 139.567 C 170.923 137.446, 170.972 140.272, 173.047 147.661 C 174.755 153.744, 175.125 157.068, 174.698 162.500 C 174.161 169.320, 169.082 185.713, 167.131 186.919 C 166.609 187.242, 165.427 189.392, 164.504 191.697 C 163.438 194.364, 160.104 198.460, 155.342 202.955 C 144.970 212.745, 131.040 224.374, 130.423 223.756 C 130.141 223.474, 132.002 218.576, 134.559 212.872 C 139.552 201.732, 141.951 193.598, 141.892 188 C 141.861 184.921, 141.224 185.823, 136.597 195.500 C 131.430 206.305, 131.171 206.636, 121.919 214.160 C 116.738 218.374, 112.384 221.708, 112.242 221.569 C 112.100 221.430, 113.538 217.953, 115.437 213.842 C 117.337 209.730, 119.849 202.671, 121.020 198.154 C 122.191 193.637, 123.787 188.718, 124.568 187.221 C 127.182 182.211, 126.049 182.746, 117.989 190.328 C 109.432 198.378, 98.356 204.770, 86 208.789 C 78.434 211.250, 70.783 212.652, 72.863 211.196 C 73.825 210.523, 73.884 210.128, 73.064 209.855 C 72.297 209.599, 73.091 206.856, 75.391 201.808 C 77.311 197.596, 79.168 192.429, 79.519 190.325 C 80.126 186.679, 79.954 186.828, 75.828 193.521 C 73.448 197.382, 69.475 203.390, 67 206.871 C 60.373 216.190, 56.523 223.587, 57.867 224.418 C 58.361 224.723, 59.830 224.140, 61.132 223.121 C 64.131 220.777, 72.959 216.297, 75.474 215.844 C 77.243 215.526, 77.398 216.252, 77.565 225.632 C 77.687 232.543, 78.308 237.239, 79.517 240.404 C 80.491 242.956, 81.090 245.243, 80.848 245.485 C 79.728 246.605, 73.776 241.589, 70.562 236.816 L 67 231.527 67.012 236.513 C 67.018 239.256, 67.653 243.863, 68.421 246.750 C 69.190 249.638, 69.440 252, 68.978 252 C 66.998 252, 63.725 245.407, 61.767 237.476 C 59.542 228.460, 57.758 227.582, 59.116 236.169 C 60.261 243.412, 62.627 250.020, 65.954 255.266 C 69.128 260.271, 68.997 261, 64.923 261 C 60.962 261, 52.499 253.907, 48.155 246.947 C 46.145 243.726, 44.186 241.070, 43.802 241.045 C 43.419 241.020, 42.969 243.363, 42.802 246.250 C 42.508 251.370, 42.419 251.508, 39.250 251.813 C 35.501 252.175, 35.214 251.269, 37.967 247.770 C 39.048 246.394, 40.231 243.409, 40.594 241.135 C 41.176 237.497, 41.025 237, 39.339 237 C 38.285 237, 35.658 237.900, 33.500 239 C 27.777 241.918, 26.709 241.626, 28.927 237.750 C 29.949 235.963, 31.073 232.452, 31.424 229.950 C 31.967 226.082, 31.609 224.548, 29.036 219.727 C 27.371 216.607, 25.050 210.560, 23.878 206.289 C 21.170 196.417, 21.695 185.806, 25.421 175.075 C 28.802 165.341, 28.727 163.846, 24.750 161.576 C 20.607 159.212, 15 153.959, 15 152.443 C 15 151.574, 16.008 151.547, 18.959 152.335 C 22.147 153.185, 24.045 153.041, 28.709 151.591 C 37.301 148.919, 44.382 141.251, 48.886 129.741 C 51.295 123.584, 69.775 114.422, 91.062 108.832 C 101.799 106.013, 105.141 105.567, 115.500 105.573 C 125.573 105.579, 128.544 105.957, 134 107.930 C 147.875 112.945, 157.819 118.902, 167.250 127.849 C 172.191 132.537, 173 132.995, 173 131.103 C 173 125.666, 166.807 118.913, 156.029 112.597 C 138.059 102.064, 121.222 98.397, 105 101.482 M 202.701 127.963 C 202.983 129.043, 202.218 131.983, 201.002 134.497 C 198.719 139.212, 193.364 143, 188.981 143 C 185.301 143, 187.837 144.799, 193.110 145.930 C 202.154 147.870, 210 144.092, 210 137.799 C 210 134.157, 205.542 126, 203.551 126 C 202.688 126, 202.376 126.721, 202.701 127.963 M 245.638 203.419 C 245.146 207.608, 245.441 209.863, 246.938 213.355 C 249.294 218.853, 252.580 221.157, 258.932 221.767 C 262.853 222.144, 264.582 221.743, 268.213 219.615 C 273.351 216.604, 274 216.471, 274 218.427 C 274 221.319, 269.149 223.782, 262.049 224.495 C 253.161 225.388, 248.748 223.995, 245.548 219.286 L 243.139 215.741 242.438 219.620 C 241.482 224.915, 240.921 225.612, 239.347 223.460 C 238.180 221.864, 238 222.804, 238 230.480 L 238 239.343 242.500 243.655 C 244.975 246.026, 249.137 249.041, 251.750 250.355 C 260.008 254.508, 278.171 260.107, 286.487 261.063 C 302.968 262.959, 329.322 261.703, 331.044 258.941 C 332.946 255.889, 335.041 243.526, 335.650 231.770 L 336.284 219.500 332.758 223.081 C 328.600 227.303, 323.348 230, 319.280 230 C 313.045 230, 300.151 224.529, 302.001 222.668 C 302.277 222.391, 304.963 222.802, 307.969 223.582 C 320.824 226.916, 326.787 224.683, 330.797 215.033 L 332.891 209.995 329.995 208.498 C 326.025 206.445, 324 206.609, 324 208.984 C 324 210.076, 322.747 212.371, 321.216 214.084 C 319.045 216.514, 317.614 217.200, 314.713 217.200 C 310.037 217.200, 303.836 213.578, 300.805 209.077 C 297.636 204.371, 295.834 203.918, 296.657 208.034 C 297.219 210.844, 297.067 211.159, 295.398 210.651 C 294.354 210.333, 291.257 209.581, 288.516 208.980 C 282.703 207.705, 276.103 204.921, 272.052 202.037 C 268.177 199.278, 267.674 199.468, 269.500 203 C 270.353 204.650, 271.490 206, 272.026 206 C 272.562 206, 273 206.480, 273 207.067 C 273 207.665, 272.155 207.867, 271.081 207.526 C 269.713 207.092, 268.977 207.496, 268.522 208.932 C 267.524 212.076, 263.089 215, 259.320 215 C 254.112 215, 251 211.351, 251 205.245 C 251 200.507, 249.768 198, 247.438 198 C 246.776 198, 246.001 200.334, 245.638 203.419 M 87.365 213.624 C 86.628 213.927, 86.486 215.219, 86.959 217.318 C 88.656 224.844, 92.111 227.570, 101.164 228.526 C 106.870 229.129, 111.500 227.569, 111.500 225.044 C 111.500 224.046, 109.832 223.549, 105.667 223.306 C 98.289 222.875, 94.716 221.028, 92.588 216.544 C 90.987 213.170, 89.921 212.574, 87.365 213.624 M 145.500 217.627 C 142.750 220.071, 136.729 224.643, 132.119 227.786 C 127.510 230.929, 123.144 233.934, 122.417 234.465 C 121.691 234.995, 120.869 235.203, 120.592 234.926 C 119.956 234.289, 122.440 227.018, 125.027 221.947 C 128.133 215.859, 127.595 215.706, 119.983 220.511 C 116.209 222.893, 115.978 223.264, 117.549 224.412 C 119.138 225.574, 118.997 225.900, 115.888 228.272 C 111.276 231.790, 107.738 233.004, 102.185 232.976 C 94.292 232.936, 89.772 231.402, 86.250 227.568 L 83 224.029 83 229.365 C 83 236.240, 84.437 240.267, 89.203 246.750 C 91.326 249.637, 92.711 252.037, 92.282 252.081 C 86.778 252.653, 84.845 252.596, 81 251.745 C 78.525 251.198, 75.475 250.113, 74.222 249.333 C 70.657 247.117, 69.785 248.659, 72.071 253.139 C 74.410 257.724, 78.141 259.740, 90.718 263.216 C 97.511 265.093, 101.042 265.362, 118.500 265.331 C 136.814 265.298, 139.328 265.075, 148.327 262.686 C 160.359 259.491, 167.820 256.154, 174.563 250.952 C 180 246.757, 183.413 240.958, 182.838 236.891 C 182.523 234.659, 182.083 234.501, 176.250 234.510 C 170.047 234.520, 168.734 233.666, 171.183 231.217 C 173.086 229.314, 171.482 228.773, 167.344 229.922 C 161.470 231.553, 155.961 231.144, 151 228.709 C 147.373 226.928, 146.434 225.921, 146.161 223.514 C 145.835 220.644, 145.895 220.595, 147.713 222.240 C 148.752 223.181, 152.550 224.724, 156.151 225.668 C 162.031 227.210, 163.098 227.235, 166.600 225.910 C 169.846 224.681, 170.728 223.717, 171.862 220.162 C 172.611 217.813, 172.964 215.630, 172.646 215.312 C 172.327 214.994, 170.461 216.144, 168.499 217.867 C 166.114 219.961, 163.885 221, 161.777 221 C 158.402 221, 152.607 217.601, 151.297 214.854 C 150.617 213.427, 149.767 213.833, 145.500 217.627 M 187.500 237.294 C 187.500 243.412, 187.055 246.268, 185.802 248.179 C 183.356 251.912, 185.145 253.036, 190.370 251.050 L 192.870 250.099 190.735 245.046 C 188.896 240.694, 188.767 239.534, 189.800 236.676 C 191.413 232.217, 191.311 230.333, 189.418 229.607 C 188.548 229.273, 187.761 229, 187.668 229 C 187.576 229, 187.500 232.732, 187.500 237.294 M 282.459 247.067 C 281.477 248.655, 282.437 249.182, 287.320 249.733 C 293.007 250.374, 294.392 248.480, 289.276 247.060 C 284.506 245.735, 283.281 245.736, 282.459 247.067 M 134.500 252 C 134.149 252.567, 134.990 253, 136.441 253 C 137.848 253, 139 252.550, 139 252 C 139 251.450, 138.127 251, 137.059 251 C 135.991 251, 134.840 251.450, 134.500 252 M 174.131 255.342 C 173.519 256.080, 173.313 256.980, 173.675 257.342 C 174.970 258.636, 176.776 257.966, 177.290 256 C 177.893 253.693, 175.852 253.268, 174.131 255.342" stroke="none" fill="#6b676b" fill-rule="evenodd"/><path d="M 0 194.502 L 0 389.005 208.250 388.752 L 416.500 388.500 416.753 194.250 L 417.005 -0 208.503 -0 L 0 0 0 194.502 M 0.490 195 C 0.490 301.975, 0.607 345.737, 0.750 292.250 C 0.893 238.762, 0.893 151.237, 0.750 97.750 C 0.607 44.262, 0.490 88.025, 0.490 195 M 283.382 95.480 C 269.946 98.670, 260.840 102.199, 257.861 105.370 C 257.112 106.166, 253.071 110.346, 248.881 114.659 C 240.584 123.197, 235 131.180, 235 134.505 C 235 135.667, 234.339 137.491, 233.532 138.559 C 232.724 139.626, 232.049 141.107, 232.032 141.849 C 232.014 142.591, 231.365 144.616, 230.589 146.349 C 224.518 159.908, 219.208 185.988, 217.002 213.091 C 216.074 224.487, 216.148 228.254, 217.459 236.405 C 218.994 245.943, 221.679 253.104, 224.317 254.696 C 225.049 255.138, 226.734 256.992, 228.061 258.817 C 231.923 264.124, 238.784 267, 247.582 267 C 255.601 267, 256.467 266.263, 252.500 262.813 C 251.125 261.618, 250 260.118, 250 259.480 C 250 257.935, 254.622 258.328, 259.151 260.259 C 262.854 261.837, 273.394 263.798, 282.500 264.603 C 285.250 264.845, 290.200 265.467, 293.500 265.984 C 304.133 267.650, 316.382 268.157, 320.973 267.121 C 323.433 266.566, 325.581 266.248, 325.746 266.413 C 326.445 267.111, 324.712 269.940, 323.895 269.435 C 323.403 269.131, 323 269.250, 323 269.700 C 323 271.229, 326.809 272.906, 331.776 273.565 C 335.584 274.070, 338.821 273.619, 345.802 271.611 C 351.482 269.977, 357.424 268.987, 361.688 268.965 C 371.923 268.912, 384.924 265.464, 391.750 260.993 C 394.199 259.388, 394.697 257.399, 392.807 256.769 C 392.037 256.512, 392.591 255.092, 394.370 252.759 C 397.763 248.311, 399.510 237.595, 400.446 215.500 C 401.315 194.974, 399.420 178.344, 394.132 160.099 C 393.080 156.469, 391.457 150.350, 390.524 146.500 C 389.225 141.139, 387.502 137.642, 383.164 131.564 C 370.734 114.150, 361.576 106.624, 342.842 98.431 C 330.226 92.913, 325.477 91.987, 310.201 92.064 C 299.411 92.119, 295.376 92.633, 283.382 95.480 M 106.500 99.605 C 87.888 104.198, 79.999 106.497, 72.500 109.512 C 56.407 115.984, 52.862 118.701, 42.510 132.500 C 36.190 140.923, 34.754 142.204, 29.230 144.345 C 23.931 146.399, 18.116 146.470, 15.327 144.516 C 13.385 143.156, 13.083 143.224, 11.704 145.329 C 9.836 148.180, 10.844 154.958, 13.717 158.858 C 15.247 160.937, 19.290 163.653, 23.797 165.630 C 23.960 165.702, 22.714 167.805, 21.028 170.303 C 12.149 183.460, 11.140 198.317, 18.165 212.500 C 19.799 215.800, 22.006 219.429, 23.068 220.564 C 24.456 222.048, 25 224.068, 25 227.742 C 25 232.074, 24.598 233.171, 22.365 234.927 C 20.916 236.067, 18.468 237, 16.924 237 C 11.652 237, 12.300 240.552, 18.120 243.562 C 21.419 245.268, 26.203 245.670, 31 244.645 L 34.500 243.897 31.698 246.445 C 30.157 247.846, 27.120 249.277, 24.948 249.624 C 22.700 249.984, 21 250.815, 21 251.555 C 21 252.270, 23.561 254.066, 26.690 255.547 C 31.693 257.914, 33.263 258.182, 39.692 257.769 C 44.933 257.433, 47.308 257.666, 48.077 258.593 C 50.081 261.008, 65.163 265.375, 71 265.231 C 74.197 265.153, 78.594 265.868, 81.501 266.941 C 89.996 270.075, 103.010 272, 115.697 272 C 134.364 272, 156.741 267.453, 165.543 261.871 L 170.166 258.939 173.601 261.955 C 177.257 265.165, 181.047 266.580, 183.484 265.645 C 184.621 265.208, 184.832 264.050, 184.377 260.732 L 183.782 256.391 190.141 256.750 C 197.579 257.169, 203.301 254.897, 203.810 251.323 C 203.981 250.125, 204.768 248.607, 205.560 247.950 C 208.433 245.566, 207.276 243.932, 203.180 244.587 C 199.841 245.121, 199.148 244.875, 197.680 242.634 C 194.664 238.031, 195.414 236.335, 200.783 235.623 C 203.413 235.274, 206.274 234.204, 207.140 233.244 C 208.006 232.285, 209.679 230.717, 210.857 229.760 C 213.251 227.816, 213.796 223, 211.622 223 C 210.865 223, 209.685 223.675, 209 224.500 C 207.083 226.810, 204.138 226.291, 200.923 223.077 C 196.503 218.657, 197.091 216.428, 205.020 207.548 C 208.882 203.224, 212.300 198.655, 212.616 197.394 C 212.973 195.971, 211.403 190.057, 208.476 181.801 C 203.377 167.417, 200.130 160.305, 196.388 155.317 C 195.075 153.566, 194.003 151.991, 194.006 151.817 C 194.009 151.643, 195.980 151.447, 198.385 151.382 C 203.418 151.247, 209.585 148.101, 212.477 144.194 C 217.761 137.053, 210.624 122.948, 198.613 116.794 C 195.561 115.230, 192 114.564, 184.812 114.212 C 179.483 113.952, 174.334 114.042, 173.368 114.412 C 170.462 115.527, 176.689 118.631, 182.250 118.839 C 188.564 119.075, 194.571 121.589, 197.013 125.018 C 199.435 128.420, 199.504 130.338, 197.335 134.010 C 195.163 137.688, 192.088 139.003, 185.703 138.986 C 178.987 138.969, 176 138.135, 176 136.276 C 176 135.382, 175.417 135.010, 174.543 135.345 C 173.378 135.792, 173.268 135.426, 173.993 133.520 C 175.083 130.651, 173.799 125.547, 171.280 122.740 C 165.328 116.107, 150.923 107.598, 137 102.490 C 130.969 100.278, 127.444 99.677, 119 99.425 C 113.225 99.253, 107.600 99.334, 106.500 99.605 M 166 180.155 C 166 181.601, 167.798 181.949, 168.831 180.703 C 169.627 179.745, 169.407 179.429, 167.945 179.429 C 166.875 179.429, 166 179.756, 166 180.155 M 247.388 202.250 C 247.795 204.419, 247.695 206, 247.152 206 C 245.996 206, 247.507 213.238, 249.243 216.017 C 250.615 218.214, 256.841 221, 260.380 221 C 261.666 221, 265.504 219.564, 268.907 217.808 C 274.297 215.029, 275.057 214.287, 274.798 212.058 C 274.336 208.091, 270.990 208.266, 267.176 212.457 C 260.174 220.151, 249.419 215.457, 249.833 204.889 C 249.924 202.566, 249.375 200.727, 248.332 199.863 C 246.839 198.626, 246.751 198.847, 247.388 202.250 M 298.410 208.750 C 299.039 210.773, 298.142 212.456, 296 213.271 C 294.743 213.750, 294.764 213.855, 296.129 213.921 C 297.024 213.964, 298.308 215.331, 298.982 216.957 C 300.383 220.340, 305.111 222.477, 314.183 223.829 C 320.967 224.840, 324.694 223.601, 327.544 219.383 C 329.609 216.328, 332.211 210.842, 331.765 210.484 C 330.842 209.742, 326.986 208, 326.267 208 C 325.791 208, 324.837 209.561, 324.147 211.470 C 322.651 215.606, 318.665 219, 315.303 219 C 313.968 219, 310.475 217.864, 307.541 216.476 C 303.638 214.630, 301.762 213.018, 300.556 210.476 C 298.828 206.834, 297.475 205.747, 298.410 208.750 M 89 218.364 C 89 222.583, 92.861 226.696, 97.668 227.597 C 101.859 228.384, 107.935 227.500, 109.414 225.890 C 110.211 225.021, 110.164 224.897, 109.235 225.422 C 106.739 226.832, 97.039 223.797, 93.953 220.640 C 92.329 218.979, 91 217.031, 91 216.310 C 91 215.590, 90.550 215, 90 215 C 89.450 215, 89 216.514, 89 218.364 M 148.152 216.692 C 147.047 218.667, 149.592 223.370, 151.221 222.363 C 151.773 222.023, 152.588 222.333, 153.032 223.052 C 153.496 223.803, 156.404 224.546, 159.851 224.796 C 165.272 225.188, 166.112 224.978, 168.430 222.661 C 169.844 221.247, 170.986 219.508, 170.968 218.795 C 170.948 217.989, 170.402 218.205, 169.523 219.367 C 167.394 222.178, 159.787 222.739, 155.452 220.404 C 153.547 219.378, 151.736 217.743, 151.427 216.769 C 150.718 214.537, 149.376 214.505, 148.152 216.692 M 186.015 215.691 C 186.024 216.136, 186.467 217.175, 187 218 C 187.835 219.293, 187.971 219.266, 187.985 217.809 C 187.993 216.879, 187.550 215.840, 187 215.500 C 186.450 215.160, 186.007 215.246, 186.015 215.691 M 29.038 216.500 C 29.041 217.050, 29.965 218.625, 31.089 220 C 32.448 221.661, 32.787 221.828, 32.101 220.500 C 30.415 217.238, 29.030 215.430, 29.038 216.500 M 134.507 229.011 C 134.843 229.555, 134.218 230, 133.118 230 C 132.018 230, 130.858 230.421, 130.540 230.936 C 130.183 231.514, 131.168 231.525, 133.117 230.967 C 137.064 229.834, 137.501 229.406, 135.491 228.635 C 134.567 228.280, 134.153 228.439, 134.507 229.011 M 86.500 231.375 C 88.150 232.779, 90.175 233.938, 91 233.949 C 91.981 233.963, 91.764 233.543, 90.372 232.735 C 83.864 228.958, 83.515 228.835, 86.500 231.375 M 109 234 L 106.500 234.801 109.191 234.900 C 110.671 234.955, 112.160 234.550, 112.500 234 C 113.203 232.863, 112.549 232.863, 109 234 M 127.557 235.418 C 128.624 236.198, 129.710 236.624, 129.969 236.364 C 130.520 235.814, 127.941 234.038, 126.559 234.015 C 126.041 234.007, 126.491 234.638, 127.557 235.418 M 244.074 242.411 C 242.343 244.497, 244.807 245.678, 246.600 243.622 C 247.374 242.734, 247.466 242.456, 246.804 243.004 C 244.937 244.549, 243.608 244.178, 245 242.500 C 245.685 241.675, 246.020 241, 245.745 241 C 245.470 241, 244.718 241.635, 244.074 242.411 M 95 249.571 C 95 249.886, 95.675 250.818, 96.500 251.643 C 98.128 253.271, 98.332 253.029, 97.393 250.582 C 96.823 249.095, 95 248.326, 95 249.571 M 81.149 256.671 C 79.336 258.632, 80.062 259.159, 82.311 257.514 C 83.306 256.787, 83.755 255.971, 83.310 255.701 C 82.864 255.431, 81.892 255.867, 81.149 256.671 M 253 259.941 C 253 260.459, 253.450 261.160, 254 261.500 C 254.550 261.840, 255 261.416, 255 260.559 C 255 259.702, 254.550 259, 254 259 C 253.450 259, 253 259.423, 253 259.941 M 103 263 C 103 263.550, 103.423 264, 103.941 264 C 104.459 264, 105.160 263.550, 105.500 263 C 105.840 262.450, 105.416 262, 104.559 262 C 103.702 262, 103 262.450, 103 263 M 112.269 264.693 C 113.242 264.947, 114.592 264.930, 115.269 264.656 C 115.946 264.382, 115.150 264.175, 113.500 264.195 C 111.850 264.215, 111.296 264.439, 112.269 264.693 M 124.269 264.693 C 125.242 264.947, 126.592 264.930, 127.269 264.656 C 127.946 264.382, 127.150 264.175, 125.500 264.195 C 123.850 264.215, 123.296 264.439, 124.269 264.693" stroke="none" fill="#f6f3ec" fill-rule="evenodd"/></svg>