<svg xmlns="http://www.w3.org/2000/svg" width="750" height="750" viewBox="0 0 750 750" version="1.1"><path d="M 517.827 113.816 C 506.647 121.965, 482.048 139.978, 463.162 153.845 C 444.276 167.713, 428.383 179.158, 427.844 179.279 C 427.305 179.401, 425.369 175, 423.542 169.500 C 418.419 154.075, 410.352 136.138, 406.024 130.552 C 399.300 121.873, 374.387 101.427, 369.294 100.409 C 366.851 99.920, 363.216 101.406, 349.402 108.539 C 295.902 136.166, 237.502 171.127, 209.050 192.560 C 172.989 219.724, 153.983 260.637, 147.462 325.135 L 146.792 331.770 141.815 332.430 C 135.299 333.295, 118.165 338.939, 108.494 343.407 C 88.582 352.607, 74.777 367.242, 70.492 383.693 C 69.019 389.348, 68.446 401.113, 69.589 402.255 C 69.912 402.579, 73.134 401.731, 76.748 400.371 C 87.833 396.198, 95.594 394.855, 108.464 394.884 C 121.625 394.913, 132.308 397.079, 140.875 401.456 C 152.613 407.452, 170.418 426.463, 177.872 440.958 C 185.995 456.755, 188.420 468.209, 188.465 491 L 188.500 508.500 185.085 515.500 C 180.569 524.755, 171.755 533.595, 162.776 537.873 C 154.741 541.702, 142.619 544.454, 127.099 545.971 C 108.935 547.747, 100.840 550.030, 85.719 557.639 C 58.774 571.198, 43.927 590.980, 42.292 615.500 C 41.766 623.392, 43.336 637.736, 44.897 639.297 C 45.339 639.739, 47.641 637.121, 50.014 633.479 C 65.217 610.144, 87.555 603.173, 126.794 609.519 C 169.085 616.360, 190.636 616.086, 208.500 608.482 C 221.807 602.818, 235.793 591.613, 243.235 580.654 C 251.097 569.077, 257.322 553.915, 263.591 531.080 L 267 518.659 267.003 463.080 C 267.004 432.511, 267.301 399.063, 267.661 388.750 L 268.316 370 305.408 370.015 C 325.809 370.024, 343.095 370.408, 343.821 370.868 C 344.898 371.551, 345.083 382.611, 344.821 430.603 L 344.500 489.500 341.771 495.326 C 340.159 498.765, 336.358 503.931, 332.491 507.936 L 325.941 514.721 339.721 525.587 C 352.236 535.455, 374.756 556.902, 392.439 575.789 C 396.193 579.799, 399.642 582.949, 400.104 582.789 C 401.528 582.299, 511.861 485.549, 511.933 484.728 C 511.970 484.304, 509.279 482.198, 505.954 480.048 L 499.907 476.140 495.142 479.102 C 492.521 480.732, 488.717 482.334, 486.689 482.663 L 483 483.262 483 426.001 L 483 368.741 498.359 348.121 C 519.388 319.887, 525 311.931, 525 310.351 C 525 309.261, 521.129 309, 505 309 L 485 309 485.002 235.750 L 485.004 162.500 489.950 159.129 C 493.873 156.455, 495.477 155.900, 497.698 156.449 C 500.650 157.178, 509.935 163.239, 531.624 178.596 L 544.749 187.889 545.248 351.694 L 545.747 515.500 548.383 524.299 C 551.524 534.780, 556.451 545.452, 561.954 553.694 C 569.529 565.038, 587.814 580.366, 596.869 582.962 C 598.933 583.554, 600.856 583.286, 603.627 582.021 C 607.312 580.338, 669 522.741, 669 520.983 C 669 519.982, 659.075 511, 657.969 511 C 657.520 511, 655.816 512.125, 654.182 513.500 C 652.548 514.875, 650.826 516.010, 650.356 516.022 C 649.885 516.034, 648.375 516.924, 647 518 C 641.525 522.282, 639.499 520.393, 628.666 500.904 L 625 494.308 625 344.381 L 625 194.454 627.932 186.841 C 632.232 175.673, 638.148 164.358, 643.444 157.175 C 649.217 149.344, 649.891 147.588, 650.670 138.373 L 651.293 131 648.670 131 C 642.374 131, 630.071 137.039, 618.843 145.641 L 613.185 149.974 587.343 131.825 C 561.584 113.735, 539.751 99, 538.705 99 C 538.403 99, 529.008 105.667, 517.827 113.816 M 303.500 159.393 C 298.992 161.368, 292.822 168.641, 283.263 183.248 C 269.296 204.589, 270.544 196.472, 270.229 268 C 270.080 301.825, 270.305 333.484, 270.729 338.354 L 271.500 347.209 285.447 326.604 L 299.394 306 322.197 306 L 345 306 344.991 245.750 L 344.981 185.500 342.034 180.361 C 333.108 164.799, 314.398 154.618, 303.500 159.393 M 255.887 188.750 C 245.446 199.693, 240.615 205.928, 234.774 216 L 229.265 225.500 228.665 362.700 L 228.065 499.900 225.146 506.337 C 218.998 519.896, 205.940 535.576, 193.250 544.638 C 189.813 547.093, 187 549.516, 187 550.023 C 187 550.841, 192.538 552.745, 200.127 554.535 C 203.138 555.246, 213.304 552.912, 223.500 549.170 C 232.889 545.723, 239.533 539.180, 243.349 529.622 C 245.503 524.224, 246.297 520.028, 247.035 510.122 C 247.553 503.180, 248.246 435.625, 248.575 360 L 249.173 222.500 253.688 208 C 256.171 200.025, 259.250 190.912, 260.531 187.750 C 261.812 184.588, 262.740 182, 262.594 182 C 262.448 182, 259.430 185.037, 255.887 188.750 M 443.750 197.636 L 425 211.183 425 247.935 C 425 268.148, 425.294 290.157, 425.654 296.843 L 426.307 309 434.998 309 C 439.778 309, 448.484 308.707, 454.344 308.348 L 465 307.696 465 261.007 C 465 214.728, 464.238 183.959, 463.094 184.045 C 462.767 184.069, 454.063 190.185, 443.750 197.636 M 428.204 437.750 C 428.498 505.061, 428.514 505.535, 430.715 510.910 C 434.213 519.454, 439.631 527.002, 442.260 526.990 C 445.358 526.977, 454.322 522.668, 460.145 518.394 L 465 514.830 465 442.415 L 465 370 446.454 370 L 427.909 370 428.204 437.750" stroke="none" fill="#000101" fill-rule="evenodd"/><path d="M 483 135.386 C 453.575 157.011, 429.163 174.519, 428.750 174.293 C 428.337 174.067, 428 173.157, 428 172.271 C 428 170.264, 417.746 144.473, 413.936 136.895 C 410.284 129.632, 403.046 121.788, 390.553 111.553 C 375.295 99.052, 372.154 97, 368.277 97 C 362.635 97, 312.971 123.280, 269.500 149.268 C 245.180 163.807, 217.311 182.048, 206.500 190.502 C 170.457 218.687, 152.017 256.912, 144.974 318.036 L 143.760 328.572 135.630 330.378 C 126.862 332.325, 109.280 338.816, 102 342.792 C 89.527 349.604, 75.533 363.003, 71.025 372.448 C 67.409 380.024, 65.940 386.398, 65.692 395.585 C 65.396 406.536, 67.499 407.920, 77.833 403.570 C 99.180 394.585, 130.007 396.760, 145.661 408.356 C 153.132 413.891, 165.369 426.784, 170.468 434.495 C 180.894 450.262, 185.212 466.620, 185.384 491 L 185.500 507.500 181.698 514.828 C 172.660 532.248, 159.102 539.207, 127.679 542.552 C 111.258 544.300, 107.660 545.050, 96.961 548.955 C 74.346 557.208, 55.022 572.775, 46.098 589.928 C 40.206 601.253, 38.668 608.867, 39.314 623.500 C 39.896 636.672, 41.140 641.592, 44.132 642.542 C 46.731 643.367, 48.477 641.780, 53.202 634.298 C 67.218 612.104, 87.614 607.058, 134.619 614.151 C 151.855 616.753, 158.642 617.315, 173.500 617.372 C 194.488 617.454, 199.523 616.467, 213.500 609.533 C 240.980 595.900, 254.743 576.181, 266.359 533.804 L 269.789 521.289 270.532 447.144 L 271.275 373 304.388 373.014 C 322.599 373.021, 338.512 373.299, 339.750 373.630 L 342 374.233 341.908 419.367 C 341.858 444.190, 341.510 470.350, 341.136 477.500 C 340.315 493.186, 338.787 497.008, 329.335 507.027 C 325.851 510.721, 323 514.394, 323 515.189 C 323 515.985, 328.288 520.726, 334.750 525.726 C 351.605 538.766, 367.392 553.431, 383.878 571.362 C 391.785 579.963, 398.816 587, 399.501 587 C 400.187 587, 403.401 584.638, 406.643 581.750 C 409.886 578.862, 435.837 556.068, 464.313 531.095 C 497.973 501.577, 515.983 485.132, 515.790 484.095 C 515.455 482.298, 502.317 473.126, 500 473.072 C 499.175 473.052, 496.520 474.378, 494.100 476.018 C 491.679 477.658, 488.867 479, 487.850 479 C 486.073 479, 486 476.856, 486 424.532 L 486 370.064 503.317 346.782 C 521.715 322.046, 529 311.673, 529 310.210 C 529 309.715, 528.110 308.505, 527.023 307.521 C 525.322 305.981, 522.461 305.661, 506.523 305.224 L 488 304.716 488 234.415 L 488 164.113 492.222 161.595 L 496.445 159.078 500.796 161.510 C 503.190 162.847, 513.422 169.693, 523.535 176.721 L 541.921 189.500 542.211 353.500 L 542.500 517.500 545.870 527.500 C 551.848 545.240, 558.755 556.824, 570.148 568.217 C 576.799 574.868, 588.639 583.365, 594.826 585.928 C 599.052 587.678, 603.943 586.622, 608.545 582.964 C 613.512 579.017, 670.104 525.321, 671.890 522.861 C 673.159 521.112, 672.719 520.386, 666.806 514.473 C 659.812 507.478, 656.732 506.429, 653.541 509.955 C 652.568 511.030, 649.614 513.038, 646.977 514.417 C 641.350 517.359, 642.415 518.239, 634.135 503.803 L 628 493.105 628 344.638 L 628 196.172 631.419 187.213 C 635.978 175.266, 638.559 170.331, 646.324 158.723 C 651.893 150.395, 652.955 148.097, 653.482 143.223 C 653.823 140.075, 654.331 135.890, 654.610 133.921 C 655.315 128.951, 653.452 127.632, 646.537 128.205 C 639.834 128.761, 629.130 133.856, 619.756 140.953 L 613.069 146.015 583.284 125.166 C 548.971 101.146, 541.021 95.987, 538.392 96.033 C 537.351 96.052, 512.425 113.760, 483 135.386 M 517.827 113.816 C 506.647 121.965, 482.048 139.978, 463.162 153.845 C 444.276 167.713, 428.383 179.158, 427.844 179.279 C 427.305 179.401, 425.369 175, 423.542 169.500 C 418.419 154.075, 410.352 136.138, 406.024 130.552 C 399.300 121.873, 374.387 101.427, 369.294 100.409 C 366.851 99.920, 363.216 101.406, 349.402 108.539 C 295.902 136.166, 237.502 171.127, 209.050 192.560 C 172.989 219.724, 153.983 260.637, 147.462 325.135 L 146.792 331.770 141.815 332.430 C 135.299 333.295, 118.165 338.939, 108.494 343.407 C 88.582 352.607, 74.777 367.242, 70.492 383.693 C 69.019 389.348, 68.446 401.113, 69.589 402.255 C 69.912 402.579, 73.134 401.731, 76.748 400.371 C 87.833 396.198, 95.594 394.855, 108.464 394.884 C 121.625 394.913, 132.308 397.079, 140.875 401.456 C 152.613 407.452, 170.418 426.463, 177.872 440.958 C 185.995 456.755, 188.420 468.209, 188.465 491 L 188.500 508.500 185.085 515.500 C 180.569 524.755, 171.755 533.595, 162.776 537.873 C 154.741 541.702, 142.619 544.454, 127.099 545.971 C 108.935 547.747, 100.840 550.030, 85.719 557.639 C 58.774 571.198, 43.927 590.980, 42.292 615.500 C 41.766 623.392, 43.336 637.736, 44.897 639.297 C 45.339 639.739, 47.641 637.121, 50.014 633.479 C 65.217 610.144, 87.555 603.173, 126.794 609.519 C 169.085 616.360, 190.636 616.086, 208.500 608.482 C 221.807 602.818, 235.793 591.613, 243.235 580.654 C 251.097 569.077, 257.322 553.915, 263.591 531.080 L 267 518.659 267.003 463.080 C 267.004 432.511, 267.301 399.063, 267.661 388.750 L 268.316 370 305.408 370.015 C 325.809 370.024, 343.095 370.408, 343.821 370.868 C 344.898 371.551, 345.083 382.611, 344.821 430.603 L 344.500 489.500 341.771 495.326 C 340.159 498.765, 336.358 503.931, 332.491 507.936 L 325.941 514.721 339.721 525.587 C 352.236 535.455, 374.756 556.902, 392.439 575.789 C 396.193 579.799, 399.642 582.949, 400.104 582.789 C 401.528 582.299, 511.861 485.549, 511.933 484.728 C 511.970 484.304, 509.279 482.198, 505.954 480.048 L 499.907 476.140 495.142 479.102 C 492.521 480.732, 488.717 482.334, 486.689 482.663 L 483 483.262 483 426.001 L 483 368.741 498.359 348.121 C 519.388 319.887, 525 311.931, 525 310.351 C 525 309.261, 521.129 309, 505 309 L 485 309 485.002 235.750 L 485.004 162.500 489.950 159.129 C 493.873 156.455, 495.477 155.900, 497.698 156.449 C 500.650 157.178, 509.935 163.239, 531.624 178.596 L 544.749 187.889 545.248 351.694 L 545.747 515.500 548.383 524.299 C 551.524 534.780, 556.451 545.452, 561.954 553.694 C 569.529 565.038, 587.814 580.366, 596.869 582.962 C 598.933 583.554, 600.856 583.286, 603.627 582.021 C 607.312 580.338, 669 522.741, 669 520.983 C 669 519.982, 659.075 511, 657.969 511 C 657.520 511, 655.816 512.125, 654.182 513.500 C 652.548 514.875, 650.826 516.010, 650.356 516.022 C 649.885 516.034, 648.375 516.924, 647 518 C 641.525 522.282, 639.499 520.393, 628.666 500.904 L 625 494.308 625 344.381 L 625 194.454 627.932 186.841 C 632.232 175.673, 638.148 164.358, 643.444 157.175 C 649.217 149.344, 649.891 147.588, 650.670 138.373 L 651.293 131 648.670 131 C 642.374 131, 630.071 137.039, 618.843 145.641 L 613.185 149.974 587.343 131.825 C 561.584 113.735, 539.751 99, 538.705 99 C 538.403 99, 529.008 105.667, 517.827 113.816 M 303.500 159.393 C 298.992 161.368, 292.822 168.641, 283.263 183.248 C 269.296 204.589, 270.544 196.472, 270.229 268 C 270.080 301.825, 270.305 333.484, 270.729 338.354 L 271.500 347.209 285.447 326.604 L 299.394 306 322.197 306 L 345 306 344.991 245.750 L 344.981 185.500 342.034 180.361 C 333.108 164.799, 314.398 154.618, 303.500 159.393 M 304.341 162.932 C 301.400 164.268, 298.570 166.969, 294.674 172.160 C 287.689 181.468, 276.410 200.062, 274.849 204.844 C 273.332 209.488, 272.642 275.041, 273.727 311.319 L 274.500 337.137 284 322.893 C 289.225 315.058, 294.553 307.378, 295.839 305.824 L 298.178 303 320.089 303 L 342 303 342 245.316 C 342 188.701, 341.961 187.551, 339.893 183.280 C 336.361 175.983, 329.026 168.869, 320.773 164.734 C 312.326 160.503, 310.203 160.270, 304.341 162.932 M 255.887 188.750 C 245.446 199.693, 240.615 205.928, 234.774 216 L 229.265 225.500 228.665 362.700 L 228.065 499.900 225.146 506.337 C 218.998 519.896, 205.940 535.576, 193.250 544.638 C 189.813 547.093, 187 549.516, 187 550.023 C 187 550.841, 192.538 552.745, 200.127 554.535 C 203.138 555.246, 213.304 552.912, 223.500 549.170 C 232.889 545.723, 239.533 539.180, 243.349 529.622 C 245.503 524.224, 246.297 520.028, 247.035 510.122 C 247.553 503.180, 248.246 435.625, 248.575 360 L 249.173 222.500 253.688 208 C 256.171 200.025, 259.250 190.912, 260.531 187.750 C 261.812 184.588, 262.740 182, 262.594 182 C 262.448 182, 259.430 185.037, 255.887 188.750 M 443.750 197.636 L 425 211.183 425 247.935 C 425 268.148, 425.294 290.157, 425.654 296.843 L 426.307 309 434.998 309 C 439.778 309, 448.484 308.707, 454.344 308.348 L 465 307.696 465 261.007 C 465 214.728, 464.238 183.959, 463.094 184.045 C 462.767 184.069, 454.063 190.185, 443.750 197.636 M 445 200.595 C 437.025 206.376, 429.912 211.686, 429.194 212.394 C 428.137 213.438, 428.024 222.370, 428.601 259.341 L 429.314 305 445.064 305 L 460.815 305 461.179 299.250 C 461.769 289.927, 460.802 189.996, 460.122 190.042 C 459.780 190.065, 452.975 194.814, 445 200.595 M 247.826 202.454 C 244.897 206.004, 240.277 212.814, 237.559 217.589 L 232.618 226.269 232.059 363.479 L 231.500 500.688 226.809 510.094 C 219.879 523.988, 206.800 539.338, 195.177 547.216 C 192.182 549.246, 193.505 550.061, 200.818 550.692 C 205.215 551.071, 208.422 550.569, 215 548.474 C 224.769 545.363, 231.758 542.037, 234.193 539.343 C 237.064 536.165, 242.005 524.580, 243.130 518.387 C 243.819 514.598, 244.645 459.937, 245.447 365 L 246.694 217.500 250.234 206.750 C 252.181 200.838, 253.634 196, 253.463 196 C 253.291 196, 250.755 198.904, 247.826 202.454 M 428.204 437.750 C 428.498 505.061, 428.514 505.535, 430.715 510.910 C 434.213 519.454, 439.631 527.002, 442.260 526.990 C 445.358 526.977, 454.322 522.668, 460.145 518.394 L 465 514.830 465 442.415 L 465 370 446.454 370 L 427.909 370 428.204 437.750 M 431.008 432.250 C 431.012 464.837, 431.445 495.236, 431.970 499.802 C 432.929 508.146, 436.948 518.291, 440.829 522.169 C 442.390 523.727, 442.831 523.710, 447.500 521.906 C 450.250 520.843, 454.637 518.400, 457.250 516.477 L 462 512.981 462 442.990 L 462 373 446.500 373 L 431 373 431.008 432.250" stroke="none" fill="#ffffff" fill-rule="evenodd"/></svg>