<svg xmlns="http://www.w3.org/2000/svg" width="750" height="750" viewBox="0 0 750 750" version="1.1"><path d="M 515.855 115.291 C 503.560 124.251, 478.962 142.260, 461.194 155.310 C 443.425 168.360, 428.432 179.142, 427.876 179.269 C 427.319 179.396, 425.369 175, 423.542 169.500 C 418.619 154.674, 410.449 136.307, 406.442 131.052 C 399.914 122.492, 374.425 101.435, 369.367 100.423 C 367.021 99.954, 363.125 101.544, 349.475 108.542 C 297.963 134.950, 237.518 171.115, 209.050 192.560 C 174.635 218.484, 156.432 255.395, 148.843 314.645 L 146.647 331.789 141.743 332.440 C 139.046 332.797, 132.130 334.633, 126.374 336.518 C 94.526 346.951, 75.985 362.603, 70.492 383.693 C 69.019 389.348, 68.446 401.113, 69.589 402.255 C 69.912 402.579, 73.134 401.731, 76.748 400.371 C 87.833 396.198, 95.594 394.855, 108.464 394.884 C 121.625 394.913, 132.308 397.079, 140.875 401.456 C 152.613 407.452, 170.418 426.463, 177.872 440.958 C 185.995 456.755, 188.420 468.209, 188.465 491 L 188.500 508.500 185.085 515.500 C 180.569 524.755, 171.755 533.595, 162.776 537.873 C 154.741 541.702, 142.619 544.454, 127.099 545.971 C 108.935 547.747, 100.840 550.030, 85.719 557.639 C 58.774 571.198, 43.927 590.980, 42.292 615.500 C 41.766 623.392, 43.336 637.736, 44.897 639.297 C 45.339 639.739, 47.641 637.121, 50.014 633.479 C 59.557 618.832, 70.783 611.432, 88.024 608.425 C 98.982 606.514, 110.803 606.941, 129.652 609.929 C 155.949 614.097, 172.808 615.280, 186.351 613.905 C 203.384 612.176, 219.943 604.598, 232.639 592.721 C 246.365 579.881, 254.813 563.056, 263.591 531.080 L 267 518.659 267.003 461.580 C 267.005 430.186, 267.301 396.738, 267.660 387.250 L 268.315 370 305.407 370.015 C 325.808 370.024, 343.092 370.406, 343.815 370.865 C 344.883 371.542, 345.071 382.750, 344.815 430.599 L 344.500 489.500 341.771 495.326 C 340.159 498.765, 336.358 503.931, 332.491 507.936 L 325.941 514.721 339.721 525.587 C 352.236 535.455, 374.756 556.902, 392.439 575.789 C 396.193 579.799, 399.641 582.949, 400.101 582.789 C 401.159 582.424, 507.949 488.819, 510.408 486.101 C 512.194 484.128, 512.115 484.022, 505.895 480.089 C 500.386 476.606, 499.362 476.268, 498.014 477.488 C 495.537 479.729, 487.746 482.954, 484.750 482.978 L 482 483 482 426.547 L 482 370.093 494.187 353.797 C 514.488 326.649, 525 311.838, 525 310.383 C 525 309.252, 521.356 309, 505 309 L 485 309 485.002 235.750 L 485.004 162.500 489.950 159.129 C 493.871 156.456, 495.478 155.900, 497.698 156.448 C 500.559 157.152, 513.849 165.822, 533.500 179.801 L 544.500 187.627 545.148 351.563 C 545.795 515.069, 545.802 515.519, 547.933 522.863 C 555.496 548.928, 569.739 567.893, 591.088 580.328 C 596.466 583.460, 601.306 583.732, 605.500 581.136 C 609.040 578.945, 669 522.143, 669 520.980 C 669 519.981, 659.073 511, 657.969 511 C 657.520 511, 655.816 512.125, 654.182 513.500 C 652.548 514.875, 650.826 516.010, 650.356 516.022 C 649.885 516.034, 648.375 516.924, 647 518 C 641.525 522.282, 639.499 520.393, 628.666 500.904 L 625 494.308 625 344.381 L 625 194.454 627.932 186.841 C 632.232 175.673, 638.148 164.358, 643.444 157.175 C 649.217 149.344, 649.891 147.588, 650.670 138.373 L 651.293 131 648.567 131 C 642.522 131, 629.724 137.305, 618.831 145.649 L 613.162 149.992 585.859 130.828 C 559.415 112.267, 539.766 99, 538.719 99 C 538.439 99, 528.150 106.331, 515.855 115.291 M 303.500 159.393 C 298.992 161.368, 292.822 168.641, 283.263 183.248 C 269.296 204.589, 270.544 196.472, 270.229 268 C 270.080 301.825, 270.305 333.484, 270.729 338.354 L 271.500 347.209 285.447 326.604 L 299.394 306 322.197 306 L 345 306 344.991 245.750 L 344.981 185.500 342.034 180.361 C 333.108 164.799, 314.398 154.618, 303.500 159.393 M 255.887 188.750 C 245.446 199.693, 240.615 205.928, 234.774 216 L 229.266 225.500 228.662 362.709 L 228.057 499.918 225.142 506.346 C 218.999 519.896, 205.937 535.579, 193.250 544.638 C 189.813 547.093, 187 549.516, 187 550.023 C 187 550.841, 192.538 552.745, 200.127 554.535 C 203.138 555.246, 213.304 552.912, 223.500 549.170 C 228.730 547.250, 231.777 545.323, 235.552 541.550 C 242.828 534.275, 245.786 526.314, 247.027 510.661 C 247.557 503.972, 248.257 436.400, 248.582 360.500 L 249.173 222.500 253.688 208 C 256.171 200.025, 259.250 190.912, 260.531 187.750 C 261.812 184.588, 262.740 182, 262.594 182 C 262.448 182, 259.430 185.037, 255.887 188.750 M 443.750 197.636 L 425 211.183 425.005 248.842 C 425.007 269.554, 425.301 291.563, 425.657 297.750 L 426.306 309 435.903 308.995 C 441.181 308.992, 449.887 308.699, 455.250 308.344 L 465 307.698 464.996 260.099 C 464.993 213.227, 464.261 183.957, 463.094 184.045 C 462.768 184.069, 454.063 190.185, 443.750 197.636 M 427.667 370.667 C 426.831 371.502, 426.943 414.352, 427.915 466 C 428.611 503.001, 428.793 505.842, 430.794 510.910 C 434.103 519.294, 439.600 527.002, 442.260 526.990 C 445.358 526.977, 454.322 522.668, 460.145 518.394 L 465 514.830 465 442.415 L 465 370 446.667 370 C 436.583 370, 428.033 370.300, 427.667 370.667" stroke="none" fill="#040404" fill-rule="evenodd"/><path d="M 526.765 88.286 C 523.250 90.643, 501.502 106.404, 478.437 123.310 C 455.372 140.216, 436.106 154.062, 435.624 154.078 C 435.142 154.094, 432.861 149.696, 430.555 144.304 C 420.977 121.907, 416.668 116.448, 394.461 98.584 C 379.662 86.679, 375.569 84.686, 366.929 85.174 C 360.771 85.522, 358.723 86.309, 342.849 94.425 C 289.229 121.843, 219.682 163.803, 195.333 183.426 C 168.428 205.109, 149.863 236.017, 140.029 275.500 C 138.334 282.305, 135.992 295.356, 133.159 313.783 L 132.500 318.067 120.759 321.999 C 98.538 329.441, 87.478 335.734, 74.077 348.563 C 62.154 359.977, 56.246 371.605, 53.984 388.112 C 52.059 402.159, 54.148 410.093, 61.136 415.268 C 65.921 418.812, 71.510 418.626, 83.595 414.520 C 100.652 408.725, 115.680 408.540, 130.128 413.946 C 141.689 418.272, 158.128 435.539, 165.406 451 C 169.839 460.416, 171.804 467.918, 173.005 480 C 174.579 495.844, 174.277 501.864, 171.622 507.565 C 164.899 522.002, 153.911 527.571, 126.455 530.454 C 104.912 532.717, 94.949 535.468, 78.751 543.625 C 54.010 556.085, 38.433 572.713, 30.625 595 C 28.136 602.105, 27.576 605.472, 27.211 615.518 C 26.741 628.448, 28.101 640.303, 30.677 645.732 C 31.559 647.591, 33.871 650.325, 35.813 651.806 C 38.752 654.048, 40.363 654.500, 45.422 654.500 C 53.133 654.500, 56.398 652.315, 62.329 643.188 C 70.005 631.376, 76.841 626.430, 89 623.893 C 96.315 622.366, 117.133 623.333, 132.500 625.914 C 159.504 630.449, 184.569 631.055, 200.500 627.558 C 204.350 626.713, 212.206 623.739, 217.959 620.950 C 248.635 606.073, 263.960 585.500, 276.771 542 L 281.336 526.500 282.073 500 C 282.478 485.425, 282.853 453.587, 282.905 429.250 L 283 385 306.602 385 L 330.205 385 329.478 435.750 C 328.876 477.780, 328.494 487.015, 327.253 489.500 C 326.429 491.150, 322.702 495.671, 318.970 499.547 C 311.415 507.396, 309.332 512.186, 310.979 517.928 C 312.574 523.487, 314.406 525.417, 329.564 537.500 C 346.880 551.303, 355.469 559.365, 374.313 579.500 C 392.572 599.010, 397.033 601.490, 406.207 597.224 C 409.947 595.485, 516.886 502.189, 523.386 494.994 C 528.679 489.135, 529.287 482.289, 525.121 475.439 C 522.735 471.516, 507.119 461.960, 501.963 461.268 L 498 460.737 498 417.821 L 498 374.905 513.750 353.616 L 529.500 332.328 530 425.914 L 530.500 519.500 533.306 528.500 C 536.885 539.978, 544.731 556.470, 550.369 564.362 C 556.728 573.265, 570.300 585.851, 579.930 591.777 C 593.146 599.910, 602.397 600.897, 612.260 595.225 C 614.866 593.726, 631.470 578.782, 649.159 562.015 C 683.738 529.238, 685.901 526.617, 684.506 519.182 C 684.134 517.195, 683.218 514.389, 682.472 512.946 C 680.617 509.359, 670.064 499.733, 665.734 497.678 C 661.064 495.462, 654.305 495.550, 649.721 497.888 L 646.018 499.775 643.009 494.516 L 640 489.257 640 344.091 L 640 198.925 643.472 189.935 C 647.016 180.757, 652 171.763, 658.919 162.053 C 663.593 155.495, 664.583 152.418, 666.065 139.825 C 667.425 128.274, 666.555 124.573, 661.421 120.064 C 657.042 116.220, 654.609 115.634, 645.461 116.221 C 639.259 116.619, 636.572 117.429, 628.784 121.250 C 623.678 123.755, 617.952 126.900, 616.060 128.240 L 612.619 130.676 598.560 120.683 C 577.039 105.386, 551.977 88.494, 547.290 86.126 C 544.682 84.809, 541.191 84, 538.118 84 C 533.935 84, 532.153 84.673, 526.765 88.286 M 515.855 115.291 C 503.560 124.251, 478.962 142.260, 461.194 155.310 C 443.425 168.360, 428.432 179.142, 427.876 179.269 C 427.319 179.396, 425.369 175, 423.542 169.500 C 418.619 154.674, 410.449 136.307, 406.442 131.052 C 399.914 122.492, 374.425 101.435, 369.367 100.423 C 367.021 99.954, 363.125 101.544, 349.475 108.542 C 297.963 134.950, 237.518 171.115, 209.050 192.560 C 174.635 218.484, 156.432 255.395, 148.843 314.645 L 146.647 331.789 141.743 332.440 C 139.046 332.797, 132.130 334.633, 126.374 336.518 C 94.526 346.951, 75.985 362.603, 70.492 383.693 C 69.019 389.348, 68.446 401.113, 69.589 402.255 C 69.912 402.579, 73.134 401.731, 76.748 400.371 C 87.833 396.198, 95.594 394.855, 108.464 394.884 C 121.625 394.913, 132.308 397.079, 140.875 401.456 C 152.613 407.452, 170.418 426.463, 177.872 440.958 C 185.995 456.755, 188.420 468.209, 188.465 491 L 188.500 508.500 185.085 515.500 C 180.569 524.755, 171.755 533.595, 162.776 537.873 C 154.741 541.702, 142.619 544.454, 127.099 545.971 C 108.935 547.747, 100.840 550.030, 85.719 557.639 C 58.774 571.198, 43.927 590.980, 42.292 615.500 C 41.766 623.392, 43.336 637.736, 44.897 639.297 C 45.339 639.739, 47.641 637.121, 50.014 633.479 C 59.557 618.832, 70.783 611.432, 88.024 608.425 C 98.982 606.514, 110.803 606.941, 129.652 609.929 C 155.949 614.097, 172.808 615.280, 186.351 613.905 C 203.384 612.176, 219.943 604.598, 232.639 592.721 C 246.365 579.881, 254.813 563.056, 263.591 531.080 L 267 518.659 267.003 461.580 C 267.005 430.186, 267.301 396.738, 267.660 387.250 L 268.315 370 305.407 370.015 C 325.808 370.024, 343.092 370.406, 343.815 370.865 C 344.883 371.542, 345.071 382.750, 344.815 430.599 L 344.500 489.500 341.771 495.326 C 340.159 498.765, 336.358 503.931, 332.491 507.936 L 325.941 514.721 339.721 525.587 C 352.236 535.455, 374.756 556.902, 392.439 575.789 C 396.193 579.799, 399.641 582.949, 400.101 582.789 C 401.159 582.424, 507.949 488.819, 510.408 486.101 C 512.194 484.128, 512.115 484.022, 505.895 480.089 C 500.386 476.606, 499.362 476.268, 498.014 477.488 C 495.537 479.729, 487.746 482.954, 484.750 482.978 L 482 483 482 426.547 L 482 370.093 494.187 353.797 C 514.488 326.649, 525 311.838, 525 310.383 C 525 309.252, 521.356 309, 505 309 L 485 309 485.002 235.750 L 485.004 162.500 489.950 159.129 C 493.871 156.456, 495.478 155.900, 497.698 156.448 C 500.559 157.152, 513.849 165.822, 533.500 179.801 L 544.500 187.627 545.148 351.563 C 545.795 515.069, 545.802 515.519, 547.933 522.863 C 555.496 548.928, 569.739 567.893, 591.088 580.328 C 596.466 583.460, 601.306 583.732, 605.500 581.136 C 609.040 578.945, 669 522.143, 669 520.980 C 669 519.981, 659.073 511, 657.969 511 C 657.520 511, 655.816 512.125, 654.182 513.500 C 652.548 514.875, 650.826 516.010, 650.356 516.022 C 649.885 516.034, 648.375 516.924, 647 518 C 641.525 522.282, 639.499 520.393, 628.666 500.904 L 625 494.308 625 344.381 L 625 194.454 627.932 186.841 C 632.232 175.673, 638.148 164.358, 643.444 157.175 C 649.217 149.344, 649.891 147.588, 650.670 138.373 L 651.293 131 648.567 131 C 642.522 131, 629.724 137.305, 618.831 145.649 L 613.162 149.992 585.859 130.828 C 559.415 112.267, 539.766 99, 538.719 99 C 538.439 99, 528.150 106.331, 515.855 115.291 M 303.500 159.393 C 298.992 161.368, 292.822 168.641, 283.263 183.248 C 269.296 204.589, 270.544 196.472, 270.229 268 C 270.080 301.825, 270.305 333.484, 270.729 338.354 L 271.500 347.209 285.447 326.604 L 299.394 306 322.197 306 L 345 306 344.991 245.750 L 344.981 185.500 342.034 180.361 C 333.108 164.799, 314.398 154.618, 303.500 159.393 M 255.887 188.750 C 245.446 199.693, 240.615 205.928, 234.774 216 L 229.266 225.500 228.662 362.709 L 228.057 499.918 225.142 506.346 C 218.999 519.896, 205.937 535.579, 193.250 544.638 C 189.813 547.093, 187 549.516, 187 550.023 C 187 550.841, 192.538 552.745, 200.127 554.535 C 203.138 555.246, 213.304 552.912, 223.500 549.170 C 228.730 547.250, 231.777 545.323, 235.552 541.550 C 242.828 534.275, 245.786 526.314, 247.027 510.661 C 247.557 503.972, 248.257 436.400, 248.582 360.500 L 249.173 222.500 253.688 208 C 256.171 200.025, 259.250 190.912, 260.531 187.750 C 261.812 184.588, 262.740 182, 262.594 182 C 262.448 182, 259.430 185.037, 255.887 188.750 M 443.750 197.636 L 425 211.183 425.005 248.842 C 425.007 269.554, 425.301 291.563, 425.657 297.750 L 426.306 309 435.903 308.995 C 441.181 308.992, 449.887 308.699, 455.250 308.344 L 465 307.698 464.996 260.099 C 464.993 213.227, 464.261 183.957, 463.094 184.045 C 462.768 184.069, 454.063 190.185, 443.750 197.636 M 427.667 370.667 C 426.831 371.502, 426.943 414.352, 427.915 466 C 428.611 503.001, 428.793 505.842, 430.794 510.910 C 434.103 519.294, 439.600 527.002, 442.260 526.990 C 445.358 526.977, 454.322 522.668, 460.145 518.394 L 465 514.830 465 442.415 L 465 370 446.667 370 C 436.583 370, 428.033 370.300, 427.667 370.667" stroke="none" fill="#fafafa" fill-rule="evenodd"/></svg>