<svg xmlns="http://www.w3.org/2000/svg" width="750" height="750" viewBox="0 0 750 750" version="1.1"><path d="M 517.827 113.816 C 506.647 121.965, 482.048 139.978, 463.162 153.845 C 444.276 167.713, 428.383 179.158, 427.844 179.279 C 427.305 179.401, 425.369 175, 423.542 169.500 C 418.419 154.075, 410.352 136.138, 406.024 130.552 C 399.300 121.873, 374.387 101.427, 369.294 100.409 C 366.851 99.920, 363.216 101.406, 349.402 108.539 C 295.808 136.215, 237.606 171.048, 209.181 192.461 C 172.979 219.731, 153.992 260.547, 147.462 325.135 L 146.792 331.770 141.815 332.430 C 135.299 333.295, 118.165 338.939, 108.494 343.407 C 88.582 352.607, 74.777 367.242, 70.492 383.693 C 69.059 389.195, 68.436 401.103, 69.524 402.191 C 69.813 402.479, 74.524 401.183, 79.994 399.310 C 99.961 392.474, 124.918 393.385, 141 401.537 C 152.565 407.400, 170.446 426.517, 177.872 440.958 C 185.995 456.755, 188.420 468.209, 188.465 491 L 188.500 508.500 185.085 515.500 C 180.569 524.755, 171.755 533.595, 162.776 537.873 C 154.638 541.751, 142.545 544.471, 126.588 546.013 C 110.986 547.521, 101.910 549.933, 89.457 555.882 C 76.594 562.027, 68.316 567.633, 60.576 575.440 C 49.578 586.535, 43.307 600.275, 42.292 615.500 C 41.766 623.392, 43.336 637.736, 44.897 639.297 C 45.339 639.739, 47.641 637.121, 50.014 633.479 C 59.560 618.826, 70.790 611.426, 88.024 608.431 C 98.915 606.538, 111.188 606.997, 130 610.003 C 157.882 614.458, 181.055 615.571, 193.987 613.077 C 212.185 609.568, 232.831 595.975, 243.235 580.654 C 251.097 569.077, 257.322 553.915, 263.591 531.080 L 267 518.659 267 463.990 C 267 433.923, 267.296 400.474, 267.658 389.661 L 268.317 370 305.408 370.015 C 325.809 370.024, 343.095 370.408, 343.821 370.868 C 344.898 371.551, 345.083 382.611, 344.821 430.603 L 344.500 489.500 341.771 495.326 C 340.159 498.765, 336.358 503.931, 332.491 507.936 L 325.941 514.721 339.721 525.587 C 352.236 535.455, 374.756 556.902, 392.439 575.789 C 396.193 579.799, 399.642 582.949, 400.104 582.789 C 401.528 582.299, 511.861 485.549, 511.933 484.728 C 511.970 484.304, 509.279 482.198, 505.954 480.048 L 499.907 476.140 495.142 479.102 C 492.521 480.732, 488.717 482.334, 486.689 482.663 L 483 483.262 483 426.001 L 483 368.741 498.359 348.121 C 519.388 319.887, 525 311.931, 525 310.351 C 525 309.261, 521.129 309, 505 309 L 485 309 485.026 235.750 L 485.052 162.500 490.009 159.137 C 493.909 156.492, 495.556 155.920, 497.733 156.458 C 500.652 157.178, 509.991 163.279, 531.629 178.599 L 544.758 187.895 545.245 351.698 L 545.733 515.500 548.376 524.299 C 551.528 534.791, 556.458 545.463, 561.954 553.694 C 569.529 565.038, 587.814 580.366, 596.869 582.962 C 598.933 583.554, 600.856 583.286, 603.627 582.021 C 607.312 580.338, 669 522.741, 669 520.983 C 669 519.982, 659.075 511, 657.969 511 C 657.520 511, 655.816 512.125, 654.182 513.500 C 652.548 514.875, 650.826 516.010, 650.356 516.022 C 649.885 516.034, 648.375 516.924, 647 518 C 641.525 522.282, 639.499 520.393, 628.666 500.904 L 625 494.308 625 344.713 L 625 195.119 627.627 187.810 C 631.357 177.427, 638.006 164.550, 643.443 157.175 C 649.217 149.344, 649.891 147.589, 650.670 138.373 L 651.293 131 648.670 131 C 642.374 131, 630.071 137.039, 618.843 145.641 L 613.185 149.974 587.343 131.825 C 561.584 113.735, 539.751 99, 538.705 99 C 538.403 99, 529.008 105.667, 517.827 113.816 M 303.500 159.393 C 298.992 161.368, 292.822 168.641, 283.263 183.248 C 269.301 204.582, 270.543 196.547, 270.239 267.500 C 270.095 301.050, 270.320 332.702, 270.739 337.837 L 271.500 347.174 285.435 326.587 L 299.370 306 322.185 306 L 345 306 344.991 245.750 L 344.981 185.500 342.034 180.361 C 333.108 164.799, 314.398 154.618, 303.500 159.393 M 255.887 188.750 C 245.446 199.692, 240.615 205.928, 234.774 216 L 229.265 225.500 228.669 362.691 L 228.073 499.882 225.150 506.328 C 218.998 519.896, 205.944 535.574, 193.250 544.638 C 189.813 547.093, 187 549.493, 187 549.973 C 187 550.952, 191.131 552.416, 198.339 553.991 C 202.199 554.834, 204.527 554.714, 209.839 553.394 C 223.442 550.014, 230.198 546.902, 235.552 541.550 C 242.951 534.153, 245.832 526.267, 247.033 510.122 C 247.550 503.180, 248.243 435.625, 248.573 360 L 249.173 222.500 253.688 208 C 256.171 200.025, 259.250 190.912, 260.531 187.750 C 261.812 184.588, 262.740 182, 262.594 182 C 262.448 182, 259.430 185.037, 255.887 188.750 M 443.750 197.636 L 425 211.183 425 246.434 C 425 265.821, 425.295 287.830, 425.655 295.342 L 426.310 309 434.999 309 C 439.779 309, 448.484 308.707, 454.344 308.348 L 465 307.696 464.997 261.598 C 464.993 215.600, 464.217 183.960, 463.093 184.045 C 462.767 184.069, 454.063 190.185, 443.750 197.636 M 428.204 437.750 C 428.498 505.061, 428.514 505.535, 430.715 510.910 C 434.213 519.454, 439.631 527.002, 442.260 526.990 C 445.358 526.977, 454.322 522.668, 460.145 518.394 L 465 514.830 465 442.415 L 465 370 446.454 370 L 427.909 370 428.204 437.750" stroke="none" fill="#040404" fill-rule="evenodd"/><path d="M 526.765 88.286 C 523.250 90.643, 501.502 106.404, 478.437 123.310 C 455.372 140.216, 436.106 154.062, 435.624 154.078 C 435.142 154.094, 432.861 149.696, 430.555 144.304 C 420.977 121.907, 416.668 116.448, 394.461 98.584 C 379.662 86.679, 375.569 84.686, 366.929 85.174 C 360.771 85.522, 358.723 86.309, 342.849 94.425 C 289.229 121.843, 219.682 163.803, 195.333 183.426 C 168.428 205.109, 149.863 236.017, 140.029 275.500 C 138.334 282.305, 135.992 295.356, 133.159 313.783 L 132.500 318.067 120.759 321.999 C 98.538 329.441, 87.478 335.734, 74.077 348.563 C 62.154 359.977, 56.246 371.605, 53.984 388.112 C 52.059 402.159, 54.148 410.093, 61.136 415.268 C 65.921 418.812, 71.510 418.626, 83.595 414.520 C 100.652 408.725, 115.680 408.540, 130.128 413.946 C 141.689 418.272, 158.128 435.539, 165.406 451 C 169.839 460.416, 171.804 467.918, 173.005 480 C 174.579 495.844, 174.277 501.864, 171.622 507.565 C 164.899 522.002, 153.911 527.571, 126.455 530.454 C 104.912 532.717, 94.949 535.468, 78.751 543.625 C 54.010 556.085, 38.433 572.713, 30.625 595 C 28.136 602.105, 27.576 605.472, 27.211 615.518 C 26.741 628.448, 28.101 640.303, 30.677 645.732 C 31.559 647.591, 33.871 650.325, 35.813 651.806 C 38.752 654.048, 40.363 654.500, 45.422 654.500 C 53.133 654.500, 56.398 652.315, 62.329 643.188 C 70.005 631.376, 76.841 626.430, 89 623.893 C 96.315 622.366, 117.133 623.333, 132.500 625.914 C 159.504 630.449, 184.569 631.055, 200.500 627.558 C 204.350 626.713, 212.206 623.739, 217.959 620.950 C 248.635 606.073, 263.960 585.500, 276.771 542 L 281.336 526.500 282.073 500 C 282.478 485.425, 282.853 453.587, 282.905 429.250 L 283 385 306.602 385 L 330.205 385 329.478 435.750 C 328.876 477.780, 328.494 487.015, 327.253 489.500 C 326.429 491.150, 322.702 495.671, 318.970 499.547 C 311.415 507.396, 309.332 512.186, 310.979 517.928 C 312.574 523.487, 314.406 525.417, 329.564 537.500 C 346.880 551.303, 355.469 559.365, 374.313 579.500 C 392.572 599.010, 397.033 601.490, 406.207 597.224 C 409.947 595.485, 516.886 502.189, 523.386 494.994 C 528.679 489.135, 529.287 482.289, 525.121 475.439 C 522.735 471.516, 507.119 461.960, 501.963 461.268 L 498 460.737 498 417.821 L 498 374.905 513.750 353.616 L 529.500 332.328 530 425.914 L 530.500 519.500 533.306 528.500 C 536.885 539.978, 544.731 556.470, 550.369 564.362 C 556.728 573.265, 570.300 585.851, 579.930 591.777 C 593.146 599.910, 602.397 600.897, 612.260 595.225 C 614.866 593.726, 631.470 578.782, 649.159 562.015 C 683.738 529.238, 685.901 526.617, 684.506 519.182 C 684.134 517.195, 683.218 514.389, 682.472 512.946 C 680.617 509.359, 670.064 499.733, 665.734 497.678 C 661.064 495.462, 654.305 495.550, 649.721 497.888 L 646.018 499.775 643.009 494.516 L 640 489.257 640 344.091 L 640 198.925 643.472 189.935 C 647.016 180.757, 652 171.763, 658.919 162.053 C 663.593 155.495, 664.583 152.418, 666.065 139.825 C 667.425 128.274, 666.555 124.573, 661.421 120.064 C 657.042 116.220, 654.609 115.634, 645.461 116.221 C 639.259 116.619, 636.572 117.429, 628.784 121.250 C 623.678 123.755, 617.952 126.900, 616.060 128.240 L 612.619 130.676 598.560 120.683 C 577.039 105.386, 551.977 88.494, 547.290 86.126 C 544.682 84.809, 541.191 84, 538.118 84 C 533.935 84, 532.153 84.673, 526.765 88.286 M 517.827 113.816 C 506.647 121.965, 482.048 139.978, 463.162 153.845 C 444.276 167.713, 428.383 179.158, 427.844 179.279 C 427.305 179.401, 425.369 175, 423.542 169.500 C 418.419 154.075, 410.352 136.138, 406.024 130.552 C 399.300 121.873, 374.387 101.427, 369.294 100.409 C 366.851 99.920, 363.216 101.406, 349.402 108.539 C 295.808 136.215, 237.606 171.048, 209.181 192.461 C 172.979 219.731, 153.992 260.547, 147.462 325.135 L 146.792 331.770 141.815 332.430 C 135.299 333.295, 118.165 338.939, 108.494 343.407 C 88.582 352.607, 74.777 367.242, 70.492 383.693 C 69.059 389.195, 68.436 401.103, 69.524 402.191 C 69.813 402.479, 74.524 401.183, 79.994 399.310 C 99.961 392.474, 124.918 393.385, 141 401.537 C 152.565 407.400, 170.446 426.517, 177.872 440.958 C 185.995 456.755, 188.420 468.209, 188.465 491 L 188.500 508.500 185.085 515.500 C 180.569 524.755, 171.755 533.595, 162.776 537.873 C 154.638 541.751, 142.545 544.471, 126.588 546.013 C 110.986 547.521, 101.910 549.933, 89.457 555.882 C 76.594 562.027, 68.316 567.633, 60.576 575.440 C 49.578 586.535, 43.307 600.275, 42.292 615.500 C 41.766 623.392, 43.336 637.736, 44.897 639.297 C 45.339 639.739, 47.641 637.121, 50.014 633.479 C 59.560 618.826, 70.790 611.426, 88.024 608.431 C 98.915 606.538, 111.188 606.997, 130 610.003 C 157.882 614.458, 181.055 615.571, 193.987 613.077 C 212.185 609.568, 232.831 595.975, 243.235 580.654 C 251.097 569.077, 257.322 553.915, 263.591 531.080 L 267 518.659 267 463.990 C 267 433.923, 267.296 400.474, 267.658 389.661 L 268.317 370 305.408 370.015 C 325.809 370.024, 343.095 370.408, 343.821 370.868 C 344.898 371.551, 345.083 382.611, 344.821 430.603 L 344.500 489.500 341.771 495.326 C 340.159 498.765, 336.358 503.931, 332.491 507.936 L 325.941 514.721 339.721 525.587 C 352.236 535.455, 374.756 556.902, 392.439 575.789 C 396.193 579.799, 399.642 582.949, 400.104 582.789 C 401.528 582.299, 511.861 485.549, 511.933 484.728 C 511.970 484.304, 509.279 482.198, 505.954 480.048 L 499.907 476.140 495.142 479.102 C 492.521 480.732, 488.717 482.334, 486.689 482.663 L 483 483.262 483 426.001 L 483 368.741 498.359 348.121 C 519.388 319.887, 525 311.931, 525 310.351 C 525 309.261, 521.129 309, 505 309 L 485 309 485.026 235.750 L 485.052 162.500 490.009 159.137 C 493.909 156.492, 495.556 155.920, 497.733 156.458 C 500.652 157.178, 509.991 163.279, 531.629 178.599 L 544.758 187.895 545.245 351.698 L 545.733 515.500 548.376 524.299 C 551.528 534.791, 556.458 545.463, 561.954 553.694 C 569.529 565.038, 587.814 580.366, 596.869 582.962 C 598.933 583.554, 600.856 583.286, 603.627 582.021 C 607.312 580.338, 669 522.741, 669 520.983 C 669 519.982, 659.075 511, 657.969 511 C 657.520 511, 655.816 512.125, 654.182 513.500 C 652.548 514.875, 650.826 516.010, 650.356 516.022 C 649.885 516.034, 648.375 516.924, 647 518 C 641.525 522.282, 639.499 520.393, 628.666 500.904 L 625 494.308 625 344.713 L 625 195.119 627.627 187.810 C 631.357 177.427, 638.006 164.550, 643.443 157.175 C 649.217 149.344, 649.891 147.589, 650.670 138.373 L 651.293 131 648.670 131 C 642.374 131, 630.071 137.039, 618.843 145.641 L 613.185 149.974 587.343 131.825 C 561.584 113.735, 539.751 99, 538.705 99 C 538.403 99, 529.008 105.667, 517.827 113.816 M 303.500 159.393 C 298.992 161.368, 292.822 168.641, 283.263 183.248 C 269.301 204.582, 270.543 196.547, 270.239 267.500 C 270.095 301.050, 270.320 332.702, 270.739 337.837 L 271.500 347.174 285.435 326.587 L 299.370 306 322.185 306 L 345 306 344.991 245.750 L 344.981 185.500 342.034 180.361 C 333.108 164.799, 314.398 154.618, 303.500 159.393 M 255.887 188.750 C 245.446 199.692, 240.615 205.928, 234.774 216 L 229.265 225.500 228.669 362.691 L 228.073 499.882 225.150 506.328 C 218.998 519.896, 205.944 535.574, 193.250 544.638 C 189.813 547.093, 187 549.493, 187 549.973 C 187 550.952, 191.131 552.416, 198.339 553.991 C 202.199 554.834, 204.527 554.714, 209.839 553.394 C 223.442 550.014, 230.198 546.902, 235.552 541.550 C 242.951 534.153, 245.832 526.267, 247.033 510.122 C 247.550 503.180, 248.243 435.625, 248.573 360 L 249.173 222.500 253.688 208 C 256.171 200.025, 259.250 190.912, 260.531 187.750 C 261.812 184.588, 262.740 182, 262.594 182 C 262.448 182, 259.430 185.037, 255.887 188.750 M 443.750 197.636 L 425 211.183 425 246.434 C 425 265.821, 425.295 287.830, 425.655 295.342 L 426.310 309 434.999 309 C 439.779 309, 448.484 308.707, 454.344 308.348 L 465 307.696 464.997 261.598 C 464.993 215.600, 464.217 183.960, 463.093 184.045 C 462.767 184.069, 454.063 190.185, 443.750 197.636 M 428.204 437.750 C 428.498 505.061, 428.514 505.535, 430.715 510.910 C 434.213 519.454, 439.631 527.002, 442.260 526.990 C 445.358 526.977, 454.322 522.668, 460.145 518.394 L 465 514.830 465 442.415 L 465 370 446.454 370 L 427.909 370 428.204 437.750" stroke="none" fill="#e2e2e2" fill-rule="evenodd"/></svg>