<svg xmlns="http://www.w3.org/2000/svg" width="750" height="750" viewBox="0 0 750 750" version="1.1"><path d="M 515.855 115.291 C 503.560 124.251, 478.962 142.260, 461.194 155.310 C 443.425 168.360, 428.432 179.142, 427.876 179.269 C 427.319 179.396, 425.369 175, 423.542 169.500 C 418.619 154.674, 410.449 136.307, 406.442 131.052 C 399.914 122.492, 374.425 101.435, 369.367 100.423 C 367.021 99.954, 363.125 101.544, 349.475 108.542 C 297.963 134.950, 237.518 171.115, 209.050 192.560 C 174.635 218.484, 156.432 255.395, 148.843 314.645 L 146.647 331.789 141.743 332.440 C 139.046 332.797, 132.130 334.633, 126.374 336.518 C 94.526 346.951, 75.985 362.603, 70.492 383.693 C 69.019 389.348, 68.446 401.113, 69.589 402.255 C 69.912 402.579, 73.134 401.731, 76.748 400.371 C 87.833 396.198, 95.594 394.855, 108.464 394.884 C 121.625 394.913, 132.308 397.079, 140.875 401.456 C 152.613 407.452, 170.418 426.463, 177.872 440.958 C 185.995 456.755, 188.420 468.209, 188.465 491 L 188.500 508.500 185.085 515.500 C 180.569 524.755, 171.755 533.595, 162.776 537.873 C 154.741 541.702, 142.619 544.454, 127.099 545.971 C 108.935 547.747, 100.840 550.030, 85.719 557.639 C 58.774 571.198, 43.927 590.980, 42.292 615.500 C 41.766 623.392, 43.336 637.736, 44.897 639.297 C 45.339 639.739, 47.641 637.121, 50.014 633.479 C 59.557 618.832, 70.783 611.432, 88.024 608.425 C 98.982 606.514, 110.803 606.941, 129.652 609.929 C 155.949 614.097, 172.808 615.280, 186.351 613.905 C 203.384 612.176, 219.943 604.598, 232.639 592.721 C 246.365 579.881, 254.813 563.056, 263.591 531.080 L 267 518.659 267.003 461.580 C 267.005 430.186, 267.301 396.738, 267.660 387.250 L 268.315 370 305.407 370.015 C 325.808 370.024, 343.092 370.406, 343.815 370.865 C 344.883 371.542, 345.071 382.750, 344.815 430.599 L 344.500 489.500 341.771 495.326 C 340.159 498.765, 336.358 503.931, 332.491 507.936 L 325.941 514.721 339.721 525.587 C 352.236 535.455, 374.756 556.902, 392.439 575.789 C 396.193 579.799, 399.641 582.949, 400.101 582.789 C 401.159 582.424, 507.949 488.819, 510.408 486.101 C 512.194 484.128, 512.115 484.022, 505.895 480.089 C 500.386 476.606, 499.362 476.268, 498.014 477.488 C 495.537 479.729, 487.746 482.954, 484.750 482.978 L 482 483 482 426.547 L 482 370.093 494.187 353.797 C 514.488 326.649, 525 311.838, 525 310.383 C 525 309.252, 521.356 309, 505 309 L 485 309 485.002 235.750 L 485.004 162.500 489.950 159.129 C 493.871 156.456, 495.478 155.900, 497.698 156.448 C 500.559 157.152, 513.849 165.822, 533.500 179.801 L 544.500 187.627 545.148 351.563 C 545.795 515.069, 545.802 515.519, 547.933 522.863 C 555.496 548.928, 569.739 567.893, 591.088 580.328 C 596.466 583.460, 601.306 583.732, 605.500 581.136 C 609.040 578.945, 669 522.143, 669 520.980 C 669 519.981, 659.073 511, 657.969 511 C 657.520 511, 655.816 512.125, 654.182 513.500 C 652.548 514.875, 650.826 516.010, 650.356 516.022 C 649.885 516.034, 648.375 516.924, 647 518 C 641.525 522.282, 639.499 520.393, 628.666 500.904 L 625 494.308 625 344.381 L 625 194.454 627.932 186.841 C 632.232 175.673, 638.148 164.358, 643.444 157.175 C 649.217 149.344, 649.891 147.588, 650.670 138.373 L 651.293 131 648.567 131 C 642.522 131, 629.724 137.305, 618.831 145.649 L 613.162 149.992 585.859 130.828 C 559.415 112.267, 539.766 99, 538.719 99 C 538.439 99, 528.150 106.331, 515.855 115.291 M 303.500 159.393 C 298.992 161.368, 292.822 168.641, 283.263 183.248 C 269.296 204.589, 270.544 196.472, 270.229 268 C 270.080 301.825, 270.305 333.484, 270.729 338.354 L 271.500 347.209 285.447 326.604 L 299.394 306 322.197 306 L 345 306 344.991 245.750 L 344.981 185.500 342.034 180.361 C 333.108 164.799, 314.398 154.618, 303.500 159.393 M 255.887 188.750 C 245.446 199.693, 240.615 205.928, 234.774 216 L 229.266 225.500 228.662 362.709 L 228.057 499.918 225.142 506.346 C 218.999 519.896, 205.937 535.579, 193.250 544.638 C 189.813 547.093, 187 549.516, 187 550.023 C 187 550.841, 192.538 552.745, 200.127 554.535 C 203.138 555.246, 213.304 552.912, 223.500 549.170 C 228.730 547.250, 231.777 545.323, 235.552 541.550 C 242.828 534.275, 245.786 526.314, 247.027 510.661 C 247.557 503.972, 248.257 436.400, 248.582 360.500 L 249.173 222.500 253.688 208 C 256.171 200.025, 259.250 190.912, 260.531 187.750 C 261.812 184.588, 262.740 182, 262.594 182 C 262.448 182, 259.430 185.037, 255.887 188.750 M 443.750 197.636 L 425 211.183 425.005 248.842 C 425.007 269.554, 425.301 291.563, 425.657 297.750 L 426.306 309 435.903 308.995 C 441.181 308.992, 449.887 308.699, 455.250 308.344 L 465 307.698 464.996 260.099 C 464.993 213.227, 464.261 183.957, 463.094 184.045 C 462.768 184.069, 454.063 190.185, 443.750 197.636 M 427.667 370.667 C 426.831 371.502, 426.943 414.352, 427.915 466 C 428.611 503.001, 428.793 505.842, 430.794 510.910 C 434.103 519.294, 439.600 527.002, 442.260 526.990 C 445.358 526.977, 454.322 522.668, 460.145 518.394 L 465 514.830 465 442.415 L 465 370 446.667 370 C 436.583 370, 428.033 370.300, 427.667 370.667" stroke="none" fill="#040404" fill-rule="evenodd"/><path d="M 522.054 94.005 C 515.934 98.408, 494.055 114.387, 473.435 129.515 C 452.814 144.642, 435.501 157.127, 434.960 157.260 C 434.420 157.392, 431.601 151.848, 428.695 144.939 C 421.461 127.739, 418.940 123.759, 409.362 114.414 C 399.352 104.647, 381.547 90.544, 376.632 88.491 C 374.670 87.671, 370.540 87, 367.454 87 C 362.301 87, 360.205 87.842, 341.672 97.358 C 287.808 125.017, 221.627 164.949, 197.347 184.441 C 163.247 211.816, 143.745 250.894, 136.297 306.775 L 134.528 320.050 130.514 321.056 C 115.269 324.877, 95.471 333.785, 85.413 341.348 C 65.048 356.660, 55.827 373.617, 55.598 396.175 C 55.489 406.936, 56.496 409.330, 62.990 413.750 C 67.597 416.885, 71.743 416.595, 83.965 412.283 C 94.017 408.737, 95.096 408.565, 107.500 408.533 C 118.287 408.506, 121.728 408.886, 127.712 410.767 C 142.872 415.533, 161.660 435.192, 169.305 454.288 C 172.933 463.351, 174.806 473.578, 175.597 488.644 L 176.288 501.788 173.291 508.191 C 169.368 516.576, 165.363 520.997, 158.285 524.758 C 150.583 528.850, 143.010 530.691, 126.363 532.517 C 108.115 534.518, 107.170 534.708, 95.500 538.710 C 76.382 545.267, 56.488 558.335, 46.105 571.157 C 39.365 579.481, 33.412 591.069, 30.968 600.623 C 27.522 614.100, 28.862 639.562, 33.381 646.458 C 37.491 652.731, 46.476 654.836, 52.768 651 C 54.565 649.905, 58.022 645.937, 60.449 642.184 C 74.203 620.923, 88.190 617.462, 133.199 624.179 C 151.486 626.909, 157.259 627.360, 174 627.369 C 191.044 627.379, 194.508 627.102, 201.500 625.174 C 229.200 617.536, 251.778 598.184, 263.977 571.624 C 268.023 562.814, 273.391 547.046, 277.466 532 L 280.038 522.500 280.682 452.750 L 281.326 383 306.771 383 L 332.217 383 331.493 434.750 C 330.930 475.004, 330.464 487.243, 329.396 489.845 C 328.641 491.684, 324.855 496.457, 320.983 500.450 C 313.138 508.540, 311.460 512.282, 313.042 518.157 C 314.147 522.261, 316.908 524.901, 335 539.156 C 345.063 547.085, 365.880 567.180, 384.248 586.696 C 393.955 597.009, 397.176 598.497, 404.176 595.899 C 406.488 595.042, 418.286 585.403, 434.655 571 C 449.345 558.075, 474.894 535.626, 491.432 521.114 C 507.969 506.602, 522.536 493.102, 523.803 491.114 C 526.581 486.756, 526.347 480.701, 523.233 476.327 C 520.073 471.890, 504.454 463, 499.817 463 L 496 463 496 418.525 L 496 374.050 510.308 354.775 C 518.177 344.174, 526.164 333.312, 528.058 330.637 L 531.500 325.775 532.007 422.637 L 532.514 519.500 535.340 528.500 C 541.179 547.089, 548.811 560.550, 560.500 572.880 C 568.860 581.698, 576.196 587.489, 585.570 592.670 C 591.750 596.085, 593.258 596.500, 599.500 596.500 C 605.290 596.500, 607.278 596.039, 611 593.835 C 613.475 592.369, 630.200 577.188, 648.167 560.100 C 672.496 536.961, 681.126 528.149, 681.974 525.578 C 683.850 519.895, 682.325 515.229, 676.597 509.126 C 666.188 498.034, 658.089 495.403, 649.500 500.325 L 645.500 502.618 641.750 496.235 L 638 489.853 638 344.099 L 638 198.344 641.382 189.728 C 645.313 179.718, 650.536 170.071, 655.666 163.351 C 661.016 156.342, 662.717 151.639, 664.033 140.220 C 665.404 128.327, 664.780 125.770, 659.342 120.995 C 656.267 118.296, 655.259 118, 649.122 118 C 639.216 118, 626.677 122.845, 616.154 130.739 L 612.807 133.249 608.154 129.964 C 578.548 109.062, 559.753 96.082, 552.488 91.521 C 544.717 86.642, 543.084 86, 538.438 86 C 533.460 86, 532.591 86.425, 522.054 94.005 M 515.855 115.291 C 503.560 124.251, 478.962 142.260, 461.194 155.310 C 443.425 168.360, 428.432 179.142, 427.876 179.269 C 427.319 179.396, 425.369 175, 423.542 169.500 C 418.619 154.674, 410.449 136.307, 406.442 131.052 C 399.914 122.492, 374.425 101.435, 369.367 100.423 C 367.021 99.954, 363.125 101.544, 349.475 108.542 C 297.963 134.950, 237.518 171.115, 209.050 192.560 C 174.635 218.484, 156.432 255.395, 148.843 314.645 L 146.647 331.789 141.743 332.440 C 139.046 332.797, 132.130 334.633, 126.374 336.518 C 94.526 346.951, 75.985 362.603, 70.492 383.693 C 69.019 389.348, 68.446 401.113, 69.589 402.255 C 69.912 402.579, 73.134 401.731, 76.748 400.371 C 87.833 396.198, 95.594 394.855, 108.464 394.884 C 121.625 394.913, 132.308 397.079, 140.875 401.456 C 152.613 407.452, 170.418 426.463, 177.872 440.958 C 185.995 456.755, 188.420 468.209, 188.465 491 L 188.500 508.500 185.085 515.500 C 180.569 524.755, 171.755 533.595, 162.776 537.873 C 154.741 541.702, 142.619 544.454, 127.099 545.971 C 108.935 547.747, 100.840 550.030, 85.719 557.639 C 58.774 571.198, 43.927 590.980, 42.292 615.500 C 41.766 623.392, 43.336 637.736, 44.897 639.297 C 45.339 639.739, 47.641 637.121, 50.014 633.479 C 59.557 618.832, 70.783 611.432, 88.024 608.425 C 98.982 606.514, 110.803 606.941, 129.652 609.929 C 155.949 614.097, 172.808 615.280, 186.351 613.905 C 203.384 612.176, 219.943 604.598, 232.639 592.721 C 246.365 579.881, 254.813 563.056, 263.591 531.080 L 267 518.659 267.003 461.580 C 267.005 430.186, 267.301 396.738, 267.660 387.250 L 268.315 370 305.407 370.015 C 325.808 370.024, 343.092 370.406, 343.815 370.865 C 344.883 371.542, 345.071 382.750, 344.815 430.599 L 344.500 489.500 341.771 495.326 C 340.159 498.765, 336.358 503.931, 332.491 507.936 L 325.941 514.721 339.721 525.587 C 352.236 535.455, 374.756 556.902, 392.439 575.789 C 396.193 579.799, 399.641 582.949, 400.101 582.789 C 401.159 582.424, 507.949 488.819, 510.408 486.101 C 512.194 484.128, 512.115 484.022, 505.895 480.089 C 500.386 476.606, 499.362 476.268, 498.014 477.488 C 495.537 479.729, 487.746 482.954, 484.750 482.978 L 482 483 482 426.547 L 482 370.093 494.187 353.797 C 514.488 326.649, 525 311.838, 525 310.383 C 525 309.252, 521.356 309, 505 309 L 485 309 485.002 235.750 L 485.004 162.500 489.950 159.129 C 493.871 156.456, 495.478 155.900, 497.698 156.448 C 500.559 157.152, 513.849 165.822, 533.500 179.801 L 544.500 187.627 545.148 351.563 C 545.795 515.069, 545.802 515.519, 547.933 522.863 C 555.496 548.928, 569.739 567.893, 591.088 580.328 C 596.466 583.460, 601.306 583.732, 605.500 581.136 C 609.040 578.945, 669 522.143, 669 520.980 C 669 519.981, 659.073 511, 657.969 511 C 657.520 511, 655.816 512.125, 654.182 513.500 C 652.548 514.875, 650.826 516.010, 650.356 516.022 C 649.885 516.034, 648.375 516.924, 647 518 C 641.525 522.282, 639.499 520.393, 628.666 500.904 L 625 494.308 625 344.381 L 625 194.454 627.932 186.841 C 632.232 175.673, 638.148 164.358, 643.444 157.175 C 649.217 149.344, 649.891 147.588, 650.670 138.373 L 651.293 131 648.567 131 C 642.522 131, 629.724 137.305, 618.831 145.649 L 613.162 149.992 585.859 130.828 C 559.415 112.267, 539.766 99, 538.719 99 C 538.439 99, 528.150 106.331, 515.855 115.291 M 303.500 159.393 C 298.992 161.368, 292.822 168.641, 283.263 183.248 C 269.296 204.589, 270.544 196.472, 270.229 268 C 270.080 301.825, 270.305 333.484, 270.729 338.354 L 271.500 347.209 285.447 326.604 L 299.394 306 322.197 306 L 345 306 344.991 245.750 L 344.981 185.500 342.034 180.361 C 333.108 164.799, 314.398 154.618, 303.500 159.393 M 307.576 173.119 C 304.323 175.678, 289.505 197.733, 286.156 205 C 283.740 210.243, 283.601 211.534, 283.184 232.620 C 282.944 244.787, 283.080 265.822, 283.486 279.365 L 284.225 303.990 287.042 300.101 C 292.156 293.041, 292.308 293, 313.223 293 L 332 293 332 241.259 L 332 189.517 328.391 184.277 C 326.267 181.193, 322.711 177.763, 319.747 175.939 C 311.910 171.117, 310.528 170.797, 307.576 173.119 M 498 233.266 L 498 294.728 512.763 295.202 C 521.387 295.479, 528.456 296.174, 529.763 296.873 L 532 298.070 532 280.699 C 532 271.144, 531.704 247.821, 531.342 228.870 L 530.684 194.414 517.186 184.957 C 509.762 179.756, 502.409 174.668, 500.844 173.652 L 498 171.804 498 233.266 M 255.887 188.750 C 245.446 199.693, 240.615 205.928, 234.774 216 L 229.266 225.500 228.662 362.709 L 228.057 499.918 225.142 506.346 C 218.999 519.896, 205.937 535.579, 193.250 544.638 C 189.813 547.093, 187 549.516, 187 550.023 C 187 550.841, 192.538 552.745, 200.127 554.535 C 203.138 555.246, 213.304 552.912, 223.500 549.170 C 228.730 547.250, 231.777 545.323, 235.552 541.550 C 242.828 534.275, 245.786 526.314, 247.027 510.661 C 247.557 503.972, 248.257 436.400, 248.582 360.500 L 249.173 222.500 253.688 208 C 256.171 200.025, 259.250 190.912, 260.531 187.750 C 261.812 184.588, 262.740 182, 262.594 182 C 262.448 182, 259.430 185.037, 255.887 188.750 M 443.750 197.636 L 425 211.183 425.005 248.842 C 425.007 269.554, 425.301 291.563, 425.657 297.750 L 426.306 309 435.903 308.995 C 441.181 308.992, 449.887 308.699, 455.250 308.344 L 465 307.698 464.996 260.099 C 464.993 213.227, 464.261 183.957, 463.094 184.045 C 462.768 184.069, 454.063 190.185, 443.750 197.636 M 444.804 213.327 L 439.107 217.500 439.054 256.250 L 439 295 445 295 L 451 295 451 252 C 451 228.350, 450.887 209.035, 450.750 209.077 C 450.613 209.119, 447.937 211.032, 444.804 213.327 M 427.667 370.667 C 426.831 371.502, 426.943 414.352, 427.915 466 C 428.611 503.001, 428.793 505.842, 430.794 510.910 C 434.103 519.294, 439.600 527.002, 442.260 526.990 C 445.358 526.977, 454.322 522.668, 460.145 518.394 L 465 514.830 465 442.415 L 465 370 446.667 370 C 436.583 370, 428.033 370.300, 427.667 370.667 M 441.230 442.250 C 441.621 502.797, 441.815 505.866, 445.516 509.849 C 446.563 510.976, 447.198 510.916, 449.384 509.484 L 452 507.770 452 445.385 L 452 383 446.424 383 L 440.847 383 441.230 442.250" stroke="none" fill="#fafafa" fill-rule="evenodd"/></svg>