<?xml version="1.0" standalone="no"?>
<!DOCTYPE svg PUBLIC "-//W3C//DTD SVG 20010904//EN"
 "http://www.w3.org/TR/2001/REC-SVG-20010904/DTD/svg10.dtd">
<svg version="1.0" xmlns="http://www.w3.org/2000/svg"
 width="512.000000pt" height="475.000000pt" viewBox="0 0 512.000000 475.000000"
 preserveAspectRatio="xMidYMid meet">

<rect width="100%" height="100%" fill="#FFFFFF"/>

 
<g transform="translate(0.000000,475.000000) scale(0.100000,-0.100000)"
fill="#000000" stroke="none">
<path d="M1 4063 c1 -379 3 -680 6 -670 2 9 9 17 13 17 5 0 7 14 3 32 -4 22
-3 29 5 24 8 -4 10 -2 6 8 -9 23 35 112 62 124 24 11 33 32 14 32 -5 0 2 12
15 26 14 15 25 31 25 36 0 21 42 68 61 68 10 0 19 5 19 10 0 6 11 22 24 34 22
23 36 48 35 63 -1 3 6 10 15 15 9 5 28 35 43 66 14 31 29 59 33 62 3 3 16 25
28 50 15 33 21 39 22 23 0 -12 -4 -24 -9 -27 -4 -3 -16 -34 -25 -68 -22 -78
-38 -125 -70 -206 -13 -34 -30 -88 -36 -120 -26 -131 -111 -460 -128 -492
l-17 -35 -3 53 c-3 44 -6 52 -23 52 -13 0 -19 -7 -19 -21 0 -14 -5 -19 -14
-16 -8 3 -18 -5 -25 -19 -6 -14 -17 -24 -23 -23 -7 1 -19 1 -25 0 -10 -1 -13
-324 -13 -1581 l0 -1580 136 0 c131 0 136 1 131 20 -3 11 -1 18 4 14 5 -3 9
-12 9 -20 0 -12 215 -14 1633 -14 l1634 0 36 78 c40 84 44 104 23 121 -11 9
-19 6 -37 -15 -13 -14 -32 -35 -41 -45 -10 -10 -18 -23 -18 -29 0 -5 -7 -10
-15 -10 -8 0 -24 -9 -35 -20 -11 -11 -20 -17 -20 -12 0 4 -7 -2 -15 -12 -27
-35 -16 -6 44 119 33 68 71 156 85 195 15 40 36 86 48 103 12 16 22 43 23 59
2 16 8 35 15 41 10 9 11 6 8 -15 -6 -33 -6 -33 34 -12 22 11 33 13 41 5 16
-16 43 -14 61 5 9 8 16 12 16 8 0 -3 7 -1 15 6 11 9 19 10 27 2 14 -14 -3 -65
-67 -192 -29 -58 -65 -127 -78 -155 -51 -100 -77 -158 -74 -161 8 -9 79 90
106 147 16 35 65 141 108 234 44 94 85 191 93 217 12 46 23 58 34 39 3 -5 17
-12 31 -15 36 -9 100 35 137 95 17 27 37 49 43 49 7 0 18 6 24 14 7 8 21 12
31 9 23 -6 21 -28 -9 -103 -33 -81 -43 -114 -50 -155 -3 -22 -10 -38 -14 -35
-5 3 -25 -26 -46 -65 -67 -126 -154 -279 -172 -307 -22 -30 -23 -38 -7 -38 26
0 162 169 231 289 37 61 37 64 19 80 -16 14 -17 18 -6 29 12 11 14 9 14 -8 0
-12 5 -18 10 -15 6 4 7 11 4 17 -4 6 0 14 7 19 9 6 10 12 4 16 -6 5 -10 14 -9
21 4 33 6 36 14 17 7 -17 9 -15 9 13 1 18 8 43 17 56 8 14 16 48 16 78 2 84
11 99 55 95 33 -4 42 0 71 30 17 20 32 39 32 44 0 5 11 9 25 9 20 0 25 6 31
34 6 35 25 46 81 50 12 1 32 14 44 30 12 15 32 32 45 36 13 5 24 14 24 20 0 8
-6 8 -20 0 -20 -11 -27 -2 -11 16 11 11 63 166 57 171 -5 5 -49 -71 -99 -171
-22 -44 -42 -75 -45 -68 -2 8 1 19 7 25 6 6 11 20 11 32 0 11 7 33 15 49 9 16
13 31 11 33 -3 3 4 20 14 38 l18 33 -33 -8 c-50 -11 -126 -50 -119 -61 3 -6
-1 -21 -10 -34 -9 -13 -16 -34 -16 -46 0 -11 -8 -35 -17 -52 -10 -18 -18 -33
-18 -33 0 -1 -9 -4 -20 -8 -18 -5 -20 -1 -23 47 -4 59 -22 88 -45 68 -14 -11
-47 -6 -47 9 0 4 11 27 23 51 13 24 33 69 44 99 12 30 32 80 45 110 32 71 176
263 193 257 7 -3 21 13 34 41 24 53 99 157 128 177 16 11 26 11 66 -2 38 -12
48 -21 57 -49 7 -19 9 -46 6 -62 -9 -45 -16 -201 -7 -162 5 19 23 89 41 155
17 66 47 192 66 280 18 88 36 171 40 185 5 23 5 24 -14 7 -10 -9 -23 -17 -28
-17 -5 0 -22 -16 -37 -36 -16 -19 -31 -33 -34 -30 -6 5 -33 -18 -33 -29 0 -3
-14 -18 -30 -32 -17 -13 -27 -30 -23 -35 3 -6 1 -8 -4 -5 -6 4 -26 -11 -44
-32 -19 -21 -56 -64 -84 -96 -27 -32 -52 -61 -55 -65 -3 -4 -15 -12 -28 -19
-12 -7 -21 -15 -20 -19 2 -4 -12 -23 -31 -42 -31 -32 -33 -33 -26 -10 11 37
63 139 138 274 37 66 65 121 63 124 -6 5 -63 -83 -71 -109 -3 -10 -22 -27 -42
-39 l-35 -21 5 23 c3 13 15 70 27 128 12 58 37 146 56 195 24 66 34 107 34
150 1 34 9 84 21 115 11 30 47 136 80 235 34 99 69 189 79 200 10 11 15 27 12
35 -4 12 -3 13 10 2 13 -10 17 -10 21 2 3 8 17 22 32 32 20 13 28 14 40 4 12
-10 16 -9 21 4 3 9 15 16 25 16 11 0 26 15 38 38 l20 37 -5 -50 c-3 -27 -16
-88 -29 -135 -13 -47 -27 -106 -30 -130 l-7 -45 20 40 c11 22 32 83 46 136 24
88 26 114 26 283 0 102 -2 186 -5 186 -9 0 -59 -34 -67 -44 -4 -6 -10 -7 -14
-3 -4 4 -18 0 -31 -8 -22 -15 -23 -14 -23 8 0 13 7 68 15 122 8 54 13 101 10
103 -5 5 -20 -31 -31 -73 -8 -29 -8 -28 -14 15 -5 40 -6 34 -13 -45 -10 -116
-22 -168 -42 -180 -20 -12 -115 -80 -131 -94 -7 -6 -15 -6 -22 1 -14 14 -72
-9 -72 -28 0 -8 -4 -14 -10 -14 -5 0 -10 7 -10 15 0 13 -10 15 -50 12 -28 -2
-49 0 -48 3 2 3 22 44 45 90 51 104 88 187 97 220 4 14 -20 -29 -52 -96 -51
-104 -132 -237 -154 -254 -4 -3 -11 -18 -17 -33 -13 -34 -31 -34 -70 -1 -27
22 -37 25 -73 19 -24 -4 -55 -13 -69 -21 -15 -7 -29 -10 -33 -7 -3 4 -6 2 -6
-3 0 -6 -16 -11 -35 -12 -45 -3 -45 13 -2 60 162 177 331 417 425 604 57 113
73 154 59 148 -7 -2 -34 -50 -62 -106 -97 -196 -259 -422 -404 -563 -69 -67
-94 -86 -100 -76 -6 10 -17 11 -37 6 -29 -7 -142 -13 -156 -7 -4 1 -3 14 3 28
7 20 6 25 -3 21 -7 -2 -23 -1 -35 4 -15 6 -20 14 -16 28 3 12 9 21 13 21 4 0
11 11 14 25 4 14 17 35 29 48 42 41 156 200 184 255 15 31 34 63 41 70 7 7 10
18 7 23 -8 12 -16 12 -12 0 1 -5 -9 -20 -23 -33 -28 -28 -44 -48 -80 -98 -36
-51 -69 -82 -80 -75 -6 3 -7 -1 -4 -9 3 -9 1 -16 -5 -16 -6 0 -11 3 -11 8 0 4
-19 7 -42 7 -40 0 -44 3 -61 40 -11 22 -26 45 -35 51 -8 6 -12 16 -8 22 8 14
-21 119 -35 128 -6 3 -8 18 -5 33 l6 26 -16 -22 c-22 -31 -31 -29 -31 7 0 17
4 30 8 30 4 0 10 17 13 38 4 20 9 45 12 55 4 11 0 17 -10 17 -9 0 -16 -7 -16
-15 0 -8 -7 -15 -15 -15 -8 0 -15 -4 -15 -9 0 -4 -24 -34 -54 -66 -35 -37 -53
-63 -49 -74 4 -14 3 -14 -6 -1 -9 13 -13 11 -28 -10 -36 -51 -172 -198 -229
-246 -155 -131 -399 -282 -421 -261 -3 4 0 7 7 7 7 0 21 7 31 16 17 15 17 18
2 40 -15 23 -13 26 58 106 41 46 104 116 141 156 80 87 258 336 258 361 0 16
80 131 91 131 8 0 7 -6 -3 -17 -9 -10 -13 -24 -11 -30 3 -7 0 -13 -6 -13 -6 0
-11 -5 -11 -12 0 -6 -11 -26 -24 -43 -14 -18 -28 -44 -32 -59 -3 -14 -10 -29
-15 -31 -4 -3 -5 -13 -2 -21 5 -13 9 -11 22 8 21 31 36 32 37 3 1 -15 -3 -22
-11 -19 -7 3 -15 -2 -18 -10 -7 -17 -2 -18 63 -19 29 0 39 6 58 34 26 40 62
84 108 134 18 20 50 67 70 103 68 123 126 169 364 287 225 112 253 125 265
125 15 0 36 -37 29 -54 -3 -8 0 -17 7 -21 7 -5 10 -3 7 6 -3 8 1 19 7 26 7 6
17 39 24 72 10 52 18 65 52 93 22 18 57 48 76 66 36 32 36 32 10 32 -16 0 -38
-13 -59 -34 -68 -69 -334 -248 -457 -307 -401 -193 -464 -218 -516 -205 -31 8
-40 5 -40 -14 0 -19 -209 -98 -395 -149 -249 -67 -1098 -159 -1245 -134 -28 4
-108 5 -180 2 -71 -3 -132 -4 -135 -2 -2 2 2 8 10 13 13 8 12 10 -2 10 -9 0
-20 -4 -23 -10 -7 -12 -25 -13 -25 -2 0 17 65 34 138 37 42 1 77 4 77 5 0 4
33 10 98 18 32 4 56 12 55 17 -2 6 15 13 37 16 22 4 67 15 100 26 47 16 56 22
42 28 -18 8 -105 -4 -217 -30 -158 -36 -276 -43 -302 -17 -13 13 0 53 73 227
63 148 65 155 49 155 -5 0 -10 -4 -10 -10 0 -5 -16 -34 -35 -64 -19 -30 -35
-58 -35 -61 0 -4 -10 -19 -21 -33 l-21 -27 6 35 c3 20 -4 7 -17 -30 -13 -36
-37 -92 -53 -125 -27 -54 -34 -60 -67 -66 -21 -3 -40 -3 -42 1 -7 12 13 123
40 220 14 52 32 120 40 150 17 67 56 169 88 232 14 25 30 61 36 78 8 26 14 31
28 24 29 -13 73 -8 91 10 15 15 -5 16 -275 16 l-291 0 -17 -37 c-10 -21 -21
-40 -24 -43 -3 -3 -17 -25 -30 -50 -14 -25 -31 -51 -39 -59 -9 -9 -10 -16 -3
-20 6 -4 1 -22 -14 -46 -13 -22 -31 -55 -40 -72 -10 -18 -22 -30 -27 -27 -5 3
-9 0 -7 -7 4 -35 -1 -48 -18 -42 -15 6 -16 4 -5 -9 8 -11 10 -30 6 -58 -5 -31
-4 -41 4 -36 7 4 12 13 12 20 0 8 7 20 16 27 10 8 36 54 60 104 44 90 78 152
94 169 14 14 22 -37 11 -67 -6 -15 -7 -27 -2 -27 13 0 33 28 27 38 -3 5 6 7
20 4 16 -3 23 -9 20 -18 -3 -8 1 -14 8 -14 18 0 30 50 17 63 -17 17 -13 27 14
37 14 5 25 16 25 25 0 8 4 15 8 15 4 0 27 18 51 41 33 30 51 39 71 37 15 -1
35 4 44 11 21 18 31 8 17 -17 -6 -12 -11 -29 -11 -39 0 -10 -43 -104 -95 -209
-52 -106 -122 -262 -156 -348 -49 -126 -64 -156 -80 -156 -10 0 -19 -6 -19
-12 0 -9 -4 -8 -10 2 -8 12 -13 13 -29 3 -12 -8 -40 -10 -76 -7 -82 8 -63 -10
33 -32 42 -10 80 -20 85 -24 4 -3 -8 -58 -27 -121 -55 -181 -87 -305 -120
-459 -38 -176 -44 -208 -49 -260 -6 -60 -38 -213 -64 -299 -16 -54 -22 -54
-37 -3 -4 12 -3 22 3 22 5 0 11 -8 13 -17 2 -10 3 25 2 77 -1 52 3 139 8 194
8 80 7 100 -4 107 -17 11 -18 20 -18 263 0 214 1 230 26 351 8 39 16 93 18
120 6 68 24 204 32 238 10 41 -13 34 -32 -10 -9 -21 -18 -53 -21 -71 -3 -18
-11 -45 -18 -58 -12 -24 -14 -25 -24 -7 -9 15 -10 11 -5 -19 5 -32 3 -36 -13
-34 -10 2 -23 -4 -30 -13 -7 -9 -13 -11 -13 -6 0 10 -14 14 -57 17 -7 1 -13
11 -14 22 0 12 -3 15 -6 9 -8 -21 -23 -15 -24 10 -1 38 -29 -38 -39 -107 -4
-33 -15 -104 -25 -156 -9 -52 -15 -112 -13 -132 2 -21 0 -39 -4 -40 -4 -2 -9
-51 -10 -110 -2 -64 -7 -106 -13 -105 -5 1 -11 -11 -13 -28 -2 -16 -7 -42 -13
-56 -9 -23 -13 -25 -34 -15 -17 8 -23 19 -23 44 0 18 -5 39 -12 47 -6 8 -10
31 -8 52 4 47 -12 58 -25 18 -17 -51 -46 -85 -73 -85 -20 0 -24 4 -19 19 22
70 45 166 44 180 -1 9 2 27 8 41 6 14 33 93 61 175 28 83 62 182 75 220 13 39
36 108 51 155 25 80 95 270 103 279 1 2 6 2 9 -2 6 -5 -16 -86 -36 -132 -19
-44 -20 -74 -4 -89 8 -9 19 -16 23 -16 11 0 42 75 61 151 20 77 59 169 73 169
5 0 6 -15 2 -32 -5 -28 -4 -31 7 -18 7 8 18 15 23 15 47 2 94 19 104 38 26 52
51 90 80 125 17 20 49 65 71 100 22 35 49 73 60 84 11 12 20 25 20 30 0 4
-243 8 -540 8 l-540 0 1 -687z m1293 240 c-3 -16 -17 -50 -30 -78 -32 -66 -84
-219 -84 -247 0 -21 0 -21 -19 -2 -18 19 -18 19 0 40 11 11 16 24 12 28 -4 4
0 21 9 39 9 18 26 61 38 97 29 88 58 150 70 150 6 0 8 -12 4 -27z m-853 -176
c-8 -8 -11 -7 -11 4 0 20 13 34 18 19 3 -7 -1 -17 -7 -23z m3218 19 c7 -8 8
-17 3 -20 -6 -3 -12 3 -15 14 -6 24 -4 25 12 6z m-349 -96 c0 -24 -258 -184
-462 -287 -229 -115 -561 -221 -800 -256 -16 -2 -28 -1 -28 3 0 9 40 21 230
69 165 42 400 125 515 183 99 50 220 125 331 205 52 37 105 74 117 80 26 15
97 17 97 3z m-1473 -56 c-3 -3 -12 -4 -19 -1 -8 3 -5 6 6 6 11 1 17 -2 13 -5z
m1200 -21 c8 -23 -247 -175 -392 -233 -44 -17 -89 -36 -100 -40 -36 -16 -65
-21 -65 -13 1 11 107 86 153 108 20 9 36 20 35 23 0 4 0 14 1 22 1 12 5 11 16
-4 13 -17 16 -18 37 -3 13 8 36 27 52 41 16 14 35 26 41 26 7 0 26 14 42 30
22 23 47 34 94 44 69 15 81 15 86 -1z m-287 -44 c-36 -17 -110 -48 -165 -70
-55 -22 -138 -56 -185 -75 -100 -40 -222 -77 -306 -93 -32 -7 -70 -14 -84 -17
-60 -13 3 16 100 46 58 17 182 69 276 115 140 68 186 86 250 96 44 6 93 15
109 19 65 17 67 7 5 -21z m-1280 -9 c0 -5 -4 -10 -10 -10 -5 0 -10 5 -10 10 0
6 5 10 10 10 6 0 10 -4 10 -10z m-117 -7 c-7 -2 -21 -2 -30 0 -10 3 -4 5 12 5
17 0 24 -2 18 -5z m1403 -18 c-11 -8 -24 -15 -29 -15 -6 0 -16 -8 -24 -17 -10
-13 -13 -14 -10 -3 2 8 17 22 33 31 36 21 56 24 30 4z m-1121 -65 c-4 -6 7
-10 24 -10 37 0 38 -7 6 -42 -35 -38 -98 -143 -175 -293 -169 -328 -251 -654
-253 -1005 l-1 -165 -13 70 c-11 52 -13 121 -8 270 9 321 15 391 47 555 16 85
30 162 32 170 1 9 5 20 8 25 3 6 11 35 19 65 7 30 16 60 20 65 9 13 38 125 41
159 1 14 5 26 9 26 4 0 5 9 2 19 -4 16 4 24 40 41 24 11 48 20 53 19 5 -1 16
1 24 5 15 6 106 32 123 35 5 0 5 -3 2 -9z m144 -11 c48 -17 47 -25 -26 -178
-60 -126 -97 -220 -91 -227 3 -2 15 19 27 46 14 32 27 48 34 43 18 -10 88 -66
108 -84 9 -9 20 -18 25 -20 5 -2 23 -33 39 -69 17 -36 32 -67 36 -70 3 -3 16
-23 29 -45 34 -57 115 -153 157 -187 20 -15 47 -28 61 -28 14 0 22 -3 18 -7
-15 -15 112 -48 173 -45 55 3 59 5 57 28 0 13 -5 23 -11 23 -33 -4 -37 1 -30
40 6 38 5 41 -37 71 -58 43 -85 52 -109 40 -23 -13 -26 2 -3 20 13 12 9 20
-35 64 -47 48 -151 206 -151 230 0 16 44 31 146 50 123 22 122 22 126 -16 2
-23 9 -34 22 -36 11 -3 16 0 12 7 -7 11 20 19 65 19 20 0 30 -10 48 -44 22
-40 70 -72 85 -56 4 3 15 -4 26 -16 12 -12 26 -22 32 -22 6 0 9 -3 5 -6 -3 -4
4 -21 17 -38 13 -17 26 -43 30 -58 5 -22 1 -30 -23 -48 -16 -11 -45 -27 -63
-35 -52 -22 -3 -19 88 6 42 11 80 17 84 12 13 -13 29 -76 26 -102 -2 -19 -9
-24 -37 -26 -19 -1 -54 -5 -78 -10 -24 -4 -41 -3 -38 1 3 5 -8 9 -25 10 -38 2
-26 -8 42 -37 103 -42 75 -52 -42 -15 -53 17 -61 8 -30 -32 14 -18 31 -24 77
-29 33 -4 83 -17 110 -30 28 -12 56 -23 63 -23 8 0 27 -9 43 -21 28 -20 31
-20 54 -5 14 9 25 12 25 6 0 -5 -4 -10 -9 -10 -5 0 -16 -6 -23 -14 -18 -17
-82 -50 -130 -65 -84 -27 -17 -43 145 -35 77 4 112 3 122 -6 8 -7 22 -10 30
-6 25 9 17 -3 -25 -43 -22 -21 -37 -41 -33 -45 4 -4 -1 -4 -11 0 -13 5 -17 4
-12 -4 8 -13 -10 -25 -109 -76 -72 -37 -70 -42 10 -37 39 2 269 58 317 76 34
13 138 12 160 -1 17 -11 6 -45 -22 -71 -55 -49 -142 -110 -189 -134 -66 -33
-35 -35 85 -4 58 15 111 24 119 21 18 -7 9 -35 -19 -59 -21 -17 -21 -17 9 -15
27 3 30 0 38 -37 25 -113 61 -224 83 -259 34 -51 55 -125 61 -217 l5 -75 -40
-27 c-23 -14 -76 -43 -119 -63 -118 -55 -123 -56 -129 -39 -9 22 13 44 52 51
41 8 55 24 20 24 -14 0 -33 9 -43 19 -10 11 -31 24 -46 30 -36 14 -149 13
-207 -1 -25 -6 -76 -12 -113 -12 -81 -1 -98 -16 -73 -65 28 -52 94 -60 161
-19 35 21 110 24 129 5 7 -7 18 -22 24 -33 9 -18 8 -25 -10 -40 -15 -14 -22
-16 -25 -6 -6 17 -23 15 -23 -3 0 -8 -9 -20 -20 -27 -11 -7 -20 -19 -20 -26 0
-7 -5 -21 -12 -31 -21 -34 2 -83 50 -108 24 -13 40 -18 37 -13 -8 13 8 13 22
-1 19 -19 88 8 160 62 76 57 133 116 133 139 0 9 23 38 51 65 77 76 93 113 86
208 -4 63 -2 79 9 84 9 3 13 12 10 20 -4 9 -1 13 6 10 7 -2 12 -11 12 -20 -1
-9 2 -14 7 -11 12 7 46 -20 104 -86 27 -30 58 -57 69 -61 14 -3 21 -14 22 -30
0 -13 6 -37 12 -52 7 -15 15 -39 18 -52 8 -31 12 -31 54 0 39 29 61 19 36 -16
-39 -57 -210 -239 -267 -284 -111 -90 -129 -107 -129 -121 0 -20 14 -17 35 6
10 11 23 20 29 20 6 0 35 17 63 38 28 20 75 53 103 72 28 19 77 53 108 76 91
65 96 64 68 -9 -42 -112 -54 -136 -101 -201 -50 -71 -117 -136 -140 -136 -8 0
-26 12 -40 27 -22 24 -25 25 -25 9 0 -16 -4 -15 -26 10 -15 16 -23 23 -19 15
6 -9 4 -12 -3 -7 -7 4 -12 17 -12 28 0 12 -3 18 -7 15 -3 -4 -12 -2 -19 4 -10
9 -15 7 -20 -5 -3 -9 -13 -16 -21 -16 -10 0 -14 -9 -12 -27 2 -16 -2 -38 -9
-49 -6 -12 -8 -24 -5 -28 3 -3 1 -6 -5 -6 -7 0 -10 -14 -8 -37 4 -45 -14 -95
-67 -183 -45 -76 -98 -126 -176 -166 -31 -16 -60 -35 -66 -42 -6 -8 -18 -13
-26 -11 -27 5 -67 -13 -95 -42 -15 -16 -33 -29 -39 -29 -19 0 -60 41 -57 56 4
17 -10 18 -26 2 -8 -8 -12 -8 -12 -1 0 6 6 16 14 22 33 28 19 101 -19 101 -20
0 -26 27 -19 85 9 72 -7 107 -67 150 -26 19 -56 46 -65 60 -9 14 -21 25 -27
25 -6 0 -45 33 -86 73 -107 101 -134 123 -162 130 -13 3 -55 14 -94 25 -38 11
-101 25 -140 32 -178 32 -312 79 -384 136 -41 31 -51 35 -85 29 -55 -8 -81
-46 -93 -130 -6 -50 -15 -60 -41 -46 -11 6 -32 11 -46 11 -14 0 -26 5 -26 10
0 6 -4 10 -10 10 -5 0 -30 16 -56 35 -25 19 -52 35 -60 35 -23 0 -64 103 -75
189 -36 279 -45 378 -38 411 5 19 9 51 9 71 0 26 10 49 35 82 19 25 35 49 35
52 0 10 42 45 68 55 13 6 20 15 16 21 -4 8 -9 8 -17 0 -17 -17 -31 -13 -17 4
7 8 16 15 21 15 5 0 27 11 49 25 21 14 46 22 54 19 29 -11 43 32 41 127 -1 57
3 96 11 106 9 14 8 22 -9 45 -20 27 -20 27 -1 45 11 10 14 14 7 10 -17 -12
-33 0 -26 20 5 12 2 15 -10 10 -8 -3 -17 -2 -19 4 -2 5 -28 1 -63 -10 -33 -11
-69 -20 -80 -22 -28 -3 -55 10 -55 27 0 8 -9 23 -20 34 -23 23 -43 97 -28 106
5 3 8 20 7 38 -2 17 0 36 3 41 9 16 22 79 19 93 -3 16 25 78 39 87 8 5 25 -8
57 -48 6 -8 10 -16 9 -18 -2 -2 2 -38 9 -79 11 -63 13 -68 15 -35 1 22 1 72 1
110 -3 127 76 467 140 599 10 21 16 43 13 47 -3 5 -1 9 4 9 6 0 13 11 16 25 3
13 17 41 31 61 14 20 25 41 25 45 0 12 11 11 49 -2z m-1088 -66 c-7 -32 -26
-101 -41 -153 -34 -114 -53 -206 -46 -219 8 -12 -15 -121 -25 -121 -23 0 7
160 81 438 33 124 54 161 31 55z m2871 7 c-14 -26 -15 -32 -3 -39 8 -5 20 -7
28 -4 59 23 -95 -186 -243 -327 -117 -112 -221 -193 -239 -186 -13 5 -11 11
12 36 15 17 33 28 39 26 8 -3 11 0 8 8 -3 7 25 44 61 82 127 133 255 294 308
387 15 26 32 47 37 47 5 0 1 -14 -8 -30z m549 -43 c-10 -9 -11 -8 -5 6 3 10 9
15 12 12 3 -3 0 -11 -7 -18z m-3050 -153 c-59 -190 -88 -293 -100 -360 -34
-194 -54 -296 -66 -349 -8 -33 -19 -98 -25 -145 -7 -47 -13 -86 -15 -88 -2 -2
-6 15 -10 37 -9 51 10 239 41 411 23 125 118 507 144 576 13 34 51 67 63 55 5
-5 -9 -67 -32 -137z m1064 56 c6 -10 -44 -35 -53 -26 -8 8 19 36 34 36 7 0 16
-5 19 -10z m1429 -122 c-3 -13 -18 -42 -31 -66 -14 -24 -23 -45 -20 -48 3 -3
13 10 22 30 10 20 24 36 31 36 8 0 14 3 14 8 0 4 9 18 20 32 l20 25 -1 -40
c-2 -111 2 -188 11 -205 14 -26 53 -32 90 -14 25 13 34 14 40 4 11 -18 30 -3
24 18 -5 13 -4 14 4 3 8 -11 16 -7 41 20 28 29 31 30 28 10 -2 -13 -9 -26 -16
-30 -7 -5 -13 -12 -14 -17 -1 -11 -3 -14 -77 -99 -73 -84 -91 -111 -65 -101
15 5 16 4 5 -9 -10 -12 -10 -15 3 -15 9 0 22 -9 30 -20 13 -19 19 -20 86 -9
77 11 85 10 76 -12 -17 -43 -448 -299 -504 -299 -13 0 -20 9 -23 30 -3 16 -1
33 3 37 4 5 10 19 14 33 8 25 7 25 -13 7 -11 -11 -26 -16 -32 -12 -6 3 -9 3
-8 -2 2 -4 -1 -9 -6 -10 -5 -1 -12 -7 -16 -13 -4 -7 -15 -10 -25 -8 -12 2 1
18 49 57 37 29 65 56 62 58 -3 3 -38 -8 -78 -25 -40 -16 -91 -33 -113 -36
l-40 -7 37 20 c21 12 46 22 55 22 10 1 5 5 -12 9 l-30 7 30 8 c32 9 45 21 45
44 0 10 -3 11 -13 2 -8 -6 -17 -8 -20 -4 -4 3 -24 9 -44 12 -28 5 -38 12 -37
24 2 20 -17 22 -34 5 -6 -6 -14 -10 -16 -7 -3 2 25 36 60 74 100 108 211 248
298 378 75 111 106 144 90 95z m-944 -54 c0 -8 -4 -14 -10 -14 -5 0 -10 9 -10
21 0 11 5 17 10 14 6 -3 10 -13 10 -21z m-1900 -218 c-12 -12 -13 28 -2 140
l7 79 3 -104 c2 -63 -1 -108 -8 -115z m2211 101 c-10 -9 -11 -8 -5 6 3 10 9
15 12 12 3 -3 0 -11 -7 -18z m-2341 -91 c0 -3 -4 -8 -10 -11 -5 -3 -10 -1 -10
4 0 6 5 11 10 11 6 0 10 -2 10 -4z m440 -116 c-7 -30 -12 -91 -12 -135 1 -61
-5 -99 -25 -160 -15 -44 -30 -84 -34 -90 -14 -20 -32 -213 -30 -318 1 -35 -2
-56 -8 -53 -5 3 -7 14 -4 24 2 9 0 36 -5 59 -7 28 -6 45 1 52 8 8 8 11 0 11
-8 0 -11 29 -8 93 4 136 25 263 75 448 6 20 10 45 10 55 0 11 9 36 20 57 11
20 21 45 21 54 1 10 4 5 6 -12 3 -16 -1 -55 -7 -85z m-463 38 c-3 -7 -5 -2 -5
12 0 14 2 19 5 13 2 -7 2 -19 0 -25z m160 -115 c-2 -16 -4 -3 -4 27 0 30 2 43
4 28 2 -16 2 -40 0 -55z m21 -158 l0 -90 -15 85 c-14 86 -10 157 7 115 5 -11
8 -60 8 -110z m2055 69 c-4 -12 -8 -12 -18 3 -16 22 -8 38 10 23 8 -6 11 -18
8 -26z m1180 -69 c-4 -11 2 -15 21 -15 40 0 32 -23 -26 -82 -48 -48 -227 -166
-318 -210 -19 -9 -50 -24 -68 -33 -32 -16 -33 -16 -20 5 7 11 16 20 20 20 4 0
6 9 5 21 -1 16 -6 19 -24 14 -24 -6 -33 10 -10 18 6 2 9 8 5 12 -4 4 -14 2
-23 -5 -59 -49 34 63 197 238 32 33 58 42 58 18 0 -7 7 -19 16 -27 13 -10 17
-10 24 1 6 9 26 15 54 15 29 0 51 6 62 17 20 19 36 15 27 -7z m158 -8 c-6 -8
-8 -17 -4 -21 8 -7 -29 -36 -39 -30 -4 2 -9 0 -13 -6 -3 -5 -10 -10 -15 -10
-4 0 8 18 29 40 20 22 40 40 45 40 5 0 3 -6 -3 -13z m335 -83 c-60 -130 -231
-391 -305 -464 l-25 -25 17 25 c9 14 30 50 46 80 75 144 102 193 161 290 34
58 67 106 71 108 5 2 18 20 31 40 33 54 36 16 4 -54z m-403 -37 c-124 -104
-184 -149 -301 -220 -92 -56 -112 -65 -112 -49 0 15 25 39 120 114 52 41 102
81 110 90 9 8 30 23 48 32 17 9 48 30 67 47 25 23 42 30 60 27 17 -4 25 -1 25
9 0 8 3 12 8 9 4 -2 18 2 32 10 52 28 38 12 -57 -69z m687 69 c0 -3 -4 -8 -10
-11 -5 -3 -10 -1 -10 4 0 6 5 11 10 11 6 0 10 -2 10 -4z m-1660 -70 c0 -9 -30
-14 -35 -6 -4 6 3 10 14 10 12 0 21 -2 21 -4z m-2323 -108 c-3 -8 -6 -5 -6 6
-1 11 2 17 5 13 3 -3 4 -12 1 -19z m3883 11 c0 -4 -4 -11 -10 -14 -15 -9 -12
-41 4 -58 15 -15 15 -31 -3 -157 -32 -221 -40 -264 -96 -475 -15 -55 -31 -118
-37 -140 -6 -22 -21 -71 -35 -110 -14 -38 -33 -95 -43 -126 -34 -104 -165
-409 -175 -409 -2 0 5 26 16 58 58 165 163 535 157 553 -2 7 -17 -6 -34 -30
-68 -99 -205 -280 -244 -321 l-41 -45 37 60 c46 74 105 206 155 349 38 110 42
139 13 98 -42 -60 -234 -265 -338 -360 -37 -34 -51 -42 -69 -36 -20 6 -21 5
-7 -11 14 -17 13 -18 -5 -11 -11 4 -16 4 -12 0 12 -12 -14 -34 -42 -34 l-26 1
26 23 c15 13 32 33 39 45 9 18 14 20 26 10 11 -9 14 -7 14 14 0 14 4 28 9 31
10 7 158 212 231 321 29 44 56 82 59 85 11 9 29 46 64 131 19 46 55 127 80
179 24 52 56 127 71 165 41 108 45 115 56 116 11 2 25 5 38 9 4 1 14 3 22 4 8
0 21 15 29 31 7 17 20 37 27 46 15 16 44 22 44 8z m-4196 -123 c-3 -15 -8 -25
-11 -23 -2 3 -1 17 3 31 3 15 8 25 11 23 2 -3 1 -17 -3 -31z m56 -94 c5 -53
13 -98 19 -100 6 -2 11 -15 11 -30 0 -43 -43 -242 -52 -242 -14 0 -28 49 -28
101 0 37 -4 49 -15 49 -20 0 -19 24 6 150 19 97 24 132 28 185 2 19 2 19 12 2
6 -11 15 -62 19 -115z m327 94 c-1 -19 -6 -31 -10 -27 -7 7 0 61 8 61 2 0 3
-15 2 -34z m3163 -26 c0 -5 11 -12 25 -16 14 -3 25 -12 25 -19 0 -7 7 -16 16
-19 9 -4 14 -9 11 -12 -3 -3 -43 6 -88 21 -51 17 -77 30 -69 35 9 6 8 9 -6 13
-10 2 5 5 34 6 28 0 52 -3 52 -9z m-174 -178 c10 -14 14 -14 28 -3 24 20 72
-18 80 -65 5 -25 16 -41 37 -52 31 -18 36 -31 17 -50 -8 -8 -9 -15 -2 -22 8
-8 15 -6 24 5 7 8 16 15 21 15 12 0 -6 -45 -20 -46 -6 -1 -15 -2 -21 -3 -5 0
-10 -6 -10 -12 0 -12 46 -8 81 6 22 8 31 -17 18 -54 -13 -36 -51 -47 -132 -37
l-52 6 60 -30 c33 -16 71 -30 85 -31 17 -1 20 -3 7 -6 -9 -2 -15 -9 -12 -14 4
-5 1 -9 -5 -9 -7 0 -10 -7 -6 -15 3 -8 1 -15 -4 -15 -6 0 -10 4 -10 9 0 17
-62 25 -71 10 -6 -9 -9 -10 -9 -2 0 6 -33 30 -72 53 -56 32 -77 39 -89 31 -22
-13 -31 -3 -19 19 7 13 4 24 -13 42 -13 14 -29 40 -37 59 -7 19 -24 53 -37 76
-24 42 -23 69 2 59 8 -3 15 9 19 35 5 33 12 43 39 54 37 17 86 10 103 -13z
m174 -16 c0 -8 -4 -17 -9 -21 -12 -7 -24 12 -16 25 9 15 25 12 25 -4z m-370 0
c0 -11 -19 -15 -25 -6 -3 5 1 10 9 10 9 0 16 -2 16 -4z m-2713 -28 c-3 -8 -6
-5 -6 6 -1 11 2 17 5 13 3 -3 4 -12 1 -19z m2664 -45 c25 -51 30 -133 9 -158
-7 -8 -9 -35 -5 -67 4 -37 2 -47 -4 -33 -5 11 -10 35 -10 53 -1 18 -5 41 -10
50 -14 27 -26 202 -13 202 6 0 21 -21 33 -47z m-356 -643 c-3 -5 -10 -10 -16
-10 -5 0 -9 5 -9 10 0 6 7 10 16 10 8 0 12 -4 9 -10z m1095 -25 c0 -10 -66
-115 -110 -175 -60 -80 -396 -398 -408 -385 -2 2 74 82 170 177 102 102 206
217 253 280 70 94 95 121 95 103z m-1047 -95 c-10 -11 -22 -20 -27 -20 -5 0
-1 9 9 20 10 11 22 20 26 20 5 0 1 -9 -8 -20z m966 -194 c-11 -67 -49 -186
-60 -186 -5 0 -9 5 -9 10 0 16 -57 12 -64 -5 -3 -8 -13 -15 -21 -15 -9 0 -13
-4 -10 -10 3 -5 2 -10 -3 -10 -6 0 -13 -12 -16 -26 -5 -17 -11 -23 -17 -17 -5
5 3 45 24 105 29 89 37 102 102 168 77 80 88 78 74 -14z m-1771 -277 c42 -23
88 -47 102 -55 41 -21 69 -53 75 -82 4 -15 10 -35 16 -44 15 -29 11 -40 -13
-32 -13 3 -30 12 -38 20 -8 7 -28 15 -43 18 -32 6 -78 42 -119 94 -16 19 -43
44 -61 55 -38 23 -33 17 -41 45 -6 19 -4 22 19 22 15 0 61 -19 103 -41z m-695
-231 c21 1 52 -5 67 -13 16 -8 41 -15 55 -15 33 0 205 -91 254 -134 112 -98
116 -110 75 -191 l-25 -51 -102 -31 c-151 -47 -329 -87 -357 -81 -21 5 -50 31
-50 45 0 7 -5 13 -10 13 -6 0 -15 11 -22 25 -6 13 -14 22 -18 20 -13 -8 -28
19 -43 80 -21 81 -25 157 -8 163 24 8 32 51 15 77 -14 21 -14 25 -2 25 8 0 20
16 28 34 14 36 43 49 85 37 11 -3 37 -5 58 -3z m2197 -43 c0 -8 -4 -15 -10
-15 -5 0 -7 7 -4 15 4 8 8 15 10 15 2 0 4 -7 4 -15z m265 -34 c-3 -6 -11 -11
-16 -11 -5 0 -4 6 3 14 14 16 24 13 13 -3z m-34 -58 c-12 -20 -14 -14 -5 12 4
9 9 14 11 11 3 -2 0 -13 -6 -23z m-698 -148 c-3 -9 -8 -14 -10 -11 -3 3 -2 9
2 15 9 16 15 13 8 -4z m-78 -176 c-32 -63 -64 -121 -72 -130 -7 -9 -29 -45
-48 -80 -63 -116 -36 -47 46 121 72 148 115 217 126 206 2 -2 -21 -55 -52
-117z m-3155 -185 c0 -8 -7 -14 -15 -14 -8 0 -15 9 -15 20 0 13 5 18 15 14 8
-4 15 -12 15 -20z m3161 -107 c-10 -9 -11 -8 -5 6 3 10 9 15 12 12 3 -3 0 -11
-7 -18z"/>
<path d="M1525 3039 c-4 -17 -3 -35 3 -41 6 -6 11 4 14 31 4 48 -7 55 -17 10z"/>
<path d="M2420 3040 c0 -20 5 -30 15 -30 8 0 15 5 15 10 0 6 5 10 10 10 6 0
10 -6 10 -14 0 -8 14 -19 30 -25 26 -9 30 -8 30 8 0 11 -18 28 -49 44 -27 15
-51 27 -55 27 -3 0 -6 -13 -6 -30z"/>
<path d="M1501 2864 c0 -11 3 -14 6 -6 3 7 2 16 -1 19 -3 4 -6 -2 -5 -13z"/>
<path d="M3130 1620 c0 -5 5 -10 10 -10 6 0 10 5 10 10 0 6 -4 10 -10 10 -5 0
-10 -4 -10 -10z"/>
<path d="M2998 573 c7 -3 16 -2 19 1 4 3 -2 6 -13 5 -11 0 -14 -3 -6 -6z"/>
<path d="M3720 3229 c0 -5 5 -7 10 -4 6 3 10 8 10 11 0 2 -4 4 -10 4 -5 0 -10
-5 -10 -11z"/>
<path d="M3621 3158 c-50 -41 -69 -68 -33 -49 29 15 108 90 96 91 -6 0 -34
-19 -63 -42z"/>
<path d="M911 2643 c0 -6 -4 -20 -7 -30 -5 -14 -4 -15 5 -7 7 7 11 20 8 30 -3
11 -5 14 -6 7z"/>
<path d="M902 2570 c0 -14 2 -19 5 -12 2 6 2 18 0 25 -3 6 -5 1 -5 -13z"/>
<path d="M3565 2670 c-3 -5 -2 -10 4 -10 5 0 13 5 16 10 3 6 2 10 -4 10 -5 0
-13 -4 -16 -10z"/>
<path d="M4457 2102 c-21 -23 -38 -65 -107 -262 -32 -91 -61 -174 -66 -185 -5
-14 -4 -17 4 -10 19 17 200 475 188 475 -1 0 -10 -8 -19 -18z"/>
<path d="M1735 4720 c-9 -16 -13 -30 -11 -30 3 0 14 14 26 30 12 17 17 30 11
30 -6 0 -17 -13 -26 -30z"/>
<path d="M3124 4693 l-59 -56 47 26 c25 14 65 39 89 56 l42 31 -30 0 c-23 0
-44 -14 -89 -57z"/>
<path d="M3265 4716 c7 -17 10 -37 8 -43 -3 -7 4 -25 14 -40 23 -33 20 -121
-3 -130 -8 -3 -14 -9 -14 -13 0 -11 60 -18 66 -8 3 4 21 8 40 8 19 0 34 5 34
10 0 6 10 10 23 10 13 0 32 7 43 15 10 8 30 15 42 15 15 0 26 7 29 19 3 11 32
37 64 58 48 30 56 39 42 44 -10 4 -28 5 -40 2 -42 -9 -69 5 -89 47 l-19 40
-127 -1 -126 -1 13 -32z"/>
<path d="M4856 4735 c4 -9 1 -67 -6 -130 -10 -88 -10 -118 -1 -129 8 -9 10
-28 5 -51 -5 -26 -9 -33 -15 -23 -6 9 -9 3 -9 -18 0 -16 -11 -54 -26 -83 -14
-29 -24 -60 -22 -69 2 -8 14 11 27 44 14 32 29 62 35 66 6 4 7 8 3 8 -5 0 -1
10 7 22 9 12 16 43 16 68 0 25 9 103 20 174 11 71 20 130 20 132 0 2 -13 4
-30 4 -22 0 -28 -4 -24 -15z"/>
<path d="M4930 4712 c0 -38 25 -138 39 -157 39 -52 86 -425 75 -585 -4 -55 -2
-71 5 -59 13 20 18 340 8 469 -6 84 -6 85 8 41 8 -25 19 -47 24 -50 5 -3 11
-15 14 -26 4 -11 4 13 1 54 -3 40 -9 81 -14 90 -4 9 -18 55 -29 104 -12 48
-27 103 -35 122 -14 32 -19 35 -55 35 -41 0 -41 0 -41 -38z"/>
<path d="M5096 4743 c5 -5 12 -12 16 -18 4 -6 8 -2 8 8 0 9 -7 17 -17 17 -9 0
-12 -3 -7 -7z"/>
<path d="M3694 4684 c-19 -15 -19 -15 1 -6 11 5 27 12 35 15 13 5 13 6 -1 6
-8 1 -24 -6 -35 -15z"/>
<path d="M1676 4605 c-20 -36 -36 -68 -36 -70 0 -3 -11 -28 -24 -55 -13 -28
-21 -50 -17 -50 6 0 85 156 113 223 16 38 -2 14 -36 -48z"/>
<path d="M3540 4530 c0 -5 -5 -10 -12 -10 -6 0 -58 -22 -114 -50 -56 -27 -107
-50 -113 -50 -16 0 -23 -37 -12 -59 7 -12 24 -21 43 -23 24 -2 40 -14 64 -45
18 -23 35 -39 38 -36 3 4 6 -9 7 -28 l0 -34 16 32 c13 26 25 34 57 41 l41 8 6
74 c3 41 2 76 -2 78 -4 2 1 19 12 38 23 41 24 58 5 51 -10 -4 -13 -1 -9 9 3 8
-1 14 -11 14 -9 0 -16 -4 -16 -10z"/>
<path d="M1582 4400 c-7 -11 -12 -28 -12 -37 1 -10 7 -3 16 16 16 38 14 50 -4
21z"/>
<path d="M2120 4365 c-16 -9 -28 -11 -36 -4 -8 6 -29 -15 -73 -75 -33 -46 -61
-88 -61 -93 0 -5 -16 -32 -35 -59 -41 -57 -46 -83 -8 -39 14 17 57 64 94 105
63 70 155 181 147 179 -1 -1 -14 -7 -28 -14z"/>
<path d="M1546 4323 c-6 -14 -5 -15 5 -6 7 7 10 15 7 18 -3 3 -9 -2 -12 -12z"/>
<path d="M3650 4294 c0 -14 3 -14 15 -4 8 7 15 14 15 16 0 2 -7 4 -15 4 -8 0
-15 -7 -15 -16z"/>
<path d="M3690 4300 c0 -5 5 -10 11 -10 5 0 7 5 4 10 -3 6 -8 10 -11 10 -2 0
-4 -4 -4 -10z"/>
<path d="M2333 4285 c-15 -17 -17 -39 -3 -30 14 8 32 45 23 45 -4 -1 -14 -7
-20 -15z"/>
<path d="M3605 4270 c-3 -5 1 -10 9 -10 9 0 16 5 16 10 0 6 -4 10 -9 10 -6 0
-13 -4 -16 -10z"/>
<path d="M2485 4193 c-54 -29 -61 -31 -151 -48 -94 -17 -184 -41 -222 -58 -18
-9 -20 -12 -9 -19 15 -8 173 27 192 42 9 7 102 36 224 70 32 9 41 14 30 21
-19 12 -29 11 -64 -8z"/>
<path d="M3416 4193 c-6 -14 -5 -15 5 -6 7 7 10 15 7 18 -3 3 -9 -2 -12 -12z"/>
<path d="M1898 3993 c7 -3 16 -2 19 1 4 3 -2 6 -13 5 -11 0 -14 -3 -6 -6z"/>
<path d="M3448 3803 c7 -3 16 -2 19 1 4 3 -2 6 -13 5 -11 0 -14 -3 -6 -6z"/>
<path d="M3062 3480 c-12 -12 -22 -18 -22 -14 0 4 -9 -1 -19 -10 -12 -11 -17
-25 -14 -34 5 -12 2 -14 -11 -9 -10 4 -15 3 -11 -3 9 -14 18 -13 41 6 10 8 14
13 7 10 -18 -10 -25 10 -8 24 10 8 15 9 15 2 0 -6 7 -9 15 -5 9 3 13 8 10 11
-3 3 2 14 12 24 22 24 12 23 -15 -2z"/>
<path d="M3090 3475 c-7 -9 -8 -15 -2 -15 5 0 12 7 16 15 3 8 4 15 2 15 -2 0
-9 -7 -16 -15z"/>
<path d="M3927 3362 c-10 -10 -17 -22 -17 -27 0 -5 9 1 21 14 12 12 19 24 17
27 -3 2 -12 -4 -21 -14z"/>
<path d="M5071 2428 c-24 -40 -55 -88 -68 -105 -13 -18 -19 -33 -14 -33 6 0
21 15 33 34 13 18 40 58 61 89 21 30 37 63 35 72 -2 10 -20 -12 -47 -57z"/>
<path d="M5077 2233 c-40 -126 -45 -167 -73 -533 -8 -118 -22 -253 -29 -300
-11 -69 -13 -74 -9 -25 22 298 32 518 25 537 -7 20 -11 13 -29 -47 -12 -38
-41 -151 -66 -250 -54 -215 -74 -283 -76 -270 -4 17 -18 -48 -19 -89 -1 -29
-4 -37 -16 -32 -10 3 -15 -1 -15 -11 0 -9 -12 -30 -27 -45 -19 -20 -22 -28
-11 -28 29 0 49 -33 39 -67 -5 -17 -7 -34 -5 -36 4 -4 -5 -125 -33 -411 -4
-47 -3 -67 4 -63 6 4 14 19 18 34 3 15 10 30 14 33 4 3 22 47 41 98 19 51 36
89 37 85 2 -5 -15 -60 -38 -123 -87 -244 -126 -468 -111 -632 l5 -58 208 0
209 0 0 1175 c0 646 -1 1175 -3 1175 -2 0 -20 -53 -40 -117z m-120 -970 c-3
-10 -5 -2 -5 17 0 19 2 27 5 18 2 -10 2 -26 0 -35z m-10 -55 c-3 -8 -6 -5 -6
6 -1 11 2 17 5 13 3 -3 4 -12 1 -19z"/>
<path d="M4960 2265 c-7 -9 -8 -15 -2 -15 5 0 12 7 16 15 3 8 4 15 2 15 -2 0
-9 -7 -16 -15z"/>
<path d="M4920 2210 c-6 -11 -8 -20 -6 -20 3 0 10 9 16 20 6 11 8 20 6 20 -3
0 -10 -9 -16 -20z"/>
<path d="M4852 1530 c0 -14 2 -19 5 -12 2 6 2 18 0 25 -3 6 -5 1 -5 -13z"/>
<path d="M4680 1131 c0 -5 5 -13 10 -16 6 -3 10 -2 10 4 0 5 -4 13 -10 16 -5
3 -10 2 -10 -4z"/>
<path d="M4133 298 c-39 -51 -113 -138 -164 -193 l-92 -100 148 -3 c82 -1 152
1 156 5 14 15 61 168 64 208 1 22 12 68 23 103 11 34 16 62 11 62 -5 0 -9 -4
-9 -9 0 -12 -67 -128 -90 -156 -9 -11 -22 -33 -30 -48 -8 -16 -16 -24 -18 -18
-2 6 -10 11 -17 11 -21 0 -26 28 -6 42 9 7 33 42 52 78 19 36 38 68 42 71 5 4
7 14 5 23 -2 11 -27 -14 -75 -76z"/>
<path d="M3850 234 c-47 -59 -90 -112 -95 -118 -6 -6 -30 -35 -53 -63 l-44
-53 69 0 69 0 37 73 c20 41 37 79 37 86 0 7 9 29 19 49 32 60 53 112 49 123
-2 5 -41 -39 -88 -97z"/>
<path d="M4545 243 c-4 -17 -12 -30 -19 -27 -6 2 -19 -13 -29 -34 -9 -20 -35
-68 -57 -106 -22 -38 -40 -71 -40 -73 0 -1 43 -3 95 -3 l94 0 6 32 c9 50 2
198 -10 195 -5 -2 -15 8 -22 22 l-11 26 -7 -32z"/>
<path d="M4130 189 c0 -5 5 -7 10 -4 6 3 10 8 10 11 0 2 -4 4 -10 4 -5 0 -10
-5 -10 -11z"/>
<path d="M4372 69 c-9 -14 -20 -19 -33 -16 -10 3 -19 0 -19 -6 0 -6 -7 -19
-17 -29 -15 -17 -14 -18 28 -18 41 0 46 3 56 31 16 40 4 68 -15 38z"/>
<path d="M4675 10 c-3 -5 -1 -10 4 -10 6 0 11 5 11 10 0 6 -2 10 -4 10 -3 0
-8 -4 -11 -10z"/>
</g>
</svg>
